<svg width="20" height="22" viewBox="0 0 20 22" fill="none" xmlns="http://www.w3.org/2000/svg">
<path d="M14.8594 17.7188C14.8906 17.7812 14.9297 17.8281 14.9766 17.8594C15.0391 17.8906 15.0781 17.9453 15.0938 18.0234C15.0625 18.0859 15.0391 18.1406 15.0234 18.1875C15.0234 18.25 14.9922 18.2969 14.9297 18.3281C14.7734 18.2969 14.6172 18.2656 14.4609 18.2344C14.3203 18.2031 14.1641 18.1719 13.9922 18.1406C13.8203 18.1406 13.6875 18.1719 13.5938 18.2344C13.5 18.3125 13.3672 18.3516 13.1953 18.3516C13.0703 18.3359 12.9766 18.2891 12.9141 18.2109C12.8359 18.2266 12.7578 18.2422 12.6797 18.2578C12.6172 18.2734 12.5625 18.25 12.5156 18.1875C12.2344 18.2344 12.0469 18.2891 11.9531 18.3516C11.875 18.4141 11.7734 18.4531 11.6484 18.4688C11.5859 18.4219 11.5312 18.3438 11.4844 18.2344C11.4375 18.2344 11.3828 18.2344 11.3203 18.2344C11.2734 18.2344 11.2344 18.2266 11.2031 18.2109C11.1094 18.2578 10.9922 18.3047 10.8516 18.3516C10.7109 18.3984 10.5781 18.375 10.4531 18.2812C10.3594 18.3125 10.2422 18.3281 10.1016 18.3281C9.97656 18.3438 9.85938 18.3672 9.75 18.3984C9.70312 18.4297 9.65625 18.4609 9.60938 18.4922C9.57812 18.5234 9.51562 18.5312 9.42188 18.5156C9.42188 18.3438 9.45312 18.2656 9.51562 18.2812C9.59375 18.3125 9.64844 18.2969 9.67969 18.2344C9.75781 18.1094 9.82812 18.0391 9.89062 18.0234C9.96875 18.0234 10.0469 18.0156 10.125 18C10.2344 17.9688 10.3281 17.9219 10.4062 17.8594C10.4844 17.7969 10.6094 17.7734 10.7812 17.7891C10.8594 17.7422 10.9141 17.6875 10.9453 17.625C10.9922 17.5625 11.0469 17.5078 11.1094 17.4609C11.1094 17.3672 11.1328 17.2969 11.1797 17.25C11.2266 17.2031 11.25 17.125 11.25 17.0156C11.3281 16.9062 11.3594 16.8438 11.3438 16.8281C11.3281 16.8125 11.3203 16.7891 11.3203 16.7578C11.3359 16.6016 11.3203 16.4766 11.2734 16.3828C11.2266 16.2734 11.2266 16.1484 11.2734 16.0078C11.2266 15.8828 11.2188 15.7656 11.25 15.6562C11.1719 15.4688 11.1406 15.3672 11.1562 15.3516C11.1875 15.3203 11.1953 15.2891 11.1797 15.2578C11.1484 15.1172 11.1016 14.9844 11.0391 14.8594C10.9922 14.7344 10.9688 14.5859 10.9688 14.4141C10.9062 14.3203 10.8594 14.2109 10.8281 14.0859C10.7969 13.9609 10.7656 13.8359 10.7344 13.7109C10.7969 13.5078 10.7969 13.3828 10.7344 13.3359C10.6875 13.2891 10.6406 13.2422 10.5938 13.1953C10.4375 13.2422 10.3281 13.2734 10.2656 13.2891C10.2188 13.3047 10.1797 13.3203 10.1484 13.3359C10.0234 13.3359 9.90625 13.3281 9.79688 13.3125C9.70312 13.2812 9.59375 13.2656 9.46875 13.2656C9.39062 13.2969 9.29688 13.3281 9.1875 13.3594C9.09375 13.375 9.00781 13.3516 8.92969 13.2891C8.75781 13.2734 8.65625 13.2578 8.625 13.2422C8.60938 13.2109 8.58594 13.1797 8.55469 13.1484C8.46094 13.1641 8.375 13.1953 8.29688 13.2422C8.23438 13.2734 8.16406 13.2812 8.08594 13.2656C8.05469 13.2344 8.02344 13.2031 7.99219 13.1719C7.97656 13.125 7.94531 13.0938 7.89844 13.0781C7.77344 13.0781 7.63281 13.1172 7.47656 13.1953C7.44531 13.4297 7.41406 13.5781 7.38281 13.6406C7.36719 13.7031 7.33594 13.7656 7.28906 13.8281C7.25781 13.8906 7.22656 13.9531 7.19531 14.0156C7.17969 14.0781 7.19531 14.1484 7.24219 14.2266C7.21094 14.3203 7.17188 14.4062 7.125 14.4844C7.09375 14.5469 7.0625 14.6172 7.03125 14.6953C7.03125 14.7422 7.03125 14.7891 7.03125 14.8359C7.04688 14.8672 7.04688 14.9062 7.03125 14.9531C7.01562 15.0625 6.97656 15.1562 6.91406 15.2344C6.86719 15.3125 6.85156 15.4297 6.86719 15.5859C6.82031 15.6641 6.78125 15.7422 6.75 15.8203C6.73438 15.8984 6.70312 15.9766 6.65625 16.0547C6.6875 16.2422 6.6875 16.3516 6.65625 16.3828C6.64062 16.4141 6.625 16.4609 6.60938 16.5234C6.60938 16.5547 6.60938 16.5938 6.60938 16.6406C6.625 16.6875 6.625 16.7344 6.60938 16.7812C6.57812 16.8906 6.53906 16.9844 6.49219 17.0625C6.46094 17.1406 6.4375 17.2422 6.42188 17.3672C6.35938 17.5703 6.30469 17.6953 6.25781 17.7422C6.25781 17.9141 6.25 18.0469 6.23438 18.1406C6.21875 18.2344 6.14844 18.2812 6.02344 18.2812C5.86719 18.4062 5.77344 18.5 5.74219 18.5625C5.72656 18.6406 5.67969 18.6875 5.60156 18.7031C5.52344 18.8594 5.44531 18.9609 5.36719 19.0078C5.30469 19.0547 5.21094 19.0859 5.08594 19.1016C5.02344 19.1328 4.96875 19.1719 4.92188 19.2188C4.875 19.2656 4.80469 19.2812 4.71094 19.2656C4.67969 19.2969 4.64062 19.3359 4.59375 19.3828C4.5625 19.4297 4.5 19.4453 4.40625 19.4297C4.21875 19.3828 4.13281 19.3828 4.14844 19.4297C4.16406 19.4766 4.15625 19.5312 4.125 19.5938C4.07812 19.7969 4 19.9062 3.89062 19.9219C3.78125 19.9375 3.67188 19.9375 3.5625 19.9219C3.46875 19.9844 3.375 20.0391 3.28125 20.0859C3.20312 20.1484 3.14062 20.2188 3.09375 20.2969C3.01562 20.2969 2.96094 20.3203 2.92969 20.3672C2.88281 20.4297 2.82031 20.4688 2.74219 20.4844C2.60156 20.625 2.50781 20.7266 2.46094 20.7891C2.41406 20.8516 2.35156 20.8984 2.27344 20.9297C2.00781 21.0547 1.79688 21.2109 1.64062 21.3984C1.46875 21.5859 1.29688 21.7578 1.125 21.9141C1.04688 21.8828 0.976562 21.8281 0.914062 21.75C0.835938 21.6875 0.820312 21.5938 0.867188 21.4688C0.914062 21.4219 0.96875 21.375 1.03125 21.3281C1.09375 21.2969 1.14062 21.2422 1.17188 21.1641C1.29688 21.0859 1.39062 21.0156 1.45312 20.9531C1.51562 20.9062 1.54688 20.8281 1.54688 20.7188C1.71875 20.4844 1.88281 20.2109 2.03906 19.8984C2.10156 19.8672 2.15625 19.8281 2.20312 19.7812C2.23438 19.7344 2.26562 19.6875 2.29688 19.6406C2.3125 19.5312 2.35156 19.4453 2.41406 19.3828C2.46094 19.3359 2.5 19.2656 2.53125 19.1719C2.60938 19.125 2.67188 19.0625 2.71875 18.9844C2.75 18.8906 2.76562 18.7969 2.76562 18.7031C2.79688 18.625 2.83594 18.5391 2.88281 18.4453C2.91406 18.3672 2.94531 18.2891 2.97656 18.2109C3.19531 17.9766 3.32812 17.7422 3.375 17.5078C3.4375 17.2734 3.51562 17.0625 3.60938 16.875C3.64062 16.7188 3.67188 16.6406 3.70312 16.6406C3.75 16.6406 3.77344 16.625 3.77344 16.5938C3.74219 16.4375 3.72656 16.3438 3.72656 16.3125C3.74219 16.2812 3.76562 16.25 3.79688 16.2188C3.79688 16.0312 3.82031 15.8828 3.86719 15.7734C3.92969 15.6484 3.99219 15.5234 4.05469 15.3984C4.02344 15.3359 4.01562 15.2891 4.03125 15.2578C4.0625 15.2266 4.08594 15.1797 4.10156 15.1172C4.07031 14.9297 4.08594 14.7656 4.14844 14.625C4.21094 14.4688 4.25781 14.3125 4.28906 14.1562C4.32031 14.1094 4.34375 14.0703 4.35938 14.0391C4.39062 13.9922 4.42188 13.9453 4.45312 13.8984C4.5 13.8047 4.53125 13.7031 4.54688 13.5938C4.5625 13.4688 4.59375 13.3594 4.64062 13.2656C4.64062 13.1875 4.64844 13.1172 4.66406 13.0547C4.67969 12.9922 4.70312 12.9297 4.73438 12.8672C4.73438 12.6641 4.74219 12.5391 4.75781 12.4922C4.77344 12.4453 4.78906 12.3984 4.80469 12.3516C4.82031 12.2734 4.82812 12.2109 4.82812 12.1641C4.84375 12.1016 4.84375 12.0312 4.82812 11.9531C4.875 11.6875 4.92969 11.4297 4.99219 11.1797C5.07031 10.9297 5.14062 10.6719 5.20312 10.4062C5.23438 10.375 5.25781 10.3359 5.27344 10.2891C5.28906 10.2266 5.3125 10.1719 5.34375 10.125C5.39062 9.95312 5.41406 9.85938 5.41406 9.84375C5.41406 9.8125 5.42969 9.78125 5.46094 9.75C5.49219 9.5625 5.51562 9.38281 5.53125 9.21094C5.54688 9.03906 5.57031 8.86719 5.60156 8.69531C5.61719 8.53906 5.64062 8.4375 5.67188 8.39062C5.70312 8.34375 5.73438 8.28906 5.76562 8.22656C5.78125 8.08594 5.77344 7.96094 5.74219 7.85156C5.71094 7.72656 5.71094 7.59375 5.74219 7.45312C5.85156 7.32812 5.9375 7.19531 6 7.05469C5.96875 6.88281 5.98438 6.76562 6.04688 6.70312C5.98438 6.5 5.96875 6.375 6 6.32812C6.04688 6.26562 6.08594 6.21875 6.11719 6.1875C6.21094 5.9375 6.27344 5.71094 6.30469 5.50781C6.33594 5.28906 6.40625 5.10938 6.51562 4.96875C6.59375 4.78125 6.625 4.63281 6.60938 4.52344C6.60938 4.44531 6.57812 4.36719 6.51562 4.28906C6.46875 4.21094 6.46875 4.13281 6.51562 4.05469C6.54688 4.00781 6.57031 3.96094 6.58594 3.91406C6.60156 3.85156 6.63281 3.80469 6.67969 3.77344C6.69531 3.64844 6.70312 3.52344 6.70312 3.39844C6.70312 3.25781 6.71875 3.125 6.75 3C6.67188 2.78125 6.65625 2.63281 6.70312 2.55469C6.67188 2.49219 6.64062 2.45312 6.60938 2.4375C6.57812 2.42188 6.55469 2.39062 6.53906 2.34375C6.60156 2.17187 6.59375 2.02344 6.51562 1.89844C6.48438 1.86719 6.44531 1.84375 6.39844 1.82812C6.36719 1.79687 6.33594 1.76563 6.30469 1.73438C6.13281 1.65625 6.08594 1.59375 6.16406 1.54688C6.25781 1.48438 6.32031 1.42187 6.35156 1.35938C6.32031 1.3125 6.27344 1.28906 6.21094 1.28906C6.16406 1.27344 6.10938 1.26562 6.04688 1.26562C5.98438 1.26562 5.92969 1.25781 5.88281 1.24219C5.83594 1.21094 5.8125 1.15625 5.8125 1.07812C5.89062 1.04687 5.97656 1.02344 6.07031 1.00781C6.16406 0.992188 6.25 0.96875 6.32812 0.9375C6.625 0.953125 6.8125 0.984375 6.89062 1.03125C7.01562 1 7.125 0.960938 7.21875 0.914062C7.3125 0.851563 7.4375 0.84375 7.59375 0.890625C7.78125 0.9375 7.90625 0.914062 7.96875 0.820312C8.04688 0.710938 8.13281 0.648437 8.22656 0.632812C8.33594 0.617188 8.41406 0.65625 8.46094 0.75C8.50781 0.84375 8.50781 0.953125 8.46094 1.07812C8.57031 1.0625 8.64844 1.03906 8.69531 1.00781C8.75781 0.976562 8.82812 0.945313 8.90625 0.914062C9.125 1.00781 9.26562 1.03906 9.32812 1.00781C9.40625 0.960938 9.5 0.921875 9.60938 0.890625C9.79688 0.984375 9.90625 1.02344 9.9375 1.00781C9.98438 0.976562 10.0391 0.96875 10.1016 0.984375C10.1641 0.953125 10.2188 0.921875 10.2656 0.890625C10.3125 0.84375 10.375 0.828125 10.4531 0.84375C10.5312 1 10.5469 1.10156 10.5 1.14844C10.4688 1.19531 10.4453 1.25781 10.4297 1.33594C10.5234 1.49219 10.5625 1.58594 10.5469 1.61719C10.5469 1.64844 10.5547 1.67969 10.5703 1.71094C10.5547 1.80469 10.5391 1.89844 10.5234 1.99219C10.5234 2.08594 10.5234 2.1875 10.5234 2.29688C10.5391 2.34375 10.5547 2.38281 10.5703 2.41406C10.5859 2.44531 10.5938 2.5 10.5938 2.57812C10.7188 2.67188 10.7734 2.74219 10.7578 2.78906C10.7578 2.83594 10.7578 2.88281 10.7578 2.92969C10.7891 3.08594 10.7969 3.20312 10.7812 3.28125C10.7656 3.34375 10.7734 3.40625 10.8047 3.46875C10.8203 3.53125 10.8359 3.58594 10.8516 3.63281C10.8828 3.66406 10.8984 3.69531 10.8984 3.72656C11.0391 3.86719 11.0938 3.94531 11.0625 3.96094C11.0469 3.97656 11.0234 4.00781 10.9922 4.05469C11.1172 4.30469 11.1875 4.49219 11.2031 4.61719C11.2188 4.72656 11.2578 4.82031 11.3203 4.89844C11.3359 5.08594 11.4062 5.25 11.5312 5.39062C11.5625 5.625 11.5938 5.85156 11.625 6.07031C11.6562 6.27344 11.6797 6.5 11.6953 6.75C11.7578 6.73438 11.7969 6.71094 11.8125 6.67969C11.8438 6.64844 11.8906 6.64062 11.9531 6.65625C11.9062 6.8125 11.9062 6.89062 11.9531 6.89062C12 6.89062 12.0312 6.90625 12.0469 6.9375C12.0469 7.01562 12.0234 7.07031 11.9766 7.10156C11.9297 7.13281 11.8984 7.17969 11.8828 7.24219C11.9922 7.50781 12.0547 7.70312 12.0703 7.82812C12.0859 7.95312 12.1016 8.07812 12.1172 8.20312C12.1953 8.34375 12.2422 8.44531 12.2578 8.50781C12.2734 8.57031 12.2578 8.625 12.2109 8.67188C12.2266 8.79688 12.25 8.89062 12.2812 8.95312C12.3281 9.01562 12.3828 9.08594 12.4453 9.16406C12.4297 9.24219 12.4375 9.30469 12.4688 9.35156C12.5 9.39844 12.5156 9.46094 12.5156 9.53906C12.5156 9.61719 12.4922 9.67188 12.4453 9.70312C12.4141 9.73438 12.3984 9.78125 12.3984 9.84375C12.4922 9.96875 12.5625 10.0625 12.6094 10.125C12.6562 10.1875 12.6953 10.2344 12.7266 10.2656C12.7734 10.4531 12.8047 10.6016 12.8203 10.7109C12.8516 10.8047 12.8984 10.8828 12.9609 10.9453C12.9297 11.2422 12.9688 11.4609 13.0781 11.6016C13.1562 11.6484 13.2344 11.6953 13.3125 11.7422C13.3906 11.7734 13.4688 11.8125 13.5469 11.8594C13.5781 11.9688 13.5391 12.0625 13.4297 12.1406C13.4453 12.2031 13.4609 12.2656 13.4766 12.3281C13.5078 12.375 13.5078 12.4375 13.4766 12.5156C13.5078 12.6094 13.5312 12.7188 13.5469 12.8438C13.5781 12.9531 13.5859 13.0625 13.5703 13.1719C13.5859 13.2344 13.6016 13.2969 13.6172 13.3594C13.6328 13.4219 13.6406 13.4922 13.6406 13.5703C13.6719 13.6328 13.6875 13.7031 13.6875 13.7812C13.7031 13.8594 13.7109 13.9453 13.7109 14.0391C13.7422 14.0859 13.7656 14.1328 13.7812 14.1797C13.7969 14.2109 13.8125 14.25 13.8281 14.2969C13.8281 14.3906 13.8438 14.4766 13.875 14.5547C13.9062 14.6172 13.9375 14.6797 13.9688 14.7422C13.9844 14.8984 14.0078 15.0391 14.0391 15.1641C14.0859 15.2891 14.1094 15.4375 14.1094 15.6094C14.2188 15.875 14.3203 16.0469 14.4141 16.125C14.5234 16.1875 14.6172 16.2656 14.6953 16.3594C14.7109 16.5 14.7031 16.6172 14.6719 16.7109C14.6406 16.7891 14.6094 16.875 14.5781 16.9688C14.6562 17.0781 14.7109 17.2031 14.7422 17.3438C14.7734 17.4688 14.8125 17.5938 14.8594 17.7188ZM9.70312 10.9453C9.78125 11.0391 9.88281 11.0469 10.0078 10.9688C9.97656 10.8438 9.94531 10.7266 9.91406 10.6172C9.88281 10.4922 9.85156 10.3672 9.82031 10.2422C9.86719 10.1797 9.875 10.1016 9.84375 10.0078C9.82812 9.89844 9.83594 9.79688 9.86719 9.70312C9.82031 9.625 9.78125 9.53906 9.75 9.44531C9.71875 9.35156 9.66406 9.26562 9.58594 9.1875C9.57031 9.125 9.54688 9.07812 9.51562 9.04688C9.48438 9.01562 9.46094 8.96875 9.44531 8.90625C9.44531 8.8125 9.4375 8.71094 9.42188 8.60156C9.42188 8.49219 9.4375 8.39062 9.46875 8.29688C9.40625 8.17188 9.34375 8.05469 9.28125 7.94531C9.21875 7.83594 9.15625 7.71875 9.09375 7.59375C9.04688 7.375 9.01562 7.20312 9 7.07812C9 7 9.00781 6.91406 9.02344 6.82031C9.05469 6.72656 9.00781 6.67188 8.88281 6.65625C8.85156 6.875 8.82812 7.03125 8.8125 7.125C8.79688 7.20312 8.76562 7.27344 8.71875 7.33594C8.70312 7.44531 8.69531 7.54688 8.69531 7.64062C8.69531 7.71875 8.6875 7.8125 8.67188 7.92188C8.59375 8 8.55469 8.09375 8.55469 8.20312C8.57031 8.29688 8.57812 8.41406 8.57812 8.55469C8.53125 8.64844 8.48438 8.74219 8.4375 8.83594C8.39062 8.91406 8.34375 8.99219 8.29688 9.07031C8.28125 9.13281 8.27344 9.1875 8.27344 9.23438C8.28906 9.28125 8.28125 9.32812 8.25 9.375C8.23438 9.45312 8.21094 9.51562 8.17969 9.5625C8.16406 9.59375 8.14844 9.64062 8.13281 9.70312C8.13281 9.73438 8.13281 9.78125 8.13281 9.84375C8.14844 9.89062 8.15625 9.9375 8.15625 9.98438C8.15625 10.0625 8.14844 10.1484 8.13281 10.2422C8.11719 10.3359 8.10156 10.4141 8.08594 10.4766C8.05469 10.5547 8.01562 10.6172 7.96875 10.6641C7.9375 10.7109 7.90625 10.7656 7.875 10.8281C7.84375 11 7.88281 11.0547 7.99219 10.9922C8.11719 10.9297 8.21875 10.8984 8.29688 10.8984C8.34375 10.9141 8.38281 10.9375 8.41406 10.9688C8.44531 10.9844 8.49219 11 8.55469 11.0156C8.67969 11.0469 8.78906 11.0469 8.88281 11.0156C8.99219 10.9844 9.09375 11 9.1875 11.0625C9.34375 10.9844 9.51562 10.9453 9.70312 10.9453ZM19.3125 14.5312C19.3125 14.6562 19.2656 14.7422 19.1719 14.7891C19.2031 14.9297 19.2109 15.0078 19.1953 15.0234C19.1797 15.0234 19.1641 15.0312 19.1484 15.0469C19.1484 15.1875 19.125 15.3125 19.0781 15.4219C19.1875 15.5938 19.2344 15.6875 19.2188 15.7031C19.2031 15.7188 19.1875 15.7422 19.1719 15.7734C19.2344 15.9766 19.1953 16.1016 19.0547 16.1484C19.0703 16.2266 19.0938 16.2969 19.125 16.3594C19.1562 16.4219 19.1875 16.4922 19.2188 16.5703C19.1875 16.6797 19.1641 16.7734 19.1484 16.8516C19.1484 16.9141 19.1406 16.9609 19.125 16.9922C19.1406 17.0703 19.1719 17.1484 19.2188 17.2266C19.2812 17.2891 19.2891 17.375 19.2422 17.4844C19.1016 17.5938 19.0391 17.6562 19.0547 17.6719C19.0703 17.6875 19.0859 17.7109 19.1016 17.7422C19.1016 17.8203 19.1094 17.8906 19.125 17.9531C19.1562 18 19.1719 18.0547 19.1719 18.1172C19.0781 18.2109 19.0156 18.2734 18.9844 18.3047C18.9531 18.3516 18.9062 18.3828 18.8438 18.3984C18.7344 18.2578 18.6562 18.2031 18.6094 18.2344C18.5625 18.2656 18.5234 18.2578 18.4922 18.2109C18.4766 18.1172 18.5 18.0547 18.5625 18.0234C18.625 18.0078 18.6641 17.9609 18.6797 17.8828C18.6016 17.8984 18.5469 17.9219 18.5156 17.9531C18.4844 17.9844 18.4453 18.0156 18.3984 18.0469C18.3516 18.0781 18.3125 18.1094 18.2812 18.1406C18.25 18.1875 18.2109 18.2266 18.1641 18.2578C18.1172 18.2422 18.0781 18.2109 18.0469 18.1641C18.0156 18.1328 17.9844 18.1016 17.9531 18.0703C17.9531 18.0234 17.9688 17.9375 18 17.8125C17.9219 17.8281 17.875 17.8594 17.8594 17.9062C17.8594 17.9531 17.8594 18.0078 17.8594 18.0703C17.7812 18.1328 17.6562 18.1562 17.4844 18.1406C17.3125 18.1406 17.2188 18.0703 17.2031 17.9297C17.1406 17.9609 17.0469 17.9766 16.9219 17.9766C16.8125 18.0547 16.7188 18.0938 16.6406 18.0938C16.5156 18.0625 16.4062 18.0625 16.3125 18.0938C16.125 18.0156 16 18.0078 15.9375 18.0703C15.8906 18.1484 15.8281 18.1641 15.75 18.1172C15.5625 18.0703 15.4531 18.0547 15.4219 18.0703C15.3906 18.0859 15.3516 18.0938 15.3047 18.0938C15.2734 18.0938 15.2344 18.0859 15.1875 18.0703C15.1406 18.0703 15.0938 18.0703 15.0469 18.0703C15 18.0391 14.9609 18.0078 14.9297 17.9766C14.8984 17.9453 14.875 17.8906 14.8594 17.8125C14.9531 17.7188 15.0078 17.6797 15.0234 17.6953C15.0547 17.7109 15.0859 17.7266 15.1172 17.7422C15.2422 17.5703 15.3203 17.4609 15.3516 17.4141C15.3984 17.3516 15.4375 17.2891 15.4688 17.2266C15.5312 17.0859 15.5781 17.0312 15.6094 17.0625C15.6406 17.0781 15.6719 17.0781 15.7031 17.0625C15.7656 16.875 15.7812 16.7578 15.75 16.7109C15.7188 16.6641 15.7031 16.6016 15.7031 16.5234C15.75 16.4453 15.8047 16.4297 15.8672 16.4766C15.9297 16.5234 15.9844 16.5625 16.0312 16.5938C16.0625 16.4375 16.0938 16.3672 16.125 16.3828C16.1562 16.3828 16.1797 16.3672 16.1953 16.3359C16.2109 16.3047 16.2109 16.2656 16.1953 16.2188C16.1953 16.1562 16.2031 16.1016 16.2188 16.0547C16.1875 16.0078 16.1562 15.9688 16.125 15.9375C16.0938 15.9062 16.0781 15.8516 16.0781 15.7734C16.125 15.7109 16.1719 15.6562 16.2188 15.6094C16.2812 15.5625 16.3203 15.4844 16.3359 15.375C16.3203 15.1719 16.2891 15.0625 16.2422 15.0469C16.2109 15.0312 16.1953 14.9844 16.1953 14.9062C16.2734 14.75 16.2734 14.625 16.1953 14.5312C16.1172 14.4219 16.1172 14.2969 16.1953 14.1562C16.1797 13.9219 16.2031 13.7578 16.2656 13.6641C16.2188 13.5391 16.1953 13.4688 16.1953 13.4531C16.1953 13.4219 16.2031 13.3906 16.2188 13.3594C16.1719 13.2031 16.1562 13.1016 16.1719 13.0547C16.1875 12.9922 16.1953 12.9297 16.1953 12.8672C16.1484 12.7109 16.1328 12.625 16.1484 12.6094C16.1797 12.5781 16.2031 12.5469 16.2188 12.5156C16.2188 12.4219 16.2109 12.3281 16.1953 12.2344C16.1797 12.1406 16.1953 12.0781 16.2422 12.0469C16.2109 11.9688 16.1953 11.8906 16.1953 11.8125C16.2109 11.7188 16.2188 11.6094 16.2188 11.4844C16.1406 11.3125 16.1094 11.1953 16.125 11.1328C16.1562 11.0547 16.1875 10.9766 16.2188 10.8984C16.1875 10.8672 16.1719 10.8203 16.1719 10.7578C16.1719 10.6797 16.1953 10.625 16.2422 10.5938C16.2109 10.5625 16.1719 10.5312 16.125 10.5C16.0938 10.4531 16.0703 10.4062 16.0547 10.3594C16.0859 10.25 16.1406 10.1719 16.2188 10.125C16.2969 10.0625 16.3516 9.96875 16.3828 9.84375C16.2891 9.67188 16.2422 9.57031 16.2422 9.53906C16.2578 9.50781 16.2656 9.46875 16.2656 9.42188C16.2188 9.35938 16.1875 9.28125 16.1719 9.1875C16.1719 9.09375 16.2031 9.01562 16.2656 8.95312C16.2812 8.84375 16.2969 8.77344 16.3125 8.74219C16.3281 8.71094 16.3516 8.67188 16.3828 8.625C16.3203 8.53125 16.25 8.45312 16.1719 8.39062C16.1094 8.32812 16.0781 8.23438 16.0781 8.10938C16.125 8.01562 16.1562 7.95312 16.1719 7.92188C16.2031 7.89062 16.2344 7.85938 16.2656 7.82812C16.2656 7.51562 16.2422 7.24219 16.1953 7.00781C16.1484 6.77344 16.1328 6.54688 16.1484 6.32812C16.2109 6.23438 16.2578 6.13281 16.2891 6.02344C16.3359 5.91406 16.3984 5.82031 16.4766 5.74219C16.4453 5.66406 16.4062 5.60938 16.3594 5.57812C16.3125 5.53125 16.2734 5.47656 16.2422 5.41406C16.2266 5.24219 16.2422 5.0625 16.2891 4.875C16.2891 4.73438 16.3125 4.66406 16.3594 4.66406C16.4062 4.64844 16.4375 4.61719 16.4531 4.57031C16.4219 4.47656 16.3594 4.41406 16.2656 4.38281C16.1875 4.35156 16.1328 4.29688 16.1016 4.21875C16.1172 4.15625 16.1406 4.09375 16.1719 4.03125C16.2031 3.96875 16.2109 3.90625 16.1953 3.84375C16.2266 3.65625 16.2344 3.54688 16.2188 3.51562C16.2031 3.46875 16.1953 3.42969 16.1953 3.39844C16.1953 3.27344 16.1875 3.19531 16.1719 3.16406C16.1719 3.11719 16.1562 3.07812 16.125 3.04688C16.1406 2.96875 16.1641 2.91406 16.1953 2.88281C16.2422 2.85156 16.2812 2.8125 16.3125 2.76562C16.2656 2.71875 16.2109 2.65625 16.1484 2.57812C16.0859 2.48438 16.0859 2.38281 16.1484 2.27344C16.1172 2.24219 16.0781 2.21875 16.0312 2.20312C16 2.17187 15.9766 2.13281 15.9609 2.08594C15.9766 1.94531 15.9609 1.85938 15.9141 1.82812C15.8828 1.78125 15.8516 1.74219 15.8203 1.71094C15.6797 1.69531 15.5938 1.65625 15.5625 1.59375C15.4219 1.45312 15.3125 1.39844 15.2344 1.42969C15.1562 1.44531 15.1016 1.41406 15.0703 1.33594C14.9766 1.17969 14.9219 1.09375 14.9062 1.07812C14.9062 1.0625 14.9062 1.03906 14.9062 1.00781C14.9844 0.960938 15.0859 0.9375 15.2109 0.9375C15.3516 0.921875 15.4688 0.929687 15.5625 0.960938C15.6094 1.03906 15.6797 1.08594 15.7734 1.10156C15.8828 1.11719 15.9766 1.14844 16.0547 1.19531C16.2734 1.17969 16.4141 1.14062 16.4766 1.07812C16.5391 1.01563 16.6328 0.992188 16.7578 1.00781C16.8047 0.976562 16.8594 0.960938 16.9219 0.960938C17 0.945313 17.0625 0.921875 17.1094 0.890625C17.3125 0.921875 17.4375 0.953125 17.4844 0.984375C17.5312 1.01563 17.5781 1.04687 17.625 1.07812C17.875 1.09375 18.0703 1.08594 18.2109 1.05469C18.3516 1.00781 18.4844 0.953125 18.6094 0.890625C18.8125 0.875 18.9453 0.914062 19.0078 1.00781C19.0234 1.08594 19.0547 1.125 19.1016 1.125C19.1484 1.125 19.1797 1.14844 19.1953 1.19531C19.1953 1.28906 19.1484 1.34375 19.0547 1.35938C18.9766 1.35938 18.9141 1.39063 18.8672 1.45312C18.9766 1.625 19.0234 1.72656 19.0078 1.75781C18.9922 1.77344 18.9844 1.79687 18.9844 1.82812C19.0312 1.95313 19.0234 2.04688 18.9609 2.10938C18.9922 2.15625 19.0156 2.20312 19.0312 2.25C19.0625 2.28125 19.0859 2.32813 19.1016 2.39062C19.0859 2.51563 19.0391 2.61719 18.9609 2.69531C19.0234 2.86719 19.0625 2.96875 19.0781 3C19.1094 3.01562 19.1328 3.04688 19.1484 3.09375C19.1328 3.1875 19.0938 3.25781 19.0312 3.30469C18.9844 3.35156 18.9375 3.40625 18.8906 3.46875C18.9531 3.625 18.9922 3.72656 19.0078 3.77344C19.0391 3.80469 19.0703 3.84375 19.1016 3.89062C19.1016 4.03125 19.0625 4.14062 18.9844 4.21875C18.9219 4.29688 18.875 4.39844 18.8438 4.52344C18.9375 4.71094 19.0078 4.82031 19.0547 4.85156C19.1172 4.86719 19.1562 4.90625 19.1719 4.96875C19.125 5.09375 19.1094 5.16406 19.125 5.17969C19.1406 5.17969 19.1406 5.19531 19.125 5.22656C19.1094 5.28906 19.0859 5.33594 19.0547 5.36719C19.0234 5.39844 19.0156 5.45312 19.0312 5.53125C19.0469 5.60938 19.0703 5.66406 19.1016 5.69531C19.1484 5.72656 19.1797 5.78125 19.1953 5.85938C19.1797 5.9375 19.1484 6 19.1016 6.04688C19.0703 6.07812 19.0391 6.11719 19.0078 6.16406C19.1172 6.41406 19.1875 6.57812 19.2188 6.65625C19.1875 6.8125 19.1562 6.95312 19.125 7.07812C19.1094 7.20312 19.1016 7.33594 19.1016 7.47656C19.0703 7.71094 19.0625 7.86719 19.0781 7.94531C19.0938 7.99219 19.1172 8.03125 19.1484 8.0625C19.1953 8.07812 19.2266 8.11719 19.2422 8.17969C19.2109 8.36719 19.1484 8.51562 19.0547 8.625C18.9766 8.73438 18.8828 8.83594 18.7734 8.92969C18.7891 8.96094 18.8281 8.96875 18.8906 8.95312C18.9531 8.9375 19 8.94531 19.0312 8.97656C19.0469 9.05469 19.0469 9.10938 19.0312 9.14062C19.0156 9.17188 19 9.20312 18.9844 9.23438C19.125 9.34375 19.1797 9.42969 19.1484 9.49219C19.1328 9.55469 19.1094 9.60938 19.0781 9.65625C19.1719 9.90625 19.2109 10.1016 19.1953 10.2422C19.1797 10.3672 19.1406 10.4922 19.0781 10.6172C19.0938 10.8516 19.1094 11.0391 19.125 11.1797C19.0938 11.2578 19.0547 11.3203 19.0078 11.3672C18.9766 11.4141 18.9453 11.4766 18.9141 11.5547C19.0234 11.7266 19.0938 11.8281 19.125 11.8594C19.0938 11.9219 19.0938 11.9688 19.125 12C19.1719 12.0312 19.1953 12.0703 19.1953 12.1172C19.2109 12.1953 19.1953 12.25 19.1484 12.2812C19.1016 12.3125 19.0469 12.3516 18.9844 12.3984C19.0312 12.6328 19.0625 12.8203 19.0781 12.9609C19.1094 13.0859 19.0938 13.2109 19.0312 13.3359C19.0781 13.5859 19.0781 13.7656 19.0312 13.875C19.0312 13.9531 19.0312 14.0234 19.0312 14.0859C19.0469 14.1328 19.0391 14.1875 19.0078 14.25C19.0391 14.3125 19.0859 14.3594 19.1484 14.3906C19.2266 14.4062 19.2812 14.4531 19.3125 14.5312Z" fill="#CCCCCC"/>
</svg>
