<svg width="48" height="48" viewBox="0 0 48 48" fill="none" xmlns="http://www.w3.org/2000/svg">
<path d="M40.005 41.408C39.1837 40.5565 38.1714 39.9128 37.052 39.53C37.529 39.446 39.1 39.502 39.156 38.716C39.212 37.93 36.856 37.93 36.856 37.93C36.856 37.93 41.85 32.543 41.85 29.316C43.197 29.4 43.899 28.361 42.692 26.706C43.758 26.902 43.871 24.713 42.412 24.096C41.654 20.644 37.108 19.016 37.108 19.016C37.108 19.016 35.901 11.916 30.092 9.75601C24.283 7.59601 16.454 11.58 15.528 12.703C15.584 10.402 11.796 8.04501 9.663 11.187C7.53 14.329 8.906 16.997 11.796 17.137C10.7407 18.2453 9.97024 19.5932 9.551 21.065C9.551 21.065 5.622 24.124 5.482 26.537C5.442 27.223 5.878 27.519 6.522 27.591C5.51 28.221 4.809 30.129 6.998 31.28C7.35571 32.1317 7.89134 32.8972 8.569 33.525C8.569 33.525 5.857 33.509 5.959 34.395C6.043 35.125 7.279 34.955 7.279 34.955C6.23387 35.4485 5.29109 36.1344 4.5 36.977" stroke="#FFD233" stroke-linecap="round" stroke-linejoin="round"/>
<path d="M33.151 19.452C33.677 15.452 30.71 12.106 28.963 11.454C28.3589 11.1948 27.6795 11.1722 27.0595 11.3906C26.4395 11.609 25.9243 12.0525 25.616 12.633C24.227 11.433 21.702 10.759 20.334 12.569C18.966 14.379 17.366 17.368 19.892 21.977" stroke="#FFD233" stroke-linecap="round" stroke-linejoin="round"/>
<path d="M26.795 19.452C29.42 19.165 36.918 19.578 37.508 23.766C38.098 27.954 32.14 31.643 28.797 31.793C23.641 32.025 17.156 28.586 17.156 26.187C17.156 23.788 21.785 19.999 26.795 19.452Z" stroke="#FFD233" stroke-linecap="round" stroke-linejoin="round"/>
<path d="M18.895 28.657C19.148 29.807 20.875 34.816 23.54 35.138C26.205 35.46 28.52 31.804 28.52 31.804" stroke="#FFD233" stroke-linecap="round" stroke-linejoin="round"/>
<path d="M20.68 32.826C21.1578 32.5286 21.7118 32.3765 22.2745 32.3884C22.8371 32.4003 23.3842 32.5756 23.849 32.893C24.494 32.482 26.009 33.13 26.269 34.239M32.884 11.402C33.183 10.696 33.77 7.16399 30.099 6.63399C27.111 6.20299 27.477 9.17799 27.477 9.17799M23.708 23.507C23.708 24.533 27.258 28.277 29.84 28.277C32.422 28.277 34.975 26.383 34.975 22.3C34.975 19.887 30.443 19.129 28.689 19.76C26.935 20.391 23.708 21.29 23.708 23.507Z" stroke="#FFD233" stroke-linecap="round" stroke-linejoin="round"/>
<path d="M23.273 19.129C23.8695 19.129 24.353 18.6455 24.353 18.049C24.353 17.4525 23.8695 16.969 23.273 16.969C22.6765 16.969 22.193 17.4525 22.193 18.049C22.193 18.6455 22.6765 19.129 23.273 19.129Z" stroke="#FFD233" stroke-linecap="round" stroke-linejoin="round"/>
<path d="M27.679 18.82C28.1982 18.82 28.619 18.3991 28.619 17.88C28.619 17.3609 28.1982 16.94 27.679 16.94C27.1599 16.94 26.739 17.3609 26.739 17.88C26.739 18.3991 27.1599 18.82 27.679 18.82Z" stroke="#FFD233" stroke-linecap="round" stroke-linejoin="round"/>
<path d="M19.12 11.117C19.3542 10.528 19.7966 10.0455 20.363 9.76105C20.9295 9.47662 21.5807 9.41006 22.193 9.57401M26.318 8.367C27.5767 8.74382 28.7139 9.44573 29.615 10.402" stroke="#FFD233" stroke-linecap="round" stroke-linejoin="round"/>
</svg>
