<svg width="20" height="20" viewBox="0 0 20 20" fill="none" xmlns="http://www.w3.org/2000/svg">
<path d="M3.125 3.75V4.375C3.125 5.06641 3.68359 5.625 4.375 5.625H6.75C7.39844 4.50391 8.60938 3.75 10 3.75H12.4219C12.1445 2.67188 11.1641 1.875 10 1.875H8.41406C8.26562 0.816406 7.35156 0 6.25 0C5.14844 0 4.23438 0.816406 4.08594 1.875H2.5C1.12109 1.875 0 2.99609 0 4.375V15C0 16.3789 1.12109 17.5 2.5 17.5H6.25V15.625H2.5C2.15625 15.625 1.875 15.3438 1.875 15V4.375C1.875 4.03125 2.15625 3.75 2.5 3.75H3.125ZM5.625 2.1875C5.625 2.02174 5.69085 1.86277 5.80806 1.74556C5.92527 1.62835 6.08424 1.5625 6.25 1.5625C6.41576 1.5625 6.57473 1.62835 6.69194 1.74556C6.80915 1.86277 6.875 2.02174 6.875 2.1875C6.875 2.35326 6.80915 2.51223 6.69194 2.62944C6.57473 2.74665 6.41576 2.8125 6.25 2.8125C6.08424 2.8125 5.92527 2.74665 5.80806 2.62944C5.69085 2.51223 5.625 2.35326 5.625 2.1875ZM10 18.125C9.65625 18.125 9.375 17.8438 9.375 17.5V7.5C9.375 7.15625 9.65625 6.875 10 6.875H15V8.75C15 9.44141 15.5586 10 16.25 10H18.125V17.5C18.125 17.8438 17.8438 18.125 17.5 18.125H10ZM17.5 20C18.8789 20 20 18.8789 20 17.5V8.90234C20 8.40625 19.8008 7.92969 19.4492 7.57812L17.4219 5.55078C17.0703 5.19922 16.5938 5 16.0977 5H10C8.62109 5 7.5 6.12109 7.5 7.5V17.5C7.5 18.8789 8.62109 20 10 20H17.5Z" fill="#F8F8F8"/>
</svg>
