<svg width="26" height="26" viewBox="0 0 26 26" fill="none" xmlns="http://www.w3.org/2000/svg">
<path fill-rule="evenodd" clip-rule="evenodd" d="M25.48 13.2955C25.48 12.3737 25.3973 11.4873 25.2436 10.6364H13V15.665H19.9964C19.695 17.29 18.7791 18.6669 17.4023 19.5887V22.8505H21.6036C24.0618 20.5873 25.48 17.2546 25.48 13.2955Z" fill="#4285F4"/>
<path fill-rule="evenodd" clip-rule="evenodd" d="M12.9998 26C16.5098 26 19.4525 24.8359 21.6035 22.8504L17.4021 19.5886C16.238 20.3686 14.7489 20.8295 12.9998 20.8295C9.61392 20.8295 6.74802 18.5427 5.72574 15.47H1.38257V18.8382C3.52166 23.0868 7.91802 26 12.9998 26Z" fill="#34A853"/>
<path fill-rule="evenodd" clip-rule="evenodd" d="M5.7259 15.47C5.4659 14.69 5.31817 13.8568 5.31817 13C5.31817 12.1432 5.4659 11.31 5.7259 10.53V7.16183H1.38273C0.502272 8.91683 0 10.9023 0 13C0 15.0977 0.502272 17.0832 1.38273 18.8382L5.7259 15.47Z" fill="#FBBC05"/>
<path fill-rule="evenodd" clip-rule="evenodd" d="M12.9998 5.17045C14.9085 5.17045 16.6221 5.82635 17.9694 7.11453L21.698 3.3859C19.4466 1.28818 16.5039 0 12.9998 0C7.91801 0 3.52166 2.91318 1.38257 7.16181L5.72574 10.53C6.74801 7.45726 9.61392 5.17045 12.9998 5.17045Z" fill="#EA4335"/>
</svg>
