<svg width="351" height="230" viewBox="0 0 351 230" fill="none" xmlns="http://www.w3.org/2000/svg">
<g clip-path="url(#clip0_94_12369)">
<path d="M75.3437 136.578L68.1822 136.719L64.5364 136.781C63.3228 136.781 62.1041 136.781 60.8905 136.807H60.6614V136.578L60.6301 130.474V130.208H60.8905L68.1145 130.24C70.5208 130.24 72.927 130.297 75.3333 130.323H75.4791V130.463C75.4791 131.505 75.4322 132.547 75.4114 133.542L75.3437 136.578ZM75.3437 136.578L75.2708 133.495C75.2708 132.479 75.2135 131.474 75.203 130.474L75.3437 130.615C72.9374 130.615 70.5312 130.698 68.1249 130.698L60.901 130.734L61.1614 130.474V136.578L60.927 136.344C62.1197 136.344 63.3072 136.344 64.4999 136.344L68.0885 136.406L75.3437 136.578Z" fill="#606873"/>
<path d="M67.2863 144.271L60.1248 144.417L56.479 144.474C55.2655 144.5 54.0467 144.474 52.8332 144.505H52.604V144.271V138.167V137.906H52.8644L60.0884 137.943C62.4946 137.943 64.9009 138 67.3071 138.026H67.453V138.167C67.453 139.208 67.4061 140.25 67.3853 141.25L67.2863 144.271ZM67.2863 144.271L67.2134 141.188C67.2134 140.172 67.1561 139.167 67.1457 138.167L67.2863 138.313C64.88 138.339 62.4738 138.396 60.0675 138.396L52.8436 138.427L53.104 138.167L53.078 144.271L52.8436 144.042C54.0363 144.042 55.2238 144.042 56.4165 144.068L60.005 144.125L67.2863 144.271Z" fill="#606873"/>
<path d="M282.963 119.547L275.802 119.693L272.156 119.75C270.942 119.776 269.724 119.75 268.51 119.781H268.276V119.547L268.25 113.443V113.182H268.515L275.734 113.219C278.146 113.219 280.552 113.276 282.958 113.302H283.099V113.443C283.099 114.484 283.057 115.526 283.031 116.526L282.963 119.547ZM282.963 119.547L282.89 116.464C282.89 115.448 282.833 114.443 282.823 113.443L282.963 113.589C280.557 113.615 278.151 113.672 275.739 113.672L268.521 113.703L268.781 113.443L268.75 119.547L268.521 119.318C269.708 119.318 270.896 119.318 272.094 119.344L275.682 119.401L282.963 119.547Z" fill="#606873"/>
<path d="M176.651 35.7708L169.489 35.9166L165.844 35.9739C164.63 36 163.411 35.9739 162.198 36.0052H161.979V35.7708L161.948 29.6666V29.4062H162.208L169.432 29.4375C171.838 29.4375 174.245 29.5 176.651 29.526H176.797V29.6666C176.797 30.7083 176.75 31.75 176.729 32.75L176.651 35.7708ZM176.651 35.7708L176.578 32.6875C176.578 31.6458 176.521 30.6666 176.51 29.6666L176.651 29.8073C174.245 29.8385 171.838 29.8906 169.432 29.8958L162.208 29.9271L162.469 29.6666L162.443 35.7708L162.208 35.5364C163.401 35.5364 164.588 35.5364 165.781 35.5677L169.37 35.625L176.651 35.7708Z" fill="#606873"/>
<path d="M168.463 43.4688L161.302 43.6146L157.656 43.6719C156.443 43.6719 155.224 43.6719 154.01 43.6979H153.781V43.4636L153.755 37.3594V37.099H154.016L161.239 37.1302C163.646 37.1302 166.057 37.1875 168.463 37.2136H168.604V37.3542C168.604 38.3958 168.557 39.4375 168.536 40.4375L168.463 43.4688ZM168.463 43.4688L168.391 40.3854C168.364 39.3698 168.328 38.3646 168.318 37.3646L168.463 37.5052C166.057 37.5052 163.646 37.5886 161.239 37.5886L154.016 37.625L154.276 37.3646L154.25 43.4688L154.016 43.2344C155.208 43.2344 156.396 43.2344 157.588 43.2656L161.182 43.3229L168.463 43.4688Z" fill="#606873"/>
<path d="M160.271 35.7708L153.109 35.9166L149.463 35.9739C148.25 36 147.031 35.9739 145.818 36.0052H145.583V35.7708V29.6666V29.4062H145.844L153.062 29.4375C155.474 29.4375 157.88 29.5 160.286 29.526H160.417V29.6666C160.417 30.7083 160.375 31.75 160.349 32.75L160.271 35.7708ZM160.271 35.7708L160.198 32.6875C160.172 31.6458 160.141 30.6666 160.13 29.6666L160.271 29.8073C157.865 29.8385 155.458 29.8906 153.047 29.8958L145.828 29.9271L146.088 29.6666L146.057 35.7708L145.828 35.5364C147.016 35.5364 148.203 35.5364 149.401 35.5677L152.99 35.625L160.271 35.7708Z" fill="#606873"/>
<g opacity="0.5">
<path d="M91.8801 51.4323V26.5677H67.0155V51.4323H91.8801Z" fill="#606873"/>
<path d="M88.0259 47.5729V30.4218H70.8748V47.5729H88.0259Z" fill="#101113"/>
<path d="M88.026 30.4218H70.875V47.5729L88.026 30.4218Z" fill="#ECEFF2"/>
<path d="M64.5833 51.4271H67.0156V26.5625H64.5833V51.4271Z" fill="#606873"/>
<path d="M122.818 51.4323V26.5677H97.953V51.4323H122.818Z" fill="#606873"/>
<path d="M118.963 47.5729V30.4219H101.812V47.5729H118.963Z" fill="#101113"/>
<path d="M113.927 30.4219H101.812V42.5365L113.927 30.4219Z" fill="#ECEFF2"/>
<path d="M95.526 51.4271H97.9583V26.5625H95.526V51.4271Z" fill="#606873"/>
<path d="M122.661 94.3437V61.8489H67.0208V94.3437H122.661Z" fill="#606873"/>
<path d="M118.599 90.3229V65.8645H71.0833V90.3229H118.599Z" fill="#101113"/>
<path d="M102.229 65.8698H71.0781V81.901L102.229 65.8698Z" fill="#ECEFF2"/>
<path d="M64.5833 94.3437H67.0156V61.8489H64.5833V94.3437Z" fill="#606873"/>
</g>
<g opacity="0.5">
<path d="M179.247 219.125C241.519 219.125 292 214.006 292 207.692C292 201.379 241.519 196.26 179.247 196.26C116.976 196.26 66.4946 201.379 66.4946 207.692C66.4946 214.006 116.976 219.125 179.247 219.125Z" fill="#606873"/>
</g>
<path d="M60.7864 192.63L88.5572 192.505L116.328 192.458L171.875 192.37L227.417 192.458L255.193 192.505L282.963 192.63L255.193 192.76L227.417 192.807L171.875 192.891L116.328 192.802L88.5572 192.76L60.7864 192.63Z" fill="#101113"/>
<path d="M268.177 163.656C275.646 170.948 276.896 182.276 275.323 192.182C275.282 192.406 274.938 192.344 274.938 192.135C274.938 189.88 275.006 187.646 274.995 185.416C274.959 185.317 274.922 185.219 274.881 185.12C272.933 183.698 271.141 182.099 270.032 179.911C268.782 177.458 268.292 174.703 267.339 172.13C267.25 171.885 267.511 171.958 267.683 172.083C272.224 175.432 273.672 179.036 274.974 183.854C274.945 181.335 274.68 178.824 274.183 176.354C273.198 171.781 271.261 167.255 267.974 163.854C267.86 163.724 268.047 163.526 268.177 163.656Z" fill="#202326"/>
<path d="M266.776 164.51C265.49 164.552 264.693 166.594 263.683 167.203C263.578 167.289 263.457 167.353 263.326 167.389C263.196 167.425 263.059 167.433 262.925 167.412C262.791 167.391 262.663 167.342 262.55 167.269C262.436 167.195 262.339 167.098 262.266 166.984C261.276 165.599 262.636 163.89 263.917 162.932C263 163.312 262.24 163.974 261.256 164.161C261.129 164.202 260.995 164.215 260.863 164.2C260.731 164.185 260.604 164.141 260.49 164.073C260.376 164.004 260.278 163.912 260.202 163.802C260.127 163.693 260.076 163.568 260.052 163.437C259.615 161.552 261.985 160.713 263.61 160.672C262.823 160.125 260.563 158.635 261.766 157.906C262.969 157.177 265.625 159.297 266.49 159.989C267.761 161.031 269.276 162.557 269.334 164.156C269.407 166.062 267.761 164.906 266.776 164.51Z" fill="#82C43C"/>
<path opacity="0.1" d="M266.776 164.51C265.49 164.552 264.693 166.594 263.683 167.203C263.578 167.289 263.457 167.353 263.326 167.389C263.196 167.425 263.059 167.433 262.925 167.412C262.791 167.391 262.663 167.342 262.55 167.269C262.436 167.195 262.339 167.098 262.266 166.984C261.276 165.599 262.636 163.89 263.917 162.932C263 163.312 262.24 163.974 261.256 164.161C261.129 164.202 260.995 164.215 260.863 164.2C260.731 164.185 260.604 164.141 260.49 164.073C260.376 164.004 260.278 163.912 260.202 163.802C260.127 163.693 260.076 163.568 260.052 163.437C259.615 161.552 261.985 160.713 263.61 160.672C262.823 160.125 260.563 158.635 261.766 157.906C262.969 157.177 265.625 159.297 266.49 159.989C267.761 161.031 269.276 162.557 269.334 164.156C269.407 166.062 267.761 164.906 266.776 164.51Z" fill="#101113"/>
<path d="M267.146 164.828C265.505 164.078 262.349 165.156 262.078 164.531C261.558 163.265 264.058 162.401 265.417 162.229C264.167 161.89 261.771 161.349 261.839 160.146C261.927 158.672 265.521 159.942 267.339 161.333C269.63 163.094 269.615 164.786 269.24 165.125C268.719 165.588 267.417 164.948 267.146 164.828Z" fill="#82C43C"/>
<path d="M285.183 162.932C277.443 169.953 275.761 181.208 276.959 191.166C276.99 191.39 277.339 191.344 277.344 191.135C277.433 188.88 277.448 186.646 277.542 184.416L277.667 184.125C279.667 182.781 281.521 181.25 282.714 179.099C284.052 176.698 284.646 173.953 285.698 171.427C285.797 171.187 285.532 171.25 285.355 171.37C280.667 174.541 279.105 178.088 277.62 182.828C277.743 180.312 278.104 177.812 278.698 175.364C279.849 170.833 281.964 166.38 285.375 163.114C285.526 163.015 285.318 162.823 285.183 162.932Z" fill="#202326"/>
<path d="M286.568 163.864C287.849 163.958 288.579 166.041 289.553 166.677C289.654 166.767 289.774 166.834 289.904 166.874C290.033 166.914 290.17 166.927 290.305 166.91C290.439 166.894 290.569 166.85 290.685 166.78C290.802 166.71 290.902 166.616 290.98 166.505C292.021 165.161 290.73 163.38 289.485 162.401C290.386 162.812 291.12 163.5 292.089 163.724C292.213 163.77 292.346 163.789 292.479 163.78C292.611 163.77 292.74 163.732 292.857 163.668C292.973 163.605 293.075 163.517 293.155 163.41C293.234 163.304 293.29 163.182 293.318 163.052C293.839 161.182 291.49 160.25 289.865 160.151C290.672 159.63 292.99 158.234 291.818 157.453C290.646 156.672 287.901 158.703 287.011 159.37C285.704 160.349 284.131 161.828 284.016 163.437C283.865 165.291 285.553 164.193 286.568 163.864Z" fill="#82C43C"/>
<path opacity="0.1" d="M286.568 163.864C287.849 163.958 288.579 166.041 289.553 166.677C289.654 166.767 289.774 166.834 289.904 166.874C290.033 166.914 290.17 166.927 290.305 166.91C290.439 166.894 290.569 166.85 290.685 166.78C290.802 166.71 290.902 166.616 290.98 166.505C292.021 165.161 290.73 163.38 289.485 162.401C290.386 162.812 291.12 163.5 292.089 163.724C292.213 163.77 292.346 163.789 292.479 163.78C292.611 163.77 292.74 163.732 292.857 163.668C292.973 163.605 293.075 163.517 293.155 163.41C293.234 163.304 293.29 163.182 293.318 163.052C293.839 161.182 291.49 160.25 289.865 160.151C290.672 159.63 292.99 158.234 291.818 157.453C290.646 156.672 287.901 158.703 287.011 159.37C285.704 160.349 284.131 161.828 284.016 163.437C283.865 165.291 285.553 164.193 286.568 163.864Z" fill="#101113"/>
<path d="M286.167 164.14C287.839 163.458 290.954 164.661 291.245 164.041C291.834 162.797 289.349 161.833 287.995 161.614C289.261 161.323 291.678 160.875 291.641 159.661C291.61 158.182 287.969 159.318 286.099 160.64C283.74 162.307 283.693 164.005 284.058 164.354C284.568 164.844 285.896 164.255 286.167 164.14Z" fill="#82C43C"/>
<path d="M276.613 181.407C275.767 185.104 274.644 188.732 273.253 192.26C273.221 192.311 273.173 192.35 273.116 192.371C273.06 192.392 272.998 192.394 272.94 192.376C272.882 192.359 272.832 192.323 272.796 192.274C272.761 192.225 272.743 192.166 272.744 192.105C273.561 188.742 274.766 185.486 275.568 182.11C276.426 178.712 276.932 175.235 277.077 171.734C277.253 165.961 276.225 159.718 272.872 154.897C272.799 154.781 272.988 154.646 273.062 154.752C279.779 164.154 277.64 174.8 277.558 175.739C278.94 172.2 280.397 168.145 284.735 164.817C284.92 164.671 285.048 164.761 284.999 165.029C283.69 171.679 281.511 175.023 277.31 178.274C277.11 179.333 276.877 180.378 276.613 181.407Z" fill="#202326"/>
<path d="M271.141 156.401C269.787 155.797 267.917 157.521 266.578 157.64C266.427 157.676 266.269 157.679 266.116 157.65C265.963 157.621 265.817 157.56 265.689 157.471C265.561 157.382 265.453 157.267 265.372 157.134C265.291 157.001 265.239 156.852 265.219 156.698C264.886 154.76 267.157 153.672 268.969 153.323C267.828 153.255 266.709 153.557 265.589 153.255C265.434 153.237 265.285 153.184 265.152 153.102C265.02 153.02 264.907 152.91 264.821 152.779C264.736 152.649 264.68 152.501 264.658 152.346C264.636 152.192 264.648 152.035 264.693 151.885C265.214 149.708 268.073 150.026 269.776 150.802C269.256 149.838 267.646 147.156 269.256 147.005C270.865 146.854 272.563 150.396 273.11 151.557C273.907 153.265 274.703 155.625 273.953 157.323C273.094 159.333 271.985 157.307 271.141 156.401Z" fill="#82C43C"/>
<path opacity="0.1" d="M271.141 156.401C269.787 155.797 267.917 157.521 266.578 157.64C266.427 157.676 266.269 157.679 266.116 157.65C265.963 157.621 265.817 157.56 265.689 157.471C265.561 157.382 265.453 157.267 265.372 157.134C265.291 157.001 265.239 156.852 265.219 156.698C264.886 154.76 267.157 153.672 268.969 153.323C267.828 153.255 266.709 153.557 265.589 153.255C265.434 153.237 265.285 153.184 265.152 153.102C265.02 153.02 264.907 152.91 264.821 152.779C264.736 152.649 264.68 152.501 264.658 152.346C264.636 152.192 264.648 152.035 264.693 151.885C265.214 149.708 268.073 150.026 269.776 150.802C269.256 149.838 267.646 147.156 269.256 147.005C270.865 146.854 272.563 150.396 273.11 151.557C273.907 153.265 274.703 155.625 273.953 157.323C273.094 159.333 271.985 157.307 271.141 156.401Z" fill="#101113"/>
<path d="M271.37 156.916C270.042 155.312 266.224 154.833 266.261 154.062C266.334 152.474 269.386 152.844 270.881 153.354C269.75 152.37 267.532 150.599 268.219 149.385C269.052 147.896 272.146 151.021 273.328 153.385C274.823 156.359 273.953 158.114 273.391 158.276C272.615 158.495 271.589 157.177 271.37 156.916Z" fill="#82C43C"/>
<path d="M282.224 183.505L285.526 208.885H265.334C265.75 206.635 269.5 183.474 269.5 183.474L282.224 183.505Z" fill="#FFD233"/>
<path d="M211.895 134.599C211.888 134.735 211.83 134.863 211.734 134.959C211.638 135.055 211.51 135.112 211.374 135.12L209.119 135.031C207.666 129.589 205.942 125.203 206.338 126.885C206.927 129.524 207.117 132.237 206.9 134.932L202.453 134.682C201.687 125.307 200.176 118.224 200.093 120.349C199.749 128.906 198.958 131.583 198.062 134.438C187.328 133.802 173.265 132.823 163.114 131.891C162.484 126.682 162.041 121.063 161.822 121.427C160.135 124.161 159.317 128.292 158.947 131.5C155.718 131.182 153.145 130.87 151.583 130.599C151.583 130.599 151.281 126.24 151.322 124.818C151.419 121.176 152.187 117.582 153.588 114.219C155.041 110.766 157.234 107.807 159.317 104.766C159.33 104.741 159.346 104.719 159.364 104.698C159.364 104.698 159.364 104.698 159.364 104.672C160.745 102.697 161.885 100.564 162.76 98.3177C162.764 98.3023 162.764 98.2863 162.76 98.2709C163.363 96.6439 163.823 94.9674 164.135 93.2604C165.27 87.0104 169.385 81.9636 175.468 80.9219C186.541 73.6875 198.447 77.1927 200.989 85.6094C201.234 86.4323 201.453 87.3646 201.656 88.3802V88.4115C202.411 92.1615 202.937 96.9844 203.494 100.729C203.494 100.729 203.494 100.729 203.494 100.771C203.693 102.238 203.987 103.691 204.374 105.12C206.572 112.005 212.619 116.406 211.895 134.599Z" fill="#202326"/>
<path d="M172.791 82.3906C168.697 84 166.02 86.7031 164.921 91.2447C164.286 93.8802 163.833 96.4531 162.541 98.8906C161.249 101.328 159.301 103.344 157.333 105.292C154.208 108.417 151.968 111.573 151.083 116.031C150.197 120.49 149.817 125.974 150.906 130.401H150.947C150.15 125.943 150.755 119.953 151.989 115.5C153.364 110.615 156.515 107.776 159.801 104.297C162.416 101.597 164.252 98.241 165.114 94.5833C165.635 92.3489 165.859 89.9843 166.999 87.9427C168.359 85.5104 170.703 84.1145 173.01 82.901C173.043 82.8866 173.074 82.8658 173.099 82.8397C173.125 82.8136 173.145 82.7828 173.158 82.7489C173.172 82.7151 173.178 82.6789 173.178 82.6424C173.178 82.6059 173.17 82.5699 173.156 82.5364C173.141 82.5029 173.12 82.4725 173.094 82.4471C173.068 82.4216 173.037 82.4015 173.004 82.388C172.97 82.3744 172.933 82.3677 172.897 82.3682C172.861 82.3686 172.825 82.3762 172.791 82.3906Z" fill="#202326"/>
<path d="M210.202 112.865C207.843 109.016 205.317 105.677 204.182 101.088C203.14 96.9218 202.765 92.5572 201.708 88.3802C201.708 88.3663 201.702 88.3531 201.692 88.3433C201.683 88.3336 201.669 88.3281 201.656 88.3281C201.642 88.3281 201.629 88.3336 201.619 88.3433C201.609 88.3531 201.604 88.3663 201.604 88.3802C203.14 95.7656 202.817 103.021 206.812 109.516C208.973 113.047 211.161 116.333 212.4 120.422C213.644 124.703 214.061 129.182 213.63 133.62C213.63 133.776 213.817 133.792 213.848 133.62C215.275 126.489 213.974 119.082 210.202 112.865Z" fill="#202326"/>
<path d="M238.916 102.234L224.442 129.49C223.921 130.266 224.176 131.052 225.015 131.271L240.01 134.964C240.477 135.04 240.956 134.982 241.392 134.798C241.828 134.614 242.203 134.31 242.473 133.922L256.947 106.667C257.468 105.891 257.208 105.104 256.374 104.885L241.38 101.198C240.913 101.12 240.434 101.176 239.998 101.359C239.562 101.543 239.187 101.846 238.916 102.234Z" fill="#606873"/>
<path d="M240.697 102.656L226.223 129.911C225.702 130.688 225.963 131.474 226.801 131.693L241.796 135.385C242.263 135.463 242.741 135.406 243.176 135.221C243.612 135.037 243.986 134.732 244.255 134.344L258.729 107.083C259.249 106.307 258.994 105.521 258.156 105.302L243.161 101.615C242.694 101.537 242.214 101.594 241.778 101.778C241.342 101.963 240.967 102.267 240.697 102.656Z" fill="#606873"/>
<path d="M244.484 104.995C244.416 105.245 244.276 105.47 244.081 105.641C243.885 105.812 243.644 105.921 243.386 105.955C243.129 105.988 242.867 105.945 242.635 105.83C242.402 105.714 242.209 105.533 242.079 105.308C241.95 105.083 241.89 104.825 241.907 104.566C241.924 104.307 242.018 104.059 242.176 103.853C242.334 103.648 242.55 103.493 242.795 103.41C243.041 103.327 243.306 103.318 243.557 103.385C243.723 103.43 243.879 103.507 244.016 103.612C244.153 103.717 244.268 103.848 244.354 103.998C244.44 104.147 244.496 104.312 244.518 104.483C244.54 104.654 244.529 104.828 244.484 104.995Z" fill="#202326"/>
<path d="M177.656 139.865C183.906 159.453 205.5 181.501 208.25 187.125C212.072 187.677 216.895 186.74 222.5 183.001C234.723 174.834 246.911 158.522 250.692 149.016C252.109 145.459 235.463 136.016 232.38 138.708C225.156 145.01 216.005 158.047 214.906 157.818C210.828 156.963 196.473 141.437 186.468 130.516C174.317 117.255 175.166 132.057 177.656 139.865Z" fill="#FFC4C0"/>
<path d="M247.5 155C247.5 155 254.151 146.417 255 138C255.583 132.182 257.343 119.802 243.275 109.469C239.937 107.016 233.442 105.891 237.437 111.875C240.275 116.125 243.364 117.964 244.562 120.729C244.562 120.729 236.135 120.281 233.807 123.719C231.783 126.73 229.974 129.88 228.395 133.146C228.927 133.572 229.485 133.963 230.067 134.318C230.067 134.318 227.984 137.609 229.354 143.375L247.5 155Z" fill="#FFC4C0"/>
<path d="M255 132.605C253.244 130.028 250.496 124.949 245.914 121.653C240.818 118.002 230.065 112.403 227.522 116.354C225.659 119.248 229.581 121.76 229.581 121.76C229.581 121.76 224.67 120.423 223.533 123.424C222.503 126.157 225.643 127.912 225.643 127.912C225.643 127.912 222.555 127.633 222.04 130.468C221.422 133.877 228.052 133.898 230.276 137.914C230.786 138.8 255 132.605 255 132.605Z" fill="#FFC4C0"/>
<path d="M243.5 127.927C241.442 125.844 235.567 122.328 229.921 121.906C229.796 121.906 229.718 121.99 229.833 122.021C234.601 123.447 239.178 125.448 243.463 127.979C243.468 127.995 243.5 127.953 243.5 127.927Z" fill="#202326"/>
<path d="M239.744 133.026C237.786 131.417 231.572 128.057 225.838 127.818C225.708 127.818 225.64 127.911 225.755 127.937C230.587 129.115 235.27 130.838 239.713 133.073C239.744 133.094 239.77 133.047 239.744 133.026Z" fill="#202326"/>
<path d="M186.432 164.896L202.354 144.958C202.354 144.958 189.682 130.979 181.583 125.167C177.046 121.922 174.463 125.401 175.104 130.401C177.354 147.917 186.432 164.896 186.432 164.896Z" fill="#82C43C"/>
<path d="M186.432 164.896L202.354 144.958C202.354 144.958 189.682 130.979 181.583 125.167C177.046 121.922 174.463 125.401 175.104 130.401C177.354 147.917 186.432 164.896 186.432 164.896Z" fill="white"/>
<path opacity="0.1" d="M200.531 147.229L186.437 164.901C186.437 164.901 177.354 147.917 175.104 130.427C174.661 126.99 175.75 124.276 177.937 123.969L200.531 147.229Z" fill="#101113"/>
<path d="M198.656 143.146C195.953 146.01 188.848 153.995 184.906 159.812C184.88 159.849 185.005 159.953 185.031 159.922C189.036 155.599 196.395 146.417 198.838 143.328C198.885 143.229 198.708 143.094 198.656 143.146Z" fill="#202326"/>
<path d="M128.515 192.943L197.177 192.781L193.38 169.172C193.38 169.172 198.812 162.583 197.786 155.438C196.656 147.625 182.536 127.75 181.348 126.63C176.567 122.146 171.505 121.339 166.645 122.958C144.182 137.073 128.515 192.943 128.515 192.943Z" fill="white"/>
<path d="M188.812 136.167C190.14 138.375 191.609 140.51 192.978 142.687C192.421 141.125 191.869 139.599 191.255 138.078C191.255 138.047 191.286 138.021 191.301 138.052C192.275 139.881 193.071 141.8 193.676 143.781C194.714 145.428 195.641 147.142 196.452 148.911C197.452 151.028 198.081 153.301 198.312 155.63C198.461 157.978 198.13 160.332 197.338 162.547C196.403 165.087 195.238 167.536 193.859 169.865C193.682 170.177 193.249 169.891 193.395 169.578C195.343 165.411 197.494 161.057 197.301 156.349C197.109 151.641 194.937 147.401 192.812 143.365C191.577 140.903 190.185 138.523 188.645 136.24C188.577 136.161 188.739 136.068 188.812 136.167Z" fill="#202326"/>
<path d="M182.515 167.37C179.707 167.62 176.922 168.078 174.182 168.74C172.822 169.089 171.489 169.495 170.161 169.932C169.494 170.151 168.828 170.349 168.156 170.542C167.459 170.762 166.739 170.899 166.01 170.948C166 170.951 165.99 170.958 165.984 170.967C165.978 170.976 165.974 170.986 165.974 170.997C165.974 171.008 165.978 171.019 165.984 171.028C165.99 171.037 166 171.043 166.01 171.047C166.704 171.082 167.4 171.07 168.093 171.01C168.757 170.93 169.415 170.804 170.062 170.635C171.442 170.297 172.807 169.891 174.187 169.536C176.963 168.823 179.739 168.109 182.562 167.599C182.677 167.578 182.645 167.354 182.515 167.37Z" fill="#202326"/>
<path d="M189.452 169.854C187.139 169.613 184.815 169.502 182.489 169.521C181.322 169.521 180.171 169.615 179.01 169.729C178.458 169.781 177.906 169.844 177.354 169.917C176.749 169.995 176.15 170.151 175.541 170.219C175.479 170.219 175.479 170.328 175.541 170.323C176.114 170.271 176.697 170.323 177.275 170.323L179.015 170.276C180.176 170.276 181.333 170.234 182.494 170.193C184.817 170.115 187.13 170.062 189.452 170.062C189.583 170.047 189.572 169.87 189.452 169.854Z" fill="#202326"/>
<path d="M158.4 129.167C140.895 147.474 119.166 185.781 123.468 193.401C128.26 201.891 153.281 175.948 152.489 174.698C151.817 173.656 160.729 150.422 167.072 133.552C173.416 116.682 162.723 124.615 158.4 129.167Z" fill="#FFC4C0"/>
<path d="M136.973 151.125L162.083 155.646C162.083 155.646 168.333 137.849 169.598 127.974C170.291 122.438 167.041 122.208 162.947 125.151C148.619 135.448 136.973 151.125 136.973 151.125Z" fill="white"/>
<path d="M161.921 151.531C158.114 150.516 147.713 148.062 140.744 147.365C140.703 147.365 140.666 147.516 140.708 147.526C146.437 148.995 157.989 151.099 161.869 151.781C161.942 151.776 161.989 151.562 161.921 151.531Z" fill="#202326"/>
<path d="M159.025 155.094C160.067 155.193 161.109 155.318 162.119 155.453L161.9 155.583C162.65 152.851 163.475 150.139 164.374 147.448C165.27 144.766 166.213 142.094 167.296 139.458C166.64 142.224 165.848 144.948 165.01 147.651C164.171 150.354 163.255 153.047 162.249 155.729L162.187 155.891L162.036 155.859C161.036 155.604 160.031 155.359 159.025 155.094Z" fill="#202326"/>
<path d="M165.635 144.875C165.858 144.323 166.145 143.799 166.489 143.312C166.83 142.813 167.209 142.341 167.624 141.901C167.568 142.202 167.468 142.494 167.327 142.766C167.198 143.038 167.046 143.299 166.874 143.547C166.532 144.05 166.113 144.498 165.635 144.875Z" fill="#202326"/>
<path d="M124.031 194.182C128.775 199.318 139.729 198.922 167.39 200.516C171.218 200.734 180.041 174.141 175.963 173.698C170.833 173.135 150.786 172.068 149.312 172.177C136.869 173.078 120.817 190.703 124.031 194.182Z" fill="#FFC4C0"/>
<path d="M170.406 173.203C170.406 173.203 182.057 173.37 188.151 175.349C196.312 178 202.265 183.651 204.614 186.172C209.526 191.427 217.76 207.526 213.536 210.708C209.708 213.589 202.125 196.703 202.125 196.703C202.125 196.703 212.697 212.641 207.458 215.266C202.218 217.891 194.541 197.781 194.541 197.781C194.541 197.781 205.041 214.401 199.229 216.25C194.822 217.646 186.828 199.833 186.828 199.833C186.828 199.833 195.755 214.182 191.281 215.813C186.343 217.615 177.932 201.635 177.932 201.635C165.869 203.865 159.213 199.995 154.807 196.677C153.703 195.875 170.406 173.203 170.406 173.203Z" fill="#FFC4C0"/>
<path d="M198.817 190.958C200.13 192.781 201.468 194.604 202.609 196.563C203.75 198.521 204.833 200.479 205.786 202.516C208.135 207.505 208.828 211 208.76 210.787C207.197 205.797 203.213 198.807 202.067 196.859C200.921 194.912 199.885 192.932 198.744 190.995C198.708 190.948 198.786 190.912 198.817 190.958Z" fill="#202326"/>
<path d="M191.749 194.958C193.312 197.365 194.968 199.693 196.437 202.167C197.906 204.641 199.041 207.099 200.348 209.656C200.447 209.854 200.307 209.844 200.202 209.656C198.812 207.151 197.338 204.969 195.921 202.458C194.505 199.948 193.187 197.427 191.687 195C191.666 194.953 191.723 194.922 191.749 194.958Z" fill="#202326"/>
<path d="M185.062 197.297C187.666 200.854 189.583 204.88 191.385 208.875C191.473 209.073 191.296 209.042 191.192 208.844C189.166 204.953 187.598 201.891 184.942 197.385C184.895 197.318 185.005 197.224 185.062 197.297Z" fill="#202326"/>
<path d="M139.067 176.563C140.734 175.208 145.51 171.917 150.614 172.062C150.671 172.062 150.682 172.141 150.614 172.146C146.479 172.625 140.827 175.448 139.109 176.63C139.1 176.632 139.091 176.632 139.083 176.628C139.075 176.625 139.068 176.619 139.063 176.612C139.058 176.604 139.056 176.595 139.057 176.586C139.058 176.578 139.061 176.569 139.067 176.563Z" fill="#202326"/>
<path d="M170.088 122.609C170.182 123.818 174.578 132.234 179.942 132.807C181.687 132.99 183.109 123.5 183.109 123.5L183.375 122.823L187.083 113.349L176.697 104.167L175.182 102.927C175.182 102.927 174.338 105.589 173.322 108.911C173.276 109.063 173.223 109.219 173.177 109.38C173.13 109.542 173.052 109.745 173.005 109.901C172.843 110.422 172.687 110.901 172.536 111.406C172.421 111.792 172.307 112.167 172.203 112.573C172.098 112.979 171.984 113.38 171.864 113.786C170.807 117.859 170.062 122.099 170.088 122.609Z" fill="#FFC4C0"/>
<path d="M173.322 108.922C173.889 111.83 175.081 114.579 176.817 116.98C178.553 119.38 180.79 121.374 183.374 122.823L187.083 113.349L176.697 104.167L175.182 102.927C175.182 102.927 174.338 105.599 173.322 108.922Z" fill="#202326"/>
<path d="M203.624 102.083C201.275 119.792 190.406 120.375 186.588 119.859C183.124 119.396 171.39 117.375 171.9 99.5469C172.411 81.7188 181.385 77.198 189.364 77.8438C197.343 78.4896 205.999 84.375 203.624 102.083Z" fill="#FFC4C0"/>
<path d="M201.083 100.161C200.696 100.019 200.317 99.8554 199.947 99.6719C199.531 99.549 199.166 99.2951 198.906 98.9479C198.845 98.8215 198.827 98.6787 198.855 98.5413C198.884 98.404 198.956 98.2797 199.062 98.1875C199.299 98.0363 199.573 97.9522 199.855 97.9439C200.136 97.9357 200.415 98.0036 200.661 98.1406C201.202 98.335 201.649 98.7253 201.916 99.2344C201.972 99.3548 201.992 99.4891 201.972 99.6206C201.953 99.7521 201.895 99.8749 201.806 99.9737C201.717 100.073 201.601 100.143 201.473 100.176C201.344 100.21 201.208 100.205 201.083 100.161Z" fill="#202326"/>
<path d="M189.114 97.125C189.525 97.1484 189.937 97.1484 190.348 97.125C190.782 97.185 191.224 97.0988 191.604 96.8802C191.71 96.7885 191.783 96.6642 191.811 96.5266C191.84 96.3891 191.821 96.246 191.76 96.1198C191.601 95.888 191.383 95.7033 191.128 95.585C190.873 95.4668 190.591 95.4194 190.312 95.4479C189.745 95.4234 189.188 95.6088 188.749 95.9687C188.659 96.0562 188.594 96.1672 188.563 96.2893C188.532 96.4113 188.536 96.5396 188.574 96.6598C188.611 96.7799 188.682 96.8871 188.778 96.9693C188.873 97.0515 188.99 97.1054 189.114 97.125Z" fill="#202326"/>
<path d="M191 101.042C191 100.995 190.901 101.083 190.89 101.13C190.713 102.333 190.307 103.682 189.151 103.885C189.144 103.888 189.138 103.893 189.134 103.899C189.13 103.905 189.128 103.912 189.128 103.919C189.128 103.927 189.13 103.934 189.134 103.94C189.138 103.946 189.144 103.95 189.151 103.953C190.505 103.979 191.026 102.182 191 101.042Z" fill="#202326"/>
<path d="M190.161 99.5729C188.26 99.0521 187.416 102.911 189.171 103.37C190.927 103.828 191.749 100 190.161 99.5729Z" fill="#202326"/>
<path d="M189.364 99.6094C188.979 99.75 188.567 100.062 188.156 100.01C187.744 99.9583 187.416 99.4896 187.192 99.0208C187.192 98.9739 187.13 99.0208 187.119 99.0521C186.947 99.7864 187.062 100.615 187.822 100.885C188.583 101.156 189.182 100.604 189.525 99.9062C189.588 99.7812 189.515 99.5521 189.364 99.6094Z" fill="#202326"/>
<path d="M198.088 102.125C198.088 102.083 198.166 102.203 198.156 102.25C197.843 103.427 197.687 104.854 198.677 105.464C198.708 105.464 198.677 105.547 198.651 105.531C197.38 105.047 197.604 103.193 198.088 102.125Z" fill="#202326"/>
<path d="M199.426 101.13C201.369 101.422 200.64 105.297 198.843 105.01C197.046 104.724 197.801 100.885 199.426 101.13Z" fill="#202326"/>
<path d="M200.187 101.563C200.453 101.823 200.682 102.25 201.041 102.344C201.401 102.438 201.848 102.094 202.192 101.745C202.229 101.708 202.255 101.745 202.244 101.797C202.13 102.536 201.723 103.26 201.005 103.271C200.286 103.281 199.963 102.552 199.963 101.786C199.932 101.62 200.078 101.432 200.187 101.563Z" fill="#202326"/>
<path d="M189.109 111.25C189.317 111.599 189.494 112.052 189.911 112.203C190.351 112.312 190.808 112.328 191.255 112.25C191.263 112.249 191.272 112.251 191.28 112.256C191.287 112.26 191.293 112.267 191.297 112.275C191.3 112.283 191.301 112.292 191.299 112.301C191.297 112.309 191.293 112.317 191.286 112.323C191.057 112.509 190.781 112.63 190.488 112.671C190.195 112.712 189.897 112.673 189.624 112.557C189.402 112.431 189.222 112.241 189.108 112.012C188.994 111.783 188.951 111.525 188.984 111.271C188.984 111.198 189.078 111.198 189.109 111.25Z" fill="#202326"/>
<path d="M194.984 107.99C194.984 107.99 194.859 109.818 194.682 110.656C194.682 110.734 194.458 110.729 194.161 110.656C194.161 110.656 194.161 110.656 194.13 110.656C193.382 110.637 192.655 110.412 192.026 110.007C191.398 109.602 190.893 109.032 190.567 108.359C190.559 108.34 190.559 108.318 190.566 108.298C190.572 108.278 190.586 108.261 190.605 108.25C190.623 108.239 190.644 108.236 190.665 108.239C190.686 108.243 190.705 108.254 190.718 108.271C191.635 109.224 192.835 109.856 194.14 110.073C194.249 109.854 194.249 106.948 194.385 106.948C195.023 107.141 195.633 107.42 196.197 107.776C196.572 103.974 196.333 100.146 196.76 96.3645C196.76 96.3341 196.772 96.305 196.793 96.2835C196.815 96.262 196.844 96.25 196.874 96.25C196.905 96.25 196.934 96.262 196.955 96.2835C196.977 96.305 196.989 96.3341 196.989 96.3645C197.51 100.365 197.192 104.75 196.911 108.682C196.885 109.193 195.291 108.198 194.984 107.99Z" fill="#202326"/>
<path d="M176.729 80.6302C176.125 82.0313 168.078 82.9948 164.536 77.5625C161.046 72.2083 165.666 65.6198 172.067 68.7604C176.114 70.75 178.005 77.6615 176.729 80.6302Z" fill="#202326"/>
<path d="M164.427 70.2031C165.799 68.7154 167.635 67.7368 169.635 67.4271C170.566 67.2633 171.524 67.3475 172.413 67.6711C173.302 67.9948 174.089 68.5465 174.697 69.2708C175.979 70.7135 176.64 72.6562 176.994 74.6146C177.159 75.6093 177.232 76.617 177.213 77.625C177.239 78.6481 177.075 79.6672 176.729 80.6302C177.286 79.7313 177.642 78.7219 177.77 77.6719C177.932 76.6156 177.967 75.5438 177.874 74.4792C177.743 72.2959 176.935 70.2077 175.562 68.5052C174.836 67.6365 173.879 66.9907 172.802 66.6423C171.724 66.294 170.571 66.2573 169.473 66.5365C168.427 66.7725 167.44 67.2194 166.572 67.8499C165.704 68.4803 164.974 69.281 164.427 70.2031Z" fill="#202326"/>
<path d="M172.781 100.286C175.906 101.573 178.739 94.375 178.739 94.375C178.739 94.375 193.166 95.7604 197.369 84.8438C197.369 84.8438 197.802 92.6563 204.14 97.8334C204.14 97.8334 206.984 85.3854 197.89 80.3594C197.89 80.3594 186.953 72.6823 177.578 80.4584C168.203 88.2344 170.682 99.4271 172.781 100.286Z" fill="#202326"/>
<path d="M197.666 84.026C197.359 85.8038 196.678 87.4958 195.666 88.9895C194.668 90.5178 193.365 91.823 191.838 92.8229C191.457 93.0716 191.063 93.2977 190.656 93.5L190.057 93.8281C189.848 93.9166 189.635 93.9948 189.421 94.0781C188.994 94.2343 188.577 94.4114 188.145 94.5468C187.713 94.6822 187.265 94.7604 186.827 94.8593C186.604 94.9062 186.385 94.9635 186.166 95L185.494 95.0729L184.156 95.2135C183.26 95.2135 182.364 95.1822 181.479 95.1302C182.364 94.9947 183.249 94.9583 184.114 94.8177L185.411 94.5677L186.051 94.4479C186.265 94.3906 186.468 94.3177 186.676 94.2552C187.093 94.1198 187.51 93.9948 187.926 93.875C188.343 93.7552 188.723 93.5364 189.119 93.3541L189.718 93.0989L190.281 92.7864C190.664 92.5872 191.036 92.3664 191.395 92.125C192.842 91.1774 194.116 89.9882 195.161 88.6093C195.694 87.9186 196.17 87.1852 196.583 86.4166C197.012 85.6524 197.374 84.8526 197.666 84.026Z" fill="#202326"/>
<path d="M171.864 88.4948L170.416 89.7344L173.973 95.7448L177.15 92.9167L171.864 88.4948ZM174.307 93.9636L171.702 90.1146L172.036 89.8177L175.437 92.9896L174.307 93.9636Z" fill="#B00925"/>
<path d="M173.265 85.8073L172.395 87.5L177.953 91.7239L179.833 87.9062L173.265 85.8073ZM177.593 89.9739L173.744 87.3698L173.937 86.9687L178.281 88.625L177.593 89.9739Z" fill="#B00925"/>
<path d="M174.531 101.24C174.531 101.24 171.927 94.9531 169.166 95.7604C166.406 96.5677 167.505 105.094 170.161 106.818C170.487 107.062 170.859 107.238 171.254 107.334C171.65 107.431 172.061 107.447 172.463 107.381C172.865 107.315 173.249 107.168 173.593 106.949C173.937 106.731 174.233 106.445 174.463 106.109L174.531 101.24Z" fill="#FFC4C0"/>
<path d="M169.541 98.1979C169.494 98.1979 169.473 98.2448 169.51 98.2708C171.359 99.5468 172.01 101.667 172.322 103.786C171.885 102.901 171.156 102.307 169.989 102.802C169.926 102.828 169.958 102.922 170.02 102.922C170.403 102.89 170.786 102.976 171.117 103.169C171.449 103.361 171.713 103.652 171.874 104C172.137 104.586 172.337 105.199 172.468 105.828C172.525 106.031 172.874 106.005 172.854 105.781C172.854 105.781 172.854 105.745 172.854 105.729C173.479 103.151 172.27 99.0781 169.541 98.1979Z" fill="#202326"/>
<path d="M239.965 29.6613V42.3022H236.394V29.6613C236.394 24.8578 232.746 20.9526 228.268 20.9526C223.789 20.9526 220.141 24.8578 220.141 29.6613V42.3022H216.57V29.6613C216.57 22.781 221.821 17.1874 228.277 17.1874C234.733 17.1874 239.965 22.781 239.965 29.6613Z" fill="#606873"/>
<path d="M216.552 32.9435L220.123 33.0879V42.2932H216.552V32.9435Z" fill="#B3BECD"/>
<path d="M239.965 33.896V42.2932H236.394V33.7515L239.965 33.896Z" fill="#B3BECD"/>
<path d="M244.538 35.1014H211.979V64.6406H244.538V35.1014Z" fill="#797883"/>
<path opacity="0.1" d="M244.538 35.1014H228.259V64.6406H244.538V35.1014Z" fill="#101113"/>
<path d="M229.636 50.9522L230.99 57.4172H225.216L226.57 50.9522C226.036 50.6201 225.625 50.123 225.398 49.5362C225.172 48.9495 225.143 48.3049 225.316 47.7001C225.489 47.0954 225.854 46.5634 226.356 46.1846C226.858 45.8058 227.47 45.6009 228.098 45.6009C228.727 45.6009 229.339 45.8058 229.841 46.1846C230.343 46.5634 230.708 47.0954 230.881 47.7001C231.054 48.3049 231.025 48.9495 230.798 49.5362C230.572 50.123 230.161 50.6201 229.627 50.9522H229.636Z" fill="#202326"/>
</g>
<defs>
<clipPath id="clip0_94_12369">
<rect width="351" height="230" rx="12.5" fill="white"/>
</clipPath>
</defs>
</svg>
