<svg width="21" height="20" viewBox="0 0 21 20" fill="none" xmlns="http://www.w3.org/2000/svg">
<path d="M18.5366 10C18.5366 5.40835 14.7949 1.66668 10.2033 1.66668C5.6116 1.66668 1.86993 5.40835 1.86993 10C1.86993 12.4167 2.9116 14.5917 4.5616 16.1167C4.5616 16.125 4.5616 16.125 4.55327 16.1333C4.6366 16.2167 4.7366 16.2833 4.81993 16.3583C4.86993 16.4 4.9116 16.4417 4.9616 16.475C5.1116 16.6 5.27827 16.7167 5.4366 16.8333C5.49493 16.875 5.54493 16.9083 5.60327 16.95C5.7616 17.0583 5.92827 17.1583 6.10327 17.25C6.1616 17.2833 6.22827 17.325 6.2866 17.3583C6.45327 17.45 6.62827 17.5333 6.8116 17.6083C6.87827 17.6417 6.94493 17.675 7.0116 17.7C7.19493 17.775 7.37827 17.8417 7.5616 17.9C7.62827 17.925 7.69493 17.95 7.7616 17.9667C7.9616 18.025 8.1616 18.075 8.3616 18.125C8.41993 18.1417 8.47827 18.1583 8.54493 18.1667C8.77827 18.2167 9.0116 18.25 9.25327 18.275C9.2866 18.275 9.31993 18.2833 9.35327 18.2917C9.6366 18.3167 9.91993 18.3333 10.2033 18.3333C10.4866 18.3333 10.7699 18.3167 11.0449 18.2917C11.0783 18.2917 11.1116 18.2833 11.1449 18.275C11.3866 18.25 11.6199 18.2167 11.8533 18.1667C11.9116 18.1583 11.9699 18.1333 12.0366 18.125C12.2366 18.075 12.4449 18.0333 12.6366 17.9667C12.7033 17.9417 12.7699 17.9167 12.8366 17.9C13.0199 17.8333 13.2116 17.775 13.3866 17.7C13.4533 17.675 13.5199 17.6417 13.5866 17.6083C13.7616 17.5333 13.9366 17.45 14.1116 17.3583C14.1783 17.325 14.2366 17.2833 14.2949 17.25C14.4616 17.15 14.6283 17.0583 14.7949 16.95C14.8533 16.9167 14.9033 16.875 14.9616 16.8333C15.1283 16.7167 15.2866 16.6 15.4366 16.475C15.4866 16.4333 15.5283 16.3917 15.5783 16.3583C15.6699 16.2833 15.7616 16.2083 15.8449 16.1333C15.8449 16.125 15.8449 16.125 15.8366 16.1167C17.4949 14.5917 18.5366 12.4167 18.5366 10ZM14.3199 14.1417C12.0616 12.625 8.3616 12.625 6.0866 14.1417C5.71993 14.3833 5.41993 14.6667 5.16993 14.975C3.90327 13.6917 3.11993 11.9333 3.11993 10C3.11993 6.09168 6.29493 2.91668 10.2033 2.91668C14.1116 2.91668 17.2866 6.09168 17.2866 10C17.2866 11.9333 16.5033 13.6917 15.2366 14.975C14.9949 14.6667 14.6866 14.3833 14.3199 14.1417Z" fill="#CCCCCC"/>
<path d="M10.2032 5.77502C8.47825 5.77502 7.07825 7.17502 7.07825 8.90002C7.07825 10.5917 8.40325 11.9667 10.1616 12.0167C10.1866 12.0167 10.2199 12.0167 10.2366 12.0167C10.2532 12.0167 10.2782 12.0167 10.2949 12.0167C10.3032 12.0167 10.3116 12.0167 10.3116 12.0167C11.9949 11.9584 13.3199 10.5917 13.3282 8.90002C13.3282 7.17502 11.9282 5.77502 10.2032 5.77502Z" fill="#CCCCCC"/>
</svg>
