<svg width="21" height="20" viewBox="0 0 21 20" fill="none" xmlns="http://www.w3.org/2000/svg">
<path d="M3.45391 6.73301C3.41224 6.98301 3.37891 7.23301 3.37891 7.49967C3.37891 7.24134 3.41224 6.98301 3.45391 6.73301ZM3.37891 12.4997C3.37891 12.7663 3.41224 13.0163 3.45391 13.2663C3.41224 13.0163 3.37891 12.758 3.37891 12.4997ZM6.78724 16.5913C7.02891 16.633 7.28724 16.6663 7.54557 16.6663C7.28724 16.6663 7.03724 16.633 6.78724 16.5913ZM6.78724 3.40801C7.03724 3.36634 7.28724 3.33301 7.54557 3.33301C7.28724 3.33301 7.02891 3.36634 6.78724 3.40801ZM13.3122 3.40801C13.0622 3.36634 12.8122 3.33301 12.5456 3.33301C12.8039 3.33301 13.0622 3.36634 13.3122 3.40801ZM16.6372 6.73301C16.6789 6.98301 16.7122 7.24134 16.7122 7.49967C16.7122 7.23301 16.6789 6.98301 16.6372 6.73301Z" fill="#CCCCCC"/>
<path d="M18.3796 6.91699C18.3796 7.26699 18.1046 7.54199 17.7546 7.54199H16.7129V9.07289C16.7129 9.35087 16.4112 9.52396 16.1712 9.38366C15.8129 9.17533 15.3962 9.10866 14.9962 9.21699C14.7396 9.27857 14.4296 9.11276 14.4296 8.8489V8.11699C14.4296 6.74199 13.3046 5.61699 11.9296 5.61699H8.16289C6.78789 5.61699 5.66289 6.74199 5.66289 8.11699V11.8837C5.66289 13.2587 6.78789 14.3837 8.16289 14.3837H8.53789C8.63454 14.3837 8.71289 14.462 8.71289 14.5587C8.71289 15.3616 9.29475 16.0367 10.0608 16.1918C10.2049 16.221 10.3023 16.3933 10.2546 16.5323C10.2272 16.6118 10.1547 16.667 10.0707 16.667H7.59622V17.7087C7.59622 18.0503 7.31289 18.3337 6.97122 18.3337C6.62122 18.3337 6.34622 18.0503 6.34622 17.7087V16.4837C5.01289 16.0753 3.97122 15.0337 3.57122 13.7087H2.33789C1.99622 13.7087 1.71289 13.4253 1.71289 13.0837C1.71289 12.7337 1.99622 12.4587 2.33789 12.4587H3.37956V10.6253H2.33789C1.99622 10.6253 1.71289 10.342 1.71289 10.0003C1.71289 9.65033 1.99622 9.37533 2.33789 9.37533H3.37956V7.54199H2.33789C1.99622 7.54199 1.71289 7.26699 1.71289 6.91699C1.71289 6.57533 1.99622 6.29199 2.33789 6.29199H3.57122C3.97122 4.96699 5.01289 3.92533 6.34622 3.51699V2.29199C6.34622 1.95033 6.62122 1.66699 6.97122 1.66699C7.31289 1.66699 7.59622 1.95033 7.59622 2.29199V3.33366H9.42122V2.29199C9.42122 1.95033 9.70456 1.66699 10.0462 1.66699C10.3879 1.66699 10.6712 1.95033 10.6712 2.29199V3.33366H12.5046V2.29199C12.5046 1.95033 12.7879 1.66699 13.1296 1.66699C13.4712 1.66699 13.7546 1.95033 13.7546 2.29199V3.52533C15.0796 3.92533 16.1212 4.96699 16.5212 6.29199H17.7546C18.1046 6.29199 18.3796 6.57533 18.3796 6.91699Z" fill="#CCCCCC"/>
<path d="M17.5376 12.9419C16.9709 12.9419 16.6459 12.6586 16.6459 12.2419C16.6459 12.0753 16.6959 11.8836 16.8126 11.6836C17.0459 11.2836 16.9042 10.7669 16.5042 10.5419L15.7459 10.1003C15.3959 9.89193 14.9459 10.0169 14.7376 10.3669L14.6876 10.4503C14.2876 11.1419 13.6376 11.1419 13.2376 10.4503L13.1876 10.3669C12.9876 10.0169 12.5292 9.89193 12.1876 10.1003L11.4209 10.5419C11.1542 10.6919 10.9959 10.9753 10.9959 11.2669C10.9959 11.4086 11.0376 11.5503 11.1126 11.6836C11.2292 11.8836 11.2876 12.0753 11.2876 12.2419C11.2876 12.6586 10.9542 12.9419 10.3876 12.9419C9.92923 12.9419 9.5459 13.3169 9.5459 13.7753V14.5586C9.5459 15.0169 9.92923 15.3919 10.3876 15.3919C10.9542 15.3919 11.2876 15.6753 11.2876 16.0919C11.2876 16.2586 11.2292 16.4503 11.1126 16.6503C10.8792 17.0503 11.0209 17.5669 11.4209 17.7919L12.1876 18.2336C12.5292 18.4419 12.9876 18.3169 13.1876 17.9669L13.2376 17.8836C13.6376 17.1919 14.2876 17.1919 14.6876 17.8836L14.7376 17.9669C14.9459 18.3169 15.3959 18.4419 15.7459 18.2336L16.5042 17.7919C16.7709 17.6419 16.9292 17.3586 16.9292 17.0669C16.9292 16.9253 16.8876 16.7836 16.8126 16.6503C16.6959 16.4503 16.6459 16.2586 16.6459 16.0919C16.6459 15.6753 16.9709 15.3919 17.5376 15.3919C18.0042 15.3919 18.3792 15.0169 18.3792 14.5586V13.7753C18.3792 13.3169 18.0042 12.9419 17.5376 12.9419ZM13.9626 15.6003C13.1709 15.6003 12.5292 14.9586 12.5292 14.1669C12.5292 13.3753 13.1709 12.7336 13.9626 12.7336C14.7542 12.7336 15.3959 13.3753 15.3959 14.1669C15.3959 14.9586 14.7542 15.6003 13.9626 15.6003Z" fill="#CCCCCC"/>
<path d="M13.5872 8.34967V8.82679C13.5872 9.10519 13.2162 9.28166 12.9456 9.21634C12.5289 9.10801 12.1122 9.16634 11.7706 9.37467L11.0122 9.81634C10.4872 10.108 10.1622 10.6663 10.1622 11.2663C10.1622 11.654 9.88393 12.1389 9.54868 12.3334C9.20861 12.5308 8.94383 12.8441 8.80936 13.2184C8.74466 13.3984 8.58691 13.5413 8.39557 13.5413C7.34557 13.5413 6.50391 12.6997 6.50391 11.6497V8.34967C6.50391 7.29967 7.34557 6.45801 8.39557 6.45801H11.6956C12.7456 6.45801 13.5872 7.29967 13.5872 8.34967Z" fill="#CCCCCC"/>
</svg>
