
<svg width="28" height="28" viewBox="0 0 28 28" fill="none" xmlns="http://www.w3.org/2000/svg">
<path d="M2 23C2 21.4087 2.63214 19.8826 3.75736 18.7574C4.88258 17.6321 6.4087 17 8 17H20C21.5913 17 23.1174 17.6321 24.2426 18.7574C25.3679 19.8826 26 21.4087 26 23C26 23.7956 25.6839 24.5587 25.1213 25.1213C24.5587 25.6839 23.7956 26 23 26H5C4.20435 26 3.44129 25.6839 2.87868 25.1213C2.31607 24.5587 2 23.7956 2 23Z" stroke="#FFD233" stroke-width="2.5" stroke-linejoin="round"/>
<path d="M14 11C16.4853 11 18.5 8.98528 18.5 6.5C18.5 4.01472 16.4853 2 14 2C11.5147 2 9.5 4.01472 9.5 6.5C9.5 8.98528 11.5147 11 14 11Z" stroke="#FFD233" stroke-width="2.5"/>
</svg>
