<svg width="30" height="30" viewBox="0 0 30 30" fill="none" xmlns="http://www.w3.org/2000/svg">
<path d="M30 15C30 23.2843 23.2843 30 15 30C6.71573 30 0 23.2843 0 15C0 6.71573 6.71573 0 15 0C23.2843 0 30 6.71573 30 15Z" fill="#E38266"/>
<path d="M15.1162 9.99991H14.8834L12.9696 14.2982H17.0299L15.1162 9.99991ZM18.2451 14.2982H21.9998L20.4936 10.9087C20.3731 10.6359 20.1873 10.4063 19.9572 10.2457C19.7271 10.0852 19.4618 10.0001 19.1911 9.99991H16.3314L18.2451 14.2982ZM21.8252 15.5262H15.5455V23.9999L21.8252 15.5262ZM14.4541 23.9999V15.5262H8.17443L14.4541 23.9999ZM11.7545 14.2982L13.6609 9.99991H10.8085C10.5378 10.0001 10.2724 10.0852 10.0423 10.2457C9.81224 10.4063 9.62651 10.6359 9.50603 10.9087L7.99979 14.2982H11.7545Z" fill="#F8F8F8"/>
</svg>
