<svg width="86" height="25" viewBox="0 0 86 25" fill="none" xmlns="http://www.w3.org/2000/svg">
<path d="M13.4201 14.3555C13.4201 14.4466 13.4201 14.556 13.4201 14.6836C13.4383 14.793 13.4292 14.8932 13.3927 14.9844C13.4474 15.1667 13.4474 15.3398 13.3927 15.5039C13.3563 15.6497 13.3198 15.8229 13.2834 16.0234C13.3563 16.151 13.3654 16.2695 13.3107 16.3789C13.256 16.4883 13.1831 16.5794 13.092 16.6523C13.092 16.7617 13.0646 16.8438 13.0099 16.8984C12.9735 16.9531 12.937 17.0169 12.9005 17.0898C12.8823 17.3268 12.8367 17.4909 12.7638 17.582C12.6909 17.6549 12.618 17.737 12.5451 17.8281C12.5268 17.974 12.5086 18.1107 12.4904 18.2383C12.4722 18.3659 12.4266 18.4753 12.3537 18.5664C12.3354 18.6576 12.3263 18.7396 12.3263 18.8125C12.3446 18.8854 12.3263 18.9401 12.2716 18.9766C12.217 18.9948 12.1623 19.013 12.1076 19.0312C12.0711 19.0312 12.0164 19.0221 11.9435 19.0039C11.8524 19.0404 11.7795 19.0951 11.7248 19.168C11.6701 19.2227 11.5972 19.2773 11.506 19.332C11.5242 19.5326 11.506 19.6419 11.4513 19.6602C11.4149 19.6784 11.3693 19.7057 11.3146 19.7422C11.2782 19.8151 11.2326 19.8789 11.1779 19.9336C11.1232 19.9883 11.0959 20.0703 11.0959 20.1797C11.0412 20.2161 10.9865 20.2617 10.9318 20.3164C10.8953 20.3711 10.8498 20.4167 10.7951 20.4531C10.7404 20.599 10.6584 20.7083 10.549 20.7812C10.3485 20.7812 10.2391 20.7995 10.2209 20.8359C10.2026 20.8542 10.1753 20.8815 10.1388 20.918C10.0477 20.9544 9.94742 20.9909 9.83805 21.0273C9.72867 21.0638 9.61018 21.0911 9.48258 21.1094C9.33674 21.1094 9.22737 21.1367 9.15445 21.1914C9.08154 21.2643 8.97216 21.3008 8.82633 21.3008C8.73518 21.1914 8.67138 21.1458 8.63492 21.1641C8.61669 21.2005 8.58023 21.237 8.52555 21.2734C8.37971 21.2734 8.27034 21.319 8.19742 21.4102C8.14273 21.5013 8.05159 21.5651 7.92398 21.6016C7.83284 21.6016 7.76904 21.5742 7.73258 21.5195C7.71435 21.4831 7.68701 21.4466 7.65055 21.4102C7.45003 21.5195 7.34977 21.6198 7.34977 21.7109C7.36799 21.8021 7.33154 21.8659 7.24039 21.9023C7.11279 21.8841 7.01253 21.8385 6.93961 21.7656C6.86669 21.7109 6.78466 21.6654 6.69352 21.6289C6.58414 21.6471 6.48388 21.6745 6.39273 21.7109C6.31982 21.7656 6.21044 21.7839 6.06461 21.7656C5.8094 21.6745 5.65445 21.6562 5.59977 21.7109C5.56331 21.7656 5.50862 21.7839 5.4357 21.7656C5.34456 21.7656 5.28076 21.7292 5.2443 21.6562C5.20784 21.6016 5.14404 21.5469 5.05289 21.4922C4.81591 21.5104 4.67008 21.4466 4.61539 21.3008C4.54247 21.3008 4.47867 21.3008 4.42398 21.3008C4.38753 21.319 4.35107 21.3281 4.31461 21.3281C4.09586 21.237 3.90445 21.1732 3.74039 21.1367C3.57633 21.1185 3.42138 21.082 3.27555 21.0273C3.1844 20.9362 3.11148 20.8177 3.0568 20.6719C3.02034 20.526 2.98388 20.3802 2.94742 20.2344C2.85628 20.0703 2.78336 20.0156 2.72867 20.0703C2.67398 20.1068 2.60107 20.125 2.50992 20.125C2.41878 20.1068 2.33674 20.0247 2.26383 19.8789C2.08154 19.7148 1.95393 19.5417 1.88102 19.3594C1.8081 19.1771 1.68961 19.013 1.52555 18.8672C1.41617 18.6484 1.27034 18.457 1.08805 18.293C0.923985 18.1107 0.750807 17.9284 0.568516 17.7461C0.495599 17.6003 0.468255 17.4362 0.486485 17.2539C0.486485 17.0534 0.413568 16.9076 0.267735 16.8164C0.194818 16.707 0.25862 16.6159 0.459141 16.543C0.641432 16.4518 0.769037 16.3333 0.841953 16.1875C1.04247 16.0599 1.19742 16.0052 1.3068 16.0234C1.4344 16.0417 1.55289 16.0143 1.66227 15.9414C1.71695 15.7409 1.77164 15.6406 1.82633 15.6406C1.89924 15.6224 1.96305 15.5859 2.01773 15.5312C2.14534 15.2943 2.22737 15.1484 2.26383 15.0938C2.31852 15.0208 2.36409 14.957 2.40055 14.9023C2.50992 14.7565 2.63753 14.6289 2.78336 14.5195C2.94742 14.319 3.07503 14.1641 3.16617 14.0547C3.25732 13.9453 3.34846 13.8359 3.43961 13.7266C3.60367 13.6172 3.74951 13.5534 3.87711 13.5352C3.96826 13.6263 4.04117 13.6719 4.09586 13.6719C4.16878 13.6719 4.25081 13.7174 4.34195 13.8086C4.26904 14.1003 4.11409 14.2734 3.87711 14.3281C3.87711 14.401 3.85888 14.474 3.82242 14.5469C3.80419 14.6198 3.81331 14.6927 3.84977 14.7656C3.88622 14.8203 3.91357 14.8841 3.9318 14.957C3.95003 15.0117 3.97737 15.0664 4.01383 15.1211C3.9956 15.1758 3.97737 15.2305 3.95914 15.2852C3.94091 15.3398 3.88622 15.3854 3.79508 15.4219C3.81331 15.513 3.79508 15.5859 3.74039 15.6406C3.70393 15.6953 3.69482 15.7682 3.71305 15.8594C3.74951 15.9505 3.78596 16.0326 3.82242 16.1055C3.87711 16.1784 3.92268 16.2604 3.95914 16.3516C4.03206 16.6068 4.03206 16.7891 3.95914 16.8984C3.90445 16.9896 3.85888 17.0716 3.82242 17.1445C3.85888 17.2174 3.90445 17.2812 3.95914 17.3359C4.01383 17.3724 4.0594 17.418 4.09586 17.4727C4.15055 17.5456 4.25081 17.6367 4.39664 17.7461C4.70654 17.7279 4.91617 17.7917 5.02555 17.9375C5.13492 18.0833 5.20784 18.2839 5.2443 18.5391C5.28076 18.5573 5.32633 18.5573 5.38102 18.5391C5.4357 18.5026 5.50862 18.4844 5.59977 18.4844C5.78206 18.4661 5.95523 18.4844 6.1193 18.5391C6.41096 18.4844 6.57503 18.4844 6.61148 18.5391C6.66617 18.5755 6.73909 18.6029 6.83023 18.6211C6.93961 18.5846 7.01253 18.5299 7.04898 18.457C7.10367 18.3841 7.17659 18.3294 7.26773 18.293C7.35888 18.293 7.42268 18.3021 7.45914 18.3203C7.4956 18.3385 7.5594 18.3568 7.65055 18.375C7.74169 18.3932 7.78727 18.4206 7.78727 18.457C7.78727 18.4935 7.83284 18.5117 7.92398 18.5117C8.01513 18.4935 8.08805 18.4661 8.14273 18.4297C8.21565 18.3932 8.29768 18.3659 8.38883 18.3477C8.47997 18.3112 8.55289 18.2656 8.60758 18.2109C8.66227 18.1562 8.7443 18.1289 8.85367 18.1289C8.90836 17.8919 8.94482 17.7188 8.96305 17.6094C8.98128 17.5 9.02685 17.4271 9.09977 17.3906C9.2456 17.2448 9.33674 17.1263 9.3732 17.0352C9.40966 16.9258 9.44612 16.8255 9.48258 16.7344C9.6831 16.5703 9.79247 16.4154 9.8107 16.2695C9.84716 16.1055 9.86539 15.9505 9.86539 15.8047C9.93831 15.6224 9.99299 15.4401 10.0295 15.2578C10.0841 15.0755 10.1297 14.8841 10.1662 14.6836C10.1479 14.5013 10.1571 14.3555 10.1935 14.2461C10.0841 14.1367 10.0477 13.9818 10.0841 13.7812C9.93831 13.6719 9.86539 13.5716 9.86539 13.4805C9.86539 13.3893 9.85628 13.3164 9.83805 13.2617C9.7469 13.1706 9.65576 13.0794 9.56461 12.9883C9.49169 12.8971 9.43701 12.7878 9.40055 12.6602C9.21826 12.6055 9.08154 12.4961 8.99039 12.332C8.91747 12.3867 8.82633 12.4141 8.71695 12.4141C8.62581 12.3958 8.55289 12.3503 8.4982 12.2773C8.35237 12.2409 8.23388 12.2044 8.14273 12.168C8.05159 12.1133 7.91487 12.1042 7.73258 12.1406C7.64143 12.0677 7.58674 12.0039 7.56852 11.9492C7.56852 11.8945 7.5594 11.8216 7.54117 11.7305C7.46826 11.694 7.36799 11.6849 7.24039 11.7031C7.13102 11.7214 7.01253 11.7122 6.88492 11.6758C6.81201 11.6393 6.73909 11.612 6.66617 11.5938C6.61148 11.5573 6.53857 11.5391 6.44742 11.5391C6.35628 11.4479 6.23779 11.3932 6.09195 11.375C5.96435 11.3385 5.86409 11.2747 5.79117 11.1836C5.57242 11.0195 5.39013 10.9193 5.2443 10.8828C5.09846 10.8464 4.95263 10.8099 4.8068 10.7734C4.69742 10.7005 4.60628 10.6458 4.53336 10.6094C4.29638 10.6823 4.15055 10.7096 4.09586 10.6914C4.0594 10.6732 4.00471 10.6549 3.9318 10.6367C3.87711 10.6003 3.83154 10.5729 3.79508 10.5547C3.75862 10.5182 3.71305 10.4909 3.65836 10.4727C3.56721 10.3451 3.44872 10.2357 3.30289 10.1445C3.17529 10.0352 3.06591 9.90755 2.97477 9.76172C2.92008 9.72526 2.86539 9.6888 2.8107 9.65234C2.77424 9.59766 2.73779 9.55208 2.70133 9.51562C2.50081 9.46094 2.32763 9.38802 2.1818 9.29688C2.12711 9.02344 2.08154 8.82292 2.04508 8.69531C2.00862 8.56771 1.99951 8.42188 2.01773 8.25781C1.96305 8.20312 1.89924 8.15755 1.82633 8.12109C1.75341 8.08464 1.69872 8.02083 1.66227 7.92969C1.68049 7.76562 1.64404 7.64714 1.55289 7.57422C1.47997 7.48307 1.42529 7.38281 1.38883 7.27344C1.42529 7.21875 1.45263 7.16406 1.47086 7.10938C1.48909 7.03646 1.50732 6.97266 1.52555 6.91797C1.47086 6.77214 1.4344 6.61719 1.41617 6.45312C1.39794 6.28906 1.41617 6.11589 1.47086 5.93359C1.47086 5.7513 1.47086 5.64193 1.47086 5.60547C1.47086 5.56901 1.48909 5.53255 1.52555 5.49609C1.52555 5.42318 1.51643 5.35938 1.4982 5.30469C1.4982 5.23177 1.4982 5.16797 1.4982 5.11328C1.4982 5.02214 1.50732 4.93099 1.52555 4.83984C1.54378 4.7487 1.57112 4.65755 1.60758 4.56641C1.78987 4.34766 1.89924 4.15625 1.9357 3.99219C1.99039 3.82812 2.07242 3.70052 2.1818 3.60938C2.27294 3.3724 2.38232 3.17188 2.50992 3.00781C2.65576 2.82552 2.80159 2.65234 2.94742 2.48828C3.11148 2.41536 3.21174 2.33333 3.2482 2.24219C3.30289 2.15104 3.38492 2.08724 3.4943 2.05078C3.69482 2.03255 3.80419 1.98698 3.82242 1.91406C3.85888 1.82292 3.92268 1.75 4.01383 1.69531C4.15966 1.73177 4.27815 1.72266 4.3693 1.66797C4.46044 1.61328 4.57893 1.57682 4.72477 1.55859C4.90706 1.44922 5.07112 1.3125 5.21695 1.14844C5.3081 1.14844 5.38102 1.16667 5.4357 1.20312C5.50862 1.22135 5.57242 1.23958 5.62711 1.25781C5.77294 1.14844 5.85497 1.09375 5.8732 1.09375C5.90966 1.07552 5.93701 1.05729 5.95523 1.03906C6.08284 0.947917 6.19221 0.893229 6.28336 0.875C6.39273 0.856771 6.47477 0.847656 6.52945 0.847656C6.69352 0.865885 6.79378 0.856771 6.83023 0.820312C6.86669 0.783854 6.92138 0.765625 6.9943 0.765625C7.06721 0.783854 7.11279 0.802083 7.13102 0.820312C7.16747 0.820312 7.23128 0.802083 7.32242 0.765625C7.52294 0.802083 7.66878 0.838542 7.75992 0.875C7.85107 0.893229 7.96044 0.893229 8.08805 0.875C8.14273 0.929688 8.22477 0.99349 8.33414 1.06641C8.40706 1.02995 8.47086 0.99349 8.52555 0.957031C8.59846 0.902344 8.67138 0.847656 8.7443 0.792969C8.81721 0.75651 8.89013 0.710938 8.96305 0.65625C9.03596 0.601562 9.11799 0.619792 9.20914 0.710938C9.2456 0.783854 9.2456 0.856771 9.20914 0.929688C9.17268 0.984375 9.16357 1.05729 9.1818 1.14844C9.32763 1.25781 9.45523 1.33984 9.56461 1.39453C9.67398 1.43099 9.77424 1.49479 9.86539 1.58594C10.0295 1.65885 10.1206 1.72266 10.1388 1.77734C10.1753 1.83203 10.2117 1.8776 10.2482 1.91406C10.3393 1.89583 10.4123 1.8776 10.467 1.85938C10.5399 1.84115 10.6219 1.82292 10.713 1.80469C10.9318 1.82292 11.0229 1.97786 10.9865 2.26953C11.0776 2.32422 11.1597 2.37891 11.2326 2.43359C11.3055 2.47005 11.3784 2.52474 11.4513 2.59766C11.7795 2.63411 11.9891 2.73438 12.0802 2.89844C12.0438 3.08073 12.0255 3.18099 12.0255 3.19922C12.2261 3.27214 12.3446 3.32682 12.381 3.36328C12.4175 3.38151 12.4539 3.40885 12.4904 3.44531C12.4904 3.57292 12.4722 3.65495 12.4357 3.69141C12.4175 3.70964 12.3992 3.74609 12.381 3.80078L12.6545 4.01953C12.7456 4.07422 12.8003 4.12891 12.8185 4.18359C12.855 4.22005 12.9097 4.23828 12.9826 4.23828C13.0737 4.40234 13.1102 4.5026 13.092 4.53906C13.092 4.55729 13.1102 4.58464 13.1466 4.62109C12.8732 4.7487 12.6453 4.91276 12.463 5.11328C12.3719 5.24089 12.3172 5.33203 12.299 5.38672C12.299 5.42318 12.2808 5.45964 12.2443 5.49609C12.1532 5.60547 12.1076 5.67839 12.1076 5.71484C12.1076 5.7513 12.1167 5.78776 12.1349 5.82422C12.0802 5.91536 12.0255 5.98828 11.9709 6.04297C11.9162 6.09766 11.8706 6.16146 11.8341 6.23438C11.7977 6.38021 11.7521 6.48958 11.6974 6.5625C11.6063 6.59896 11.5242 6.64453 11.4513 6.69922C11.3784 6.75391 11.2964 6.79036 11.2052 6.80859C11.2052 6.89974 11.2052 6.98177 11.2052 7.05469C11.2235 7.10938 11.2052 7.18229 11.1505 7.27344C11.0047 7.36458 10.8953 7.51953 10.8224 7.73828C10.6584 7.84766 10.5672 7.92969 10.549 7.98438C10.549 8.03906 10.5308 8.10286 10.4943 8.17578C10.312 8.30339 10.1753 8.36719 10.0841 8.36719C9.99299 8.34896 9.92008 8.30339 9.86539 8.23047C9.86539 8.02995 9.86539 7.88411 9.86539 7.79297C9.99299 7.64714 10.075 7.51953 10.1115 7.41016C10.0386 7.26432 10.0295 7.14583 10.0841 7.05469C10.0841 6.89062 10.1024 6.80859 10.1388 6.80859C10.1753 6.79036 10.1935 6.77214 10.1935 6.75391C10.1024 6.55339 10.0477 6.44401 10.0295 6.42578C10.0112 6.40755 9.98388 6.38932 9.94742 6.37109C9.89273 6.22526 9.84716 6.14323 9.8107 6.125C9.79247 6.10677 9.78336 6.07031 9.78336 6.01562C9.7469 5.83333 9.71044 5.72396 9.67398 5.6875C9.65576 5.63281 9.64664 5.57812 9.64664 5.52344C9.6831 5.3776 9.70133 5.28646 9.70133 5.25C9.70133 5.19531 9.6831 5.14974 9.64664 5.11328C9.59195 5.07682 9.53727 5.06771 9.48258 5.08594C9.44612 5.10417 9.40055 5.09505 9.34586 5.05859C9.27294 4.98568 9.23648 4.92188 9.23648 4.86719C9.25471 4.8125 9.2456 4.75781 9.20914 4.70312C9.30029 4.61198 9.34586 4.52083 9.34586 4.42969C9.27294 4.39323 9.20914 4.38411 9.15445 4.40234C9.11799 4.40234 9.08154 4.38411 9.04508 4.34766C8.88102 4.16536 8.78987 4.02865 8.77164 3.9375C8.71695 3.9375 8.67138 3.95573 8.63492 3.99219C8.59846 4.01042 8.54378 4.01042 8.47086 3.99219C8.28857 3.86458 8.16096 3.8099 8.08805 3.82812C8.03336 3.82812 7.96044 3.82812 7.8693 3.82812C7.63232 3.77344 7.45003 3.71875 7.32242 3.66406C7.19482 3.60938 7.14013 3.5 7.15836 3.33594C7.1219 3.35417 7.08544 3.39974 7.04898 3.47266C7.01253 3.52734 6.97607 3.57292 6.93961 3.60938C6.81201 3.6276 6.6844 3.63672 6.5568 3.63672C6.44742 3.63672 6.31982 3.64583 6.17398 3.66406C6.10107 3.70052 6.03727 3.74609 5.98258 3.80078C5.92789 3.83724 5.86409 3.8737 5.79117 3.91016C5.71826 3.98307 5.65445 4.0651 5.59977 4.15625C5.56331 4.22917 5.50862 4.29297 5.4357 4.34766C5.28987 4.38411 5.18049 4.42057 5.10758 4.45703C5.10758 4.52995 5.10758 4.60286 5.10758 4.67578C5.12581 4.73047 5.10758 4.77604 5.05289 4.8125C4.81591 4.90365 4.70654 5.04036 4.72477 5.22266C4.76122 5.40495 4.76122 5.56901 4.72477 5.71484C4.65185 5.82422 4.62451 5.89714 4.64273 5.93359C4.66096 5.95182 4.66096 5.9974 4.64273 6.07031C4.53336 6.19792 4.47867 6.30729 4.47867 6.39844C4.4969 6.52604 4.5607 6.6263 4.67008 6.69922C4.74299 6.71745 4.83414 6.76302 4.94352 6.83594C4.92529 6.92708 4.92529 7.02734 4.94352 7.13672C4.96174 7.22786 4.97997 7.32812 4.9982 7.4375C5.12581 7.51042 5.20784 7.64714 5.2443 7.84766C5.39013 7.86589 5.48128 7.92969 5.51773 8.03906C5.55419 8.13021 5.60888 8.21224 5.6818 8.28516C5.93701 8.30339 6.11018 8.33984 6.20133 8.39453C6.29247 8.44922 6.39273 8.50391 6.50211 8.55859C6.59326 8.55859 6.65706 8.54948 6.69352 8.53125C6.7482 8.49479 6.81201 8.47656 6.88492 8.47656C6.97607 8.56771 7.07633 8.64062 7.1857 8.69531C7.29508 8.73177 7.39534 8.79557 7.48648 8.88672C7.65055 8.92318 7.80549 8.95964 7.95133 8.99609C8.11539 9.03255 8.26122 9.08724 8.38883 9.16016C8.44352 9.16016 8.48909 9.16016 8.52555 9.16016C8.58023 9.14193 8.63492 9.14193 8.68961 9.16016C8.78076 9.17839 8.85367 9.22396 8.90836 9.29688C8.96305 9.35156 9.01773 9.39714 9.07242 9.43359C9.27294 9.41536 9.40055 9.45182 9.45523 9.54297C9.52815 9.61589 9.61018 9.6888 9.70133 9.76172C9.77424 9.77995 9.89273 9.78906 10.0568 9.78906C10.2573 9.91667 10.394 9.98047 10.467 9.98047C10.5399 9.96224 10.6037 9.96224 10.6584 9.98047C10.713 10.0169 10.7586 10.0534 10.7951 10.0898C10.8315 10.1081 10.868 10.1354 10.9045 10.1719C11.105 10.2448 11.2143 10.3086 11.2326 10.3633C11.2508 10.3997 11.2782 10.4362 11.3146 10.4727C11.4604 10.4727 11.588 10.5273 11.6974 10.6367C11.7157 10.7279 11.743 10.8008 11.7795 10.8555C11.8341 10.9102 11.8797 10.974 11.9162 11.0469C12.0073 11.0469 12.0711 11.0742 12.1076 11.1289C12.1623 11.1836 12.2078 11.2292 12.2443 11.2656C12.2625 11.3385 12.2808 11.4023 12.299 11.457C12.3172 11.5117 12.3263 11.5846 12.3263 11.6758C12.3628 11.7669 12.4084 11.849 12.463 11.9219C12.536 11.9766 12.5907 12.0586 12.6271 12.168C12.7 12.2591 12.7729 12.332 12.8459 12.3867C12.9188 12.4414 12.9643 12.5326 12.9826 12.6602C13.0737 12.9154 13.1466 13.0794 13.2013 13.1523C13.2742 13.207 13.2925 13.3255 13.256 13.5078C13.2742 13.6901 13.2742 13.8268 13.256 13.918C13.256 14.0091 13.2378 14.1003 13.2013 14.1914L13.4201 14.3555ZM25.266 3.0625C25.3025 3.11719 25.3116 3.17188 25.2934 3.22656C25.2934 3.28125 25.3116 3.32682 25.348 3.36328C25.2934 3.50911 25.2204 3.64583 25.1293 3.77344C25.1475 3.99219 25.0837 4.15625 24.9379 4.26562C24.8103 4.375 24.71 4.5026 24.6371 4.64844C24.6007 4.86719 24.5095 5.03125 24.3637 5.14062C24.3454 5.23177 24.3272 5.32292 24.309 5.41406C24.309 5.48698 24.3272 5.5599 24.3637 5.63281C24.3272 5.70573 24.2816 5.76042 24.227 5.79688C24.1905 5.83333 24.154 5.88802 24.1176 5.96094C24.1358 6.16146 24.1176 6.27995 24.0629 6.31641C24.0264 6.35286 23.99 6.40755 23.9535 6.48047C23.8259 6.71745 23.7257 6.89062 23.6527 7C23.598 7.09115 23.5525 7.20052 23.516 7.32812C23.4066 7.58333 23.3064 7.75651 23.2152 7.84766C23.1241 7.86589 23.0603 7.85677 23.0238 7.82031C23.0056 7.78385 22.9691 7.75651 22.9145 7.73828C22.8598 7.9388 22.796 8.02083 22.723 7.98438C22.6684 7.92969 22.6319 7.86589 22.6137 7.79297C22.3949 7.8112 22.2582 7.79297 22.2035 7.73828C22.1671 7.68359 22.1033 7.64714 22.0121 7.62891C21.9027 7.61068 21.8116 7.61979 21.7387 7.65625C21.684 7.69271 21.602 7.71094 21.4926 7.71094C21.4197 7.69271 21.3559 7.66536 21.3012 7.62891C21.2647 7.57422 21.21 7.54688 21.1371 7.54688C21.046 7.52865 20.973 7.54688 20.9184 7.60156C20.8637 7.65625 20.7999 7.70182 20.727 7.73828C20.5993 7.70182 20.4809 7.70182 20.3715 7.73828C20.2803 7.77474 20.1618 7.80208 20.016 7.82031C19.8337 7.76562 19.697 7.72917 19.6059 7.71094C19.5329 7.69271 19.4874 7.63802 19.4691 7.54688C19.2504 7.65625 19.1228 7.69271 19.0863 7.65625C19.0681 7.60156 19.0316 7.54688 18.977 7.49219C18.8858 7.51042 18.8038 7.53776 18.7309 7.57422C18.6762 7.59245 18.6306 7.61979 18.5941 7.65625C18.3936 7.52865 18.2569 7.58333 18.184 7.82031C18.2934 8.13021 18.3116 8.32161 18.2387 8.39453C18.1658 8.46745 18.1111 8.56771 18.0746 8.69531C18.1293 8.80469 18.1749 8.92318 18.2113 9.05078C18.2478 9.16016 18.2387 9.28776 18.184 9.43359C18.2204 9.52474 18.2478 9.63411 18.266 9.76172C18.2842 9.88932 18.266 10.0078 18.2113 10.1172C18.3025 10.3724 18.3207 10.6276 18.266 10.8828C18.2296 11.138 18.2296 11.3841 18.266 11.6211C18.3389 11.6393 18.4027 11.6393 18.4574 11.6211C18.5303 11.6029 18.6124 11.5938 18.7035 11.5938C18.9223 11.5391 19.0499 11.5299 19.0863 11.5664C19.141 11.5846 19.1957 11.612 19.2504 11.6484C19.2868 11.6302 19.3324 11.6302 19.3871 11.6484C19.4418 11.6484 19.4965 11.6393 19.5512 11.6211C19.6059 11.6029 19.6514 11.5846 19.6879 11.5664C19.7426 11.5299 19.7973 11.5208 19.852 11.5391C20.0342 11.5755 20.1527 11.5938 20.2074 11.5938C20.2803 11.5938 20.3441 11.5938 20.3988 11.5938C20.5629 11.4661 20.7452 11.4115 20.9457 11.4297C21.0733 11.3385 21.1736 11.2201 21.2465 11.0742C21.3194 10.9284 21.4379 10.8281 21.602 10.7734C21.8025 10.737 21.921 10.6732 21.9574 10.582C21.9939 10.4727 22.0668 10.3997 22.1762 10.3633C22.2491 10.1992 22.3038 10.099 22.3402 10.0625C22.4861 9.95312 22.5954 9.88021 22.6684 9.84375C22.7413 9.80729 22.8324 9.78906 22.9418 9.78906C22.9418 10.0078 22.9691 10.1263 23.0238 10.1445C23.0785 10.1628 23.0876 10.1901 23.0512 10.2266C23.0329 10.2812 22.9965 10.3268 22.9418 10.3633C22.8871 10.3815 22.8415 10.4089 22.8051 10.4453C22.8233 10.5182 22.8233 10.5729 22.8051 10.6094C22.7868 10.6458 22.7777 10.6914 22.7777 10.7461C22.7048 10.819 22.6046 10.8828 22.477 10.9375C22.3858 11.0469 22.3129 11.1927 22.2582 11.375C22.24 11.6667 22.1944 11.8854 22.1215 12.0312C22.0668 12.1771 22.0303 12.3594 22.0121 12.5781C21.7934 12.7057 21.6566 12.8333 21.602 12.9609C21.5655 13.0703 21.5108 13.1706 21.4379 13.2617C21.4197 13.4805 21.3832 13.6263 21.3285 13.6992C21.2921 13.7721 21.2465 13.8451 21.1918 13.918C20.973 14.0456 20.8363 14.1094 20.7816 14.1094C20.727 14.0911 20.6723 14.1003 20.6176 14.1367C20.5264 14.1185 20.4353 14.1094 20.3441 14.1094C20.2712 14.1094 20.1892 14.0911 20.098 14.0547C20.0251 14.0182 19.9431 14.0273 19.852 14.082C19.779 14.1367 19.7061 14.1641 19.6332 14.1641C19.5238 14.1641 19.4418 14.1367 19.3871 14.082C19.3507 14.0273 19.3051 13.9818 19.2504 13.9453C19.1592 13.9635 19.059 13.9818 18.9496 14C18.8585 14.0182 18.7855 14.0547 18.7309 14.1094C18.6579 14.1276 18.5941 14.1276 18.5395 14.1094C18.503 14.0911 18.4483 14.082 18.3754 14.082C18.3207 14.1367 18.2842 14.2096 18.266 14.3008C18.2478 14.3919 18.1931 14.4466 18.102 14.4648C18.1202 14.556 18.1475 14.6289 18.184 14.6836C18.2387 14.7201 18.2934 14.7656 18.348 14.8203C18.3116 15.0391 18.2751 15.2305 18.2387 15.3945C18.184 15.6497 18.184 15.8047 18.2387 15.8594C18.3116 15.8958 18.348 15.9779 18.348 16.1055C18.3298 16.1966 18.2934 16.2786 18.2387 16.3516C18.2022 16.4245 18.1658 16.5065 18.1293 16.5977C18.1475 16.6888 18.1658 16.7617 18.184 16.8164C18.2204 16.8711 18.2296 16.9531 18.2113 17.0625C18.3025 17.4089 18.2934 17.6094 18.184 17.6641C18.0928 17.7188 18.0382 17.819 18.0199 17.9648C18.0564 18.056 18.0837 18.1289 18.102 18.1836C18.1384 18.2383 18.1566 18.3112 18.1566 18.4023C18.1931 18.4388 18.2113 18.4844 18.2113 18.5391C18.2296 18.5938 18.2569 18.6393 18.2934 18.6758C18.5121 18.6211 18.6306 18.612 18.6488 18.6484C18.6671 18.6667 18.6944 18.694 18.7309 18.7305C18.8038 18.694 18.8676 18.6758 18.9223 18.6758C18.977 18.6576 19.0316 18.6302 19.0863 18.5938C19.2139 18.5755 19.3051 18.5846 19.3598 18.6211C19.4145 18.6576 19.4874 18.6849 19.5785 18.7031C19.7243 18.6667 19.8428 18.6211 19.934 18.5664C20.0251 18.4935 20.171 18.4661 20.3715 18.4844C20.4079 18.5208 20.4262 18.5755 20.4262 18.6484C20.4444 18.7031 20.4535 18.7669 20.4535 18.8398C20.5264 18.8398 20.5902 18.8125 20.6449 18.7578C20.6996 18.6849 20.7908 18.6667 20.9184 18.7031C21.1189 18.6302 21.2191 18.6393 21.2191 18.7305C21.365 18.694 21.4652 18.6302 21.5199 18.5391C21.5746 18.4479 21.6658 18.3841 21.7934 18.3477C21.9392 18.3841 22.0303 18.3841 22.0668 18.3477C22.1033 18.293 22.1488 18.2474 22.2035 18.2109C22.4952 18.1745 22.6775 18.0742 22.7504 17.9102C22.8233 17.7279 22.9145 17.5638 23.0238 17.418C23.0785 17.3815 23.1423 17.3633 23.2152 17.3633C23.3064 17.3451 23.3975 17.3268 23.4887 17.3086C23.5434 17.2174 23.5889 17.1081 23.6254 16.9805C23.6618 16.8529 23.7165 16.7435 23.7895 16.6523C23.8441 16.5977 23.8988 16.5521 23.9535 16.5156C24.0082 16.4792 24.0538 16.4154 24.0902 16.3242C24.2361 16.1784 24.3454 16.0508 24.4184 15.9414C24.5095 15.8138 24.6553 15.7682 24.8559 15.8047C25.0199 15.9505 25.0655 16.0417 24.9926 16.0781C24.9197 16.1146 24.8741 16.1966 24.8559 16.3242C24.8741 16.3789 24.8923 16.4336 24.9105 16.4883C24.947 16.543 24.9561 16.6068 24.9379 16.6797C24.7921 16.9167 24.71 17.0716 24.6918 17.1445C24.6736 17.2174 24.6462 17.2904 24.6098 17.3633C24.5915 17.4544 24.6007 17.5273 24.6371 17.582C24.6736 17.6367 24.7009 17.7096 24.7191 17.8008C24.5733 17.9466 24.4913 18.0378 24.473 18.0742C24.473 18.1107 24.473 18.1471 24.473 18.1836C24.473 18.2565 24.4822 18.3112 24.5004 18.3477C24.5368 18.3841 24.5642 18.4297 24.5824 18.4844C24.5824 18.5755 24.5733 18.6484 24.5551 18.7031C24.5368 18.7396 24.5095 18.7852 24.473 18.8398C24.3454 18.9128 24.2634 18.9857 24.227 19.0586C24.2087 19.1133 24.2087 19.168 24.227 19.2227C24.1176 19.4049 24.0538 19.5052 24.0355 19.5234C24.0355 19.5417 24.0173 19.5508 23.9809 19.5508C23.9444 19.6784 23.9171 19.8151 23.8988 19.9609C23.8988 20.0885 23.8715 20.207 23.8168 20.3164C23.7803 20.3529 23.7165 20.362 23.6254 20.3438C23.5525 20.3255 23.5069 20.3438 23.4887 20.3984C23.5069 20.4896 23.5251 20.5625 23.5434 20.6172C23.5616 20.6536 23.5889 20.6992 23.6254 20.7539C23.6254 20.8451 23.6345 20.9271 23.6527 21C23.6892 21.0547 23.7074 21.1276 23.7074 21.2188C23.6527 21.3099 23.5616 21.3372 23.434 21.3008C23.3064 21.2826 23.2061 21.2552 23.1332 21.2188C23.0785 21.237 23.0329 21.2643 22.9965 21.3008C22.96 21.3372 22.9053 21.3555 22.8324 21.3555C22.6501 21.3008 22.5043 21.2643 22.3949 21.2461C22.1579 21.3737 21.9483 21.4284 21.766 21.4102C21.602 21.3919 21.4379 21.3828 21.2738 21.3828C21.0004 21.3828 20.8181 21.3464 20.727 21.2734C20.6358 21.2188 20.5355 21.1914 20.4262 21.1914C20.3533 21.2096 20.2986 21.237 20.2621 21.2734C20.2257 21.3099 20.1618 21.3464 20.0707 21.3828C19.9978 21.3646 19.9249 21.3555 19.852 21.3555C19.779 21.3555 19.697 21.3555 19.6059 21.3555C19.4053 21.2826 19.2413 21.2826 19.1137 21.3555C19.0043 21.4284 18.904 21.401 18.8129 21.2734C18.7764 21.3099 18.7217 21.3555 18.6488 21.4102C18.5941 21.4648 18.5303 21.4466 18.4574 21.3555C18.4574 21.3008 18.4665 21.2461 18.4848 21.1914C18.503 21.1367 18.4939 21.0911 18.4574 21.0547C18.184 21.1458 18.0017 21.2096 17.9105 21.2461C17.8376 21.3008 17.7283 21.3372 17.5824 21.3555C17.3637 21.4102 17.2087 21.4193 17.1176 21.3828C17.0447 21.3646 16.9991 21.3099 16.9809 21.2188C16.7074 21.2734 16.5434 21.3281 16.4887 21.3828C16.4522 21.4557 16.3793 21.4922 16.2699 21.4922C16.1788 21.4193 16.0603 21.3646 15.9145 21.3281C15.7686 21.3099 15.6228 21.319 15.477 21.3555C15.3311 21.319 15.2035 21.3008 15.0941 21.3008C15.003 21.3008 14.9301 21.319 14.8754 21.3555C14.7842 21.4284 14.7113 21.5195 14.6566 21.6289C14.602 21.7383 14.5017 21.8021 14.3559 21.8203C14.2283 21.8021 14.1371 21.7565 14.0824 21.6836C14.0277 21.6289 13.9548 21.5833 13.8637 21.5469C13.7725 21.5469 13.7087 21.5742 13.6723 21.6289C13.6358 21.6836 13.572 21.7109 13.4809 21.7109C13.171 21.5104 12.9431 21.3828 12.7973 21.3281C12.6332 21.2734 12.4509 21.237 12.2504 21.2188C12.2686 21.0729 12.3324 21 12.4418 21C12.5512 21.0182 12.6241 20.9818 12.6605 20.8906C12.7882 20.8542 12.8702 20.8359 12.9066 20.8359C12.9431 20.8177 12.9796 20.7904 13.016 20.7539C13.1072 20.7721 13.1983 20.7721 13.2895 20.7539C13.3624 20.7357 13.4353 20.7448 13.5082 20.7812C13.7634 20.763 13.9457 20.6992 14.0551 20.5898C14.1645 20.4622 14.2829 20.3255 14.4105 20.1797C14.5382 20.1432 14.6111 20.1159 14.6293 20.0977C14.6475 20.0612 14.6749 20.0339 14.7113 20.0156C14.8389 19.7969 14.921 19.6419 14.9574 19.5508C15.0121 19.4596 15.085 19.3776 15.1762 19.3047C15.1397 19.1953 15.1488 19.1042 15.2035 19.0312C15.2764 18.9583 15.3311 18.8763 15.3676 18.7852C15.3129 18.5299 15.3038 18.3659 15.3402 18.293C15.3767 18.2018 15.4132 18.1107 15.4496 18.0195C15.4496 17.8372 15.4223 17.6732 15.3676 17.5273C15.3858 17.3268 15.3949 17.2174 15.3949 17.1992C15.3949 17.1628 15.4132 17.1263 15.4496 17.0898C15.3949 17.0169 15.3585 16.9349 15.3402 16.8438C15.322 16.7526 15.3038 16.6615 15.2855 16.5703C15.2673 16.5156 15.2309 16.4792 15.1762 16.4609C15.1397 16.4245 15.1033 16.3789 15.0668 16.3242C15.1215 16.1419 15.2217 15.9961 15.3676 15.8867C15.3676 15.7773 15.3858 15.6953 15.4223 15.6406C15.4587 15.5677 15.4952 15.4857 15.5316 15.3945C15.4952 15.3034 15.4496 15.2487 15.3949 15.2305C15.3585 15.194 15.3402 15.1393 15.3402 15.0664C15.322 14.957 15.3493 14.8385 15.4223 14.7109C15.5134 14.5651 15.559 14.4193 15.559 14.2734C15.5043 14.0547 15.5043 13.9089 15.559 13.8359C15.6137 13.763 15.6501 13.681 15.6684 13.5898C15.5772 13.444 15.4952 13.2982 15.4223 13.1523C15.3676 13.0065 15.3129 12.8516 15.2582 12.6875C15.2217 12.5964 15.2217 12.5143 15.2582 12.4414C15.2947 12.3685 15.322 12.2865 15.3402 12.1953C15.3402 12.0312 15.3311 11.931 15.3129 11.8945C15.2947 11.8398 15.2947 11.776 15.3129 11.7031C15.2582 11.5026 15.2491 11.3568 15.2855 11.2656C15.322 11.1745 15.3585 11.0742 15.3949 10.9648C15.3949 10.7461 15.3493 10.5729 15.2582 10.4453C15.1853 10.3177 15.1033 10.1901 15.0121 10.0625C15.0121 9.9349 15.0212 9.83464 15.0395 9.76172C15.0759 9.67057 15.1124 9.57943 15.1488 9.48828C15.0941 9.17839 15.0759 8.95964 15.0941 8.83203C15.1306 8.70443 15.1306 8.56771 15.0941 8.42188C15.1124 8.29427 15.1579 8.14844 15.2309 7.98438C15.2126 7.78385 15.2217 7.66536 15.2582 7.62891C15.3129 7.59245 15.3311 7.51953 15.3129 7.41016C15.2764 7.33724 15.2217 7.29167 15.1488 7.27344C15.0941 7.23698 15.0486 7.17318 15.0121 7.08203C15.0121 7.00911 15.0395 6.96354 15.0941 6.94531C15.1488 6.92708 15.1853 6.89062 15.2035 6.83594C15.0941 6.78125 14.9939 6.73568 14.9027 6.69922C14.7387 6.55339 14.5928 6.47135 14.4652 6.45312C14.3376 6.41667 14.2829 6.32552 14.3012 6.17969C14.0277 6.10677 13.8728 6.0612 13.8363 6.04297C13.7999 6.00651 13.7725 5.97005 13.7543 5.93359C13.7361 5.87891 13.6905 5.84245 13.6176 5.82422C13.5629 5.82422 13.5082 5.83333 13.4535 5.85156C13.3806 5.86979 13.3168 5.86068 13.2621 5.82422C13.171 5.73307 13.1527 5.63281 13.2074 5.52344C13.2621 5.39583 13.335 5.29557 13.4262 5.22266C13.6449 5.25911 13.7908 5.27734 13.8637 5.27734C13.9366 5.27734 14.0095 5.25911 14.0824 5.22266C14.2465 5.14974 14.3376 5.13151 14.3559 5.16797C14.3923 5.1862 14.4288 5.20443 14.4652 5.22266C14.684 5.22266 14.7934 5.25 14.7934 5.30469C14.8116 5.34115 14.8389 5.36849 14.8754 5.38672C15.1488 5.38672 15.3402 5.36849 15.4496 5.33203C15.559 5.29557 15.6501 5.25 15.723 5.19531C15.8689 5.23177 15.9691 5.22266 16.0238 5.16797C16.0967 5.09505 16.1879 5.05859 16.2973 5.05859C16.5525 5.16797 16.7348 5.21354 16.8441 5.19531C16.9535 5.17708 17.0629 5.15885 17.1723 5.14062C17.2816 5.10417 17.3819 5.08594 17.473 5.08594C17.5824 5.08594 17.6827 5.11328 17.7738 5.16797C17.8832 5.11328 17.9835 5.04948 18.0746 4.97656C18.184 4.90365 18.3116 4.88542 18.4574 4.92188C18.585 4.97656 18.6762 5.11328 18.7309 5.33203C18.8949 5.25911 19.0681 5.20443 19.2504 5.16797C19.4509 5.11328 19.6514 5.09505 19.852 5.11328C20.0707 5.24089 20.2257 5.29557 20.3168 5.27734C20.4262 5.24089 20.5264 5.25 20.6176 5.30469C20.9822 5.3776 21.2647 5.3138 21.4652 5.11328C21.5564 5.05859 21.6293 4.99479 21.684 4.92188C21.7569 4.83073 21.848 4.76693 21.9574 4.73047C22.0668 4.7487 22.1215 4.83984 22.1215 5.00391C22.1944 4.98568 22.2582 4.95833 22.3129 4.92188C22.3676 4.88542 22.4405 4.88542 22.5316 4.92188C22.641 4.79427 22.723 4.71224 22.7777 4.67578C22.8507 4.63932 22.9327 4.60286 23.0238 4.56641C23.1514 4.7487 23.2243 4.83073 23.2426 4.8125C23.2608 4.77604 23.2882 4.75781 23.3246 4.75781C23.434 4.52083 23.5434 4.35677 23.6527 4.26562C23.7621 4.15625 23.8715 4.05599 23.9809 3.96484C24.1632 3.94661 24.2634 3.88281 24.2816 3.77344C24.3181 3.66406 24.3819 3.59115 24.473 3.55469C24.6371 3.55469 24.7374 3.51823 24.7738 3.44531C24.8103 3.3724 24.8467 3.29948 24.8832 3.22656C24.9379 3.15365 24.9926 3.09896 25.0473 3.0625C25.1202 3.00781 25.1931 3.00781 25.266 3.0625ZM35.7174 7.98438C35.681 8.09375 35.681 8.22135 35.7174 8.36719C35.7539 8.49479 35.7448 8.61328 35.6901 8.72266C35.5442 8.72266 35.4622 8.70443 35.444 8.66797C35.444 8.63151 35.4349 8.59505 35.4166 8.55859C35.2708 8.43099 35.1797 8.33073 35.1432 8.25781C35.0156 8.22135 34.9245 8.15755 34.8698 8.06641C34.8333 7.97526 34.7422 7.92057 34.5963 7.90234C34.414 7.97526 34.2864 7.97526 34.2135 7.90234C34.2135 7.8112 34.1953 7.73828 34.1588 7.68359C34.1224 7.61068 34.0312 7.60156 33.8854 7.65625C33.7213 7.45573 33.612 7.35547 33.5573 7.35547C33.5208 7.33724 33.4843 7.3099 33.4479 7.27344C33.2291 7.23698 33.1107 7.20052 33.0924 7.16406C33.0924 7.10938 33.0742 7.0638 33.0377 7.02734C32.9466 7.04557 32.8828 7.07292 32.8463 7.10938C32.8099 7.14583 32.7643 7.18229 32.7096 7.21875C32.6185 7.21875 32.5091 7.23698 32.3815 7.27344C32.2539 7.3099 32.181 7.25521 32.1627 7.10938C32.0716 7.1276 31.944 7.16406 31.7799 7.21875C31.6341 7.27344 31.5247 7.30078 31.4518 7.30078C31.1966 7.24609 31.0325 7.25521 30.9596 7.32812C30.8867 7.38281 30.7864 7.41016 30.6588 7.41016C30.6771 7.55599 30.6862 7.69271 30.6862 7.82031C30.6862 7.94792 30.6406 8.03906 30.5495 8.09375C30.5859 8.20312 30.6133 8.32161 30.6315 8.44922C30.6679 8.55859 30.7044 8.66797 30.7409 8.77734C30.6679 9.14193 30.6315 9.40625 30.6315 9.57031C30.6497 9.73438 30.6588 9.92578 30.6588 10.1445C30.6953 10.3268 30.7044 10.4362 30.6862 10.4727C30.6679 10.4909 30.6406 10.5182 30.6041 10.5547C30.6041 10.6276 30.5859 10.6914 30.5495 10.7461C30.5312 10.7826 30.5403 10.8372 30.5768 10.9102C30.5403 10.9648 30.513 11.0378 30.4948 11.1289C30.4948 11.2201 30.4857 11.3112 30.4674 11.4023C30.4857 11.4935 30.513 11.5755 30.5495 11.6484C30.6041 11.7214 30.6406 11.8125 30.6588 11.9219C30.6588 12.0495 30.6315 12.1771 30.5768 12.3047C30.5403 12.4141 30.5039 12.5143 30.4674 12.6055C30.5039 12.7148 30.5403 12.8424 30.5768 12.9883C30.6133 13.1159 30.6497 13.2344 30.6862 13.3438C30.6862 13.599 30.6771 13.7812 30.6588 13.8906C30.6406 14 30.6406 14.1094 30.6588 14.2188C30.8229 14.3281 30.8867 14.4193 30.8502 14.4922C30.8138 14.5469 30.8138 14.6107 30.8502 14.6836C30.7591 14.7747 30.7135 14.8932 30.7135 15.0391C30.7135 15.1849 30.6953 15.3307 30.6588 15.4766C30.6953 15.5495 30.7044 15.6315 30.6862 15.7227C30.6862 15.8138 30.7044 15.8867 30.7409 15.9414C30.7044 16.0872 30.7135 16.2422 30.7682 16.4062C30.8229 16.5521 30.8138 16.6888 30.7409 16.8164C30.7591 16.8529 30.7864 16.8984 30.8229 16.9531C30.8593 16.9896 30.8867 17.0352 30.9049 17.0898C30.9049 17.1628 30.8958 17.2174 30.8776 17.2539C30.8776 17.2904 30.8685 17.3359 30.8502 17.3906C30.8867 17.5547 30.9049 17.6549 30.9049 17.6914C30.9232 17.7279 30.9232 17.7552 30.9049 17.7734C30.9778 17.9193 31.0143 18.138 31.0143 18.4297C30.9778 18.4844 30.9596 18.5482 30.9596 18.6211C30.9778 18.694 30.9687 18.7669 30.9323 18.8398C30.914 18.8945 30.8867 18.9492 30.8502 19.0039C30.8138 19.0404 30.7955 19.0859 30.7955 19.1406C30.7773 19.2865 30.7955 19.4049 30.8502 19.4961C30.9049 19.569 30.9323 19.6693 30.9323 19.7969C30.8958 19.8333 30.8685 19.8789 30.8502 19.9336C30.832 19.9701 30.8047 20.0156 30.7682 20.0703C30.7864 20.1068 30.8047 20.1523 30.8229 20.207C30.8593 20.2617 30.8958 20.3164 30.9323 20.3711C31.0416 20.5898 31.0781 20.7174 31.0416 20.7539C31.0052 20.918 30.9414 21 30.8502 21C30.7773 21.0365 30.7135 21.082 30.6588 21.1367C30.6224 21.1914 30.5586 21.2188 30.4674 21.2188C30.2487 21.3646 30.112 21.4102 30.0573 21.3555C30.0208 21.3008 29.957 21.2552 29.8659 21.2188C29.7747 21.2188 29.7291 21.2552 29.7291 21.3281C29.7291 21.401 29.6927 21.4557 29.6198 21.4922C29.5833 21.6198 29.556 21.7292 29.5377 21.8203C29.5195 21.9297 29.4648 22.0208 29.3737 22.0938C29.1549 22.1484 29.0729 22.2305 29.1276 22.3398C29.2005 22.4674 29.2005 22.5768 29.1276 22.668C28.9817 22.668 28.8997 22.6862 28.8815 22.7227C28.8815 22.7591 28.8633 22.7773 28.8268 22.7773C28.8086 22.9232 28.7812 23.0143 28.7448 23.0508C28.7083 23.0872 28.6536 23.1055 28.5807 23.1055C28.5442 23.1966 28.4987 23.2786 28.444 23.3516C28.3893 23.4245 28.362 23.5065 28.362 23.5977C28.2526 23.7435 28.1705 23.8984 28.1159 24.0625C28.0612 24.099 28.0156 24.1445 27.9791 24.1992C27.9609 24.2721 27.9245 24.3359 27.8698 24.3906C27.7422 24.263 27.7057 24.1354 27.7604 24.0078C27.8151 23.8984 27.8242 23.7982 27.7877 23.707C27.806 23.543 27.8151 23.4154 27.8151 23.3242C27.8151 23.2513 27.806 23.1693 27.7877 23.0781C27.8242 23.0052 27.8789 22.9141 27.9518 22.8047C27.9518 22.7318 27.9518 22.6589 27.9518 22.5859C27.97 22.5312 27.97 22.4766 27.9518 22.4219C27.97 22.3307 28.0065 22.2396 28.0612 22.1484C28.1341 22.0755 28.1614 21.9935 28.1432 21.9023C28.1432 21.8294 28.125 21.7747 28.0885 21.7383C28.0521 21.7201 28.0247 21.6836 28.0065 21.6289C28.0065 21.4648 27.9974 21.3555 27.9791 21.3008C28.0521 21.2096 28.0885 21.1003 28.0885 20.9727C28.0885 20.8451 28.1067 20.7174 28.1432 20.5898C28.0703 20.444 28.0612 20.2891 28.1159 20.125C28.1888 19.9609 28.207 19.806 28.1705 19.6602C28.1705 19.4779 28.1341 19.3685 28.0612 19.332C27.9883 19.2773 27.9336 19.1953 27.8971 19.0859C27.9883 18.9036 28.0065 18.7031 27.9518 18.4844C27.9883 18.4115 28.0156 18.3294 28.0338 18.2383C28.0703 18.1471 28.0703 18.0469 28.0338 17.9375C28.0885 17.6823 28.0976 17.5 28.0612 17.3906C28.0976 17.263 28.1341 17.1536 28.1705 17.0625C28.2252 16.9531 28.2526 16.8255 28.2526 16.6797C28.1979 16.5339 28.1797 16.4427 28.1979 16.4062C28.2161 16.3698 28.2252 16.3333 28.2252 16.2969C28.3164 15.8958 28.3073 15.5859 28.1979 15.3672C28.1067 15.1302 28.0338 14.9115 27.9791 14.7109C27.9974 14.4375 28.0156 14.2005 28.0338 14C28.0703 13.7812 28.125 13.5716 28.1979 13.3711C28.2161 13.2435 28.2252 13.1159 28.2252 12.9883C28.2252 12.8607 28.2343 12.7513 28.2526 12.6602C28.2161 12.5872 28.1888 12.5326 28.1705 12.4961C28.1523 12.4414 28.125 12.3776 28.0885 12.3047C28.0885 12.1589 28.0976 12.0312 28.1159 11.9219C28.1341 11.7943 28.1432 11.6667 28.1432 11.5391C28.125 11.4844 28.1067 11.4388 28.0885 11.4023C28.0885 11.3477 28.0885 11.293 28.0885 11.2383C28.0885 11.1654 28.0976 11.0924 28.1159 11.0195C28.1341 10.9466 28.1523 10.8737 28.1705 10.8008C28.207 10.7096 28.2435 10.5729 28.2799 10.3906C28.2617 10.099 28.2617 9.83464 28.2799 9.59766C28.2982 9.36068 28.289 9.10547 28.2526 8.83203C28.2161 8.6862 28.1888 8.54036 28.1705 8.39453C28.1705 8.2487 28.1523 8.12109 28.1159 8.01172C28.1341 7.9388 28.1432 7.875 28.1432 7.82031C28.1432 7.7474 28.1523 7.67448 28.1705 7.60156C28.0976 7.49219 28.0521 7.42839 28.0338 7.41016C28.0156 7.39193 27.9974 7.36458 27.9791 7.32812C27.888 7.34635 27.7513 7.36458 27.569 7.38281C27.4049 7.40104 27.2682 7.39193 27.1588 7.35547C27.0677 7.39193 26.9401 7.41927 26.776 7.4375C26.6302 7.4375 26.5208 7.39193 26.4479 7.30078C26.3567 7.31901 26.2565 7.31901 26.1471 7.30078C26.056 7.26432 25.9739 7.24609 25.901 7.24609C25.7916 7.26432 25.6367 7.33724 25.4362 7.46484C25.2539 7.59245 25.108 7.64714 24.9987 7.62891C24.9075 7.61068 24.8528 7.58333 24.8346 7.54688C24.8164 7.49219 24.789 7.44661 24.7526 7.41016C24.6797 7.42839 24.625 7.46484 24.5885 7.51953C24.5703 7.55599 24.5338 7.59245 24.4791 7.62891C24.388 7.61068 24.3242 7.61979 24.2877 7.65625C24.2513 7.69271 24.2148 7.72917 24.1784 7.76562C23.9778 7.82031 23.8867 7.875 23.9049 7.92969C23.9049 7.96615 23.8867 8.0026 23.8502 8.03906C23.7591 8.11198 23.6862 8.17578 23.6315 8.23047C23.5768 8.28516 23.5312 8.3763 23.4948 8.50391C23.3854 8.66797 23.3307 8.77734 23.3307 8.83203C23.3307 8.88672 23.3125 8.93229 23.276 8.96875C23.1484 8.96875 23.0573 8.92318 23.0026 8.83203C23.0026 8.77734 23.0208 8.71354 23.0573 8.64062C23.0755 8.56771 23.0846 8.49479 23.0846 8.42188C23.0846 8.16667 23.112 8.0026 23.1666 7.92969C23.2031 7.85677 23.2396 7.77474 23.276 7.68359C23.3125 7.53776 23.3398 7.4375 23.358 7.38281C23.3763 7.3099 23.4036 7.25521 23.4401 7.21875C23.4036 7.07292 23.4218 6.96354 23.4948 6.89062C23.5495 6.79948 23.595 6.70833 23.6315 6.61719C23.6679 6.38021 23.7409 6.21615 23.8502 6.125C23.9596 6.01562 24.0599 5.91536 24.151 5.82422C24.0963 5.64193 24.0872 5.53255 24.1237 5.49609C24.1419 5.44141 24.1419 5.3776 24.1237 5.30469C24.1601 5.25 24.1966 5.19531 24.233 5.14062C24.2513 5.08594 24.2786 5.03125 24.3151 4.97656C24.4791 4.92188 24.5612 4.8763 24.5612 4.83984C24.5612 4.80339 24.5794 4.77604 24.6159 4.75781C24.7617 4.77604 24.8528 4.83073 24.8893 4.92188C24.944 4.99479 25.0078 5.06771 25.0807 5.14062C25.2448 5.10417 25.4635 5.03125 25.737 4.92188C26.0104 4.8125 26.2565 4.76693 26.4752 4.78516C26.5482 4.82161 26.5573 4.8763 26.5026 4.94922C26.4661 5.02214 26.4843 5.07682 26.5573 5.11328C26.6849 5.07682 26.7942 5.02214 26.8854 4.94922C26.9948 4.8763 27.1224 4.88542 27.2682 4.97656C27.3958 4.95833 27.5143 4.92188 27.6237 4.86719C27.733 4.8125 27.8515 4.78516 27.9791 4.78516C28.0338 4.96745 28.125 5.08594 28.2526 5.14062C28.3984 5.03125 28.4896 4.98568 28.526 5.00391C28.5625 5.02214 28.5989 5.04036 28.6354 5.05859C28.7083 4.98568 28.7903 4.96745 28.8815 5.00391C28.9909 5.02214 29.082 5.04948 29.1549 5.08594C29.3372 5.04948 29.4648 5.01302 29.5377 4.97656C29.7747 4.86719 29.9114 4.83984 29.9479 4.89453C30.0026 4.93099 30.0755 4.96745 30.1666 5.00391C30.2578 4.96745 30.3398 4.93099 30.4127 4.89453C30.4857 4.85807 30.5859 4.84896 30.7135 4.86719C30.7864 4.90365 30.8411 4.93099 30.8776 4.94922C30.9323 4.96745 30.987 4.99479 31.0416 5.03125C31.1146 4.99479 31.1784 4.94922 31.233 4.89453C31.2877 4.83984 31.3607 4.79427 31.4518 4.75781C31.6705 4.75781 31.789 4.76693 31.8073 4.78516C31.8255 4.78516 31.8893 4.79427 31.9987 4.8125C32.0534 4.83073 32.1263 4.84896 32.2174 4.86719C32.3086 4.88542 32.3724 4.89453 32.4088 4.89453C32.5182 4.89453 32.6093 4.85807 32.6823 4.78516C32.7552 4.71224 32.819 4.73958 32.8737 4.86719C32.9466 4.83073 33.0286 4.82161 33.1198 4.83984C33.2291 4.83984 33.3112 4.85807 33.3659 4.89453C33.4752 4.96745 33.5664 4.98568 33.6393 4.94922C33.7304 4.91276 33.7942 4.84896 33.8307 4.75781C34.013 4.73958 34.1315 4.80339 34.1862 4.94922C34.4049 5.02214 34.4778 5.11328 34.4049 5.22266C34.332 5.33203 34.332 5.44141 34.4049 5.55078C34.4961 5.6237 34.6054 5.66927 34.733 5.6875C34.8607 5.6875 34.9336 5.74219 34.9518 5.85156C34.8789 6.08854 34.8424 6.27083 34.8424 6.39844C34.8789 6.48958 34.9427 6.54427 35.0338 6.5625C35.1432 6.58073 35.2252 6.6263 35.2799 6.69922C35.2799 6.80859 35.2526 6.89974 35.1979 6.97266C35.1432 7.04557 35.1523 7.1276 35.2252 7.21875C35.2799 7.25521 35.3437 7.30078 35.4166 7.35547C35.4896 7.39193 35.5442 7.44661 35.5807 7.51953C35.6172 7.77474 35.6627 7.92969 35.7174 7.98438ZM45.5673 7.98438C45.5308 8.09375 45.5308 8.22135 45.5673 8.36719C45.6037 8.49479 45.5946 8.61328 45.5399 8.72266C45.3941 8.72266 45.3121 8.70443 45.2938 8.66797C45.2938 8.63151 45.2847 8.59505 45.2665 8.55859C45.1206 8.43099 45.0295 8.33073 44.993 8.25781C44.8654 8.22135 44.7743 8.15755 44.7196 8.06641C44.6831 7.97526 44.592 7.92057 44.4462 7.90234C44.2639 7.97526 44.1363 7.97526 44.0634 7.90234C44.0634 7.8112 44.0451 7.73828 44.0087 7.68359C43.9722 7.61068 43.8811 7.60156 43.7352 7.65625C43.5712 7.45573 43.4618 7.35547 43.4071 7.35547C43.3706 7.33724 43.3342 7.3099 43.2977 7.27344C43.079 7.23698 42.9605 7.20052 42.9423 7.16406C42.9423 7.10938 42.924 7.0638 42.8876 7.02734C42.7964 7.04557 42.7326 7.07292 42.6962 7.10938C42.6597 7.14583 42.6141 7.18229 42.5595 7.21875C42.4683 7.21875 42.3589 7.23698 42.2313 7.27344C42.1037 7.3099 42.0308 7.25521 42.0126 7.10938C41.9214 7.1276 41.7938 7.16406 41.6298 7.21875C41.4839 7.27344 41.3746 7.30078 41.3016 7.30078C41.0464 7.24609 40.8824 7.25521 40.8095 7.32812C40.7365 7.38281 40.6363 7.41016 40.5087 7.41016C40.5269 7.55599 40.536 7.69271 40.536 7.82031C40.536 7.94792 40.4904 8.03906 40.3993 8.09375C40.4358 8.20312 40.4631 8.32161 40.4813 8.44922C40.5178 8.55859 40.5542 8.66797 40.5907 8.77734C40.5178 9.14193 40.4813 9.40625 40.4813 9.57031C40.4996 9.73438 40.5087 9.92578 40.5087 10.1445C40.5451 10.3268 40.5542 10.4362 40.536 10.4727C40.5178 10.4909 40.4904 10.5182 40.454 10.5547C40.454 10.6276 40.4358 10.6914 40.3993 10.7461C40.3811 10.7826 40.3902 10.8372 40.4266 10.9102C40.3902 10.9648 40.3628 11.0378 40.3446 11.1289C40.3446 11.2201 40.3355 11.3112 40.3173 11.4023C40.3355 11.4935 40.3628 11.5755 40.3993 11.6484C40.454 11.7214 40.4904 11.8125 40.5087 11.9219C40.5087 12.0495 40.4813 12.1771 40.4266 12.3047C40.3902 12.4141 40.3537 12.5143 40.3173 12.6055C40.3537 12.7148 40.3902 12.8424 40.4266 12.9883C40.4631 13.1159 40.4996 13.2344 40.536 13.3438C40.536 13.599 40.5269 13.7812 40.5087 13.8906C40.4904 14 40.4904 14.1094 40.5087 14.2188C40.6727 14.3281 40.7365 14.4193 40.7001 14.4922C40.6636 14.5469 40.6636 14.6107 40.7001 14.6836C40.6089 14.7747 40.5634 14.8932 40.5634 15.0391C40.5634 15.1849 40.5451 15.3307 40.5087 15.4766C40.5451 15.5495 40.5542 15.6315 40.536 15.7227C40.536 15.8138 40.5542 15.8867 40.5907 15.9414C40.5542 16.0872 40.5634 16.2422 40.618 16.4062C40.6727 16.5521 40.6636 16.6888 40.5907 16.8164C40.6089 16.8529 40.6363 16.8984 40.6727 16.9531C40.7092 16.9896 40.7365 17.0352 40.7548 17.0898C40.7548 17.1628 40.7456 17.2174 40.7274 17.2539C40.7274 17.2904 40.7183 17.3359 40.7001 17.3906C40.7365 17.5547 40.7548 17.6549 40.7548 17.6914C40.773 17.7279 40.773 17.7552 40.7548 17.7734C40.8277 17.9193 40.8641 18.138 40.8641 18.4297C40.8277 18.4844 40.8095 18.5482 40.8095 18.6211C40.8277 18.694 40.8186 18.7669 40.7821 18.8398C40.7639 18.8945 40.7365 18.9492 40.7001 19.0039C40.6636 19.0404 40.6454 19.0859 40.6454 19.1406C40.6272 19.2865 40.6454 19.4049 40.7001 19.4961C40.7548 19.569 40.7821 19.6693 40.7821 19.7969C40.7456 19.8333 40.7183 19.8789 40.7001 19.9336C40.6818 19.9701 40.6545 20.0156 40.618 20.0703C40.6363 20.1068 40.6545 20.1523 40.6727 20.207C40.7092 20.2617 40.7456 20.3164 40.7821 20.3711C40.8915 20.5898 40.9279 20.7174 40.8915 20.7539C40.855 20.918 40.7912 21 40.7001 21C40.6272 21.0365 40.5634 21.082 40.5087 21.1367C40.4722 21.1914 40.4084 21.2188 40.3173 21.2188C40.0985 21.3646 39.9618 21.4102 39.9071 21.3555C39.8706 21.3008 39.8068 21.2552 39.7157 21.2188C39.6246 21.2188 39.579 21.2552 39.579 21.3281C39.579 21.401 39.5425 21.4557 39.4696 21.4922C39.4331 21.6198 39.4058 21.7292 39.3876 21.8203C39.3693 21.9297 39.3147 22.0208 39.2235 22.0938C39.0048 22.1484 38.9227 22.2305 38.9774 22.3398C39.0503 22.4674 39.0503 22.5768 38.9774 22.668C38.8316 22.668 38.7496 22.6862 38.7313 22.7227C38.7313 22.7591 38.7131 22.7773 38.6766 22.7773C38.6584 22.9232 38.6311 23.0143 38.5946 23.0508C38.5581 23.0872 38.5035 23.1055 38.4305 23.1055C38.3941 23.1966 38.3485 23.2786 38.2938 23.3516C38.2391 23.4245 38.2118 23.5065 38.2118 23.5977C38.1024 23.7435 38.0204 23.8984 37.9657 24.0625C37.911 24.099 37.8654 24.1445 37.829 24.1992C37.8108 24.2721 37.7743 24.3359 37.7196 24.3906C37.592 24.263 37.5555 24.1354 37.6102 24.0078C37.6649 23.8984 37.674 23.7982 37.6376 23.707C37.6558 23.543 37.6649 23.4154 37.6649 23.3242C37.6649 23.2513 37.6558 23.1693 37.6376 23.0781C37.674 23.0052 37.7287 22.9141 37.8016 22.8047C37.8016 22.7318 37.8016 22.6589 37.8016 22.5859C37.8199 22.5312 37.8199 22.4766 37.8016 22.4219C37.8199 22.3307 37.8563 22.2396 37.911 22.1484C37.9839 22.0755 38.0113 21.9935 37.993 21.9023C37.993 21.8294 37.9748 21.7747 37.9384 21.7383C37.9019 21.7201 37.8746 21.6836 37.8563 21.6289C37.8563 21.4648 37.8472 21.3555 37.829 21.3008C37.9019 21.2096 37.9384 21.1003 37.9384 20.9727C37.9384 20.8451 37.9566 20.7174 37.993 20.5898C37.9201 20.444 37.911 20.2891 37.9657 20.125C38.0386 19.9609 38.0568 19.806 38.0204 19.6602C38.0204 19.4779 37.9839 19.3685 37.911 19.332C37.8381 19.2773 37.7834 19.1953 37.747 19.0859C37.8381 18.9036 37.8563 18.7031 37.8016 18.4844C37.8381 18.4115 37.8654 18.3294 37.8837 18.2383C37.9201 18.1471 37.9201 18.0469 37.8837 17.9375C37.9384 17.6823 37.9475 17.5 37.911 17.3906C37.9475 17.263 37.9839 17.1536 38.0204 17.0625C38.0751 16.9531 38.1024 16.8255 38.1024 16.6797C38.0477 16.5339 38.0295 16.4427 38.0477 16.4062C38.066 16.3698 38.0751 16.3333 38.0751 16.2969C38.1662 15.8958 38.1571 15.5859 38.0477 15.3672C37.9566 15.1302 37.8837 14.9115 37.829 14.7109C37.8472 14.4375 37.8654 14.2005 37.8837 14C37.9201 13.7812 37.9748 13.5716 38.0477 13.3711C38.066 13.2435 38.0751 13.1159 38.0751 12.9883C38.0751 12.8607 38.0842 12.7513 38.1024 12.6602C38.066 12.5872 38.0386 12.5326 38.0204 12.4961C38.0022 12.4414 37.9748 12.3776 37.9384 12.3047C37.9384 12.1589 37.9475 12.0312 37.9657 11.9219C37.9839 11.7943 37.993 11.6667 37.993 11.5391C37.9748 11.4844 37.9566 11.4388 37.9384 11.4023C37.9384 11.3477 37.9384 11.293 37.9384 11.2383C37.9384 11.1654 37.9475 11.0924 37.9657 11.0195C37.9839 10.9466 38.0022 10.8737 38.0204 10.8008C38.0568 10.7096 38.0933 10.5729 38.1298 10.3906C38.1115 10.099 38.1115 9.83464 38.1298 9.59766C38.148 9.36068 38.1389 9.10547 38.1024 8.83203C38.066 8.6862 38.0386 8.54036 38.0204 8.39453C38.0204 8.2487 38.0022 8.12109 37.9657 8.01172C37.9839 7.9388 37.993 7.875 37.993 7.82031C37.993 7.7474 38.0022 7.67448 38.0204 7.60156C37.9475 7.49219 37.9019 7.42839 37.8837 7.41016C37.8654 7.39193 37.8472 7.36458 37.829 7.32812C37.7378 7.34635 37.6011 7.36458 37.4188 7.38281C37.2548 7.40104 37.118 7.39193 37.0087 7.35547C36.9175 7.39193 36.7899 7.41927 36.6259 7.4375C36.48 7.4375 36.3706 7.39193 36.2977 7.30078C36.2066 7.31901 36.1063 7.31901 35.997 7.30078C35.9058 7.26432 35.8238 7.24609 35.7509 7.24609C35.6415 7.26432 35.4865 7.33724 35.286 7.46484C35.1037 7.59245 34.9579 7.64714 34.8485 7.62891C34.7574 7.61068 34.7027 7.58333 34.6845 7.54688C34.6662 7.49219 34.6389 7.44661 34.6024 7.41016C34.5295 7.42839 34.4748 7.46484 34.4384 7.51953C34.4201 7.55599 34.3837 7.59245 34.329 7.62891C34.2378 7.61068 34.174 7.61979 34.1376 7.65625C34.1011 7.69271 34.0647 7.72917 34.0282 7.76562C33.8277 7.82031 33.7365 7.875 33.7548 7.92969C33.7548 7.96615 33.7365 8.0026 33.7001 8.03906C33.6089 8.11198 33.536 8.17578 33.4813 8.23047C33.4266 8.28516 33.3811 8.3763 33.3446 8.50391C33.2352 8.66797 33.1805 8.77734 33.1805 8.83203C33.1805 8.88672 33.1623 8.93229 33.1259 8.96875C32.9983 8.96875 32.9071 8.92318 32.8524 8.83203C32.8524 8.77734 32.8706 8.71354 32.9071 8.64062C32.9253 8.56771 32.9345 8.49479 32.9345 8.42188C32.9345 8.16667 32.9618 8.0026 33.0165 7.92969C33.0529 7.85677 33.0894 7.77474 33.1259 7.68359C33.1623 7.53776 33.1897 7.4375 33.2079 7.38281C33.2261 7.3099 33.2535 7.25521 33.2899 7.21875C33.2535 7.07292 33.2717 6.96354 33.3446 6.89062C33.3993 6.79948 33.4449 6.70833 33.4813 6.61719C33.5178 6.38021 33.5907 6.21615 33.7001 6.125C33.8095 6.01562 33.9097 5.91536 34.0009 5.82422C33.9462 5.64193 33.9371 5.53255 33.9735 5.49609C33.9917 5.44141 33.9917 5.3776 33.9735 5.30469C34.01 5.25 34.0464 5.19531 34.0829 5.14062C34.1011 5.08594 34.1285 5.03125 34.1649 4.97656C34.329 4.92188 34.411 4.8763 34.411 4.83984C34.411 4.80339 34.4292 4.77604 34.4657 4.75781C34.6115 4.77604 34.7027 4.83073 34.7391 4.92188C34.7938 4.99479 34.8576 5.06771 34.9305 5.14062C35.0946 5.10417 35.3134 5.03125 35.5868 4.92188C35.8602 4.8125 36.1063 4.76693 36.3251 4.78516C36.398 4.82161 36.4071 4.8763 36.3524 4.94922C36.316 5.02214 36.3342 5.07682 36.4071 5.11328C36.5347 5.07682 36.6441 5.02214 36.7352 4.94922C36.8446 4.8763 36.9722 4.88542 37.118 4.97656C37.2456 4.95833 37.3641 4.92188 37.4735 4.86719C37.5829 4.8125 37.7014 4.78516 37.829 4.78516C37.8837 4.96745 37.9748 5.08594 38.1024 5.14062C38.2483 5.03125 38.3394 4.98568 38.3759 5.00391C38.4123 5.02214 38.4488 5.04036 38.4852 5.05859C38.5581 4.98568 38.6402 4.96745 38.7313 5.00391C38.8407 5.02214 38.9318 5.04948 39.0048 5.08594C39.1871 5.04948 39.3147 5.01302 39.3876 4.97656C39.6246 4.86719 39.7613 4.83984 39.7977 4.89453C39.8524 4.93099 39.9253 4.96745 40.0165 5.00391C40.1076 4.96745 40.1897 4.93099 40.2626 4.89453C40.3355 4.85807 40.4358 4.84896 40.5634 4.86719C40.6363 4.90365 40.691 4.93099 40.7274 4.94922C40.7821 4.96745 40.8368 4.99479 40.8915 5.03125C40.9644 4.99479 41.0282 4.94922 41.0829 4.89453C41.1376 4.83984 41.2105 4.79427 41.3016 4.75781C41.5204 4.75781 41.6389 4.76693 41.6571 4.78516C41.6753 4.78516 41.7391 4.79427 41.8485 4.8125C41.9032 4.83073 41.9761 4.84896 42.0673 4.86719C42.1584 4.88542 42.2222 4.89453 42.2587 4.89453C42.368 4.89453 42.4592 4.85807 42.5321 4.78516C42.605 4.71224 42.6688 4.73958 42.7235 4.86719C42.7964 4.83073 42.8785 4.82161 42.9696 4.83984C43.079 4.83984 43.161 4.85807 43.2157 4.89453C43.3251 4.96745 43.4162 4.98568 43.4891 4.94922C43.5803 4.91276 43.6441 4.84896 43.6805 4.75781C43.8628 4.73958 43.9813 4.80339 44.036 4.94922C44.2548 5.02214 44.3277 5.11328 44.2548 5.22266C44.1818 5.33203 44.1818 5.44141 44.2548 5.55078C44.3459 5.6237 44.4553 5.66927 44.5829 5.6875C44.7105 5.6875 44.7834 5.74219 44.8016 5.85156C44.7287 6.08854 44.6923 6.27083 44.6923 6.39844C44.7287 6.48958 44.7925 6.54427 44.8837 6.5625C44.993 6.58073 45.0751 6.6263 45.1298 6.69922C45.1298 6.80859 45.1024 6.89974 45.0477 6.97266C44.993 7.04557 45.0022 7.1276 45.0751 7.21875C45.1298 7.25521 45.1936 7.30078 45.2665 7.35547C45.3394 7.39193 45.3941 7.44661 45.4305 7.51953C45.467 7.77474 45.5126 7.92969 45.5673 7.98438ZM48.9093 15.0938C48.9275 15.2214 48.8911 15.3398 48.7999 15.4492C48.727 15.5586 48.6723 15.668 48.6359 15.7773C48.7088 15.8867 48.7452 16.0143 48.7452 16.1602C48.7635 16.2878 48.7635 16.4245 48.7452 16.5703C48.727 16.7161 48.7088 16.862 48.6905 17.0078C48.6905 17.1536 48.7088 17.2904 48.7452 17.418C48.6905 17.5456 48.6632 17.6823 48.6632 17.8281C48.6814 17.974 48.6997 18.1198 48.7179 18.2656C48.6632 18.5026 48.6541 18.6758 48.6905 18.7852C48.727 18.8763 48.7452 18.9948 48.7452 19.1406C48.6359 19.3776 48.5903 19.5417 48.6085 19.6328C48.645 19.724 48.645 19.7969 48.6085 19.8516C48.6997 20.125 48.7361 20.2891 48.7179 20.3438C48.6997 20.3984 48.7088 20.4622 48.7452 20.5352C48.7088 20.5716 48.6905 20.6354 48.6905 20.7266C48.6905 20.8177 48.6723 20.8906 48.6359 20.9453C48.5083 20.9453 48.4353 20.9089 48.4171 20.8359C48.3989 20.763 48.3624 20.7083 48.3077 20.6719C48.253 20.6901 48.1619 20.6992 48.0343 20.6992C47.9249 20.6992 47.8247 20.681 47.7335 20.6445C47.6606 20.681 47.5968 20.7266 47.5421 20.7812C47.5057 20.8359 47.4419 20.8451 47.3507 20.8086C47.3142 20.8451 47.2869 20.8997 47.2687 20.9727C47.2504 21.0273 47.2049 21.0729 47.132 21.1094C47.0044 20.9635 46.9314 20.8542 46.9132 20.7812C46.9132 20.6901 46.895 20.6172 46.8585 20.5625C46.5486 20.763 46.339 20.8177 46.2296 20.7266C46.0109 20.7812 45.8195 20.7448 45.6554 20.6172C45.6372 20.3255 45.6736 20.1523 45.7648 20.0977C45.7283 20.0065 45.701 19.9154 45.6827 19.8242C45.6827 19.7148 45.6736 19.6146 45.6554 19.5234C45.6919 19.4505 45.7283 19.3594 45.7648 19.25C45.8012 19.1406 45.8012 19.0221 45.7648 18.8945C45.6919 18.694 45.6645 18.5391 45.6827 18.4297C45.7192 18.3203 45.7283 18.1927 45.7101 18.0469C45.7465 17.8099 45.7921 17.6549 45.8468 17.582C45.9015 17.5091 45.9106 17.418 45.8741 17.3086C45.8195 17.1628 45.783 17.0078 45.7648 16.8438C45.7465 16.6797 45.783 16.5339 45.8741 16.4062C45.8377 16.3151 45.8103 16.224 45.7921 16.1328C45.7921 16.0234 45.7739 15.9232 45.7374 15.832C45.7374 15.6862 45.7465 15.5677 45.7648 15.4766C45.7648 15.4219 45.7557 15.3763 45.7374 15.3398C45.7374 15.2852 45.7374 15.2305 45.7374 15.1758C45.6463 15.0846 45.6098 14.9297 45.628 14.7109C45.6463 14.4922 45.701 14.3464 45.7921 14.2734C45.701 14.0182 45.6645 13.7266 45.6827 13.3984C45.701 13.0521 45.6919 12.724 45.6554 12.4141C45.7283 12.3047 45.7465 12.1589 45.7101 11.9766C45.7648 11.8125 45.783 11.694 45.7648 11.6211C45.7465 11.5482 45.7557 11.4753 45.7921 11.4023C45.7374 11.3112 45.7101 11.1745 45.7101 10.9922C45.7283 10.8099 45.783 10.6823 45.8741 10.6094C45.8377 10.5365 45.8012 10.4544 45.7648 10.3633C45.7465 10.2721 45.7648 10.1992 45.8195 10.1445C45.783 10.0169 45.7465 9.91667 45.7101 9.84375C45.6736 9.7526 45.6463 9.64323 45.628 9.51562C45.6098 9.44271 45.6189 9.39714 45.6554 9.37891C45.6919 9.34245 45.701 9.27865 45.6827 9.1875C45.8103 9.02344 45.8833 8.88672 45.9015 8.77734C45.9197 8.66797 45.9926 8.61328 46.1202 8.61328C45.9015 8.3763 45.7648 8.23958 45.7101 8.20312C45.6919 8.14844 45.6645 8.10286 45.628 8.06641C45.5916 8.01172 45.5825 7.9388 45.6007 7.84766C45.6554 7.62891 45.6463 7.46484 45.5734 7.35547C45.5004 7.24609 45.4184 7.14583 45.3273 7.05469C45.309 6.98177 45.2908 6.91797 45.2726 6.86328C45.2544 6.80859 45.2544 6.73568 45.2726 6.64453C45.3273 6.24349 45.1997 6.01562 44.8898 5.96094C44.8169 5.8151 44.7622 5.74219 44.7257 5.74219C44.7075 5.74219 44.6801 5.72396 44.6437 5.6875C44.5525 5.50521 44.4432 5.43229 44.3155 5.46875C44.2062 5.48698 44.115 5.45964 44.0421 5.38672C44.0421 5.29557 44.0148 5.24089 43.9601 5.22266C43.9054 5.20443 43.8598 5.16797 43.8234 5.11328C43.8234 5.04036 43.8507 4.99479 43.9054 4.97656C43.9601 4.95833 44.0148 4.9401 44.0695 4.92188C44.1606 4.99479 44.27 5.03125 44.3976 5.03125C44.4887 5.01302 44.5708 4.96745 44.6437 4.89453C44.7348 4.82161 44.8351 4.79427 44.9445 4.8125C45.1267 4.90365 45.227 4.92188 45.2452 4.86719C45.2817 4.8125 45.3455 4.78516 45.4366 4.78516C45.5642 4.98568 45.6554 5.06771 45.7101 5.03125C45.783 4.99479 45.8468 4.94922 45.9015 4.89453C45.9926 4.85807 46.102 4.84896 46.2296 4.86719C46.3754 4.88542 46.4939 4.92188 46.5851 4.97656C46.6945 4.9401 46.8038 4.93099 46.9132 4.94922C47.0226 4.94922 47.1502 4.9401 47.296 4.92188C47.4419 4.97656 47.533 4.98568 47.5695 4.94922C47.6059 4.89453 47.6606 4.85807 47.7335 4.83984C47.7882 4.85807 47.8247 4.89453 47.8429 4.94922C47.8794 4.98568 47.9158 5.02214 47.9523 5.05859C48.0434 5.07682 48.1163 5.07682 48.171 5.05859C48.2257 5.04036 48.2804 5.01302 48.3351 4.97656C48.6267 4.86719 48.7726 4.88542 48.7726 5.03125C48.7726 5.17708 48.7544 5.32292 48.7179 5.46875C48.7361 5.52344 48.7544 5.56901 48.7726 5.60547C48.809 5.64193 48.8364 5.6875 48.8546 5.74219C48.727 5.94271 48.645 6.0612 48.6085 6.09766C48.5903 6.13411 48.5812 6.17057 48.5812 6.20703C48.5629 6.29818 48.5812 6.38021 48.6359 6.45312C48.7088 6.52604 48.727 6.6263 48.6905 6.75391C48.5447 6.9362 48.49 7.03646 48.5265 7.05469C48.5812 7.07292 48.6359 7.09115 48.6905 7.10938C48.7452 7.34635 48.7544 7.48307 48.7179 7.51953C48.6814 7.53776 48.6541 7.58333 48.6359 7.65625C48.6723 7.80208 48.7088 7.90234 48.7452 7.95703C48.7088 8.04818 48.6905 8.13932 48.6905 8.23047C48.6905 8.30339 48.6905 8.38542 48.6905 8.47656C48.6723 8.56771 48.645 8.64974 48.6085 8.72266C48.5903 8.79557 48.5812 8.8776 48.5812 8.96875C48.5812 9.11458 48.6085 9.2513 48.6632 9.37891C48.7179 9.48828 48.7179 9.60677 48.6632 9.73438C48.7179 10.2812 48.7088 10.7005 48.6359 10.9922C48.6541 11.2292 48.6723 11.4115 48.6905 11.5391C48.7088 11.6484 48.6905 11.7487 48.6359 11.8398C48.6541 11.8945 48.6814 11.9401 48.7179 11.9766C48.7544 12.013 48.7726 12.0586 48.7726 12.1133C48.7908 12.2956 48.7452 12.4414 48.6359 12.5508C48.5265 12.7695 48.5083 12.9062 48.5812 12.9609C48.6541 13.0156 48.7088 13.0885 48.7452 13.1797C48.7635 13.3255 48.7452 13.4349 48.6905 13.5078C48.6541 13.5807 48.645 13.681 48.6632 13.8086C48.6814 13.8997 48.7088 13.9909 48.7452 14.082C48.7817 14.1549 48.809 14.237 48.8273 14.3281C48.6997 14.4193 48.645 14.5013 48.6632 14.5742C48.6814 14.6289 48.6814 14.6745 48.6632 14.7109C48.6997 14.7839 48.7452 14.8477 48.7999 14.9023C48.8546 14.9388 48.8911 15.0026 48.9093 15.0938ZM63.1341 4.64844C63.1706 4.84896 63.1706 4.97656 63.1341 5.03125C63.0977 5.08594 63.0612 5.13151 63.0248 5.16797H62.6693C62.5964 5.36849 62.5143 5.46875 62.4232 5.46875C62.3503 5.46875 62.2956 5.49609 62.2591 5.55078C62.1498 5.58724 62.086 5.6237 62.0677 5.66016C62.0677 5.67839 62.0495 5.70573 62.013 5.74219C61.8854 5.85156 61.7943 5.92448 61.7396 5.96094C61.6849 5.9974 61.6576 6.0612 61.6576 6.15234C61.6211 6.1888 61.5573 6.21615 61.4662 6.23438C61.3933 6.2526 61.3295 6.27083 61.2748 6.28906C61.2018 6.63542 61.1289 6.85417 61.056 6.94531C60.9831 7.01823 60.9284 7.11849 60.892 7.24609C60.9102 7.42839 60.9466 7.53776 61.0013 7.57422C61.056 7.61068 61.1016 7.64714 61.138 7.68359C61.1016 7.8112 61.056 7.88411 61.0013 7.90234C60.9649 7.90234 60.9284 7.92057 60.892 7.95703C60.892 8.02995 60.9011 8.09375 60.9193 8.14844C60.9558 8.1849 60.9831 8.23958 61.0013 8.3125C61.0013 8.45833 60.9649 8.56771 60.892 8.64062C60.819 8.69531 60.7917 8.79557 60.8099 8.94141C60.9558 9.14193 61.0104 9.26953 60.974 9.32422C60.9375 9.36068 60.9102 9.40625 60.892 9.46094C61.0378 9.67969 61.0925 9.81641 61.056 9.87109C61.0196 9.90755 60.9831 9.95312 60.9466 10.0078C61.0013 10.2266 61.0104 10.3542 60.974 10.3906C60.9558 10.4089 60.9375 10.4362 60.9193 10.4727C60.974 10.7096 60.9649 10.8464 60.892 10.8828C60.8373 10.901 60.7826 10.9284 60.7279 10.9648C60.819 11.0378 60.892 11.1016 60.9466 11.1562C61.0196 11.2109 61.0742 11.2839 61.1107 11.375C61.0925 11.4661 61.1016 11.5391 61.138 11.5938C61.1745 11.6484 61.1836 11.7214 61.1654 11.8125C61.1654 11.8672 61.1472 11.9128 61.1107 11.9492C61.0742 11.9857 61.0469 12.0312 61.0287 12.0859C61.0469 12.1406 61.0651 12.1953 61.0834 12.25C61.1198 12.3047 61.1289 12.3594 61.1107 12.4141C61.0013 12.6328 60.9558 12.7786 60.974 12.8516C60.9922 12.9062 60.9831 12.9701 60.9466 13.043C60.9649 13.0977 61.0013 13.1523 61.056 13.207C61.1107 13.2617 61.138 13.3438 61.138 13.4531C61.1563 13.5807 61.1198 13.7266 61.0287 13.8906C61.0287 13.9818 61.0469 14.0547 61.0834 14.1094C61.1198 14.1641 61.1563 14.237 61.1927 14.3281C61.1745 14.4193 61.138 14.4831 61.0834 14.5195C61.0287 14.556 60.974 14.5924 60.9193 14.6289C60.9193 14.8477 60.9193 15.0208 60.9193 15.1484C60.9193 15.2578 60.8828 15.3398 60.8099 15.3945C60.8464 15.431 60.892 15.4948 60.9466 15.5859C61.0013 15.6589 60.9922 15.7409 60.9193 15.832C60.974 15.8867 61.0378 15.9323 61.1107 15.9688C61.1836 16.0052 61.2383 16.069 61.2748 16.1602C61.2748 16.306 61.211 16.388 61.0834 16.4062C61.1016 16.5339 61.1016 16.6159 61.0834 16.6523C61.0651 16.6706 61.0469 16.6979 61.0287 16.7344C61.0651 16.8255 61.0834 16.9531 61.0834 17.1172C61.1016 17.2812 61.0651 17.3815 60.974 17.418C60.974 17.582 60.9831 17.6732 61.0013 17.6914C61.0378 17.7096 61.0469 17.737 61.0287 17.7734C60.9922 17.8646 60.9375 17.9284 60.8646 17.9648C60.7917 17.9831 60.737 18.0286 60.7005 18.1016C60.6641 18.1745 60.655 18.2565 60.6732 18.3477C60.6914 18.4206 60.6823 18.4935 60.6459 18.5664C60.7005 18.7487 60.7461 18.8581 60.7826 18.8945C60.8373 18.931 60.8828 18.9766 60.9193 19.0312C60.9011 19.1224 60.9102 19.2591 60.9466 19.4414C60.8555 19.569 60.8099 19.7148 60.8099 19.8789C60.8099 20.0247 60.7735 20.1615 60.7005 20.2891C60.737 20.4714 60.7643 20.5625 60.7826 20.5625C60.819 20.5625 60.8555 20.5807 60.892 20.6172C60.892 20.7448 60.8282 20.8268 60.7005 20.8633C60.5729 20.8997 60.4909 20.8542 60.4545 20.7266C60.3633 20.7448 60.2813 20.7812 60.2084 20.8359C60.1354 20.8724 60.0534 20.8724 59.9623 20.8359C59.7435 20.9089 59.5977 20.8997 59.5248 20.8086C59.4883 20.8268 59.4245 20.8633 59.3334 20.918C59.2604 20.9727 59.1875 20.9909 59.1146 20.9727C58.9688 20.8997 58.8503 20.8815 58.7591 20.918C58.6862 20.9362 58.6042 20.9544 58.513 20.9727C58.4401 20.9909 58.3672 21 58.2943 21C58.2396 20.9818 58.1849 20.9362 58.1302 20.8633C58.1849 20.7539 58.1758 20.6628 58.1029 20.5898C58.0482 20.4987 58.0482 20.3802 58.1029 20.2344C57.9935 20.1068 57.9388 20.0247 57.9388 19.9883C57.9571 19.9336 57.9571 19.8789 57.9388 19.8242C57.8841 19.806 57.8203 19.7969 57.7474 19.7969C57.6927 19.7969 57.6563 19.7604 57.638 19.6875C57.6198 19.5052 57.556 19.3958 57.4466 19.3594C57.392 19.2682 57.3555 19.168 57.3373 19.0586C57.319 18.931 57.2917 18.8125 57.2552 18.7031C57.0183 18.5755 56.9545 18.4388 57.0638 18.293C57.0274 18.2565 57 18.2018 56.9818 18.1289C56.9818 18.056 56.9636 17.9922 56.9271 17.9375C56.8177 17.7005 56.7266 17.5273 56.6537 17.418C56.4167 17.2904 56.2617 17.1901 56.1888 17.1172C56.1524 17.026 56.1524 16.9531 56.1888 16.8984C56.2253 16.8255 56.2253 16.7344 56.1888 16.625C56.0612 16.4792 55.9883 16.3516 55.9701 16.2422C55.9518 16.1328 55.9063 16.0417 55.8334 15.9688C55.6146 15.7318 55.5326 15.4766 55.5873 15.2031C55.4414 15.0391 55.3412 14.9388 55.2865 14.9023C55.2318 14.8659 55.2045 14.8021 55.2045 14.7109C55.2591 14.6198 55.3229 14.6016 55.3959 14.6562C55.4688 14.7109 55.5235 14.7565 55.5599 14.793C55.6328 14.5378 55.6146 14.4102 55.5052 14.4102C55.3959 14.4102 55.3229 14.3555 55.2865 14.2461C55.2318 14.1003 55.168 14.0182 55.0951 14C55.0222 13.9635 54.9675 13.918 54.931 13.8633C54.8763 13.7721 54.849 13.6536 54.849 13.5078C54.849 13.3438 54.8672 13.207 54.9037 13.0977C54.7578 12.9154 54.694 12.7878 54.7123 12.7148C54.7305 12.6237 54.7578 12.5508 54.7943 12.4961C54.7578 12.4049 54.694 12.3594 54.6029 12.3594C54.5117 12.3411 54.4753 12.2682 54.4935 12.1406C54.4024 12.1406 54.3203 12.1406 54.2474 12.1406C54.1745 12.1406 54.1198 12.1224 54.0834 12.0859C54.0651 12.1953 54.0834 12.2682 54.138 12.3047C54.1927 12.3229 54.2292 12.3776 54.2474 12.4688C54.1927 12.6693 54.1836 12.7878 54.2201 12.8242C54.2565 12.8424 54.2748 12.888 54.2748 12.9609C54.2383 13.0339 54.1927 13.0885 54.138 13.125C54.1016 13.1615 54.0651 13.1979 54.0287 13.2344C54.0104 13.3984 54.0287 13.526 54.0834 13.6172C54.1563 13.7083 54.1745 13.8268 54.138 13.9727C54.1563 14.0456 54.1836 14.1185 54.2201 14.1914C54.2565 14.2643 54.2839 14.3464 54.3021 14.4375C54.3203 14.5286 54.3203 14.6107 54.3021 14.6836C54.2839 14.7565 54.293 14.8294 54.3295 14.9023C54.2565 14.957 54.2201 15.0664 54.2201 15.2305C54.2201 15.3763 54.2565 15.4766 54.3295 15.5312C54.4388 15.5677 54.5482 15.5951 54.6576 15.6133C54.7852 15.6315 54.8308 15.7227 54.7943 15.8867C54.7214 15.9779 54.6302 16.0599 54.5209 16.1328C54.4115 16.1875 54.3477 16.2969 54.3295 16.4609C54.3112 16.6797 54.3021 16.8346 54.3021 16.9258C54.3021 16.9987 54.3021 17.099 54.3021 17.2266C54.2474 17.2812 54.1927 17.3268 54.138 17.3633C54.0834 17.3997 54.0378 17.4453 54.0013 17.5C54.056 17.737 54.1016 17.8737 54.138 17.9102C54.1745 17.9284 54.2018 17.9648 54.2201 18.0195C54.2018 18.2747 54.1745 18.457 54.138 18.5664C54.1563 18.8945 54.1927 19.1406 54.2474 19.3047C54.3203 19.4505 54.4115 19.569 54.5209 19.6602C54.5209 19.7513 54.5026 19.8242 54.4662 19.8789C54.4297 19.9336 54.3933 19.9883 54.3568 20.043C54.375 20.1159 54.4115 20.207 54.4662 20.3164C54.5209 20.4258 54.4935 20.4987 54.3841 20.5352C54.2201 20.4805 54.0834 20.4622 53.974 20.4805C53.8646 20.4805 53.7917 20.4987 53.7552 20.5352C53.7552 20.7721 53.7643 20.9271 53.7826 21C53.8008 21.0547 53.7917 21.1185 53.7552 21.1914C53.7005 21.2279 53.6367 21.237 53.5638 21.2188C53.5091 21.2005 53.4453 21.2005 53.3724 21.2188C53.336 21.3464 53.2813 21.4648 53.2084 21.5742C53.1537 21.6836 53.0625 21.7565 52.9349 21.793C52.9167 21.8841 52.8802 21.9479 52.8255 21.9844C52.7891 22.0208 52.78 22.0938 52.7982 22.2031C52.7435 22.2396 52.6888 22.276 52.6341 22.3125C52.5977 22.349 52.5339 22.3672 52.4427 22.3672C52.4792 22.513 52.4518 22.6406 52.3607 22.75C52.2696 22.8776 52.1784 22.8685 52.0873 22.7227C52.0326 22.7591 51.9961 22.8047 51.9779 22.8594C51.9597 22.9141 51.9323 22.9596 51.8959 22.9961C51.8594 23.1237 51.8321 23.2148 51.8138 23.2695C51.7956 23.3424 51.7774 23.4245 51.7591 23.5156C51.668 23.5703 51.6133 23.6523 51.5951 23.7617C51.5768 23.8711 51.5222 23.9622 51.431 24.0352C51.3034 23.9622 51.2214 23.9076 51.1849 23.8711C51.1667 23.8346 51.1485 23.7799 51.1302 23.707C51.1485 23.6523 51.194 23.5977 51.267 23.543C51.3399 23.4883 51.3308 23.4154 51.2396 23.3242C51.3125 23.1419 51.3308 23.0417 51.2943 23.0234C51.2761 23.0052 51.267 22.9688 51.267 22.9141C51.3216 22.6953 51.3399 22.5768 51.3216 22.5586C51.3216 22.2122 51.3763 21.9388 51.4857 21.7383C51.4675 21.5924 51.4675 21.5104 51.4857 21.4922C51.5039 21.474 51.513 21.4466 51.513 21.4102C51.4766 21.319 51.4401 21.2461 51.4037 21.1914C51.3672 21.1367 51.349 21.0638 51.349 20.9727C51.3308 20.8451 51.3399 20.7357 51.3763 20.6445C51.4128 20.5534 51.4584 20.4622 51.513 20.3711C51.4584 20.1523 51.4128 20.0247 51.3763 19.9883C51.3399 19.9518 51.3308 19.888 51.349 19.7969C51.4037 19.651 51.4401 19.5599 51.4584 19.5234C51.4766 19.4688 51.4948 19.4232 51.513 19.3867C51.4948 19.2773 51.4584 19.2044 51.4037 19.168C51.349 19.1133 51.3308 19.0221 51.349 18.8945C51.3854 18.7487 51.3763 18.6667 51.3216 18.6484C51.267 18.6302 51.2487 18.5846 51.267 18.5117C51.3946 18.3294 51.4492 18.2201 51.431 18.1836C51.4128 18.1289 51.4128 18.056 51.431 17.9648C51.267 17.7279 51.2123 17.5911 51.267 17.5547C51.3399 17.5 51.4037 17.4362 51.4584 17.3633C51.4219 17.3086 51.3763 17.2448 51.3216 17.1719C51.2852 17.099 51.2852 16.9987 51.3216 16.8711C51.2852 16.8346 51.2396 16.8073 51.1849 16.7891C51.1302 16.7708 51.0938 16.7253 51.0755 16.6523C51.1302 16.5065 51.194 16.388 51.267 16.2969C51.3581 16.2057 51.4401 16.0964 51.513 15.9688C51.4766 15.9141 51.4219 15.8776 51.349 15.8594C51.2943 15.8229 51.2761 15.75 51.2943 15.6406C51.3125 15.5677 51.3399 15.5221 51.3763 15.5039C51.4128 15.4674 51.4492 15.431 51.4857 15.3945C51.4128 15.2852 51.4128 15.194 51.4857 15.1211C51.5586 15.0299 51.586 14.9206 51.5677 14.793C51.6771 14.6836 51.7774 14.6198 51.8685 14.6016C51.8321 14.5104 51.7956 14.4193 51.7591 14.3281C51.7409 14.237 51.75 14.1276 51.7865 14C51.7318 13.8906 51.6498 13.7995 51.5404 13.7266C51.431 13.6536 51.3672 13.5352 51.349 13.3711C51.513 13.1523 51.586 12.9427 51.5677 12.7422C51.6224 12.5234 51.5951 12.3685 51.4857 12.2773C51.3946 12.168 51.4037 12.0677 51.513 11.9766C51.4766 11.8854 51.4401 11.776 51.4037 11.6484C51.3854 11.5208 51.4219 11.4115 51.513 11.3203C51.4948 11.2656 51.4675 11.2201 51.431 11.1836C51.4128 11.1471 51.4128 11.0833 51.431 10.9922C51.3946 10.9557 51.3581 10.9193 51.3216 10.8828C51.2852 10.8464 51.2487 10.8099 51.2123 10.7734C51.1758 10.6276 51.194 10.5365 51.267 10.5C51.3581 10.4453 51.4219 10.3724 51.4584 10.2812C51.4584 10.1901 51.4766 10.1081 51.513 10.0352C51.5495 9.94401 51.5495 9.84375 51.513 9.73438C51.5313 9.51562 51.513 9.39714 51.4584 9.37891C51.4037 9.34245 51.3763 9.28776 51.3763 9.21484C51.3581 9.1237 51.3763 9.06901 51.431 9.05078C51.5039 9.01432 51.5768 8.96875 51.6498 8.91406C51.6133 8.76823 51.5768 8.61328 51.5404 8.44922C51.5222 8.26693 51.5768 8.13932 51.7045 8.06641C51.5951 7.92057 51.513 7.83854 51.4584 7.82031C51.4219 7.80208 51.3854 7.76562 51.349 7.71094C51.3308 7.51042 51.2761 7.39193 51.1849 7.35547C51.112 7.31901 51.0573 7.26432 51.0209 7.19141C51.0573 7.08203 51.0482 7 50.9935 6.94531C50.9571 6.8724 50.9297 6.79036 50.9115 6.69922C50.8203 6.71745 50.7201 6.72656 50.6107 6.72656C50.5013 6.70833 50.4466 6.64453 50.4466 6.53516C50.5013 6.35286 50.4831 6.2526 50.392 6.23438C50.3008 6.21615 50.2643 6.13411 50.2826 5.98828C50.1003 5.95182 50 5.87891 49.9818 5.76953C49.8907 5.73307 49.8086 5.70573 49.7357 5.6875C49.6446 5.66927 49.5808 5.6237 49.5443 5.55078C49.5261 5.38672 49.4987 5.29557 49.4623 5.27734C49.4076 5.25911 49.3802 5.21354 49.3802 5.14062C49.362 5.04948 49.3985 5.00391 49.4896 5.00391C49.5808 4.98568 49.6719 4.95833 49.763 4.92188C49.8907 4.92188 49.9636 4.93099 49.9818 4.94922C50 4.96745 50.0274 4.98568 50.0638 5.00391C50.2461 5.00391 50.4102 5.01302 50.556 5.03125C50.7201 5.03125 50.875 5.01302 51.0209 4.97656C51.2578 5.04948 51.431 5.05859 51.5404 5.00391C51.668 4.94922 51.8138 4.91276 51.9779 4.89453C52.1784 4.94922 52.3242 4.96745 52.4154 4.94922C52.5248 4.93099 52.5977 4.96745 52.6341 5.05859C52.78 5.04036 52.9076 5.02214 53.017 5.00391C53.1446 4.98568 53.2539 4.95833 53.3451 4.92188C53.4727 4.92188 53.5821 4.91276 53.6732 4.89453C53.7826 4.8763 53.9011 4.85807 54.0287 4.83984C54.0834 4.98568 54.0834 5.07682 54.0287 5.11328C53.9922 5.13151 53.9649 5.16797 53.9466 5.22266C54.2565 5.3138 54.4753 5.35938 54.6029 5.35938C54.5847 5.45052 54.53 5.50521 54.4388 5.52344C54.3659 5.52344 54.3295 5.56901 54.3295 5.66016C54.3477 5.71484 54.3841 5.7513 54.4388 5.76953C54.4935 5.76953 54.5482 5.76953 54.6029 5.76953C54.6576 5.76953 54.7032 5.77865 54.7396 5.79688C54.7761 5.8151 54.7943 5.85156 54.7943 5.90625C54.7396 6.05208 54.7305 6.14323 54.767 6.17969C54.8034 6.21615 54.8399 6.26172 54.8763 6.31641C54.8946 6.46224 54.9128 6.59896 54.931 6.72656C54.9675 6.83594 54.9492 6.9362 54.8763 7.02734C54.9675 7.10026 55.0677 7.15495 55.1771 7.19141C55.3047 7.20964 55.405 7.26432 55.4779 7.35547C55.5143 7.42839 55.5326 7.51953 55.5326 7.62891C55.5508 7.73828 55.5235 7.8112 55.4505 7.84766C55.5052 8.01172 55.5235 8.10286 55.5052 8.12109C55.487 8.13932 55.4779 8.16667 55.4779 8.20312C55.4961 8.25781 55.5052 8.32161 55.5052 8.39453C55.5052 8.46745 55.5143 8.54948 55.5326 8.64062C55.7878 8.84115 55.961 9.05078 56.0521 9.26953C56.0703 9.43359 56.1159 9.53385 56.1888 9.57031C56.2617 9.60677 56.3164 9.66146 56.3529 9.73438C56.3164 9.82552 56.3255 9.89844 56.3802 9.95312C56.4349 9.98958 56.444 10.0534 56.4076 10.1445C56.4805 10.1992 56.5534 10.2448 56.6263 10.2812C56.6992 10.2995 56.7448 10.3633 56.763 10.4727C56.7813 10.6185 56.8177 10.7096 56.8724 10.7461C56.9271 10.7643 56.9636 10.8099 56.9818 10.8828C57.0729 11.0833 57.1094 11.2109 57.0912 11.2656C57.0912 11.3203 57.0821 11.375 57.0638 11.4297C57.2461 11.5391 57.3373 11.6302 57.3373 11.7031C57.3373 11.7578 57.319 11.8216 57.2826 11.8945C57.2461 11.9674 57.2097 12.0404 57.1732 12.1133C57.1367 12.1862 57.1185 12.2591 57.1185 12.332C57.2826 12.332 57.3828 12.3685 57.4193 12.4414C57.4011 12.5508 57.3828 12.6693 57.3646 12.7969C57.3646 12.9062 57.4102 13.0065 57.5013 13.0977C57.7018 13.1523 57.793 13.2253 57.7748 13.3164C57.8295 13.3529 57.8841 13.3802 57.9388 13.3984C57.9935 13.4167 58.03 13.4714 58.0482 13.5625C57.9935 13.763 57.9844 13.8724 58.0209 13.8906C58.0573 13.9089 58.0847 13.9362 58.1029 13.9727C58.1393 14.0091 58.1576 14.0547 58.1576 14.1094C58.1576 14.1641 58.1667 14.2188 58.1849 14.2734C58.2761 14.237 58.3125 14.1823 58.2943 14.1094C58.2761 14.0365 58.2578 13.9544 58.2396 13.8633C58.3308 13.6263 58.3308 13.4896 58.2396 13.4531C58.1667 13.4167 58.1393 13.3255 58.1576 13.1797C58.2123 12.9792 58.2761 12.8424 58.349 12.7695C58.4219 12.6784 58.4675 12.5872 58.4857 12.4961C58.4857 12.4232 58.4675 12.3594 58.431 12.3047C58.4128 12.2318 58.4037 12.168 58.4037 12.1133C58.349 12.0586 58.2852 12.0039 58.2123 11.9492C58.1576 11.8945 58.112 11.8307 58.0755 11.7578C58.0755 11.5026 58.0755 11.3568 58.0755 11.3203C58.0938 11.0286 58.1302 10.8281 58.1849 10.7188C58.2396 10.5911 58.3125 10.4909 58.4037 10.418C58.3308 10.1992 58.3125 10.0898 58.349 10.0898C58.4037 10.0716 58.4401 10.0443 58.4584 10.0078C58.4219 9.9349 58.3763 9.89844 58.3216 9.89844C58.267 9.88021 58.2214 9.85286 58.1849 9.81641C58.1302 9.70703 58.1211 9.58854 58.1576 9.46094C58.2123 9.33333 58.2852 9.2513 58.3763 9.21484C58.2305 9.01432 58.1211 8.8776 58.0482 8.80469C57.9753 8.73177 57.9479 8.6224 57.9662 8.47656C57.9844 8.38542 58.03 8.32161 58.1029 8.28516C58.194 8.23047 58.2852 8.1849 58.3763 8.14844C58.3399 8.05729 58.2487 7.99349 58.1029 7.95703C57.9753 7.90234 57.9388 7.79297 57.9935 7.62891C58.0847 7.44661 58.112 7.34635 58.0755 7.32812C58.0573 7.29167 58.0573 7.23698 58.0755 7.16406C58.0755 7.09115 58.0847 7.03646 58.1029 7C58.1393 6.96354 58.1758 6.92708 58.2123 6.89062C58.2305 6.79948 58.2305 6.72656 58.2123 6.67188C58.194 6.59896 58.1667 6.52604 58.1302 6.45312C58.1302 6.23438 58.1029 6.09766 58.0482 6.04297C58.0117 5.97005 58.0209 5.88802 58.0755 5.79688C57.9479 5.65104 57.8933 5.55078 57.9115 5.49609C57.9297 5.42318 57.9388 5.35026 57.9388 5.27734C58.1211 5.04036 58.2852 4.89453 58.431 4.83984C58.5951 4.76693 58.7409 4.77604 58.8685 4.86719C58.9414 4.84896 58.9961 4.83073 59.0326 4.8125C59.0873 4.79427 59.1511 4.77604 59.224 4.75781C59.4063 4.90365 59.543 4.95833 59.6341 4.92188C59.7435 4.86719 59.8255 4.82161 59.8802 4.78516C60.0808 4.76693 60.2175 4.7487 60.2904 4.73047C60.3815 4.69401 60.4818 4.6849 60.5912 4.70312C60.7735 4.77604 60.9011 4.82161 60.974 4.83984C61.0469 4.83984 61.1289 4.82161 61.2201 4.78516C61.3112 4.82161 61.4115 4.83073 61.5209 4.8125C61.6302 4.79427 61.7214 4.76693 61.7943 4.73047C61.9584 4.80339 62.1133 4.82161 62.2591 4.78516C62.405 4.73047 62.5417 4.6849 62.6693 4.64844C62.8334 4.70312 62.9336 4.72135 62.9701 4.70312C63.0065 4.66667 63.0612 4.64844 63.1341 4.64844ZM74.4879 13.8359C74.5426 13.7995 74.6155 13.7539 74.7066 13.6992C74.7978 13.6445 74.8889 13.6628 74.9801 13.7539C74.9436 13.8451 74.8707 13.9271 74.7613 14C74.652 14.0547 74.6155 14.1549 74.652 14.3008C74.5426 14.4102 74.4697 14.5104 74.4332 14.6016C74.415 14.6745 74.3876 14.7565 74.3512 14.8477C74.3329 14.9388 74.3876 15.0391 74.5152 15.1484C74.6428 15.2396 74.6975 15.3307 74.6793 15.4219C74.4788 15.5312 74.3785 15.6224 74.3785 15.6953C74.3967 15.75 74.4241 15.7956 74.4605 15.832C74.4788 15.8503 74.4879 15.9596 74.4879 16.1602C74.4879 16.3424 74.4879 16.5612 74.4879 16.8164C74.5061 17.0534 74.5152 17.2904 74.5152 17.5273C74.5152 17.7461 74.5244 17.9102 74.5426 18.0195C74.579 18.0924 74.6064 18.1654 74.6246 18.2383C74.6611 18.3112 74.6611 18.3841 74.6246 18.457C74.5152 18.5299 74.5061 18.6758 74.5973 18.8945C74.7066 19.1133 74.7796 19.2865 74.816 19.4141C74.5973 19.5234 74.5152 19.6419 74.5699 19.7695C74.6246 19.8971 74.6702 19.9974 74.7066 20.0703C74.5608 20.2708 74.4788 20.4167 74.4605 20.5078C74.5517 20.6901 74.6064 20.7904 74.6246 20.8086C74.6611 20.8268 74.6884 20.8542 74.7066 20.8906C74.6702 21.1094 74.6155 21.2188 74.5426 21.2188C74.4879 21.2188 74.4241 21.237 74.3512 21.2734C74.3147 21.237 74.2418 21.2096 74.1324 21.1914C74.0413 21.1732 73.941 21.1641 73.8316 21.1641C73.8316 21.2734 73.7496 21.3464 73.5855 21.3828C73.4944 21.5651 73.4306 21.6745 73.3941 21.7109C73.3577 21.7474 73.3212 21.7747 73.2848 21.793C73.3395 22.0299 73.3212 22.1393 73.2301 22.1211C73.1572 22.1211 73.0751 22.1484 72.984 22.2031C72.9658 22.3854 72.9475 22.4674 72.9293 22.4492C72.9293 22.4492 72.9111 22.4674 72.8746 22.5039C72.8017 22.7409 72.7652 22.8867 72.7652 22.9414C72.7652 23.0143 72.747 23.0781 72.7105 23.1328C72.6741 23.2969 72.6376 23.3789 72.6012 23.3789C72.5647 23.3789 72.5465 23.3971 72.5465 23.4336C72.6559 23.6159 72.6741 23.7344 72.6012 23.7891C72.4189 23.9167 72.3186 23.9258 72.3004 23.8164C72.3004 23.7253 72.2913 23.6432 72.273 23.5703C72.1454 23.4427 72.0908 23.3516 72.109 23.2969C72.1454 23.2604 72.1637 23.224 72.1637 23.1875C72.1637 23.0052 72.1637 22.8867 72.1637 22.832C72.1819 22.7773 72.2184 22.7135 72.273 22.6406C72.1637 22.4948 72.1272 22.4036 72.1637 22.3672C72.2001 22.349 72.2184 22.3216 72.2184 22.2852C72.1819 22.0482 72.1546 21.8841 72.1363 21.793C72.191 21.7201 72.2639 21.6471 72.3551 21.5742C72.4645 21.5013 72.4918 21.4193 72.4371 21.3281C72.2184 21.1641 72.109 21.0456 72.109 20.9727C72.1272 20.918 72.1454 20.8633 72.1637 20.8086C72.1819 20.7539 72.2001 20.681 72.2184 20.5898C72.2548 20.4258 72.273 20.3346 72.273 20.3164C72.2913 20.2982 72.3004 20.2708 72.3004 20.2344C72.1181 20.2526 71.9996 20.2891 71.9449 20.3438C71.8902 20.3802 71.8173 20.4167 71.7262 20.4531C71.5986 20.7083 71.4254 20.8815 71.2066 20.9727C70.9332 20.9909 70.76 21.0091 70.6871 21.0273C70.6324 21.0638 70.5869 21.1003 70.5504 21.1367C70.4228 21.1185 70.3043 21.1185 70.1949 21.1367C69.8668 21.1549 69.6025 21.2096 69.402 21.3008C69.165 21.3919 68.9918 21.4375 68.8824 21.4375C68.7913 21.4557 68.7001 21.4466 68.609 21.4102C68.5178 21.4284 68.4358 21.4557 68.3629 21.4922C68.29 21.5286 68.1988 21.5378 68.0895 21.5195C67.9983 21.3919 67.9163 21.3372 67.8434 21.3555C67.7887 21.3737 67.7431 21.3646 67.7066 21.3281C67.5426 21.3464 67.4241 21.3372 67.3512 21.3008C67.2783 21.2826 67.1962 21.2643 67.1051 21.2461C66.9228 21.1003 66.8134 21.0182 66.777 21C66.7587 20.9635 66.7132 20.9271 66.6402 20.8906C66.6038 20.763 66.54 20.6719 66.4488 20.6172C66.3577 20.5443 66.2757 20.4622 66.2027 20.3711C66.0934 20.3529 66.0022 20.3255 65.9293 20.2891C65.8746 20.2344 65.7835 20.1979 65.6559 20.1797C65.6012 20.1432 65.5374 20.1068 65.4645 20.0703C65.4098 20.0156 65.3642 19.9518 65.3277 19.8789C65.3277 19.6966 65.3004 19.5964 65.2457 19.5781C65.2092 19.5599 65.1728 19.5326 65.1363 19.4961C65.0087 19.4961 64.9267 19.4323 64.8902 19.3047C64.9267 19.2135 64.954 19.1224 64.9723 19.0312C65.0087 18.9401 65.0361 18.8398 65.0543 18.7305C64.9085 18.7305 64.7991 18.7031 64.7262 18.6484C64.6533 18.5755 64.553 18.5482 64.4254 18.5664C64.3525 18.5299 64.3069 18.4661 64.2887 18.375C64.2704 18.2839 64.2796 18.1927 64.316 18.1016C64.2796 18.0104 64.2249 17.9557 64.152 17.9375C64.079 17.901 64.0244 17.8464 63.9879 17.7734C63.8967 17.5911 63.8512 17.4362 63.8512 17.3086C63.8694 17.1628 63.8876 17.0169 63.9059 16.8711C63.8876 16.7799 63.8329 16.6888 63.7418 16.5977C63.7236 16.5065 63.7145 16.4427 63.7145 16.4062C63.7327 16.3516 63.7509 16.2786 63.7691 16.1875C63.7509 15.987 63.7418 15.8685 63.7418 15.832C63.76 15.7956 63.7691 15.7318 63.7691 15.6406C63.5869 15.4766 63.4775 15.3763 63.441 15.3398C63.4228 15.2852 63.4046 15.2214 63.3863 15.1484C63.4046 14.9297 63.3954 14.8203 63.359 14.8203C63.3408 14.8021 63.3225 14.7747 63.3043 14.7383C63.3043 14.5378 63.2952 14.3555 63.277 14.1914C63.277 14.0273 63.3043 13.8633 63.359 13.6992C63.359 13.6263 63.3316 13.5716 63.277 13.5352C63.2405 13.4805 63.2223 13.4076 63.2223 13.3164C63.204 13.2435 63.2132 13.1797 63.2496 13.125C63.3043 13.0703 63.3316 12.9974 63.3316 12.9062C63.204 12.6146 63.1676 12.4414 63.2223 12.3867C63.2952 12.332 63.3316 12.2318 63.3316 12.0859C63.2587 12.013 63.204 11.9219 63.1676 11.8125C63.1494 11.7031 63.1767 11.5938 63.2496 11.4844C63.3043 11.4297 63.359 11.3932 63.4137 11.375C63.4866 11.3385 63.5504 11.2839 63.6051 11.2109C63.6233 11.1198 63.6233 11.0286 63.6051 10.9375C63.6051 10.8464 63.6142 10.7643 63.6324 10.6914C63.6507 10.6367 63.6689 10.5911 63.6871 10.5547C63.7236 10.5 63.7509 10.4544 63.7691 10.418C63.7874 10.3268 63.8056 10.2448 63.8238 10.1719C63.8421 10.0807 63.8694 9.98958 63.9059 9.89844C63.9423 9.84375 63.9879 9.77995 64.0426 9.70703C64.0973 9.63411 64.152 9.57943 64.2066 9.54297C64.1337 9.32422 64.0882 9.16927 64.0699 9.07812C64.0699 8.96875 64.0882 8.86849 64.1246 8.77734C64.1611 8.6862 64.2066 8.61328 64.2613 8.55859C64.316 8.50391 64.3707 8.43099 64.4254 8.33984C64.4619 8.26693 64.4983 8.20312 64.5348 8.14844C64.5712 8.07552 64.6077 7.99349 64.6441 7.90234C64.7171 7.8112 64.79 7.73828 64.8629 7.68359C64.954 7.62891 65.027 7.55599 65.0816 7.46484C65.1363 7.30078 65.1728 7.21875 65.191 7.21875C65.2275 7.21875 65.2548 7.20964 65.273 7.19141C65.2913 6.9362 65.4371 6.76302 65.7105 6.67188C65.8017 6.41667 65.9293 6.22526 66.0934 6.09766C66.2757 5.95182 66.4579 5.8151 66.6402 5.6875C66.8043 5.65104 66.9319 5.64193 67.023 5.66016C67.2236 5.38672 67.3876 5.22266 67.5152 5.16797C67.6428 5.09505 67.7796 5.04036 67.9254 5.00391C68.0895 4.85807 68.1897 4.78516 68.2262 4.78516C68.2809 4.78516 68.3264 4.77604 68.3629 4.75781C68.4358 4.75781 68.4905 4.7487 68.527 4.73047C68.5816 4.69401 68.6363 4.67578 68.691 4.67578C68.8004 4.63932 68.9007 4.59375 68.9918 4.53906C69.1012 4.48438 69.2288 4.46615 69.3746 4.48438C69.5022 4.53906 69.5842 4.64844 69.6207 4.8125C69.7119 4.77604 69.8121 4.75781 69.9215 4.75781C70.0309 4.75781 70.1311 4.78516 70.2223 4.83984C70.3134 4.80339 70.4046 4.78516 70.4957 4.78516C70.5869 4.76693 70.678 4.77604 70.7691 4.8125C70.8056 4.84896 70.8329 4.90365 70.8512 4.97656C70.8694 5.04948 70.8967 5.10417 70.9332 5.14062C70.9879 5.15885 71.0335 5.16797 71.0699 5.16797C71.1246 5.16797 71.1793 5.17708 71.234 5.19531C71.3616 5.25 71.4436 5.32292 71.4801 5.41406C71.5348 5.50521 71.6077 5.57812 71.6988 5.63281C71.8082 5.65104 71.9085 5.66927 71.9996 5.6875C72.0908 5.70573 72.1728 5.73307 72.2457 5.76953C72.2822 6.00651 72.3551 6.13411 72.4645 6.15234C72.5738 6.17057 72.6559 6.19792 72.7105 6.23438C72.8017 6.23438 72.8837 6.24349 72.9566 6.26172C73.0296 6.26172 73.0934 6.28906 73.148 6.34375C73.148 6.61719 73.2119 6.82682 73.3395 6.97266C73.5582 7.00911 73.6767 7.04557 73.6949 7.08203C73.7314 7.11849 73.7678 7.15495 73.8043 7.19141C73.9137 7.28255 73.9775 7.35547 73.9957 7.41016C74.0139 7.44661 74.0322 7.49219 74.0504 7.54688C74.1415 7.63802 74.178 7.7474 74.1598 7.875C74.1051 7.96615 74.1233 8.04818 74.2145 8.12109C74.3238 8.19401 74.3603 8.2487 74.3238 8.28516C74.1415 8.33984 74.0504 8.39453 74.0504 8.44922C73.941 8.50391 73.8499 8.54948 73.777 8.58594C73.704 8.6224 73.6311 8.6224 73.5582 8.58594C73.5217 8.64062 73.4762 8.70443 73.4215 8.77734C73.3668 8.83203 73.2757 8.85938 73.148 8.85938C73.0387 9.0599 72.902 9.22396 72.7379 9.35156C72.4462 9.3151 72.3004 9.35156 72.3004 9.46094C72.3186 9.57031 72.3186 9.67057 72.3004 9.76172C72.2639 9.79818 72.2275 9.83464 72.191 9.87109C72.1546 9.90755 72.1181 9.95312 72.0816 10.0078C71.8811 10.1172 71.7809 10.1901 71.7809 10.2266C71.7809 10.263 71.7626 10.2995 71.7262 10.3359C71.5074 10.4453 71.316 10.5365 71.152 10.6094C71.0061 10.7005 70.9241 10.7643 70.9059 10.8008C70.8876 10.8372 70.8603 10.8646 70.8238 10.8828C70.6233 10.901 70.4775 10.9557 70.3863 11.0469C70.3134 11.1198 70.2314 11.1107 70.1402 11.0195C70.1767 10.7461 70.2314 10.582 70.3043 10.5273C70.4137 10.3451 70.4775 10.2448 70.4957 10.2266C70.5322 10.2083 70.5686 10.181 70.6051 10.1445C70.6051 10.0534 70.6324 9.98047 70.6871 9.92578C70.7418 9.87109 70.7874 9.80729 70.8238 9.73438C70.8238 9.64323 70.8512 9.54297 70.9059 9.43359C70.8876 9.30599 70.8876 9.23307 70.9059 9.21484C70.9423 9.17839 70.9788 9.14193 71.0152 9.10547C70.9788 8.99609 70.9241 8.90495 70.8512 8.83203C70.7965 8.75911 70.7783 8.64974 70.7965 8.50391C70.9605 8.43099 71.0335 8.3763 71.0152 8.33984C70.997 8.30339 70.9788 8.26693 70.9605 8.23047C70.8329 8.12109 70.7327 8.04818 70.6598 8.01172C70.6051 7.97526 70.5413 7.92969 70.4684 7.875C70.4137 7.85677 70.359 7.85677 70.3043 7.875C70.2678 7.875 70.2132 7.85677 70.1402 7.82031C70.0673 7.60156 69.9944 7.5013 69.9215 7.51953C69.8486 7.51953 69.7848 7.51042 69.7301 7.49219C69.6936 7.45573 69.648 7.41016 69.5934 7.35547C69.5569 7.30078 69.5022 7.26432 69.4293 7.24609C69.1194 7.3737 68.8915 7.47396 68.7457 7.54688C68.6181 7.61979 68.4814 7.69271 68.3355 7.76562C68.1533 7.80208 68.0257 7.84766 67.9527 7.90234C67.898 7.9388 67.8251 7.98438 67.734 8.03906C67.6611 8.16667 67.579 8.28516 67.4879 8.39453C67.415 8.48568 67.3603 8.6224 67.3238 8.80469C67.2874 8.84115 67.2509 8.8776 67.2145 8.91406C67.178 8.95052 67.1415 8.98698 67.1051 9.02344C67.1051 9.27865 67.0869 9.43359 67.0504 9.48828C67.0322 9.54297 67.0139 9.61589 66.9957 9.70703C66.8499 9.88932 66.7861 9.9987 66.8043 10.0352C66.8225 10.0716 66.8316 10.1081 66.8316 10.1445C66.7952 10.2174 66.7496 10.2812 66.6949 10.3359C66.6402 10.3906 66.5947 10.4453 66.5582 10.5C66.6129 10.7552 66.622 10.901 66.5855 10.9375C66.5673 10.974 66.5491 11.0104 66.5309 11.0469C66.5309 11.1198 66.54 11.1745 66.5582 11.2109C66.5947 11.2474 66.6129 11.3021 66.6129 11.375C66.5947 11.4661 66.5582 11.5391 66.5035 11.5938C66.4671 11.6302 66.4306 11.6849 66.3941 11.7578C66.4853 11.9036 66.4853 12.0859 66.3941 12.3047C66.4853 12.5234 66.5126 12.6784 66.4762 12.7695C66.4579 12.8424 66.4671 12.9154 66.5035 12.9883C66.4853 13.1523 66.4579 13.2708 66.4215 13.3438C66.4033 13.3984 66.3759 13.4622 66.3395 13.5352C66.3941 13.7174 66.4579 13.8268 66.5309 13.8633C66.5491 13.9727 66.54 14.0638 66.5035 14.1367C66.4671 14.1914 66.4397 14.2643 66.4215 14.3555C66.5855 14.4648 66.6494 14.5651 66.6129 14.6562C66.5947 14.7292 66.5491 14.7839 66.4762 14.8203C66.4397 14.9479 66.4306 15.0573 66.4488 15.1484C66.5217 15.1667 66.5673 15.2122 66.5855 15.2852C66.622 15.3398 66.6311 15.3945 66.6129 15.4492C66.777 15.5768 66.8408 15.6589 66.8043 15.6953C66.7861 15.7135 66.7678 15.7409 66.7496 15.7773C66.7496 15.8685 66.7678 15.987 66.8043 16.1328C66.7496 16.2422 66.7314 16.3516 66.7496 16.4609C66.7861 16.5703 66.8408 16.6523 66.9137 16.707C66.8772 16.7982 66.8408 16.8893 66.8043 16.9805C66.7861 17.0716 66.7952 17.1628 66.8316 17.2539C66.8863 17.2539 66.941 17.2539 66.9957 17.2539C67.0686 17.2539 67.1233 17.2721 67.1598 17.3086C67.1962 17.4362 67.1689 17.5638 67.0777 17.6914C67.1142 17.7826 67.178 17.8464 67.2691 17.8828C67.3603 17.9193 67.4423 17.974 67.5152 18.0469C67.5699 18.0286 67.6428 18.0286 67.734 18.0469C67.8434 18.0469 67.9072 18.0833 67.9254 18.1562C67.9436 18.3021 68.0074 18.3568 68.1168 18.3203C68.2444 18.2839 68.3355 18.3112 68.3902 18.4023C68.3902 18.4753 68.3629 18.5208 68.3082 18.5391C68.2717 18.5573 68.2444 18.6029 68.2262 18.6758C68.4267 18.7487 68.527 18.8034 68.527 18.8398C68.527 18.8581 68.5361 18.8854 68.5543 18.9219C68.8095 18.8854 69.0009 18.8854 69.1285 18.9219C69.2561 18.9583 69.3655 18.9583 69.4566 18.9219C69.5296 18.8854 69.5934 18.8672 69.648 18.8672C69.7027 18.8672 69.7574 18.849 69.8121 18.8125C69.8486 18.8125 69.9579 18.8125 70.1402 18.8125C70.3225 18.7943 70.4319 18.776 70.4684 18.7578C70.5413 18.7214 70.6142 18.7031 70.6871 18.7031C70.76 18.6849 70.8329 18.6484 70.9059 18.5938C71.0152 18.4844 71.1246 18.3477 71.234 18.1836C71.2704 18.1471 71.316 18.1198 71.3707 18.1016C71.4436 18.0651 71.4983 18.0378 71.5348 18.0195C71.5895 17.8555 71.6441 17.7461 71.6988 17.6914C71.7535 17.6367 71.7991 17.5638 71.8355 17.4727V17.1719C71.9267 17.0625 71.9814 16.9531 71.9996 16.8438C72.0361 16.7161 72.0361 16.6159 71.9996 16.543C72.0543 16.4336 72.1272 16.3333 72.2184 16.2422C72.2001 16.151 72.191 16.0417 72.191 15.9141C72.191 15.7682 72.191 15.668 72.191 15.6133C72.1728 15.5404 72.0999 15.513 71.9723 15.5312C71.8447 15.5495 71.7626 15.5312 71.7262 15.4766C71.6533 15.4766 71.5803 15.513 71.5074 15.5859C71.4345 15.6589 71.3525 15.6953 71.2613 15.6953C70.9697 15.5677 70.7965 15.5404 70.7418 15.6133C70.6871 15.668 70.596 15.7318 70.4684 15.8047L69.9215 15.6406C69.7392 15.5495 69.6298 15.5221 69.5934 15.5586C69.5751 15.5951 69.5387 15.6133 69.484 15.6133C69.3746 15.6497 69.2744 15.668 69.1832 15.668C69.1467 15.4492 69.1559 15.3034 69.2105 15.2305C69.2835 15.1576 69.3199 15.0482 69.3199 14.9023C69.3382 14.556 69.402 14.3372 69.5113 14.2461C69.402 14.1914 69.3382 14.1003 69.3199 13.9727C69.2288 13.7721 69.2379 13.6901 69.3473 13.7266C69.4566 13.7448 69.5569 13.7357 69.648 13.6992C69.9215 13.6263 70.1038 13.599 70.1949 13.6172C70.3043 13.6354 70.4137 13.6445 70.523 13.6445C70.6871 13.6263 70.7874 13.6081 70.8238 13.5898C70.8603 13.5534 70.9059 13.526 70.9605 13.5078C71.1064 13.526 71.2249 13.5534 71.316 13.5898C71.4072 13.6081 71.5257 13.6172 71.6715 13.6172C71.872 13.599 71.9723 13.6081 71.9723 13.6445C71.9905 13.6628 72.0178 13.681 72.0543 13.6992C72.1637 13.6992 72.273 13.6901 72.3824 13.6719C72.4918 13.6354 72.6012 13.6354 72.7105 13.6719C72.8746 13.6354 72.9749 13.6263 73.0113 13.6445C73.0478 13.6628 73.0842 13.681 73.1207 13.6992C73.2119 13.6628 73.3121 13.6354 73.4215 13.6172C73.5491 13.599 73.6402 13.6354 73.6949 13.7266C73.7678 13.7083 73.8225 13.7174 73.859 13.7539C73.9137 13.7721 73.9684 13.7995 74.023 13.8359C74.2053 13.763 74.3603 13.763 74.4879 13.8359ZM85.2674 14.9023C85.3039 15.0482 85.3403 15.1667 85.3768 15.2578C85.3768 15.513 85.3495 15.7682 85.2948 16.0234C85.2401 16.2604 85.2492 16.4792 85.3221 16.6797C85.2492 16.8255 85.1581 16.9531 85.0487 17.0625C84.9575 17.1719 84.8573 17.2812 84.7479 17.3906C84.7479 17.4635 84.7479 17.5365 84.7479 17.6094C84.7661 17.6823 84.7661 17.7461 84.7479 17.8008C84.7297 17.8919 84.6932 17.9557 84.6385 17.9922C84.6021 18.0286 84.5656 18.0833 84.5291 18.1562L84.2557 18.4844C84.1646 18.7031 84.0916 18.8307 84.037 18.8672C84.0005 18.9036 83.9367 18.9219 83.8456 18.9219C83.7544 19.0677 83.7088 19.2682 83.7088 19.5234C83.5448 19.651 83.4354 19.7331 83.3807 19.7695C83.326 19.806 83.2531 19.8424 83.162 19.8789C83.1073 19.9154 83.0617 19.9609 83.0252 20.0156C82.9888 20.0703 82.925 20.1068 82.8338 20.125C82.7791 20.1979 82.7245 20.2708 82.6698 20.3438C82.6151 20.4167 82.5604 20.4987 82.5057 20.5898C82.3416 20.6081 82.2505 20.6081 82.2323 20.5898C82.214 20.5716 82.1776 20.5534 82.1229 20.5352C81.9406 20.6445 81.8039 20.7448 81.7127 20.8359C81.6763 20.8542 81.6307 20.8724 81.576 20.8906C81.5213 20.8906 81.4666 20.9089 81.412 20.9453C81.339 20.9271 81.2844 20.9271 81.2479 20.9453C81.2114 20.9453 81.1659 20.9453 81.1112 20.9453C80.856 20.9635 80.6828 20.9635 80.5916 20.9453C80.5005 20.9089 80.4094 20.8724 80.3182 20.8359C80.2453 20.8724 80.1906 20.918 80.1541 20.9727C80.1177 21.0091 80.0448 21.0456 79.9354 21.082C79.8625 21.0638 79.7987 21.0456 79.744 21.0273C79.6893 21.0091 79.6255 20.9909 79.5526 20.9727C79.3338 20.8451 79.1698 20.7995 79.0604 20.8359C78.9692 20.8542 78.8599 20.8451 78.7323 20.8086C78.6958 20.7174 78.6502 20.6536 78.5956 20.6172C78.5409 20.5625 78.4862 20.5078 78.4315 20.4531C78.3768 20.4531 78.3221 20.4622 78.2674 20.4805C78.231 20.4805 78.1854 20.4805 78.1307 20.4805C78.0396 20.3893 77.912 20.3529 77.7479 20.3711C77.6021 20.3893 77.4927 20.3529 77.4198 20.2617C77.2922 20.0977 77.1828 20.0247 77.0916 20.043C77.0187 20.0612 76.9276 20.0612 76.8182 20.043C76.6724 19.9701 76.5721 19.8698 76.5174 19.7422C76.4627 19.5964 76.3625 19.487 76.2166 19.4141C76.162 19.2318 76.1437 19.1315 76.162 19.1133C76.1802 19.0768 76.1893 19.0312 76.1893 18.9766C76.1528 18.9583 76.0982 18.9583 76.0252 18.9766C75.9706 18.9766 75.9159 18.9674 75.8612 18.9492C75.7883 18.8763 75.7062 18.8125 75.6151 18.7578C75.5422 18.6849 75.4784 18.6029 75.4237 18.5117C75.4237 18.4388 75.4419 18.3841 75.4784 18.3477C75.5148 18.293 75.5422 18.2383 75.5604 18.1836C75.3963 18.0924 75.3143 18.0286 75.3143 17.9922C75.3325 17.9557 75.3416 17.9193 75.3416 17.8828C75.2323 17.6276 75.1594 17.4271 75.1229 17.2812C74.9953 17.263 74.9315 17.2357 74.9315 17.1992C74.9315 17.1628 74.9133 17.1263 74.8768 17.0898C74.9497 17.0534 75.0135 17.0352 75.0682 17.0352C75.1229 17.0352 75.1867 17.0169 75.2596 16.9805C75.2414 16.7799 75.2414 16.6615 75.2596 16.625C75.3143 16.5156 75.3963 16.4518 75.5057 16.4336C75.6151 16.4154 75.7062 16.3607 75.7791 16.2695C75.7974 16.0143 75.8612 15.8958 75.9706 15.9141C76.0799 15.9141 76.1802 15.8776 76.2713 15.8047C76.326 15.6042 76.3807 15.5039 76.4354 15.5039C76.4901 15.4857 76.5448 15.4583 76.5995 15.4219C76.7635 15.1667 76.9094 14.9844 77.037 14.875C77.1828 14.7474 77.3195 14.5924 77.4471 14.4102C77.5383 14.3737 77.6659 14.3281 77.8299 14.2734C77.994 14.2005 78.1216 14.1732 78.2127 14.1914C78.2857 14.2279 78.3039 14.2734 78.2674 14.3281C78.2492 14.3828 78.2492 14.4375 78.2674 14.4922C78.1581 14.6927 78.0942 14.8112 78.076 14.8477C78.0578 14.8841 78.0304 14.9206 77.994 14.957C77.9758 15.0117 77.9758 15.0755 77.994 15.1484C78.0122 15.2031 78.0031 15.2669 77.9666 15.3398C78.1125 15.3945 78.1854 15.4674 78.1854 15.5586C78.1489 15.6315 78.1125 15.6862 78.076 15.7227C78.0578 15.7409 78.0304 15.7956 77.994 15.8867C77.9758 15.9961 77.9849 16.1419 78.0213 16.3242C77.9666 16.4518 77.9666 16.5612 78.0213 16.6523C78.076 16.7435 78.1216 16.8529 78.1581 16.9805C78.1581 17.0534 78.1489 17.1172 78.1307 17.1719C78.1125 17.2083 78.1034 17.2539 78.1034 17.3086C78.1398 17.3997 78.1854 17.4727 78.2401 17.5273C78.313 17.582 78.3677 17.6549 78.4041 17.7461C78.3859 17.8008 78.3586 17.8555 78.3221 17.9102C78.3039 17.9466 78.2948 18.0104 78.2948 18.1016C78.3859 18.138 78.4771 18.1198 78.5682 18.0469C78.6594 17.974 78.7505 17.9648 78.8416 18.0195C78.8781 18.1836 78.9328 18.2201 79.0057 18.1289C79.0786 18.0378 79.1607 18.0378 79.2518 18.1289C79.2883 18.2018 79.2883 18.2565 79.2518 18.293C79.2153 18.3294 79.1971 18.375 79.1971 18.4297C79.2153 18.5026 79.2427 18.5482 79.2791 18.5664C79.3338 18.5846 79.3885 18.612 79.4432 18.6484C79.5344 18.6484 79.5982 18.6302 79.6346 18.5938C79.6711 18.5391 79.7349 18.5117 79.826 18.5117C79.9172 18.5299 79.9901 18.5573 80.0448 18.5938C80.1177 18.6302 80.2179 18.6393 80.3456 18.6211C80.5096 18.5482 80.6008 18.5026 80.619 18.4844C80.6554 18.4661 80.6919 18.4479 80.7284 18.4297C80.8195 18.3568 80.9015 18.293 80.9745 18.2383C81.0474 18.1836 81.1294 18.1198 81.2206 18.0469C81.3482 18.0286 81.4211 18.0378 81.4393 18.0742C81.4575 18.0924 81.4849 18.1016 81.5213 18.1016C81.5578 18.0651 81.5851 18.0195 81.6034 17.9648C81.6398 17.9102 81.6763 17.8646 81.7127 17.8281C81.8221 17.8099 81.9315 17.7826 82.0409 17.7461C82.0773 17.6732 82.0956 17.582 82.0956 17.4727C82.0956 17.3633 82.1138 17.263 82.1502 17.1719C82.3143 16.9167 82.4054 16.7617 82.4237 16.707C82.4054 16.5612 82.4054 16.4427 82.4237 16.3516C82.4601 16.2422 82.4601 16.1146 82.4237 15.9688C82.5877 15.8047 82.6607 15.668 82.6424 15.5586C82.6424 15.4492 82.6424 15.349 82.6424 15.2578C82.6242 15.2031 82.5786 15.1758 82.5057 15.1758C82.4328 15.1576 82.3781 15.1302 82.3416 15.0938C82.3052 15.0026 82.2961 14.9297 82.3143 14.875C82.3508 14.8203 82.369 14.7474 82.369 14.6562C82.3325 14.5833 82.287 14.5195 82.2323 14.4648C82.1776 14.4102 82.1229 14.3555 82.0682 14.3008C81.9771 14.3008 81.9041 14.2917 81.8495 14.2734C81.7948 14.237 81.7401 14.2096 81.6854 14.1914C81.6489 14.082 81.5851 14 81.494 13.9453C81.4211 13.8724 81.339 13.7904 81.2479 13.6992C81.1567 13.7174 81.0747 13.7174 81.0018 13.6992C80.9289 13.6628 80.8469 13.6536 80.7557 13.6719C80.6828 13.599 80.6008 13.5352 80.5096 13.4805C80.4185 13.4258 80.3364 13.3529 80.2635 13.2617C80.1724 13.2253 80.0995 13.2161 80.0448 13.2344C79.9901 13.2526 79.9263 13.2708 79.8534 13.2891C79.7987 13.3073 79.7349 13.3164 79.662 13.3164C79.6073 13.2982 79.5526 13.2982 79.4979 13.3164C79.2609 13.0977 79.0422 12.9609 78.8416 12.9062C78.6594 12.8516 78.4953 12.7786 78.3495 12.6875C78.2219 12.3776 78.0578 12.2227 77.8573 12.2227C77.7479 12.1862 77.6567 12.1315 77.5838 12.0586C77.5291 11.9857 77.4289 11.9401 77.2831 11.9219C77.1554 11.7943 77.0096 11.6758 76.8456 11.5664C76.6815 11.3659 76.5448 11.1927 76.4354 11.0469C76.3442 10.8646 76.2622 10.737 76.1893 10.6641C76.1164 10.5729 76.0526 10.4818 75.9979 10.3906C75.8885 10.2812 75.8247 10.1628 75.8065 10.0352C75.7518 9.72526 75.7427 9.48828 75.7791 9.32422C75.8338 9.14193 75.8976 8.97786 75.9706 8.83203C75.9888 8.64974 75.9888 8.47656 75.9706 8.3125C75.9706 8.14844 76.007 8.01172 76.0799 7.90234C76.1711 7.48307 76.2531 7.16406 76.326 6.94531C76.4172 6.72656 76.5903 6.58073 76.8456 6.50781C76.9367 6.36198 77.0187 6.21615 77.0916 6.07031C77.1828 5.92448 77.3013 5.80599 77.4471 5.71484C77.6841 5.6237 77.8482 5.53255 77.9393 5.44141C78.0304 5.35026 78.1216 5.25 78.2127 5.14062C78.3586 5.10417 78.4771 5.04948 78.5682 4.97656C78.6594 4.88542 78.7596 4.80339 78.869 4.73047C78.9601 4.7487 79.0331 4.76693 79.0877 4.78516C79.1607 4.80339 79.2336 4.82161 79.3065 4.83984C79.3976 4.78516 79.4797 4.73047 79.5526 4.67578C79.6437 4.60286 79.7622 4.54818 79.9081 4.51172C80.0174 4.63932 80.0995 4.69401 80.1541 4.67578C80.2088 4.65755 80.2544 4.66667 80.2909 4.70312C80.382 4.66667 80.464 4.63021 80.537 4.59375C80.6281 4.55729 80.7284 4.53906 80.8377 4.53906C80.9289 4.57552 80.9927 4.63021 81.0291 4.70312C81.0656 4.75781 81.1112 4.8125 81.1659 4.86719C81.3117 4.84896 81.4211 4.80339 81.494 4.73047C81.5669 4.65755 81.6763 4.60286 81.8221 4.56641C81.895 4.60286 81.9497 4.64844 81.9862 4.70312C82.0409 4.73958 82.1138 4.76693 82.2049 4.78516C82.2778 4.78516 82.3325 4.77604 82.369 4.75781C82.4237 4.72135 82.4875 4.72135 82.5604 4.75781C82.7609 4.88542 82.8794 5.05859 82.9159 5.27734H83.2713C83.3078 5.33203 83.3442 5.39583 83.3807 5.46875C83.4172 5.54167 83.4627 5.60547 83.5174 5.66016C83.6086 5.67839 83.6906 5.69661 83.7635 5.71484C83.8364 5.73307 83.8911 5.78776 83.9276 5.87891C83.9276 6.0612 83.9549 6.15234 84.0096 6.15234C84.0643 6.15234 84.1099 6.17057 84.1463 6.20703C84.2739 6.31641 84.3651 6.38021 84.4198 6.39844C84.4745 6.39844 84.52 6.39844 84.5565 6.39844C84.5929 6.48958 84.6112 6.58984 84.6112 6.69922C84.6294 6.79036 84.6476 6.88151 84.6659 6.97266C84.7752 7.0638 84.8299 7.15495 84.8299 7.24609C84.7388 7.28255 84.6294 7.3737 84.5018 7.51953C84.3742 7.66536 84.3286 7.78385 84.3651 7.875L84.201 8.3125C84.1099 8.49479 84.0278 8.6224 83.9549 8.69531C83.882 8.75 83.8091 8.79557 83.7362 8.83203C83.7179 9.05078 83.6086 9.20573 83.4081 9.29688L83.2166 9.625C83.1255 9.71615 83.0344 9.81641 82.9432 9.92578C82.8521 10.0169 82.7974 10.1354 82.7791 10.2812C82.7245 10.3177 82.6698 10.3542 82.6151 10.3906C82.5604 10.4089 82.4875 10.3997 82.3963 10.3633C82.3599 10.3086 82.3325 10.2539 82.3143 10.1992C82.3143 10.1263 82.3416 10.0443 82.3963 9.95312C82.3963 9.7526 82.4237 9.625 82.4784 9.57031C82.5513 9.4974 82.5877 9.42448 82.5877 9.35156C82.4054 9.24219 82.3052 9.1875 82.287 9.1875C82.2687 9.16927 82.2505 9.14193 82.2323 9.10547C82.2323 9.01432 82.2414 8.95052 82.2596 8.91406C82.2961 8.8776 82.2961 8.8138 82.2596 8.72266C82.2414 8.57682 82.2505 8.44922 82.287 8.33984C82.1958 8.30339 82.1411 8.2487 82.1229 8.17578C82.1047 8.10286 82.0864 8.02995 82.0682 7.95703C81.9771 7.8112 81.9497 7.72005 81.9862 7.68359C82.0409 7.62891 82.0591 7.55599 82.0409 7.46484C81.7674 7.39193 81.5851 7.31901 81.494 7.24609C81.4028 7.17318 81.2935 7.10026 81.1659 7.02734C81.0747 7.02734 81.0018 7.03646 80.9471 7.05469C80.8924 7.07292 80.8195 7.08203 80.7284 7.08203C80.6372 7.04557 80.5916 6.94531 80.5916 6.78125C80.4094 6.92708 80.3 7.01823 80.2635 7.05469C80.2271 7.09115 80.1724 7.11849 80.0995 7.13672C79.8442 7.04557 79.6711 7.02734 79.5799 7.08203C79.507 7.13672 79.425 7.18229 79.3338 7.21875C79.2062 7.34635 79.1242 7.48307 79.0877 7.62891C79.0877 7.79297 79.0969 7.92057 79.1151 8.01172C79.0786 8.06641 79.0331 8.12109 78.9784 8.17578C78.9419 8.21224 78.869 8.22135 78.7596 8.20312C78.7232 8.3125 78.7049 8.44922 78.7049 8.61328C78.7232 8.75911 78.7505 8.8776 78.787 8.96875C78.7505 9.09635 78.7414 9.17839 78.7596 9.21484C78.7778 9.23307 78.7961 9.26042 78.8143 9.29688C78.7596 9.42448 78.7687 9.55208 78.8416 9.67969C78.9146 9.80729 78.9237 9.9349 78.869 10.0625C78.9966 10.1354 79.1242 10.1901 79.2518 10.2266C79.3794 10.263 79.4523 10.3633 79.4706 10.5273C79.5617 10.582 79.662 10.6094 79.7713 10.6094C79.8989 10.6094 80.0083 10.6367 80.0995 10.6914C80.1359 10.8008 80.2088 10.8828 80.3182 10.9375C80.4276 10.974 80.5005 11.0469 80.537 11.1562C80.7922 11.1562 80.9745 11.1745 81.0838 11.2109C81.2114 11.2292 81.3573 11.2292 81.5213 11.2109C81.6672 11.2474 81.7948 11.3021 81.9041 11.375C82.0317 11.4479 82.1594 11.5208 82.287 11.5938C82.3599 11.5755 82.4146 11.5573 82.451 11.5391C82.5057 11.5208 82.5513 11.5117 82.5877 11.5117C82.6971 11.5117 82.7791 11.5573 82.8338 11.6484C82.8885 11.7214 82.9432 11.7852 82.9979 11.8398C83.1073 11.8398 83.1802 11.8672 83.2166 11.9219C83.2713 11.9766 83.3442 12.013 83.4354 12.0312C83.563 12.25 83.6997 12.3867 83.8456 12.4414C84.0096 12.4779 84.1554 12.5417 84.2831 12.6328C84.3742 12.7422 84.4471 12.8607 84.5018 12.9883C84.5565 13.1159 84.6021 13.2799 84.6385 13.4805C84.7114 13.5716 84.7844 13.6628 84.8573 13.7539C84.9484 13.8268 84.994 13.9271 84.994 14.0547C85.0487 14.2917 85.0669 14.4466 85.0487 14.5195C85.0304 14.5924 85.0031 14.6745 84.9666 14.7656C85.0031 14.8021 85.0487 14.8294 85.1034 14.8477C85.1763 14.8477 85.231 14.8659 85.2674 14.9023Z" fill="#CCCCCC"/>
</svg>
