<svg width="316" height="172" viewBox="0 0 316 172" fill="none" xmlns="http://www.w3.org/2000/svg">
<g clip-path="url(#clip0_94_12197)">
<path opacity="0.8" d="M270.674 91.3981C270.807 91.2218 270.998 91.0779 271.226 90.9821C271.454 90.8863 271.712 90.8423 271.969 90.8549H272.399H272.835C273.088 90.8459 273.339 90.8916 273.561 90.9873C273.784 91.0829 273.97 91.2249 274.099 91.3981L274.996 92.6403L280.051 90.3067L279.154 89.0645C279.025 88.8864 278.962 88.6832 278.971 88.4779C278.98 88.2726 279.061 88.0734 279.204 87.9028C279.363 87.7097 279.509 87.5099 279.64 87.3043C279.757 87.1177 279.938 86.961 280.161 86.8525C280.385 86.7439 280.642 86.6879 280.904 86.6907H282.699V82.0236H280.904C280.643 82.0259 280.385 81.9696 280.162 81.8611C279.938 81.7526 279.758 81.5963 279.64 81.41C279.509 81.2044 279.363 81.0046 279.204 80.8116C279.061 80.6399 278.98 80.4399 278.971 80.2339C278.962 80.0278 279.026 79.8239 279.154 79.6448L280.051 78.4076L274.996 76.074L274.092 77.3213C273.964 77.4946 273.778 77.6365 273.555 77.7315C273.332 77.8264 273.081 77.8706 272.829 77.8594H272.393H271.963C271.705 77.8726 271.448 77.8289 271.219 77.733C270.991 77.6372 270.8 77.493 270.668 77.3163L269.77 76.074L264.715 78.4076L265.612 79.6448C265.741 79.8229 265.804 80.0261 265.795 80.2314C265.786 80.4367 265.705 80.6359 265.562 80.8065C265.403 81.0013 265.257 81.2028 265.126 81.41C265.009 81.5963 264.828 81.7526 264.604 81.8611C264.381 81.9696 264.124 82.0259 263.862 82.0236H262.067V86.6907H263.862C264.124 86.6885 264.381 86.7448 264.604 86.8533C264.828 86.9617 265.009 87.118 265.126 87.3043C265.261 87.5122 265.406 87.7133 265.562 87.9078C265.705 88.0784 265.786 88.2776 265.795 88.4829C265.804 88.6882 265.741 88.8914 265.612 89.0696L264.715 90.3067L269.77 92.6403L270.674 91.3981ZM267.597 84.3572C267.597 83.6012 267.878 82.8622 268.406 82.2337C268.934 81.6051 269.684 81.1152 270.561 80.8259C271.439 80.5366 272.404 80.4609 273.336 80.6084C274.267 80.7559 275.123 81.1199 275.795 81.6545C276.466 82.189 276.924 82.8701 277.109 83.6115C277.294 84.3529 277.199 85.1214 276.836 85.8199C276.472 86.5183 275.857 87.1152 275.067 87.5352C274.277 87.9552 273.349 88.1794 272.399 88.1794C271.126 88.1781 269.905 87.7749 269.005 87.0584C268.105 86.3419 267.598 85.3705 267.597 84.3572Z" fill="#808B9A"/>
<path opacity="0.8" d="M81.6065 38.5766C81.7391 38.4002 81.9301 38.2563 82.1586 38.1606C82.387 38.0648 82.6441 38.0208 82.9018 38.0334H83.3316H83.7676C84.0203 38.0243 84.2713 38.0701 84.4939 38.1658C84.7165 38.2614 84.9023 38.4034 85.0314 38.5766L85.9287 39.8188L90.9838 37.4852L90.0866 36.243C89.958 36.0649 89.8946 35.8617 89.9036 35.6564C89.9125 35.4511 89.9934 35.2519 90.1371 35.0812C90.2959 34.8882 90.4415 34.6884 90.5731 34.4828C90.6898 34.2961 90.8703 34.1395 91.0939 34.031C91.3175 33.9224 91.575 33.8663 91.8369 33.8692H93.6315V29.2021H91.8369C91.5752 29.2043 91.3179 29.148 91.0945 29.0395C90.871 28.931 90.6904 28.7748 90.5731 28.5885C90.4415 28.3829 90.2959 28.1831 90.1371 27.99C89.9935 27.8184 89.9128 27.6184 89.9038 27.4123C89.8949 27.2063 89.9582 27.0023 90.0866 26.8233L90.9838 25.5861L85.9287 23.2525L85.025 24.4997C84.8967 24.6731 84.7109 24.815 84.488 24.9099C84.2651 25.0048 84.0137 25.0491 83.7612 25.0379H83.3252H82.8955C82.6377 25.0511 82.3803 25.0073 82.1517 24.9115C81.9232 24.8156 81.7323 24.6714 81.6001 24.4947L80.7029 23.2525L75.6477 25.5861L76.5449 26.8233C76.6735 27.0014 76.7369 27.2046 76.7279 27.4099C76.719 27.6152 76.6381 27.8144 76.4944 27.985C76.3356 28.1798 76.19 28.3813 76.0584 28.5885C75.9412 28.7748 75.7605 28.931 75.537 29.0395C75.3136 29.148 75.0563 29.2043 74.7946 29.2021H73V33.8692H74.7946C75.0563 33.8669 75.3136 33.9232 75.537 34.0317C75.7605 34.1402 75.9412 34.2965 76.0584 34.4828C76.1932 34.6906 76.3385 34.8918 76.4944 35.0863C76.6381 35.2569 76.719 35.4561 76.7279 35.6614C76.7369 35.8667 76.6735 36.0699 76.5449 36.248L75.6477 37.4852L80.7029 39.8188L81.6065 38.5766ZM78.5291 31.5356C78.5291 30.7797 78.8108 30.0407 79.3385 29.4121C79.8662 28.7836 80.6162 28.2937 81.4937 28.0044C82.3713 27.7151 83.3369 27.6394 84.2685 27.7869C85.2 27.9343 86.0557 28.2984 86.7274 28.8329C87.399 29.3675 87.8564 30.0485 88.0417 30.79C88.227 31.5314 88.1319 32.2999 87.7684 32.9983C87.4049 33.6967 86.7894 34.2937 85.9996 34.7137C85.2099 35.1337 84.2814 35.3579 83.3316 35.3579C82.0584 35.3565 80.8378 34.9534 79.9376 34.2369C79.0373 33.5204 78.5308 32.5489 78.5291 31.5356Z" fill="#808B9A"/>
<path d="M45.3386 75.1788V147.831H100.497V75.1788H45.3386ZM50.3496 102.105H95.5114V121.02H50.3496V102.105ZM50.3496 78.6892H95.5114V97.6042H50.3496V78.6892Z" fill="#808B9A"/>
<path d="M23.2727 147.831H45.3386L45.3386 75.1839H23.2727L23.2727 147.831Z" fill="#202326"/>
<path d="M84.7755 97.5991H95.5051V78.6892H84.7755V97.5991Z" fill="#202326"/>
<path d="M95.4419 143.456H50.1157V125.049H95.4419V143.456ZM50.577 143.078H94.9806V125.426H50.577V143.078Z" fill="#606873"/>
<path d="M70.2101 133.9H79.1262V130.309H70.2101V133.9Z" fill="#606873"/>
<path d="M76.7313 133.82H67.3413V130.395H76.7313V133.82ZM67.8152 133.442H76.2574V130.772H67.8152V133.442Z" fill="#606873"/>
<path d="M84.7755 121.02H95.5051V102.11H84.7755V121.02Z" fill="#202326"/>
<path d="M45.9517 119.758C45.9517 119.758 51.108 105.032 55.2279 100.053C59.3479 95.0744 67.0065 89.5322 67.0065 89.5322C67.0065 89.5322 66.8359 112.239 45.9517 119.758Z" fill="#FFD233"/>
<path d="M46.3243 119.506C48.0606 117.201 49.6303 114.818 51.0257 112.37C51.6149 109.738 52.4708 107.147 53.5849 104.625C53.5849 104.58 53.686 104.625 53.6733 104.655C52.9909 106.979 52.1947 109.287 51.4743 111.606C53.5533 108.02 55.5311 104.394 58.0081 101.004C58.5804 99.367 59.3816 97.7863 60.3967 96.2915C60.3967 96.2463 60.5168 96.2915 60.4915 96.3167C59.8638 97.4626 59.3256 98.6383 58.8802 99.8371C60.049 98.3262 61.3586 96.8871 62.7979 95.5321C62.8864 95.4466 63.0697 95.5321 62.9812 95.6277C59.6637 98.9973 57.3762 102.824 55.2025 106.692C57.5427 104.67 59.7027 102.521 61.6668 100.26C61.6668 100.26 61.73 100.26 61.7111 100.285C59.6554 102.821 57.3299 105.212 54.7602 107.431C53.1741 110.273 51.6007 113.124 49.705 115.825C53.4964 113.285 56.3905 109.991 59.2719 106.818C59.3351 106.747 59.4742 106.818 59.411 106.893C56.5358 110.378 53.5533 113.657 49.408 116.237C48.5682 117.427 47.6442 118.577 46.6403 119.682C46.6049 119.696 46.5656 119.702 46.5265 119.699C46.4873 119.697 46.4497 119.686 46.4176 119.668C46.3854 119.65 46.3598 119.626 46.3434 119.597C46.327 119.569 46.3204 119.538 46.3243 119.506Z" fill="#101113"/>
<path d="M44.9722 119.778C44.9722 119.778 54.2422 106.199 51.5503 93.0326C48.8584 79.866 45.9769 75.1788 45.9769 75.1788C45.9769 75.1788 31.4053 95.6578 44.9722 119.778Z" fill="#FFD233"/>
<path d="M41.1681 98.4289C41.9543 102.161 43.1511 105.832 44.7447 109.398C44.7447 104.565 44.89 99.7315 45.0543 94.9034C44.0111 91.9708 43.4232 88.9475 43.304 85.9011C43.304 85.8156 43.4683 85.8206 43.4746 85.9011C43.7646 88.5122 44.3075 91.1016 45.0986 93.6461C45.2376 89.6596 45.3998 85.6731 45.5851 81.6866C45.5895 81.6754 45.5984 81.6655 45.6103 81.6585C45.6222 81.6516 45.6367 81.6478 45.6515 81.6478C45.6663 81.6478 45.6807 81.6516 45.6926 81.6585C45.7046 81.6655 45.7134 81.6754 45.7178 81.6866C45.7178 87.9128 45.7178 94.139 45.6673 100.365C46.7955 97.9578 47.6871 95.4844 48.3339 92.9672C48.3339 92.942 48.3907 92.9672 48.3907 92.9672C48.0173 95.8672 47.0948 98.7056 45.6546 101.386C45.6167 105.369 45.5662 109.347 45.4524 113.325C47.0195 109.106 48.6814 105.012 49.149 100.556C49.1532 100.546 49.1612 100.537 49.172 100.531C49.1828 100.525 49.1958 100.522 49.2091 100.522C49.2224 100.522 49.2353 100.525 49.2461 100.531C49.2569 100.537 49.2649 100.546 49.2691 100.556C49.1427 105.49 47.544 110.494 45.4777 115.141C45.4546 115.185 45.4202 115.224 45.3766 115.257C45.326 116.71 45.2755 118.169 45.2123 119.622C45.2123 119.665 45.191 119.706 45.1531 119.736C45.1152 119.766 45.0637 119.783 45.0101 119.783C44.9565 119.783 44.905 119.766 44.8671 119.736C44.8292 119.706 44.8079 119.665 44.8079 119.622C44.7405 116.645 44.711 113.667 44.7194 110.69C42.707 106.784 41.4849 102.649 41.0986 98.439C41.0986 98.4038 41.1618 98.3937 41.1681 98.4289Z" fill="#101113"/>
<path d="M41.8062 96.3317C42.1235 97.5136 42.3347 98.7119 42.4381 99.9176C42.4381 99.9578 42.3622 99.9628 42.3496 99.9176C41.9896 98.7416 41.7362 97.5466 41.5913 96.3418C41.5913 96.2563 41.7809 96.2412 41.8062 96.3317Z" fill="#101113"/>
<path d="M47.2217 86.404C47.2217 86.3638 47.3102 86.3789 47.3102 86.404C47.2964 87.2416 47.1412 88.0738 46.8489 88.8784C46.8464 88.885 46.8423 88.8912 46.8368 88.8965C46.8313 88.9019 46.8246 88.9063 46.817 88.9096C46.8093 88.9128 46.801 88.9149 46.7924 88.9156C46.7837 88.9163 46.775 88.9156 46.7667 88.9136C46.7584 88.9117 46.7507 88.9084 46.744 88.904C46.7373 88.8997 46.7317 88.8943 46.7276 88.8882C46.7235 88.8822 46.7209 88.8755 46.7201 88.8687C46.7192 88.8618 46.72 88.8549 46.7225 88.8483C46.9247 88.0436 47.0511 87.2238 47.2217 86.404Z" fill="#101113"/>
<path d="M41.5915 119.778C41.5915 119.778 41.9643 105.586 36.8585 98.5446C31.7528 91.5037 23.2727 87.9078 23.2727 87.9078C23.2727 87.9078 26.6913 112.908 41.5915 119.778Z" fill="#FFD233"/>
<path d="M32.252 107.658C34.3193 110.135 36.6444 112.47 39.2029 114.638C38.1855 111.741 36.9976 108.89 35.6643 106.088C32.8018 104.077 29.9772 102.02 28.2015 99.2839C28.1948 99.2745 28.1931 99.2635 28.1966 99.2531C28.2002 99.2427 28.2088 99.2339 28.2205 99.2285C28.2322 99.2232 28.2461 99.2218 28.2592 99.2246C28.2722 99.2275 28.2833 99.2343 28.29 99.2437C30.1857 101.668 32.7133 103.604 35.361 105.47C33.3129 101.248 30.9388 97.1315 28.2521 93.1432C28.2402 93.1227 28.2383 93.0994 28.2468 93.0779C28.2553 93.0564 28.2737 93.0382 28.2982 93.0269C28.3227 93.0155 28.3517 93.0119 28.3794 93.0167C28.4071 93.0214 28.4315 93.0343 28.448 93.0527C30.0722 95.1414 31.549 97.3007 32.8713 99.5203C32.3973 98.0115 32.0119 96.4574 31.519 94.9537C31.5223 94.9472 31.528 94.9416 31.5353 94.9376C31.5426 94.9337 31.5512 94.9316 31.5601 94.9316C31.5689 94.9316 31.5776 94.9337 31.5849 94.9376C31.5922 94.9416 31.5979 94.9472 31.6012 94.9537C32.6085 96.8894 33.3131 98.9163 33.6991 100.989C35.4875 104.131 36.9911 107.372 38.1982 110.685C38.0655 108.563 37.9012 106.445 37.6232 104.328C37.6232 104.288 37.7053 104.278 37.7116 104.328C38.2826 106.681 38.5431 109.074 38.4889 111.47C39.2219 113.582 39.839 115.716 40.3403 117.872C40.3403 117.927 40.2455 117.957 40.2266 117.897C39.9549 116.992 39.6515 116.097 39.3419 115.206C39.3419 115.206 39.304 115.206 39.285 115.206C36.4371 113.019 34.061 110.474 32.252 107.673V107.658Z" fill="#101113"/>
<path d="M26.3563 96.1255C26.925 96.6285 27.4495 97.1314 27.9992 97.6343C28.5322 98.0604 29.0244 98.5176 29.4715 99.0023C29.4761 99.0071 29.4783 99.0131 29.4778 99.0191C29.4772 99.0252 29.474 99.0308 29.4686 99.0351C29.4632 99.0394 29.4561 99.042 29.4485 99.0424C29.4409 99.0429 29.4334 99.0411 29.4273 99.0375C28.7879 98.6543 28.2161 98.2043 27.7275 97.6997C27.1909 97.23 26.7047 96.7253 26.2741 96.1909C26.2425 96.1356 26.3184 96.0903 26.3563 96.1255Z" fill="#101113"/>
<path d="M56.1568 120.819L55.5249 127.533L53.5723 147.831H36.6753L34.7354 127.533L34.1035 120.819H56.22H56.1568Z" fill="#606873"/>
<path d="M56.1568 120.819L55.7651 124.898L34.5143 125.577L34.0593 120.819H56.1758H56.1568Z" fill="#101113"/>
<path d="M32.5553 122.67H57.6606V117.52H32.5553V122.67Z" fill="#606873"/>
<path d="M-7.76221 147.783L32.703 147.673L73.1758 147.637L154.106 147.562L235.044 147.633L275.51 147.673L315.975 147.783L275.51 147.89L235.044 147.93L154.106 148.005L73.1758 147.93L32.703 147.89L-7.76221 147.783Z" fill="#101113"/>
<path d="M68.9969 147.107C70.9801 147.673 129.652 148.601 131.855 147.526C132.118 147.419 133.071 131.968 133.071 131.968C133 131.748 133.981 130.271 135.481 128.195C139.66 122.385 147.842 111.975 147.842 111.975L113.011 103.596L98.7095 126.401L95.0629 132.217C95.0629 132.217 87.0661 134.706 80.0858 137.19C75.8208 138.712 72.0463 140.104 71.172 140.624C68.9258 142.016 67.0208 146.553 68.9969 147.107Z" fill="#FFC4C0"/>
<path d="M68.9969 147.107C70.9802 147.673 129.652 148.601 131.855 147.526C132.118 147.419 133.071 131.968 133.071 131.968C133 131.748 133.981 130.271 135.481 128.195L98.7167 126.401L95.0701 132.217C95.0701 132.217 87.0733 134.706 80.093 137.19C75.828 138.712 72.0535 140.104 71.1792 140.624C68.9259 142.016 67.0208 146.553 68.9969 147.107Z" fill="#101113"/>
<path d="M68.7553 147.283C70.7954 147.849 129.538 148.658 131.806 147.56C132.666 147.147 133.704 139.951 133.071 131.968L95.1981 131.487C95.1981 131.487 73.262 139.204 70.9376 140.618C68.6132 142.033 66.7153 146.706 68.7553 147.283Z" fill="#FFD233"/>
<path opacity="0.1" d="M131.806 147.566C130.974 147.962 122.629 148.131 112.258 148.131L132.161 131.98H133.085C133.704 139.951 132.666 147.153 131.806 147.566Z" fill="#202326"/>
<path d="M69.6367 145.422C79.4888 145.365 119.231 145.868 128.977 146.412C129.055 146.412 129.055 146.457 128.977 146.457C119.21 146.683 79.4746 145.925 69.6296 145.552C69.4235 145.546 69.4306 145.422 69.6367 145.422Z" fill="#101113"/>
<path d="M74.7546 138.989C75.8505 138.981 76.9365 139.154 77.9437 139.498C78.9508 139.841 79.8571 140.348 80.6047 140.986C81.9743 142.118 82.7387 143.629 82.7372 145.201C82.7372 145.246 82.6235 145.246 82.6164 145.201C82.3153 143.647 81.3913 142.213 79.9821 141.112C78.573 140.011 76.7542 139.302 74.7973 139.091C74.7803 139.095 74.7618 139.094 74.7458 139.088C74.7298 139.082 74.7176 139.07 74.712 139.057C74.7063 139.043 74.7076 139.029 74.7156 139.016C74.7236 139.003 74.7376 138.994 74.7546 138.989Z" fill="#101113"/>
<path d="M92.0633 132.234C96.0013 132.234 100.551 133.411 102.946 136.013C103.038 136.109 102.854 136.217 102.74 136.166C99.3251 134.68 95.7194 133.491 91.9851 132.619C91.9301 132.603 91.8837 132.573 91.8539 132.533C91.8242 132.493 91.813 132.446 91.8223 132.4C91.8316 132.355 91.8608 132.313 91.9049 132.282C91.9489 132.252 92.005 132.235 92.0633 132.234Z" fill="#101113"/>
<path d="M89.0281 133.134C92.9661 133.134 97.5154 134.316 99.9109 136.913C100.003 137.015 99.8185 137.116 99.7048 137.066C96.2871 135.584 92.6821 134.395 88.9499 133.518C88.895 133.503 88.8485 133.473 88.8188 133.433C88.789 133.393 88.7778 133.346 88.7871 133.3C88.7964 133.254 88.8257 133.212 88.8697 133.182C88.9138 133.152 88.9698 133.134 89.0281 133.134Z" fill="#101113"/>
<path d="M85.9644 134.039C89.9024 134.039 94.4517 135.216 96.8472 137.818C96.9396 137.92 96.7548 138.022 96.6411 137.971C93.2262 136.485 89.6205 135.296 85.8862 134.423C85.8312 134.408 85.7848 134.378 85.7551 134.338C85.7253 134.298 85.7141 134.251 85.7234 134.205C85.7327 134.159 85.762 134.118 85.806 134.087C85.8501 134.057 85.9061 134.04 85.9644 134.039Z" fill="#101113"/>
<path d="M82.9007 134.938C86.8387 134.938 91.388 136.121 93.7835 138.717C93.8759 138.819 93.6911 138.921 93.5773 138.876C90.1613 137.391 86.556 136.2 82.8225 135.323C82.7675 135.308 82.7211 135.277 82.6913 135.237C82.6616 135.197 82.6504 135.151 82.6597 135.105C82.669 135.059 82.6982 135.017 82.7423 134.987C82.7863 134.956 82.8424 134.939 82.9007 134.938Z" fill="#101113"/>
<path d="M126.624 138.932C131.045 139 130.889 144.471 126.489 144.398C122.089 144.324 122.195 138.859 126.624 138.932Z" fill="#101113"/>
<path d="M88.2249 128.404C90.3076 130.622 93.5134 132.036 96.2928 133.62C96.3575 133.651 96.4307 133.67 96.5061 133.674C96.5815 133.678 96.6571 133.667 96.7266 133.644C96.7961 133.62 96.8574 133.583 96.9056 133.537C96.9537 133.491 96.9873 133.436 97.0036 133.377C97.0193 133.379 97.0354 133.379 97.051 133.376C97.0665 133.373 97.0809 133.367 97.0932 133.359C97.1055 133.351 97.1153 133.341 97.1219 133.329C97.1286 133.317 97.1319 133.305 97.1315 133.292C96.9044 130.409 95.7276 127.625 93.7196 125.219C92.5183 123.833 90.0304 122.515 88.0329 123.805C86.0355 125.094 87.0094 127.114 88.2249 128.404ZM88.0969 125.807C88.5661 122.413 92.3619 125.072 93.2078 126.118C93.7419 126.805 94.2169 127.519 94.6294 128.257C95.4393 129.787 96.151 131.348 96.7619 132.936C95.4611 132.087 94.075 131.34 92.7386 130.537C91.1037 129.575 87.841 127.686 88.0969 125.807Z" fill="#101113"/>
<path d="M111.17 131.482C110.907 129.428 107.979 128.947 105.896 129.219C102.335 129.768 99.0175 131.054 96.2786 132.947C96.2654 132.954 96.2546 132.964 96.2472 132.975C96.2397 132.987 96.2358 132.999 96.2358 133.012C96.2358 133.025 96.2397 133.037 96.2472 133.049C96.2546 133.06 96.2654 133.07 96.2786 133.077C96.241 133.128 96.2185 133.185 96.2128 133.243C96.2072 133.302 96.2185 133.361 96.246 133.416C96.2735 133.47 96.3163 133.519 96.3713 133.558C96.4262 133.598 96.4918 133.627 96.5629 133.643C99.9251 134.107 103.451 134.933 106.891 134.559C108.903 134.367 111.419 133.422 111.17 131.482ZM101.851 133.541C100.188 133.349 98.5461 133.088 96.8757 132.941C98.7594 132.217 100.586 131.436 102.562 130.859C103.506 130.573 104.472 130.336 105.455 130.152C106.977 129.892 112.045 130.152 109.322 132.834C107.815 134.299 103.828 133.773 101.851 133.541Z" fill="#101113"/>
<path d="M138.125 127.889L96.8188 122.911C96.8188 122.911 116.672 91.4102 128.962 74.3191C135.801 64.8147 154.495 64.3508 163.587 75.7335C175.735 90.9463 185.161 105.203 190.563 113.101L199.939 113.74L197.913 125.926L166.771 131.476C154.844 132.607 146.47 115.709 146.278 115.997C144.764 118.215 138.125 127.889 138.125 127.889Z" fill="#101113"/>
<path d="M146.086 116.071C147.259 114.159 148.176 112.111 149.221 110.165C150.266 108.218 151.247 106.368 152.249 104.468C154.275 100.626 156.372 96.8017 158.341 92.9434C159.443 90.7766 160.473 88.5815 161.49 86.3921C161.496 86.3825 161.506 86.3749 161.519 86.3709C161.532 86.3668 161.546 86.3664 161.558 86.3698C161.571 86.3733 161.582 86.3802 161.589 86.3895C161.596 86.3988 161.599 86.4097 161.597 86.4204C160.793 88.4853 159.969 90.5503 159.094 92.5982C159.329 92.2475 159.556 91.8911 159.805 91.546C160.466 90.6012 161.156 89.6677 161.838 88.7173C161.84 88.7124 161.843 88.7079 161.848 88.7041C161.852 88.7004 161.858 88.6975 161.864 88.6957C161.87 88.6938 161.876 88.6931 161.883 88.6936C161.889 88.694 161.895 88.6956 161.901 88.6983C161.906 88.7009 161.911 88.7045 161.915 88.7088C161.918 88.7131 161.92 88.718 161.921 88.7231C161.922 88.7282 161.921 88.7334 161.919 88.7382C161.917 88.7431 161.914 88.7476 161.909 88.7512C161.277 89.6847 160.644 90.6182 159.983 91.546C159.656 92.0042 159.272 92.4625 158.952 92.9207C156.534 98.6827 153.662 104.317 150.351 109.791C149.036 111.935 147.508 113.989 146.186 116.133C146.143 116.201 146.015 116.139 146.086 116.071Z" fill="#808B9A"/>
<path d="M137.201 122.045C139.191 119.601 143.94 112.196 145.638 109.638C149.072 104.462 152.214 99.1778 155.192 93.8259C156.87 90.7992 158.441 87.7442 159.997 84.6779C159.997 84.6779 160.047 84.6779 160.04 84.6779C157.669 90.1982 154.948 95.6193 151.887 100.92C148.859 106.233 139.092 120.546 137.329 122.096C137.265 122.164 137.151 122.107 137.201 122.045Z" fill="#808B9A"/>
<path d="M162.847 88.7682C166.402 93.8259 170.041 98.8497 173.617 103.902C175.422 106.459 177.223 109.016 179.019 111.573C179.858 112.778 180.675 113.995 181.549 115.188C182.299 116.311 183.429 117.245 184.812 117.881C186.469 118.509 188.206 118.993 189.994 119.324C191.998 119.788 193.996 120.291 196.015 120.733C196.034 120.737 196.049 120.747 196.059 120.761C196.068 120.775 196.07 120.791 196.064 120.806C196.059 120.821 196.046 120.834 196.029 120.841C196.011 120.849 195.991 120.85 195.972 120.846C194.174 120.461 192.354 120.133 190.548 119.776C188.884 119.494 187.24 119.143 185.622 118.724C184.193 118.342 182.929 117.645 181.976 116.716C181.007 115.642 180.151 114.507 179.417 113.321C175.849 108.12 172.311 102.91 168.804 97.6899C166.807 94.7198 164.831 91.744 162.812 88.7852C162.805 88.7682 162.833 88.7286 162.847 88.7682Z" fill="#808B9A"/>
<path d="M139.063 123.278C136.59 122.916 134.052 122.747 131.557 122.492L124.051 121.717C119.075 121.202 102.065 119.047 100.785 118.707C100.768 118.703 100.752 118.694 100.741 118.683C100.73 118.671 100.724 118.657 100.724 118.642C100.724 118.628 100.73 118.613 100.741 118.602C100.752 118.59 100.768 118.581 100.785 118.577C102.001 118.549 113.125 119.709 115.627 120.02C120.603 120.585 125.579 121.31 130.555 121.977C131.976 122.17 133.398 122.385 134.82 122.583C136.241 122.781 137.663 123.024 139.085 123.148C139.106 123.151 139.126 123.16 139.139 123.173C139.153 123.187 139.159 123.205 139.156 123.222C139.153 123.239 139.142 123.255 139.124 123.265C139.107 123.276 139.085 123.281 139.063 123.278Z" fill="#808B9A"/>
<path d="M112.919 154.145C113.63 152.578 151.076 116.597 153.536 115.963C153.813 115.879 169.138 125.383 169.138 125.383C169.757 126.096 200.109 122.107 200.109 122.107L198.83 150.96L144.096 148.131C144.096 148.131 136.511 151.339 129.595 153.925C125.33 155.531 121.577 156.872 120.511 157.053C117.717 157.517 112.158 155.701 112.919 154.145Z" fill="#FFC4C0"/>
<path d="M120.496 157.053C121.563 156.878 125.323 155.531 129.581 153.925C136.497 151.339 144.082 148.131 144.082 148.131L156.258 148.759L176.694 124.936C172.479 125.383 169.337 125.626 169.138 125.4C169.138 125.4 153.82 115.896 153.536 115.98C151.076 116.614 113.672 152.589 112.919 154.157C112.165 155.724 117.717 157.523 120.496 157.053Z" fill="#101113"/>
<path d="M112.592 154.179C113.381 152.578 150.977 116.625 153.472 115.975C154.424 115.72 161.952 119.793 169.11 125.383L144.856 148.539C144.856 148.539 123.198 156.731 120.333 157.212C117.468 157.692 111.81 155.786 112.592 154.179Z" fill="#FFD233"/>
<path d="M114.938 154.864C121.421 148.957 146.875 124.659 152.718 118.43C152.768 118.379 152.718 118.351 152.676 118.402C146.086 124.138 120.88 148.601 114.817 154.779C114.689 154.92 114.81 154.988 114.938 154.864Z" fill="#101113"/>
<path d="M124.406 155.973C125.128 155.317 125.672 154.549 126.002 153.717C126.332 152.885 126.442 152.008 126.325 151.141C126.125 149.581 125.181 148.142 123.688 147.119C123.638 147.119 123.574 147.158 123.61 147.192C124.899 148.388 125.666 149.884 125.794 151.457C125.922 153.029 125.405 154.592 124.321 155.91C124.317 155.92 124.317 155.929 124.32 155.939C124.323 155.948 124.33 155.956 124.339 155.963C124.348 155.97 124.359 155.974 124.371 155.976C124.382 155.977 124.395 155.976 124.406 155.973Z" fill="#101113"/>
<path d="M142.148 149.925C144.714 147.543 146.562 144.035 145.653 140.873C145.617 140.754 145.404 140.794 145.375 140.873C144.56 143.902 143.34 146.853 141.736 149.676C141.694 149.719 141.676 149.774 141.686 149.828C141.695 149.882 141.731 149.931 141.786 149.964C141.84 149.997 141.909 150.012 141.977 150.004C142.045 149.997 142.107 149.968 142.148 149.925Z" fill="#101113"/>
<path d="M139.291 151.186C141.857 148.799 143.705 145.297 142.795 142.135C142.76 142.01 142.539 142.055 142.511 142.135C141.702 145.173 140.482 148.132 138.871 150.96C138.834 151.004 138.82 151.059 138.832 151.111C138.845 151.164 138.883 151.21 138.939 151.24C138.994 151.27 139.063 151.281 139.129 151.271C139.195 151.261 139.253 151.231 139.291 151.186Z" fill="#101113"/>
<path d="M136.433 152.442C138.992 150.061 140.847 146.553 139.938 143.39C139.902 143.272 139.682 143.311 139.653 143.39C138.841 146.42 137.621 149.372 136.014 152.193C135.993 152.215 135.978 152.24 135.97 152.267C135.961 152.293 135.96 152.321 135.965 152.348C135.97 152.375 135.981 152.401 135.999 152.424C136.016 152.448 136.04 152.468 136.067 152.485C136.095 152.501 136.126 152.513 136.159 152.52C136.193 152.526 136.227 152.528 136.261 152.524C136.295 152.52 136.328 152.511 136.357 152.497C136.387 152.483 136.413 152.464 136.433 152.442Z" fill="#101113"/>
<path d="M133.576 153.704C136.135 151.317 137.99 147.815 137.08 144.652C137.045 144.528 136.824 144.573 136.796 144.652C135.982 147.68 134.762 150.629 133.156 153.449C133.114 153.494 133.095 153.55 133.105 153.605C133.114 153.66 133.15 153.71 133.206 153.744C133.262 153.777 133.332 153.792 133.401 153.785C133.471 153.777 133.533 153.748 133.576 153.704Z" fill="#101113"/>
<path d="M158.305 124.727C161.149 122.017 155.832 118.504 153.01 121.242C150.188 123.98 155.483 127.442 158.305 124.727Z" fill="#101113"/>
<path d="M147.508 157.885C150.053 157.511 150.415 155.147 149.882 153.517C148.901 150.738 147.018 148.213 144.423 146.197C144.413 146.187 144.4 146.179 144.386 146.174C144.372 146.169 144.357 146.166 144.341 146.166C144.326 146.166 144.31 146.169 144.296 146.174C144.282 146.179 144.269 146.187 144.259 146.197C144.192 146.167 144.116 146.15 144.039 146.148C143.962 146.147 143.885 146.16 143.816 146.186C143.746 146.213 143.686 146.252 143.639 146.301C143.593 146.35 143.562 146.408 143.549 146.468C143.243 149.178 142.497 152.041 143.25 154.739C143.712 156.329 145.105 158.247 147.508 157.885ZM144.16 150.666C144.267 149.331 144.451 148.007 144.501 146.672C145.56 148.103 146.69 149.5 147.572 151.005C148.01 151.729 148.385 152.476 148.695 153.24C149.15 154.428 149.207 158.473 145.66 156.527C143.712 155.486 144.032 152.256 144.167 150.666H144.16Z" fill="#101113"/>
<path d="M149.569 139.459C146.968 141.292 145.461 143.956 143.705 146.287C143.667 146.342 143.647 146.403 143.646 146.466C143.645 146.529 143.663 146.59 143.699 146.646C143.734 146.702 143.787 146.75 143.851 146.786C143.915 146.822 143.99 146.845 144.068 146.853C144.066 146.865 144.069 146.878 144.074 146.89C144.08 146.902 144.089 146.912 144.101 146.921C144.112 146.93 144.126 146.936 144.141 146.94C144.157 146.944 144.173 146.945 144.188 146.943C147.781 146.52 151.17 145.349 154.012 143.549C155.647 142.485 157.097 140.403 155.313 138.904C153.628 137.495 151.062 138.389 149.569 139.459ZM152.818 139.147C157.125 139.238 154.09 142.48 152.818 143.226C152 143.698 151.146 144.127 150.259 144.511C148.425 145.325 146.484 145.914 144.572 146.576C145.525 145.472 146.342 144.313 147.245 143.181C148.34 141.84 150.444 139.08 152.818 139.147Z" fill="#101113"/>
<path d="M182.459 114.792C182.459 114.792 229.374 109.78 244.735 113.067C266.152 117.661 268.605 138.135 252.113 145.931C231.215 155.803 158.725 150.298 158.725 150.298L178.955 123.143C178.955 123.143 209.329 118.617 236.532 120.387L181.628 125.807L182.459 114.792Z" fill="#101113"/>
<path d="M177.555 124.981C177.575 124.933 177.592 124.884 177.604 124.834C177.604 124.795 177.604 124.755 177.64 124.715L177.747 124.438C177.817 124.245 177.902 124.056 178.002 123.872C178.095 123.686 178.202 123.505 178.308 123.307C178.423 123.132 178.554 122.963 178.699 122.803C178.699 122.803 178.735 122.803 178.756 122.803H178.792H178.841C178.858 122.8 178.875 122.8 178.891 122.803C182.225 122.379 204.843 120.337 208.206 120.122C211.568 119.907 214.987 119.743 218.378 119.612C225.143 119.33 231.923 119.351 238.686 119.675C239.319 119.703 239.951 119.748 240.584 119.788C240.719 119.754 240.868 119.737 241.003 119.714C241.337 119.658 241.657 119.595 241.991 119.556C242.61 119.471 243.228 119.414 243.846 119.352C245.133 119.228 246.427 119.154 247.706 118.99C247.784 118.99 247.813 119.081 247.706 119.092C246.413 119.296 245.133 119.578 243.839 119.782L242.716 119.946C245.19 120.144 247.657 120.399 250.123 120.682C250.201 120.682 250.201 120.795 250.123 120.789C246.768 120.501 243.377 120.359 240.001 120.291C236.624 120.223 233.298 120.178 229.943 120.229C223.161 120.337 216.373 120.631 209.599 121.015C205.803 121.23 182.73 123.369 178.927 123.375H178.884C178.85 123.452 178.809 123.528 178.763 123.601C178.649 123.776 178.536 123.952 178.415 124.121C178.294 124.291 178.18 124.455 178.045 124.614C177.91 124.772 177.917 124.772 177.846 124.846L177.747 124.964C177.705 125.002 177.669 125.044 177.64 125.089C177.633 125.1 177.505 125.049 177.555 124.981Z" fill="#808B9A"/>
<path d="M169.117 148.607C170.311 147.045 171.349 145.371 172.458 143.758L175.785 138.904C178.002 135.685 185.893 124.84 186.682 124.087C186.731 124.042 186.817 124.087 186.795 124.155C186.404 125.004 181.436 132.189 180.298 133.773C178.017 136.975 175.635 140.104 173.283 143.266C172.614 144.166 171.918 145.054 171.243 145.953C170.567 146.853 169.821 147.724 169.21 148.646C169.174 148.697 169.074 148.663 169.117 148.607Z" fill="#808B9A"/>
<path d="M187.911 127.063C189.93 126.712 191.991 126.497 194.024 126.249C196.057 126 198.097 125.717 200.137 125.462C204.218 124.942 208.302 124.451 212.392 123.991C220.552 123.08 228.741 122.368 236.93 121.966C241.564 121.74 246.171 121.643 250.834 121.508C250.933 121.508 250.926 121.638 250.834 121.643C242.588 121.677 234.321 122.373 226.118 123.114C217.915 123.855 209.883 124.687 201.787 125.598L194.927 126.384C192.603 126.656 190.278 127.007 187.947 127.182C187.854 127.199 187.819 127.08 187.911 127.063Z" fill="#808B9A"/>
<path d="M187.904 80.3273C183.412 86.5505 165.52 105.814 159.891 106.453C154.033 107.121 132.438 105.65 128.5 101.956C126.574 100.151 129.687 84.6552 132.68 85.5208C135.673 86.3864 154.147 89.9392 156.521 89.662C158.895 89.3848 178.038 74.6303 185.097 71.4508C197.266 65.9631 190.328 76.9668 187.904 80.3273Z" fill="#FFC4C0"/>
<path d="M137.428 86.013L132.872 105.214C132.872 105.214 154.503 108.739 160.879 107.257C167.255 105.774 185.082 85.6 190.286 77.6231C195.489 69.6461 190.94 67.5472 181.606 72.5314C172.273 77.5156 157.317 88.6437 155.86 88.6946C154.403 88.7455 137.428 86.013 137.428 86.013Z" fill="#FFD233"/>
<path d="M183.874 74.0193C183.337 74.4385 182.903 74.9334 182.594 75.4789C183.281 75.2349 183.903 74.8893 184.428 74.4606C184.967 74.0416 185.403 73.5467 185.715 73.001C185.027 73.247 184.403 73.5922 183.874 74.0193ZM137.208 103.279C136.456 103.27 135.708 103.374 135.004 103.585C135.707 103.801 136.455 103.906 137.208 103.896C137.963 103.905 138.713 103.799 139.419 103.585C138.714 103.367 137.964 103.256 137.208 103.257V103.279ZM172.557 97.5428C171.803 97.5339 171.053 97.6375 170.347 97.8483C171.052 98.0636 171.802 98.1692 172.557 98.1595H172.849C173.027 97.9728 173.226 97.7804 173.41 97.5937C173.098 97.5372 172.842 97.5259 172.557 97.5202V97.5428ZM157.161 102.142C156.649 103.276 156.649 104.516 157.161 105.65C157.428 105.09 157.561 104.495 157.552 103.896C157.568 103.289 157.435 102.686 157.161 102.12V102.142ZM175.28 83.3767C175.011 83.9361 174.881 84.5316 174.896 85.1305C174.885 85.729 175.015 86.3239 175.28 86.8843C175.55 86.325 175.683 85.7296 175.671 85.1305C175.692 84.5234 175.559 83.9193 175.28 83.354V83.3767ZM183.874 74.0193C183.337 74.4385 182.903 74.9334 182.594 75.4789C183.281 75.2349 183.903 74.8893 184.428 74.4606C184.967 74.0416 185.403 73.5467 185.715 73.001C185.027 73.247 184.403 73.5922 183.874 74.0193ZM160.608 89.8601C160.064 90.2754 159.627 90.7712 159.322 91.3197C160.01 91.073 160.633 90.7235 161.156 90.29C161.7 89.8747 162.137 89.3789 162.442 88.8304C161.759 89.0672 161.137 89.4029 160.608 89.8205V89.8601ZM138.772 86.2676L138.573 86.4147C138.031 86.8303 137.596 87.3261 137.293 87.8743C137.981 87.6268 138.603 87.2774 139.127 86.8447C139.298 86.7032 139.468 86.5561 139.625 86.4034L138.772 86.2676ZM147.508 95.7325C146.984 95.303 146.361 94.9573 145.674 94.7141C145.983 95.261 146.42 95.7562 146.961 96.1737C147.487 96.6025 148.109 96.9497 148.794 97.1977C148.485 96.6495 148.048 96.1524 147.508 95.7325ZM172.586 97.5202C171.831 97.5113 171.082 97.6149 170.375 97.8257C171.08 98.0409 171.831 98.1466 172.586 98.1369H172.877C173.055 97.9502 173.254 97.7578 173.439 97.5711C173.098 97.5372 172.842 97.5259 172.557 97.5202H172.586ZM175.308 83.3767C175.039 83.9361 174.909 84.5316 174.924 85.1305C174.913 85.729 175.044 86.3239 175.308 86.8843C175.579 86.325 175.711 85.7296 175.699 85.1305C175.711 84.5219 175.568 83.9177 175.28 83.354L175.308 83.3767Z" fill="#101113"/>
<path d="M141.338 96.4849C141.708 94.963 143.122 88.8757 143.328 87.3425C143.328 87.3425 143.286 87.3086 143.271 87.3425C142.717 88.7738 141.096 94.7481 140.727 96.2699C139.89 99.2935 139.261 102.351 138.843 105.429C138.843 105.48 138.943 105.514 138.964 105.429C140.009 102.504 140.613 99.4777 141.338 96.4849Z" fill="#101113"/>
<path opacity="0.1" d="M190.285 77.6174C185.082 85.6 167.269 105.769 160.879 107.251C156.045 108.382 142.482 106.629 136.177 105.712L189.973 69.8555C193.001 70.0591 193.477 72.7124 190.285 77.6174Z" fill="#202326"/>
<path d="M171.427 115.686L224.619 118.147C224.547 117.287 216.231 93.0056 210.246 83.7614C202.576 71.9091 199.171 70.0987 196.896 69.4934C193.982 68.7183 188.004 68.724 186.234 70.9643C176.737 83.0712 170.702 115.149 171.427 115.686Z" fill="#FFD233"/>
<path d="M184.393 73.6289C184.108 74.0815 183.831 74.5398 183.561 75.0263C183.864 74.8515 184.153 74.6626 184.428 74.4606C184.967 74.0416 185.403 73.5467 185.715 73.001C185.236 73.1544 184.79 73.3663 184.393 73.6289ZM200.401 112.846C199.862 113.264 199.428 113.759 199.121 114.306C199.809 114.063 200.432 113.717 200.955 113.287C201.492 112.867 201.928 112.373 202.242 111.828C201.554 112.074 200.93 112.419 200.401 112.846ZM184.393 73.6289C184.108 74.0815 183.831 74.5398 183.561 75.0263C183.864 74.8515 184.153 74.6626 184.428 74.4606C184.967 74.0416 185.403 73.5467 185.715 73.001C185.236 73.1544 184.79 73.3663 184.393 73.6289ZM215.634 94.3068C215.5 94.2472 215.363 94.1943 215.221 94.1484C215.42 94.5198 215.689 94.865 216.017 95.1724C215.889 94.8839 215.747 94.5897 215.634 94.3068ZM203.94 74.7038C203.735 74.5404 203.519 74.3856 203.294 74.24C202.936 74.0107 202.542 73.8205 202.121 73.6742C202.428 74.2219 202.865 74.7174 203.407 75.1338C203.804 75.4514 204.251 75.7271 204.737 75.9541C204.897 76.0332 205.066 76.1013 205.241 76.1578C204.928 75.6114 204.487 75.1178 203.94 74.7038ZM189.532 94.5048C189.008 94.0736 188.386 93.726 187.698 93.4808C188.342 94.5754 189.449 95.4548 190.826 95.9644C190.513 95.4144 190.074 94.9156 189.532 94.4935V94.5048ZM202.881 100.366C202.129 100.356 201.38 100.462 200.678 100.677C202.105 101.084 203.665 101.084 205.092 100.677C204.388 100.457 203.637 100.348 202.881 100.355V100.366ZM189.909 81.8039C189.156 81.7937 188.408 81.8993 187.705 82.1151C188.41 82.3236 189.157 82.4272 189.909 82.4206C190.661 82.4318 191.409 82.3281 192.112 82.1151C191.41 81.8964 190.662 81.7869 189.909 81.7926V81.8039ZM184.151 107.087C183.88 107.646 183.747 108.241 183.76 108.841C183.752 109.44 183.885 110.034 184.151 110.594C184.663 109.461 184.663 108.221 184.151 107.087ZM214.582 105.327C214.058 106.461 214.058 107.707 214.582 108.841C215.093 107.705 215.093 106.463 214.582 105.327ZM203.663 86.3864C203.141 87.5187 203.141 88.7617 203.663 89.894C203.924 89.3328 204.054 88.7385 204.047 88.1402C204.059 87.5416 203.929 86.9466 203.663 86.3864Z" fill="#101113"/>
<path d="M205.796 74.8849C219.238 88.0327 233.923 109.876 226.73 114.102C220.162 117.96 197.458 113.061 183.312 107.952C180.625 106.985 193.065 88.1006 195.795 89.3735C198.669 90.7416 201.648 91.9641 204.715 93.0339C205.49 93.2375 201.431 88.8361 197.28 78.483C193.001 67.9659 198.091 67.3662 205.796 74.8849Z" fill="#FFC4C0"/>
<path d="M160.765 86.4656C160.601 88.7286 167.603 88.5645 167.603 88.5645C166.55 89.0553 165.745 89.8238 165.328 90.737C164.689 92.372 167.631 93.8881 167.631 93.8881C166.671 94.576 165.994 95.4794 165.691 96.4792C165.279 98.0973 167.98 99.9586 167.98 99.9586C167.543 100.979 167.578 102.091 168.079 103.093C169.565 105.729 175.131 106.018 178.535 106.736C182.34 107.611 186.051 108.727 189.632 110.074L197.38 90.1373C197.38 90.1373 182.921 82.4545 178.742 82.4319C175.23 82.3979 161.014 83.0033 160.765 86.4656Z" fill="#FFC4C0"/>
<path d="M167.66 88.4861C171.413 87.7837 175.365 87.8007 179.182 87.8517C179.268 87.8517 179.261 87.9593 179.182 87.9593C175.394 87.8744 171.477 88.5937 167.688 88.6276C167.668 88.6265 167.648 88.6197 167.633 88.6085C167.617 88.5973 167.607 88.5822 167.604 88.5658C167.6 88.5494 167.604 88.5326 167.614 88.5181C167.625 88.5036 167.641 88.4923 167.66 88.4861Z" fill="#101113"/>
<path d="M167.752 93.6392C168.623 93.5487 169.505 93.5487 170.375 93.6392C171.306 93.6901 172.23 93.7524 173.154 93.8259C175.012 93.973 176.86 94.1616 178.699 94.3916C178.784 94.3916 178.784 94.5048 178.699 94.4991C176.851 94.3577 175.003 94.2332 173.147 94.1484C172.216 94.1088 171.292 94.0748 170.361 94.0465C169.483 94.0629 168.606 94.0022 167.745 93.8655C167.707 93.8647 167.672 93.8521 167.646 93.8304C167.62 93.8086 167.606 93.7795 167.606 93.7495C167.607 93.7195 167.623 93.691 167.651 93.6703C167.678 93.6497 167.715 93.6384 167.752 93.6392Z" fill="#101113"/>
<path d="M168.058 99.9416C168.845 99.8645 169.644 99.8951 170.418 100.032C171.264 100.117 172.11 100.191 172.948 100.264C174.64 100.411 176.325 100.558 178.017 100.66C178.031 100.664 178.043 100.671 178.052 100.681C178.061 100.69 178.066 100.702 178.066 100.714C178.066 100.726 178.061 100.737 178.052 100.747C178.043 100.757 178.031 100.764 178.017 100.768C176.296 100.671 174.569 100.592 172.856 100.485L170.318 100.321C169.542 100.324 168.772 100.217 168.044 100.004C168.008 99.9925 168.022 99.9472 168.058 99.9416Z" fill="#101113"/>
<path d="M198.062 89.9166L191.103 111.415C191.103 111.415 224.825 119.969 228.827 113.231C232.829 106.493 214.44 80.0784 203.343 72.2881C192.247 64.4979 195.816 76.1804 196.107 77.1139C197.401 81.2608 203.976 92.2192 203.976 92.2192L198.062 89.9166Z" fill="#FFD233"/>
<path d="M203.663 86.3864C203.141 87.5187 203.141 88.7617 203.663 89.894C203.924 89.3328 204.054 88.7385 204.047 88.1402C204.059 87.5416 203.929 86.9466 203.663 86.3864ZM214.568 105.316C214.044 106.45 214.044 107.695 214.568 108.829C215.079 107.694 215.079 106.452 214.568 105.316ZM202.867 100.355C202.115 100.345 201.366 100.451 200.664 100.666C202.091 101.073 203.651 101.073 205.078 100.666C204.378 100.451 203.632 100.346 202.882 100.355H202.867ZM203.926 74.7039C203.406 74.2722 202.786 73.9245 202.1 73.6799C202.743 74.7727 203.847 75.6515 205.22 76.1635C204.914 75.6165 204.48 75.121 203.941 74.7039H203.926ZM227.284 111.607C226.762 111.177 226.142 110.83 225.457 110.583C225.769 111.131 226.205 111.627 226.744 112.048C227.269 112.477 227.892 112.822 228.578 113.067C228.272 112.52 227.838 112.024 227.298 111.607H227.284ZM217.034 95.1667C216.507 94.7397 215.886 94.3944 215.2 94.1484C215.836 95.2437 216.939 96.1238 218.314 96.632C218.013 96.0838 217.584 95.5865 217.048 95.1667H217.034ZM200.387 112.846C200.195 113.016 199.996 113.18 199.818 113.361L200.621 113.519C200.728 113.44 200.841 113.367 200.941 113.287C201.478 112.867 201.914 112.373 202.228 111.828C201.545 112.075 200.926 112.42 200.401 112.846H200.387Z" fill="#101113"/>
<path d="M198.688 89.9562C202.54 91.2235 212.556 95.7438 214.702 97.5202C214.71 97.5247 214.716 97.5302 214.721 97.5366C214.726 97.543 214.729 97.5501 214.73 97.5575C214.732 97.5648 214.731 97.5723 214.729 97.5795C214.726 97.5867 214.722 97.5934 214.717 97.5994C214.711 97.6053 214.704 97.6104 214.696 97.6141C214.688 97.6179 214.679 97.6204 214.67 97.6215C214.661 97.6225 214.651 97.6221 214.642 97.6202C214.633 97.6184 214.625 97.6152 214.617 97.6107C212.485 96.2699 200.088 90.7709 198.14 90.0807C198.14 90.0807 198.034 90.2731 197.991 90.324C197.948 90.3749 197.87 90.324 197.877 90.2787C197.919 90.1 197.979 89.9241 198.055 89.7526L198.688 89.9562Z" fill="#101113"/>
<path d="M200.763 102.244C201.232 100.745 203.066 94.7254 203.379 93.1923C203.379 93.1923 203.336 93.1583 203.322 93.1923C202.668 94.601 200.642 100.49 200.166 101.995C199.119 104.974 198.279 107.995 197.65 111.047C197.65 111.098 197.749 111.132 197.77 111.047C199.014 108.201 199.832 105.203 200.763 102.244Z" fill="#101113"/>
<path d="M204.239 92.3663C203.294 90.471 202.107 88.655 201.047 86.7937C199.988 84.9324 198.915 83.0995 197.92 81.2212C197.92 81.1929 197.856 81.2212 197.87 81.2212C198.453 82.5054 199.029 83.7727 199.661 85.0343C199.455 84.8306 199.27 84.6213 199.085 84.4063C198.744 84.0216 198.439 83.6199 198.14 83.2183C198.14 83.2183 198.076 83.2183 198.083 83.2183C198.313 83.6649 198.603 84.0899 198.95 84.4855C199.216 84.7781 199.503 85.0577 199.811 85.3228C200.074 85.8376 200.337 86.3468 200.621 86.856C201.666 88.7342 202.448 90.5842 203.841 92.321C203.891 92.4115 204.275 92.4285 204.239 92.3663Z" fill="#101113"/>
<path d="M223.815 115.488C216.849 116.263 194.963 112.229 191.238 111.454C191.302 111.138 191.302 111.024 191.394 110.577C191.394 110.521 191.295 110.487 191.274 110.549C191.138 110.968 190.719 111.805 190.868 111.856C192.645 112.501 217.027 116.948 223.808 115.618C223.915 115.601 223.922 115.477 223.815 115.488Z" fill="#101113"/>
<path d="M169.778 107.285L141.295 109.848L131.358 78.2454L159.848 75.6826L169.778 107.285Z" fill="#808B9A"/>
<path d="M168.378 107.409L139.895 109.972L129.965 78.3699L158.447 75.8127L168.378 107.409Z" fill="#202326"/>
<path d="M145.233 91.8232C145.393 92.413 145.82 92.9357 146.432 93.2923C147.043 93.6488 147.798 93.8145 148.553 93.758C148.909 93.7312 149.253 93.6444 149.563 93.5034C149.873 93.3625 150.142 93.1705 150.352 92.9404C150.562 92.7102 150.708 92.4472 150.78 92.1687C150.852 91.8903 150.849 91.6027 150.771 91.3253C150.609 90.735 150.181 90.2122 149.568 89.8558C148.956 89.4993 148.2 89.3338 147.444 89.3905C147.089 89.4172 146.744 89.5039 146.434 89.645C146.124 89.786 145.856 89.9781 145.646 90.2084C145.437 90.4387 145.292 90.7018 145.221 90.9803C145.15 91.2588 145.154 91.5461 145.233 91.8232Z" fill="#101113"/>
<path d="M130.071 84.8533C128.82 87.4783 125.337 90.8558 125.238 92.9434C125.187 93.4563 125.345 93.9685 125.69 94.4038C126.035 94.8391 126.547 95.1742 127.15 95.3591C127.15 95.3591 124.669 96.5471 124.968 98.4537C125.117 99.4324 127.221 100.1 127.221 100.1C127.221 100.1 125.28 101.124 125.678 102.804C125.991 104.145 128.053 104.609 128.053 104.609C128.053 104.609 126.766 106.306 127.64 107.568C129.403 110.165 144.053 109.231 145.88 104.796C146.733 102.725 143.172 103.098 143.172 103.098C143.172 103.098 148.148 101.56 147.963 99.1382C147.778 96.7169 143.207 97.441 143.207 97.441C143.207 97.441 147.991 95.9192 147.508 93.4412C146.996 90.8558 142.532 92.1966 142.532 92.1966C142.532 92.1966 145.617 90.2335 144.665 88.4005C143.143 85.3738 137.372 89.6734 134.095 89.2661L131.891 85.1588L130.071 84.8533Z" fill="#FFC4C0"/>
<path d="M127.505 88.7286C128.422 86.1601 124.228 83.3314 124.662 80.7743C125.245 77.3176 130.384 80.3443 131.948 85.2097L132.332 89.1699L127.505 88.7286Z" fill="#FFC4C0"/>
<path d="M128.365 104.722C128.358 104.725 128.351 104.729 128.347 104.735C128.342 104.74 128.34 104.747 128.34 104.753C128.34 104.76 128.342 104.766 128.347 104.772C128.351 104.777 128.358 104.782 128.365 104.784C133.47 105.447 138.707 104.855 143.378 103.087C143.527 103.031 143.47 102.816 143.293 102.855C138.457 104.049 133.428 104.678 128.365 104.722Z" fill="#101113"/>
<path d="M127.15 100.128C127.093 100.128 127.093 100.202 127.15 100.213C132.211 100.835 138.523 100.123 143.385 97.5711C143.549 97.4806 143.591 97.2713 143.385 97.3618C140.016 98.8667 131.87 100.151 127.15 100.128Z" fill="#101113"/>
<path d="M142.845 91.959C138.082 94.2615 132.893 95.1215 127.356 95.393C127.285 95.393 127.299 95.4722 127.356 95.4835C130.093 95.9361 133.583 95.4835 136.263 94.9178C138.761 94.4575 141.063 93.4819 142.937 92.0891C143.016 92.0382 142.944 91.908 142.845 91.959Z" fill="#101113"/>
<path d="M189.241 77.9795C192.354 78.0757 196.562 73.6572 197.849 70.4099C197.934 70.1892 197.024 68.1469 196.065 65.5954C195.489 64.0509 194.899 62.3198 194.501 60.7131C194.416 60.3793 182.417 65.1541 182.417 65.1541C183.642 67.0501 184.57 69.0583 185.182 71.134C185.231 71.3563 185.257 71.5815 185.26 71.8072C185.257 71.8449 185.257 71.8827 185.26 71.9204C185.317 73.2159 186.234 77.8833 189.241 77.9795Z" fill="#FFC4C0"/>
<path d="M193.712 60.8715C193.797 63.7002 193.299 70.5909 186.603 71.7733C186.171 71.8521 185.731 71.9013 185.288 71.9204C185.282 71.8829 185.282 71.8448 185.288 71.8073C185.288 71.5817 185.264 71.3565 185.217 71.134C184.604 69.0553 183.675 67.0435 182.452 65.1428C182.452 65.1428 191.074 61.7031 193.712 60.8715Z" fill="#101113"/>
<path d="M196.654 50.1224C197.955 53.7884 195.233 64.2659 191.935 66.5742C187.122 69.9007 179.381 70.0987 175.863 65.5162C172.458 61.0751 176.282 47.4521 179.978 45.3758C185.423 42.3378 194.735 44.6969 196.654 50.1224Z" fill="#FFC4C0"/>
<path d="M183.526 56.3342C183.526 56.3342 183.582 56.3852 183.575 56.4134C183.334 57.1093 183.213 57.9353 183.938 58.32C183.938 58.32 183.938 58.3709 183.938 58.3596C182.978 58.0654 183.156 56.9679 183.526 56.3342Z" fill="#101113"/>
<path d="M184.535 55.7515C185.957 55.9382 185.409 58.2238 184.073 58.0541C182.737 57.8844 183.327 55.5988 184.535 55.7515Z" fill="#101113"/>
<path d="M178.543 55.5705C178.543 55.5422 178.464 55.5705 178.457 55.6214C178.308 56.3343 177.988 57.1319 177.128 57.2394C177.128 57.2394 177.093 57.279 177.128 57.279C178.137 57.3243 178.55 56.2664 178.543 55.5705Z" fill="#101113"/>
<path d="M177.931 54.7049C176.51 54.3937 175.842 56.6624 177.149 56.9679C178.457 57.2734 179.111 54.9708 177.931 54.7049Z" fill="#101113"/>
<path d="M185.892 54.4786C185.536 54.3335 185.189 54.173 184.855 53.9977C184.461 53.868 184.132 53.6395 183.916 53.3471C183.876 53.2446 183.877 53.1344 183.92 53.0326C183.964 52.9308 184.047 52.8428 184.158 52.7814C184.405 52.6884 184.679 52.6494 184.951 52.6683C185.223 52.6872 185.485 52.7633 185.708 52.8889C186.208 53.091 186.595 53.4338 186.795 53.8506C186.83 53.9469 186.83 54.0492 186.795 54.1454C186.76 54.2416 186.69 54.3278 186.596 54.3938C186.501 54.4598 186.384 54.5028 186.26 54.5178C186.135 54.5329 186.008 54.5192 185.892 54.4786Z" fill="#101113"/>
<path d="M176.879 53.3528C177.277 53.3726 177.676 53.3726 178.073 53.3528C178.495 53.4081 178.927 53.3504 179.303 53.1887C179.404 53.1216 179.476 53.0303 179.506 52.9284C179.537 52.8264 179.526 52.7193 179.474 52.623C179.325 52.434 179.113 52.2812 178.863 52.1814C178.612 52.0817 178.331 52.0387 178.052 52.0572C177.494 52.0227 176.939 52.1536 176.495 52.425C176.394 52.4926 176.321 52.5828 176.285 52.6839C176.249 52.785 176.252 52.8924 176.293 52.9922C176.334 53.0921 176.412 53.1798 176.517 53.244C176.621 53.3083 176.747 53.3462 176.879 53.3528Z" fill="#101113"/>
<path d="M182.964 60.8828C182.668 61.1264 182.312 61.319 181.918 61.4484C181.524 61.5779 181.101 61.6414 180.675 61.6352C180.304 61.632 179.935 61.5863 179.581 61.4995C179.51 61.4885 179.441 61.4714 179.374 61.4486L179.182 61.392C179.137 61.3772 179.099 61.3509 179.075 61.3171C179.05 61.2833 179.041 61.2439 179.047 61.2053C179.043 61.1809 179.043 61.1561 179.047 61.1317V61.0695C179.168 60.5038 179.438 59.7061 179.438 59.7061C179.168 59.7627 177.775 60.0172 177.867 59.74C178.578 57.2932 179.599 54.9105 180.917 52.6286C180.927 52.6163 180.942 52.607 180.96 52.6021C180.977 52.5972 180.996 52.597 181.014 52.6014C181.032 52.6059 181.047 52.6149 181.058 52.6269C181.068 52.639 181.074 52.6535 181.073 52.6683C180.455 54.9312 179.332 57.0867 178.664 59.3553C179.158 59.2555 179.668 59.2136 180.178 59.2308C180.27 59.2704 179.616 60.8093 179.588 61.0582C180.137 61.1928 180.715 61.2376 181.287 61.19C181.858 61.1423 182.412 61.0032 182.914 60.781C182.971 60.7753 183.049 60.8319 182.964 60.8828Z" fill="#101113"/>
<path d="M180.32 61.573C180.65 61.9581 181.101 62.2681 181.628 62.4725C181.919 62.5777 182.245 62.6074 182.559 62.5574C183.27 62.4442 183.27 61.9521 183.199 61.5278C183.145 61.3014 183.056 61.081 182.936 60.8715C182.18 61.3215 181.263 61.5673 180.32 61.573Z" fill="#101113"/>
<path d="M181.628 62.4612C181.919 62.5664 182.245 62.5961 182.559 62.5461C183.27 62.4329 183.27 61.9407 183.199 61.5164C182.842 61.5109 182.493 61.601 182.208 61.7724C181.923 61.9437 181.718 62.1863 181.628 62.4612Z" fill="#FFC2E6"/>
<path d="M197.173 58.3313C193.676 58.4671 191.942 55.1235 192.83 52.4646C192.83 52.4646 183.511 53.2905 183.227 47.3729C182.551 48.1672 181.64 48.8166 180.574 49.2637C179.507 49.7107 178.319 49.9415 177.114 49.9357L176.019 52.1025C175.074 51.8705 174.114 49.6981 176.488 48.0461C176.488 48.0461 176.73 45.0873 179.516 43.3561C180.271 42.86 181.189 42.5475 182.161 42.4562C183.133 42.3649 184.118 42.4986 184.997 42.8413C186.639 41.938 188.657 41.5769 190.627 41.8343C191.655 41.9836 192.624 42.3265 193.453 42.8343C194.281 43.3421 194.945 44.0001 195.389 44.7535C195.389 44.7535 199.967 45.5286 200.685 48.148C200.906 48.887 200.93 49.6549 200.753 50.4015C200.577 51.1482 200.205 51.8569 199.661 52.4815C199.661 52.4815 200.791 53.5225 200.145 55.7345C199.732 57.1263 198.225 58.2917 197.173 58.3313Z" fill="#101113"/>
<path d="M183.447 46.8241C183.362 47.3038 183.341 47.7892 183.383 48.2724C183.409 48.7504 183.512 49.2239 183.689 49.6811C184.016 50.5878 184.763 51.3621 185.779 51.8479C186.824 52.3056 187.991 52.5596 189.184 52.589C189.788 52.589 190.399 52.6173 191.003 52.589C191.608 52.5607 192.219 52.5042 192.83 52.4702C192.233 52.5777 191.629 52.6626 191.025 52.7588C190.421 52.8549 189.795 52.8267 189.177 52.8606C187.915 52.8686 186.67 52.6235 185.559 52.1478C184.464 51.6111 183.678 50.7538 183.369 49.7603C183.081 48.7923 183.107 47.7816 183.447 46.8241Z" fill="#101113"/>
<path d="M178.564 50.1733C179.586 49.9152 180.547 49.5232 181.407 49.0135C181.825 48.7603 182.198 48.4635 182.516 48.131C182.839 47.7792 183.111 47.3997 183.327 46.9995C183.265 47.4439 183.083 47.8724 182.793 48.2555C182.507 48.6475 182.125 48.9899 181.67 49.2625C181.221 49.5343 180.723 49.7499 180.192 49.9018C179.672 50.0643 179.122 50.1561 178.564 50.1733Z" fill="#101113"/>
<path d="M193.598 58.6594C193.598 58.6594 196.768 55.3498 198.659 56.2663C200.55 57.1828 198.055 62.0369 195.737 62.6366C195.448 62.7295 195.137 62.7749 194.825 62.77C194.513 62.7651 194.205 62.71 193.92 62.608C193.635 62.506 193.379 62.3592 193.168 62.1765C192.956 61.9938 192.793 61.7789 192.688 61.5447L193.598 58.6594Z" fill="#FFC4C0"/>
<path d="M197.898 57.6411V57.692C196.271 58.1559 195.368 59.3044 194.714 60.5207C194.814 60.3965 194.947 60.2911 195.103 60.2115C195.259 60.1319 195.435 60.0802 195.619 60.0598C195.802 60.0393 195.989 60.0507 196.167 60.0932C196.344 60.1357 196.508 60.2082 196.647 60.3057C196.683 60.3057 196.647 60.3793 196.598 60.3736C196.322 60.2928 196.021 60.2821 195.737 60.3429C195.453 60.4036 195.2 60.533 195.012 60.7131C194.7 61.0187 194.431 61.3507 194.209 61.7031C194.124 61.8106 193.868 61.7427 193.932 61.6126V61.5843C194.003 59.9493 195.702 57.7316 197.898 57.6411Z" fill="#101113"/>
<g opacity="0.2">
<path d="M188.565 59.6383C188.56 59.6629 188.561 59.6881 188.569 59.7122C188.577 59.7363 188.591 59.7587 188.611 59.7779C188.631 59.7971 188.656 59.8125 188.684 59.8231C188.713 59.8337 188.744 59.8391 188.775 59.8391C188.806 59.8391 188.837 59.8337 188.866 59.8231C188.894 59.8125 188.919 59.7971 188.939 59.7779C188.959 59.7587 188.973 59.7363 188.981 59.7122C188.989 59.6881 188.99 59.6629 188.985 59.6383C188.984 59.616 188.977 59.5941 188.966 59.5737C188.954 59.5534 188.938 59.5351 188.917 59.5198C188.897 59.5046 188.873 59.4927 188.847 59.4848C188.82 59.477 188.792 59.4733 188.764 59.4741C188.712 59.4769 188.662 59.4952 188.625 59.5256C188.588 59.556 188.567 59.5962 188.565 59.6383Z" fill="#202326"/>
<path d="M184.13 59.6271C184.133 59.6716 184.158 59.7134 184.199 59.744C184.24 59.7745 184.294 59.7914 184.35 59.7913C184.378 59.7899 184.405 59.784 184.43 59.7741C184.456 59.7642 184.478 59.7505 184.497 59.7336C184.515 59.7168 184.529 59.6972 184.538 59.676C184.547 59.6548 184.551 59.6324 184.549 59.6101C184.548 59.588 184.542 59.5663 184.53 59.5462C184.518 59.5262 184.502 59.5082 184.481 59.4934C184.46 59.4786 184.436 59.4673 184.41 59.4601C184.384 59.4529 184.356 59.4499 184.329 59.4515C184.273 59.4544 184.222 59.4744 184.184 59.5071C184.147 59.5399 184.128 59.5829 184.13 59.6271Z" fill="#202326"/>
<path d="M185.757 60.8094C185.752 60.8339 185.753 60.8592 185.761 60.8833C185.769 60.9074 185.783 60.9298 185.803 60.949C185.823 60.9682 185.848 60.9836 185.877 60.9942C185.905 61.0047 185.936 61.0102 185.967 61.0102C185.998 61.0102 186.029 61.0047 186.058 60.9942C186.086 60.9836 186.111 60.9682 186.131 60.949C186.151 60.9298 186.166 60.9074 186.173 60.8833C186.181 60.8592 186.183 60.8339 186.177 60.8094C186.177 60.7869 186.171 60.7645 186.16 60.7438C186.149 60.7231 186.132 60.7045 186.112 60.6891C186.091 60.6737 186.066 60.6618 186.04 60.6543C186.013 60.6467 185.985 60.6436 185.956 60.6452C185.904 60.648 185.854 60.6663 185.817 60.6967C185.78 60.7271 185.759 60.7672 185.757 60.8094Z" fill="#202326"/>
<path d="M188.373 58.2523C188.374 58.2746 188.381 58.2966 188.392 58.3169C188.404 58.3372 188.42 58.3556 188.441 58.3708C188.461 58.3861 188.485 58.398 188.511 58.4058C188.538 58.4136 188.566 58.4173 188.594 58.4166C188.636 58.4154 188.676 58.4043 188.711 58.3847C188.745 58.3652 188.771 58.3379 188.786 58.3064C188.801 58.275 188.804 58.2407 188.794 58.208C188.784 58.1753 188.763 58.1456 188.732 58.1226C188.701 58.0997 188.663 58.0845 188.621 58.0791C188.579 58.0736 188.537 58.0781 188.498 58.092C188.46 58.1059 188.427 58.1285 188.405 58.157C188.383 58.1856 188.372 58.2187 188.373 58.2523Z" fill="#202326"/>
<path d="M186.333 59.2763C186.342 59.3153 186.368 59.3506 186.407 59.376C186.445 59.4014 186.493 59.4153 186.543 59.4153C186.593 59.4153 186.641 59.4014 186.679 59.376C186.718 59.3506 186.744 59.3153 186.753 59.2763C186.752 59.2539 186.745 59.232 186.734 59.2117C186.722 59.1913 186.706 59.173 186.685 59.1577C186.665 59.1425 186.641 59.1306 186.614 59.1228C186.588 59.1149 186.56 59.1112 186.532 59.112C186.479 59.1148 186.43 59.1332 186.393 59.1635C186.356 59.1939 186.335 59.2341 186.333 59.2763Z" fill="#202326"/>
<path d="M175.315 57.2113C175.316 57.2337 175.323 57.2556 175.334 57.276C175.346 57.2963 175.362 57.3146 175.383 57.3299C175.403 57.3451 175.427 57.357 175.454 57.3648C175.48 57.3727 175.508 57.3763 175.536 57.3756C175.591 57.3727 175.643 57.3527 175.68 57.3199C175.717 57.2872 175.737 57.2441 175.735 57.2C175.731 57.1554 175.706 57.1136 175.665 57.0831C175.624 57.0526 175.57 57.0357 175.514 57.0358C175.459 57.0387 175.407 57.0586 175.37 57.0914C175.333 57.1242 175.313 57.1672 175.315 57.2113Z" fill="#202326"/>
<path d="M177.014 58.1109C177.018 58.1554 177.043 58.1972 177.084 58.2278C177.125 58.2583 177.179 58.2752 177.235 58.2751C177.29 58.2722 177.342 58.2522 177.379 58.2195C177.416 58.1867 177.436 58.1437 177.434 58.0995C177.433 58.0772 177.426 58.0553 177.415 58.0349C177.403 58.0146 177.387 57.9963 177.366 57.981C177.346 57.9658 177.322 57.9539 177.295 57.946C177.269 57.9382 177.241 57.9345 177.213 57.9353C177.158 57.9382 177.106 57.9582 177.069 57.9909C177.032 58.0237 177.012 58.0667 177.014 58.1109Z" fill="#202326"/>
<path d="M176.652 59.2367C176.655 59.2808 176.68 59.322 176.721 59.3516C176.763 59.3812 176.817 59.3968 176.872 59.3953C176.9 59.3945 176.928 59.3894 176.953 59.3802C176.979 59.371 177.002 59.3578 177.021 59.3415C177.04 59.3252 177.055 59.3061 177.065 59.2852C177.074 59.2643 177.079 59.242 177.078 59.2197C177.074 59.1756 177.049 59.1344 177.008 59.1048C176.967 59.0752 176.913 59.0595 176.858 59.0611C176.829 59.0611 176.801 59.0657 176.775 59.0746C176.749 59.0836 176.726 59.0967 176.707 59.1132C176.687 59.1296 176.673 59.1491 176.663 59.1704C176.654 59.1916 176.65 59.2142 176.652 59.2367Z" fill="#202326"/>
<path d="M175.173 58.5125C175.177 58.5571 175.202 58.5989 175.243 58.6294C175.284 58.6599 175.338 58.6769 175.394 58.6768C175.449 58.6739 175.501 58.6539 175.538 58.6211C175.575 58.5884 175.595 58.5453 175.593 58.5012C175.592 58.4789 175.585 58.4569 175.574 58.4366C175.562 58.4163 175.546 58.3979 175.525 58.3827C175.505 58.3674 175.481 58.3555 175.454 58.3477C175.428 58.3398 175.4 58.3362 175.372 58.337C175.317 58.3399 175.265 58.3598 175.228 58.3926C175.191 58.4254 175.171 58.4684 175.173 58.5125Z" fill="#202326"/>
</g>
<path d="M257.012 21.9219C257.013 25.5234 255.757 29.0542 253.383 32.1203C251.009 35.1864 247.611 37.6671 243.569 39.2856C239.527 40.904 234.999 41.5966 230.49 41.2858C225.982 40.9751 221.671 39.6734 218.038 37.526L206.083 39.9599L211.031 31.0905C209.294 28.4858 208.324 25.6004 208.196 22.6531C208.067 19.7059 208.783 16.7739 210.29 14.0796C211.796 11.3852 214.053 8.99903 216.89 7.10187C219.727 5.2047 223.069 3.84632 226.663 3.12962C230.258 2.41292 234.01 2.35671 237.635 2.96526C241.261 3.57381 244.665 4.83115 247.589 6.64202C250.514 8.45288 252.882 10.7698 254.515 13.4171C256.147 16.0645 257.002 18.9728 257.012 21.9219Z" fill="#101113"/>
<path d="M257.012 21.9217C257.022 25.5353 255.772 29.0802 253.4 32.1616C252.8 32.9269 252.139 33.661 251.421 34.3592C250.694 35.0457 249.913 35.6955 249.085 36.3048C247.438 37.5321 245.582 38.5688 243.572 39.3847C241.561 40.2104 239.416 40.8121 237.199 41.1727C236.085 41.3459 234.957 41.4564 233.824 41.5035C232.694 41.5744 231.559 41.5744 230.429 41.5035C225.861 41.2162 221.484 39.9205 217.791 37.762L218.088 37.8093L206.152 40.2984L205.281 40.4796L205.647 39.8258L210.596 30.9486V31.2794C208.816 28.6287 207.821 25.6889 207.689 22.6852C207.557 19.6815 208.291 16.6935 209.834 13.9503C211.385 11.2112 213.696 8.7875 216.593 6.86114C219.49 4.96454 222.889 3.61381 226.534 2.90997C230.179 2.20613 233.977 2.16739 237.644 2.79668C241.28 3.45092 244.686 4.74559 247.61 6.58544C250.529 8.41177 252.892 10.7401 254.52 13.396C256.148 16.0519 257 18.9665 257.012 21.9217ZM257.012 21.9217C257.019 18.978 256.176 16.0724 254.548 13.4291C252.92 10.7858 250.552 8.47543 247.624 6.67614C244.697 4.87685 241.29 3.63676 237.665 3.05154C234.04 2.46632 230.295 2.55159 226.718 3.30079C223.174 4.02758 219.887 5.39103 217.108 7.28648C214.36 9.19383 212.165 11.5535 210.675 14.2024C209.222 16.8563 208.545 19.7382 208.696 22.6306C208.842 25.5209 209.795 28.3489 211.487 30.9092L211.595 31.0746L211.506 31.2479L206.439 40.1251L205.934 39.6446L217.92 37.2816L218.078 37.2422L218.216 37.3288C221.781 39.4723 226.022 40.7866 230.469 41.1255C231.577 41.212 232.693 41.2278 233.804 41.1727C234.92 41.141 236.031 41.0463 237.129 40.8892C239.329 40.569 241.461 40.0042 243.464 39.2114C245.486 38.4277 247.351 37.4082 248.996 36.1867C249.821 35.586 250.601 34.9469 251.332 34.2726C252.047 33.5782 252.708 32.8495 253.311 32.0907C255.702 29.0385 256.983 25.5185 257.012 21.9217Z" fill="#101113"/>
<path d="M231.844 11.2485C230.536 12.2894 229.645 13.6157 229.283 15.0597C228.922 16.5038 229.107 18.0007 229.814 19.3611C230.522 20.7215 231.721 21.8844 233.259 22.7025C234.797 23.5206 236.606 23.9573 238.456 23.9573C240.306 23.9573 242.114 23.5206 243.652 22.7025C245.19 21.8844 246.389 20.7215 247.097 19.3611C247.805 18.0007 247.989 16.5038 247.628 15.0597C247.267 13.6157 246.375 12.2894 245.067 11.2485C243.312 9.85555 240.934 9.0733 238.456 9.0733C235.977 9.0733 233.6 9.85555 231.844 11.2485ZM243.157 14.7301C242.828 14.9908 242.383 15.1372 241.92 15.1372C241.456 15.1372 241.011 14.9908 240.682 14.7301C240.36 14.4668 240.179 14.1134 240.179 13.7455C240.179 13.3776 240.36 13.0242 240.682 12.7609C241.011 12.5002 241.456 12.3538 241.92 12.3538C242.383 12.3538 242.828 12.5002 243.157 12.7609C243.321 12.8892 243.452 13.0424 243.541 13.2115C243.631 13.3806 243.676 13.5621 243.676 13.7455C243.676 13.9289 243.631 14.1104 243.541 14.2795C243.452 14.4486 243.321 14.6018 243.157 14.7301Z" fill="#FFD233"/>
<path d="M230.569 17.9663L228.574 19.5537L234.642 24.3827L236.636 22.7953L230.569 17.9663Z" fill="#FFD233"/>
<path d="M229.539 20.3148L233.656 23.5916L232.646 24.395L230.944 23.9775L231.468 25.3323L229.796 26.6635L227.539 26.2854L228.005 28.0814L227.628 28.3886L225.926 27.9711L226.451 29.3259L224.748 28.9084L225.273 30.2633L223.947 31.3109L221.69 30.9407L222.155 32.7366L220.998 33.6582L216.415 34.0284L216.88 30.3893L229.539 20.3148Z" fill="#ECEFF2"/>
<path d="M230.773 22.188L218.981 31.5731L219.268 31.8015L231.06 22.4164L230.773 22.188Z" fill="#606873"/>
<path opacity="0.1" d="M246.581 16.4945C246.591 18.2116 245.748 19.8623 244.236 21.0867C242.702 22.3299 240.612 23.0386 238.423 23.0578C236.234 23.077 234.125 22.4051 232.557 21.1891C231.772 20.5774 231.148 19.8471 230.722 19.0409C230.296 18.2348 230.077 17.369 230.077 16.4945C230.077 15.62 230.296 14.7543 230.722 13.9481C231.148 13.142 231.772 12.4116 232.557 11.7999C234.121 10.5815 236.228 9.90699 238.416 9.92472C240.604 9.94244 242.694 10.6509 244.226 11.8944C245.746 13.1185 246.593 14.7732 246.581 16.4945ZM246.581 16.4945C246.584 15.2284 246.112 13.9905 245.226 12.9389C244.34 11.8874 243.08 11.07 241.608 10.5914C240.135 10.1127 238.516 9.99454 236.959 10.2519C235.401 10.5093 233.976 11.1305 232.864 12.0362C231.467 13.2439 230.709 14.8343 230.748 16.4758C230.788 18.1173 231.622 19.6832 233.077 20.8472C234.532 22.0112 236.495 22.6833 238.557 22.7236C240.62 22.7638 242.622 22.169 244.146 21.0631C244.911 20.4672 245.52 19.7567 245.938 18.9726C246.356 18.1885 246.574 17.3462 246.581 16.4945Z" fill="#202326"/>
</g>
<defs>
<clipPath id="clip0_94_12197">
<rect width="316" height="171.325" fill="white" transform="translate(0 0.143555)"/>
</clipPath>
</defs>
</svg>
