<svg width="101" height="26" viewBox="0 0 101 26" fill="none" xmlns="http://www.w3.org/2000/svg">
<path d="M17.0889 20.6719C17.1254 20.7448 17.1709 20.7995 17.2256 20.8359C17.2985 20.8724 17.3441 20.9362 17.3623 21.0273C17.3259 21.1003 17.2985 21.1641 17.2803 21.2188C17.2803 21.2917 17.2439 21.3464 17.1709 21.3828C16.9886 21.3464 16.8064 21.3099 16.6241 21.2734C16.46 21.237 16.2777 21.2005 16.0772 21.1641C15.8767 21.1641 15.7217 21.2005 15.6123 21.2734C15.503 21.3646 15.348 21.4102 15.1475 21.4102C15.0017 21.3919 14.8923 21.3372 14.8194 21.2461C14.7282 21.2643 14.6371 21.2826 14.5459 21.3008C14.473 21.319 14.4092 21.2917 14.3545 21.2188C14.0264 21.2734 13.8077 21.3372 13.6983 21.4102C13.6071 21.4831 13.4886 21.5286 13.3428 21.5469C13.2699 21.4922 13.2061 21.401 13.1514 21.2734C13.0967 21.2734 13.0329 21.2734 12.96 21.2734C12.9053 21.2734 12.8597 21.2643 12.8233 21.2461C12.7139 21.3008 12.5772 21.3555 12.4131 21.4102C12.2491 21.4648 12.0941 21.4375 11.9483 21.3281C11.8389 21.3646 11.7022 21.3828 11.5381 21.3828C11.3923 21.401 11.2556 21.4284 11.128 21.4648C11.0733 21.5013 11.0186 21.5378 10.9639 21.5742C10.9274 21.6107 10.8545 21.6198 10.7452 21.6016C10.7452 21.401 10.7816 21.3099 10.8545 21.3281C10.9457 21.3646 11.0095 21.3464 11.0459 21.2734C11.1371 21.1276 11.2191 21.0456 11.292 21.0273C11.3832 21.0273 11.4743 21.0182 11.5655 21C11.6931 20.9635 11.8024 20.9089 11.8936 20.8359C11.9847 20.763 12.1306 20.7357 12.3311 20.7539C12.4222 20.6992 12.486 20.6354 12.5225 20.5625C12.5772 20.4896 12.641 20.4258 12.7139 20.3711C12.7139 20.2617 12.7412 20.1797 12.7959 20.125C12.8506 20.0703 12.878 19.9792 12.878 19.8516C12.9691 19.724 13.0056 19.651 12.9873 19.6328C12.9691 19.6146 12.96 19.5872 12.96 19.5508C12.9782 19.3685 12.96 19.2227 12.9053 19.1133C12.8506 18.9857 12.8506 18.8398 12.9053 18.6758C12.8506 18.5299 12.8415 18.3932 12.878 18.2656C12.7868 18.0469 12.7504 17.9284 12.7686 17.9102C12.8051 17.8737 12.8142 17.8372 12.7959 17.8008C12.7595 17.6367 12.7048 17.4818 12.6319 17.3359C12.5772 17.1901 12.5498 17.0169 12.5498 16.8164C12.4769 16.707 12.4222 16.5794 12.3858 16.4336C12.3493 16.2878 12.3129 16.1419 12.2764 15.9961C12.3493 15.7591 12.3493 15.6133 12.2764 15.5586C12.2217 15.5039 12.167 15.4492 12.1123 15.3945C11.9301 15.4492 11.8024 15.4857 11.7295 15.5039C11.6748 15.5221 11.6293 15.5404 11.5928 15.5586C11.447 15.5586 11.3103 15.5495 11.1827 15.5312C11.0733 15.4948 10.9457 15.4766 10.7998 15.4766C10.7087 15.513 10.5993 15.5495 10.4717 15.5859C10.3623 15.6042 10.2621 15.5768 10.1709 15.5039C9.97042 15.4857 9.85193 15.4674 9.81547 15.4492C9.79724 15.4128 9.76989 15.3763 9.73344 15.3398C9.62406 15.3581 9.5238 15.3945 9.43266 15.4492C9.35974 15.4857 9.27771 15.4948 9.18656 15.4766C9.1501 15.4401 9.11364 15.4036 9.07719 15.3672C9.05896 15.3125 9.0225 15.276 8.96781 15.2578C8.82198 15.2578 8.65792 15.3034 8.47562 15.3945C8.43917 15.668 8.40271 15.8411 8.36625 15.9141C8.34802 15.987 8.31156 16.0599 8.25687 16.1328C8.22042 16.2057 8.18396 16.2786 8.1475 16.3516C8.12927 16.4245 8.1475 16.5065 8.20219 16.5977C8.16573 16.707 8.12016 16.8073 8.06547 16.8984C8.02901 16.9714 7.99255 17.0534 7.95609 17.1445C7.95609 17.1992 7.95609 17.2539 7.95609 17.3086C7.97432 17.3451 7.97432 17.3906 7.95609 17.4453C7.93786 17.5729 7.89229 17.6823 7.81937 17.7734C7.76469 17.8646 7.74646 18.0013 7.76469 18.1836C7.71 18.2747 7.66443 18.3659 7.62797 18.457C7.60974 18.5482 7.57328 18.6393 7.51859 18.7305C7.55505 18.9492 7.55505 19.0768 7.51859 19.1133C7.50036 19.1497 7.48213 19.2044 7.46391 19.2773C7.46391 19.3138 7.46391 19.3594 7.46391 19.4141C7.48213 19.4688 7.48213 19.5234 7.46391 19.5781C7.42745 19.7057 7.38187 19.8151 7.32719 19.9062C7.29073 19.9974 7.26338 20.1159 7.24516 20.2617C7.17224 20.4987 7.10844 20.6445 7.05375 20.6992C7.05375 20.8997 7.04463 21.0547 7.02641 21.1641C7.00818 21.2734 6.92614 21.3281 6.78031 21.3281C6.59802 21.474 6.48864 21.5833 6.45219 21.6562C6.43396 21.7474 6.37927 21.8021 6.28812 21.8203C6.19698 22.0026 6.10583 22.1211 6.01469 22.1758C5.94177 22.2305 5.83239 22.2669 5.68656 22.2852C5.61364 22.3216 5.54984 22.3672 5.49516 22.4219C5.44047 22.4766 5.35844 22.4948 5.24906 22.4766C5.2126 22.513 5.16703 22.5586 5.11234 22.6133C5.07588 22.668 5.00297 22.6862 4.89359 22.668C4.67484 22.6133 4.57458 22.6133 4.59281 22.668C4.61104 22.7227 4.60193 22.7865 4.56547 22.8594C4.51078 23.0964 4.41963 23.224 4.29203 23.2422C4.16443 23.2604 4.03682 23.2604 3.90922 23.2422C3.79984 23.3151 3.69047 23.3789 3.58109 23.4336C3.48995 23.5065 3.41703 23.5885 3.36234 23.6797C3.2712 23.6797 3.20739 23.707 3.17094 23.7617C3.11625 23.8346 3.04333 23.8802 2.95219 23.8984C2.78812 24.0625 2.67875 24.181 2.62406 24.2539C2.56937 24.3268 2.49646 24.3815 2.40531 24.418C2.09542 24.5638 1.84932 24.7461 1.66703 24.9648C1.46651 25.1836 1.26599 25.3841 1.06547 25.5664C0.974322 25.5299 0.892291 25.4661 0.819374 25.375C0.728228 25.3021 0.709999 25.1927 0.764687 25.0469C0.819374 24.9922 0.883176 24.9375 0.956093 24.8828C1.02901 24.8464 1.0837 24.7826 1.12016 24.6914C1.26599 24.6003 1.37536 24.5182 1.44828 24.4453C1.5212 24.3906 1.55766 24.2995 1.55766 24.1719C1.75818 23.8984 1.94958 23.5794 2.13187 23.2148C2.20479 23.1784 2.26859 23.1328 2.32328 23.0781C2.35974 23.0234 2.3962 22.9688 2.43266 22.9141C2.45088 22.7865 2.49646 22.6862 2.56937 22.6133C2.62406 22.5586 2.66963 22.4766 2.70609 22.3672C2.79724 22.3125 2.87016 22.2396 2.92484 22.1484C2.9613 22.0391 2.97953 21.9297 2.97953 21.8203C3.01599 21.7292 3.06156 21.6289 3.11625 21.5195C3.15271 21.4284 3.18917 21.3372 3.22562 21.2461C3.48083 20.9727 3.63578 20.6992 3.69047 20.4258C3.76338 20.1523 3.85453 19.9062 3.96391 19.6875C4.00036 19.5052 4.03682 19.4141 4.07328 19.4141C4.12797 19.4141 4.15531 19.3958 4.15531 19.3594C4.11885 19.1771 4.10062 19.0677 4.10062 19.0312C4.11885 18.9948 4.1462 18.9583 4.18266 18.9219C4.18266 18.7031 4.21 18.5299 4.26469 18.4023C4.3376 18.2565 4.41052 18.1107 4.48344 17.9648C4.44698 17.8919 4.43786 17.8372 4.45609 17.8008C4.49255 17.7643 4.51989 17.7096 4.53812 17.6367C4.50167 17.418 4.51989 17.2266 4.59281 17.0625C4.66573 16.8802 4.72042 16.6979 4.75687 16.5156C4.79333 16.4609 4.82068 16.4154 4.83891 16.3789C4.87536 16.3242 4.91182 16.2695 4.94828 16.2148C5.00297 16.1055 5.03943 15.987 5.05766 15.8594C5.07588 15.7135 5.11234 15.5859 5.16703 15.4766C5.16703 15.3854 5.17614 15.3034 5.19437 15.2305C5.2126 15.1576 5.23995 15.0846 5.27641 15.0117C5.27641 14.7747 5.28552 14.6289 5.30375 14.5742C5.32198 14.5195 5.34021 14.4648 5.35844 14.4102C5.37667 14.319 5.38578 14.2461 5.38578 14.1914C5.40401 14.1185 5.40401 14.0365 5.38578 13.9453C5.44047 13.6354 5.50427 13.3346 5.57719 13.043C5.66833 12.7513 5.75036 12.4505 5.82328 12.1406C5.85974 12.1042 5.88708 12.0586 5.90531 12.0039C5.92354 11.931 5.95088 11.8672 5.98734 11.8125C6.04203 11.612 6.06937 11.5026 6.06937 11.4844C6.06937 11.4479 6.0876 11.4115 6.12406 11.375C6.16052 11.1562 6.18786 10.9466 6.20609 10.7461C6.22432 10.5456 6.25167 10.3451 6.28812 10.1445C6.30635 9.96224 6.3337 9.84375 6.37016 9.78906C6.40661 9.73438 6.44307 9.67057 6.47953 9.59766C6.49776 9.43359 6.48864 9.28776 6.45219 9.16016C6.41573 9.01432 6.41573 8.85938 6.45219 8.69531C6.57979 8.54948 6.68005 8.39453 6.75297 8.23047C6.71651 8.02995 6.73474 7.89323 6.80766 7.82031C6.73474 7.58333 6.71651 7.4375 6.75297 7.38281C6.80766 7.3099 6.85323 7.25521 6.88969 7.21875C6.99906 6.92708 7.07198 6.66276 7.10844 6.42578C7.14489 6.17057 7.22693 5.96094 7.35453 5.79688C7.44568 5.57812 7.48213 5.40495 7.46391 5.27734C7.46391 5.1862 7.42745 5.09505 7.35453 5.00391C7.29984 4.91276 7.29984 4.82161 7.35453 4.73047C7.39099 4.67578 7.41833 4.62109 7.43656 4.56641C7.45479 4.49349 7.49125 4.4388 7.54594 4.40234C7.56417 4.25651 7.57328 4.11068 7.57328 3.96484C7.57328 3.80078 7.59151 3.64583 7.62797 3.5C7.53682 3.24479 7.51859 3.07161 7.57328 2.98047C7.53682 2.90755 7.50036 2.86198 7.46391 2.84375C7.42745 2.82552 7.4001 2.78906 7.38187 2.73438C7.45479 2.53385 7.44568 2.36068 7.35453 2.21484C7.31807 2.17839 7.2725 2.15104 7.21781 2.13281C7.18135 2.09635 7.14489 2.0599 7.10844 2.02344C6.90792 1.93229 6.85323 1.85938 6.94437 1.80469C7.05375 1.73177 7.12667 1.65885 7.16312 1.58594C7.12667 1.53125 7.07198 1.50391 6.99906 1.50391C6.94437 1.48568 6.88057 1.47656 6.80766 1.47656C6.73474 1.47656 6.67094 1.46745 6.61625 1.44922C6.56156 1.41276 6.53422 1.34896 6.53422 1.25781C6.62536 1.22135 6.72562 1.19401 6.835 1.17578C6.94437 1.15755 7.04463 1.13021 7.13578 1.09375C7.48213 1.11198 7.70088 1.14844 7.79203 1.20312C7.93786 1.16667 8.06547 1.12109 8.17484 1.06641C8.28422 0.99349 8.43005 0.984375 8.61234 1.03906C8.83109 1.09375 8.97693 1.06641 9.04984 0.957031C9.14099 0.829427 9.24125 0.75651 9.35062 0.738281C9.47823 0.720052 9.56937 0.765625 9.62406 0.875C9.67875 0.984375 9.67875 1.11198 9.62406 1.25781C9.75167 1.23958 9.84281 1.21224 9.8975 1.17578C9.97042 1.13932 10.0524 1.10286 10.1436 1.06641C10.3988 1.17578 10.5629 1.21224 10.6358 1.17578C10.7269 1.12109 10.8363 1.07552 10.9639 1.03906C11.1827 1.14844 11.3103 1.19401 11.3467 1.17578C11.4014 1.13932 11.4652 1.13021 11.5381 1.14844C11.611 1.11198 11.6748 1.07552 11.7295 1.03906C11.7842 0.984375 11.8571 0.966146 11.9483 0.984375C12.0394 1.16667 12.0577 1.28516 12.003 1.33984C11.9665 1.39453 11.9392 1.46745 11.9209 1.55859C12.0303 1.74089 12.0759 1.85026 12.0577 1.88672C12.0577 1.92318 12.0668 1.95964 12.085 1.99609C12.0668 2.10547 12.0485 2.21484 12.0303 2.32422C12.0303 2.43359 12.0303 2.55208 12.0303 2.67969C12.0485 2.73438 12.0668 2.77995 12.085 2.81641C12.1032 2.85286 12.1123 2.91667 12.1123 3.00781C12.2582 3.11719 12.322 3.19922 12.3037 3.25391C12.3037 3.30859 12.3037 3.36328 12.3037 3.41797C12.3402 3.60026 12.3493 3.73698 12.3311 3.82812C12.3129 3.90104 12.322 3.97396 12.3584 4.04688C12.3767 4.11979 12.3949 4.18359 12.4131 4.23828C12.4496 4.27474 12.4678 4.3112 12.4678 4.34766C12.6319 4.51172 12.6957 4.60286 12.6592 4.62109C12.641 4.63932 12.6136 4.67578 12.5772 4.73047C12.723 5.02214 12.8051 5.24089 12.8233 5.38672C12.8415 5.51432 12.8871 5.6237 12.96 5.71484C12.9782 5.93359 13.0603 6.125 13.2061 6.28906C13.2426 6.5625 13.279 6.82682 13.3155 7.08203C13.3519 7.31901 13.3793 7.58333 13.3975 7.875C13.4704 7.85677 13.516 7.82943 13.5342 7.79297C13.5707 7.75651 13.6254 7.7474 13.6983 7.76562C13.6436 7.94792 13.6436 8.03906 13.6983 8.03906C13.753 8.03906 13.7894 8.05729 13.8077 8.09375C13.8077 8.1849 13.7803 8.2487 13.7256 8.28516C13.6709 8.32161 13.6345 8.3763 13.6162 8.44922C13.7439 8.75911 13.8168 8.98698 13.835 9.13281C13.8532 9.27865 13.8715 9.42448 13.8897 9.57031C13.9808 9.73438 14.0355 9.85286 14.0537 9.92578C14.072 9.9987 14.0537 10.0625 13.9991 10.1172C14.0173 10.263 14.0446 10.3724 14.0811 10.4453C14.1358 10.5182 14.1996 10.6003 14.2725 10.6914C14.2543 10.7826 14.2634 10.8555 14.2998 10.9102C14.3363 10.9648 14.3545 11.0378 14.3545 11.1289C14.3545 11.2201 14.3272 11.2839 14.2725 11.3203C14.236 11.3568 14.2178 11.4115 14.2178 11.4844C14.3272 11.6302 14.4092 11.7396 14.4639 11.8125C14.5186 11.8854 14.5642 11.9401 14.6006 11.9766C14.6553 12.1953 14.6918 12.3685 14.71 12.4961C14.7465 12.6055 14.8011 12.6966 14.8741 12.7695C14.8376 13.1159 14.8832 13.3711 15.0108 13.5352C15.1019 13.5898 15.1931 13.6445 15.2842 13.6992C15.3754 13.7357 15.4665 13.7812 15.5577 13.8359C15.5941 13.9635 15.5485 14.0729 15.4209 14.1641C15.4392 14.237 15.4574 14.3099 15.4756 14.3828C15.5121 14.4375 15.5121 14.5104 15.4756 14.6016C15.5121 14.7109 15.5394 14.8385 15.5577 14.9844C15.5941 15.112 15.6032 15.2396 15.585 15.3672C15.6032 15.4401 15.6215 15.513 15.6397 15.5859C15.6579 15.6589 15.667 15.7409 15.667 15.832C15.7035 15.9049 15.7217 15.987 15.7217 16.0781C15.7399 16.1693 15.7491 16.2695 15.7491 16.3789C15.7855 16.4336 15.8129 16.4883 15.8311 16.543C15.8493 16.5794 15.8676 16.625 15.8858 16.6797C15.8858 16.7891 15.904 16.8893 15.9405 16.9805C15.9769 17.0534 16.0134 17.1263 16.0498 17.1992C16.0681 17.3815 16.0954 17.5456 16.1319 17.6914C16.1866 17.8372 16.2139 18.0104 16.2139 18.2109C16.3415 18.5208 16.46 18.7214 16.5694 18.8125C16.697 18.8854 16.8064 18.9766 16.8975 19.0859C16.9157 19.25 16.9066 19.3867 16.8702 19.4961C16.8337 19.5872 16.7972 19.6875 16.7608 19.7969C16.8519 19.9245 16.9157 20.0703 16.9522 20.2344C16.9886 20.3802 17.0342 20.526 17.0889 20.6719ZM11.0733 12.7695C11.1644 12.8789 11.2829 12.888 11.4287 12.7969C11.3923 12.651 11.3558 12.5143 11.3194 12.3867C11.2829 12.2409 11.2465 12.0951 11.21 11.9492C11.2647 11.8763 11.2738 11.7852 11.2373 11.6758C11.2191 11.5482 11.2282 11.4297 11.2647 11.3203C11.21 11.2292 11.1644 11.1289 11.128 11.0195C11.0915 10.9102 11.0277 10.8099 10.9366 10.7188C10.9183 10.6458 10.891 10.5911 10.8545 10.5547C10.8181 10.5182 10.7907 10.4635 10.7725 10.3906C10.7725 10.2812 10.7634 10.1628 10.7452 10.0352C10.7452 9.90755 10.7634 9.78906 10.7998 9.67969C10.7269 9.53385 10.654 9.39714 10.5811 9.26953C10.5082 9.14193 10.4353 9.00521 10.3623 8.85938C10.3077 8.60417 10.2712 8.40365 10.253 8.25781C10.253 8.16667 10.2621 8.06641 10.2803 7.95703C10.3168 7.84766 10.2621 7.78385 10.1162 7.76562C10.0798 8.02083 10.0524 8.20312 10.0342 8.3125C10.016 8.40365 9.97953 8.48568 9.92484 8.55859C9.90661 8.6862 9.8975 8.80469 9.8975 8.91406C9.8975 9.00521 9.88838 9.11458 9.87016 9.24219C9.77901 9.33333 9.73344 9.44271 9.73344 9.57031C9.75167 9.67969 9.76078 9.81641 9.76078 9.98047C9.70609 10.0898 9.65141 10.1992 9.59672 10.3086C9.54203 10.3997 9.48734 10.4909 9.43266 10.582C9.41443 10.6549 9.40531 10.7188 9.40531 10.7734C9.42354 10.8281 9.41443 10.8828 9.37797 10.9375C9.35974 11.0286 9.33239 11.1016 9.29594 11.1562C9.27771 11.1927 9.25948 11.2474 9.24125 11.3203C9.24125 11.3568 9.24125 11.4115 9.24125 11.4844C9.25948 11.5391 9.26859 11.5938 9.26859 11.6484C9.26859 11.7396 9.25948 11.8398 9.24125 11.9492C9.22302 12.0586 9.20479 12.1497 9.18656 12.2227C9.1501 12.3138 9.10453 12.3867 9.04984 12.4414C9.01338 12.4961 8.97693 12.5599 8.94047 12.6328C8.90401 12.8333 8.94958 12.8971 9.07719 12.8242C9.22302 12.7513 9.34151 12.7148 9.43266 12.7148C9.48734 12.7331 9.53292 12.7604 9.56937 12.7969C9.60583 12.8151 9.66052 12.8333 9.73344 12.8516C9.87927 12.888 10.0069 12.888 10.1162 12.8516C10.2439 12.8151 10.3623 12.8333 10.4717 12.9062C10.654 12.8151 10.8545 12.7695 11.0733 12.7695ZM21.6614 15.0938C21.6796 15.2214 21.6432 15.3398 21.552 15.4492C21.4791 15.5586 21.4244 15.668 21.388 15.7773C21.4609 15.8867 21.4973 16.0143 21.4973 16.1602C21.5156 16.2878 21.5156 16.4245 21.4973 16.5703C21.4791 16.7161 21.4609 16.862 21.4427 17.0078C21.4427 17.1536 21.4609 17.2904 21.4973 17.418C21.4427 17.5456 21.4153 17.6823 21.4153 17.8281C21.4335 17.974 21.4518 18.1198 21.47 18.2656C21.4153 18.5026 21.4062 18.6758 21.4427 18.7852C21.4791 18.8763 21.4973 18.9948 21.4973 19.1406C21.388 19.3776 21.3424 19.5417 21.3606 19.6328C21.3971 19.724 21.3971 19.7969 21.3606 19.8516C21.4518 20.125 21.4882 20.2891 21.47 20.3438C21.4518 20.3984 21.4609 20.4622 21.4973 20.5352C21.4609 20.5716 21.4427 20.6354 21.4427 20.7266C21.4427 20.8177 21.4244 20.8906 21.388 20.9453C21.2604 20.9453 21.1874 20.9089 21.1692 20.8359C21.151 20.763 21.1145 20.7083 21.0598 20.6719C21.0052 20.6901 20.914 20.6992 20.7864 20.6992C20.677 20.6992 20.5768 20.681 20.4856 20.6445C20.4127 20.681 20.3489 20.7266 20.2942 20.7812C20.2578 20.8359 20.194 20.8451 20.1028 20.8086C20.0664 20.8451 20.039 20.8997 20.0208 20.9727C20.0026 21.0273 19.957 21.0729 19.8841 21.1094C19.7565 20.9635 19.6835 20.8542 19.6653 20.7812C19.6653 20.6901 19.6471 20.6172 19.6106 20.5625C19.3007 20.763 19.0911 20.8177 18.9817 20.7266C18.763 20.7812 18.5716 20.7448 18.4075 20.6172C18.3893 20.3255 18.4257 20.1523 18.5169 20.0977C18.4804 20.0065 18.4531 19.9154 18.4348 19.8242C18.4348 19.7148 18.4257 19.6146 18.4075 19.5234C18.444 19.4505 18.4804 19.3594 18.5169 19.25C18.5533 19.1406 18.5533 19.0221 18.5169 18.8945C18.444 18.694 18.4166 18.5391 18.4348 18.4297C18.4713 18.3203 18.4804 18.1927 18.4622 18.0469C18.4986 17.8099 18.5442 17.6549 18.5989 17.582C18.6536 17.5091 18.6627 17.418 18.6262 17.3086C18.5716 17.1628 18.5351 17.0078 18.5169 16.8438C18.4986 16.6797 18.5351 16.5339 18.6262 16.4062C18.5898 16.3151 18.5624 16.224 18.5442 16.1328C18.5442 16.0234 18.526 15.9232 18.4895 15.832C18.4895 15.6862 18.4986 15.5677 18.5169 15.4766C18.5169 15.4219 18.5078 15.3763 18.4895 15.3398C18.4895 15.2852 18.4895 15.2305 18.4895 15.1758C18.3984 15.0846 18.3619 14.9297 18.3802 14.7109C18.3984 14.4922 18.4531 14.3464 18.5442 14.2734C18.4531 14.0182 18.4166 13.7266 18.4348 13.3984C18.4531 13.0521 18.444 12.724 18.4075 12.4141C18.4804 12.3047 18.4986 12.1589 18.4622 11.9766C18.5169 11.8125 18.5351 11.694 18.5169 11.6211C18.4986 11.5482 18.5078 11.4753 18.5442 11.4023C18.4895 11.3112 18.4622 11.1745 18.4622 10.9922C18.4804 10.8099 18.5351 10.6823 18.6262 10.6094C18.5898 10.5365 18.5533 10.4544 18.5169 10.3633C18.4986 10.2721 18.5169 10.1992 18.5716 10.1445C18.5351 10.0169 18.4986 9.91667 18.4622 9.84375C18.4257 9.7526 18.3984 9.64323 18.3802 9.51562C18.3619 9.44271 18.371 9.39714 18.4075 9.37891C18.444 9.34245 18.4531 9.27865 18.4348 9.1875C18.5624 9.02344 18.6354 8.88672 18.6536 8.77734C18.6718 8.66797 18.7447 8.61328 18.8723 8.61328C18.6536 8.3763 18.5169 8.23958 18.4622 8.20312C18.444 8.14844 18.4166 8.10286 18.3802 8.06641C18.3437 8.01172 18.3346 7.9388 18.3528 7.84766C18.4075 7.62891 18.3984 7.46484 18.3255 7.35547C18.2526 7.24609 18.1705 7.14583 18.0794 7.05469C18.0611 6.98177 18.0429 6.91797 18.0247 6.86328C18.0065 6.80859 18.0065 6.73568 18.0247 6.64453C18.0794 6.24349 17.9518 6.01562 17.6419 5.96094C17.569 5.8151 17.5143 5.74219 17.4778 5.74219C17.4596 5.74219 17.4322 5.72396 17.3958 5.6875C17.3046 5.50521 17.1953 5.43229 17.0677 5.46875C16.9583 5.48698 16.8671 5.45964 16.7942 5.38672C16.7942 5.29557 16.7669 5.24089 16.7122 5.22266C16.6575 5.20443 16.6119 5.16797 16.5755 5.11328C16.5755 5.04036 16.6028 4.99479 16.6575 4.97656C16.7122 4.95833 16.7669 4.9401 16.8216 4.92188C16.9127 4.99479 17.0221 5.03125 17.1497 5.03125C17.2408 5.01302 17.3229 4.96745 17.3958 4.89453C17.4869 4.82161 17.5872 4.79427 17.6966 4.8125C17.8789 4.90365 17.9791 4.92188 17.9973 4.86719C18.0338 4.8125 18.0976 4.78516 18.1887 4.78516C18.3164 4.98568 18.4075 5.06771 18.4622 5.03125C18.5351 4.99479 18.5989 4.94922 18.6536 4.89453C18.7447 4.85807 18.8541 4.84896 18.9817 4.86719C19.1276 4.88542 19.246 4.92188 19.3372 4.97656C19.4466 4.9401 19.5559 4.93099 19.6653 4.94922C19.7747 4.94922 19.9023 4.9401 20.0481 4.92188C20.194 4.97656 20.2851 4.98568 20.3216 4.94922C20.358 4.89453 20.4127 4.85807 20.4856 4.83984C20.5403 4.85807 20.5768 4.89453 20.595 4.94922C20.6315 4.98568 20.6679 5.02214 20.7044 5.05859C20.7955 5.07682 20.8684 5.07682 20.9231 5.05859C20.9778 5.04036 21.0325 5.01302 21.0872 4.97656C21.3789 4.86719 21.5247 4.88542 21.5247 5.03125C21.5247 5.17708 21.5065 5.32292 21.47 5.46875C21.4882 5.52344 21.5065 5.56901 21.5247 5.60547C21.5611 5.64193 21.5885 5.6875 21.6067 5.74219C21.4791 5.94271 21.3971 6.0612 21.3606 6.09766C21.3424 6.13411 21.3333 6.17057 21.3333 6.20703C21.3151 6.29818 21.3333 6.38021 21.388 6.45312C21.4609 6.52604 21.4791 6.6263 21.4427 6.75391C21.2968 6.9362 21.2421 7.03646 21.2786 7.05469C21.3333 7.07292 21.388 7.09115 21.4427 7.10938C21.4973 7.34635 21.5065 7.48307 21.47 7.51953C21.4335 7.53776 21.4062 7.58333 21.388 7.65625C21.4244 7.80208 21.4609 7.90234 21.4973 7.95703C21.4609 8.04818 21.4427 8.13932 21.4427 8.23047C21.4427 8.30339 21.4427 8.38542 21.4427 8.47656C21.4244 8.56771 21.3971 8.64974 21.3606 8.72266C21.3424 8.79557 21.3333 8.8776 21.3333 8.96875C21.3333 9.11458 21.3606 9.2513 21.4153 9.37891C21.47 9.48828 21.47 9.60677 21.4153 9.73438C21.47 10.2812 21.4609 10.7005 21.388 10.9922C21.4062 11.2292 21.4244 11.4115 21.4427 11.5391C21.4609 11.6484 21.4427 11.7487 21.388 11.8398C21.4062 11.8945 21.4335 11.9401 21.47 11.9766C21.5065 12.013 21.5247 12.0586 21.5247 12.1133C21.5429 12.2956 21.4973 12.4414 21.388 12.5508C21.2786 12.7695 21.2604 12.9062 21.3333 12.9609C21.4062 13.0156 21.4609 13.0885 21.4973 13.1797C21.5156 13.3255 21.4973 13.4349 21.4427 13.5078C21.4062 13.5807 21.3971 13.681 21.4153 13.8086C21.4335 13.8997 21.4609 13.9909 21.4973 14.082C21.5338 14.1549 21.5611 14.237 21.5794 14.3281C21.4518 14.4193 21.3971 14.5013 21.4153 14.5742C21.4335 14.6289 21.4335 14.6745 21.4153 14.7109C21.4518 14.7839 21.4973 14.8477 21.552 14.9023C21.6067 14.9388 21.6432 15.0026 21.6614 15.0938ZM45.0525 20.6719C45.089 20.7448 45.1345 20.7995 45.1892 20.8359C45.2621 20.8724 45.3077 20.9362 45.3259 21.0273C45.2895 21.1003 45.2621 21.1641 45.2439 21.2188C45.2439 21.2917 45.2074 21.3464 45.1345 21.3828C44.9522 21.3464 44.7699 21.3099 44.5877 21.2734C44.4236 21.237 44.2413 21.2005 44.0408 21.1641C43.8403 21.1641 43.6853 21.2005 43.5759 21.2734C43.4666 21.3646 43.3116 21.4102 43.1111 21.4102C42.9653 21.3919 42.8559 21.3372 42.783 21.2461C42.6918 21.2643 42.6007 21.2826 42.5095 21.3008C42.4366 21.319 42.3728 21.2917 42.3181 21.2188C41.99 21.2734 41.7712 21.3372 41.6619 21.4102C41.5707 21.4831 41.4522 21.5286 41.3064 21.5469C41.2335 21.4922 41.1697 21.401 41.115 21.2734C41.0603 21.2734 40.9965 21.2734 40.9236 21.2734C40.8689 21.2734 40.8233 21.2643 40.7869 21.2461C40.6775 21.3008 40.5408 21.3555 40.3767 21.4102C40.2127 21.4648 40.0577 21.4375 39.9119 21.3281C39.8025 21.3646 39.6658 21.3828 39.5017 21.3828C39.3559 21.401 39.2192 21.4284 39.0916 21.4648C39.0369 21.5013 38.9822 21.5378 38.9275 21.5742C38.891 21.6107 38.8181 21.6198 38.7087 21.6016C38.7087 21.401 38.7452 21.3099 38.8181 21.3281C38.9093 21.3646 38.9731 21.3464 39.0095 21.2734C39.1007 21.1276 39.1827 21.0456 39.2556 21.0273C39.3468 21.0273 39.4379 21.0182 39.5291 21C39.6567 20.9635 39.766 20.9089 39.8572 20.8359C39.9483 20.763 40.0942 20.7357 40.2947 20.7539C40.3858 20.6992 40.4496 20.6354 40.4861 20.5625C40.5408 20.4896 40.6046 20.4258 40.6775 20.3711C40.6775 20.2617 40.7048 20.1797 40.7595 20.125C40.8142 20.0703 40.8416 19.9792 40.8416 19.8516C40.9327 19.724 40.9692 19.651 40.9509 19.6328C40.9327 19.6146 40.9236 19.5872 40.9236 19.5508C40.9418 19.3685 40.9236 19.2227 40.8689 19.1133C40.8142 18.9857 40.8142 18.8398 40.8689 18.6758C40.8142 18.5299 40.8051 18.3932 40.8416 18.2656C40.7504 18.0469 40.714 17.9284 40.7322 17.9102C40.7686 17.8737 40.7778 17.8372 40.7595 17.8008C40.7231 17.6367 40.6684 17.4818 40.5955 17.3359C40.5408 17.1901 40.5134 17.0169 40.5134 16.8164C40.4405 16.707 40.3858 16.5794 40.3494 16.4336C40.3129 16.2878 40.2765 16.1419 40.24 15.9961C40.3129 15.7591 40.3129 15.6133 40.24 15.5586C40.1853 15.5039 40.1306 15.4492 40.0759 15.3945C39.8936 15.4492 39.766 15.4857 39.6931 15.5039C39.6384 15.5221 39.5929 15.5404 39.5564 15.5586C39.4106 15.5586 39.2739 15.5495 39.1462 15.5312C39.0369 15.4948 38.9093 15.4766 38.7634 15.4766C38.6723 15.513 38.5629 15.5495 38.4353 15.5859C38.3259 15.6042 38.2257 15.5768 38.1345 15.5039C37.934 15.4857 37.8155 15.4674 37.7791 15.4492C37.7608 15.4128 37.7335 15.3763 37.697 15.3398C37.5877 15.3581 37.4874 15.3945 37.3962 15.4492C37.3233 15.4857 37.2413 15.4948 37.1502 15.4766C37.1137 15.4401 37.0772 15.4036 37.0408 15.3672C37.0226 15.3125 36.9861 15.276 36.9314 15.2578C36.7856 15.2578 36.6215 15.3034 36.4392 15.3945C36.4028 15.668 36.3663 15.8411 36.3298 15.9141C36.3116 15.987 36.2752 16.0599 36.2205 16.1328C36.184 16.2057 36.1476 16.2786 36.1111 16.3516C36.0929 16.4245 36.1111 16.5065 36.1658 16.5977C36.1293 16.707 36.0837 16.8073 36.0291 16.8984C35.9926 16.9714 35.9561 17.0534 35.9197 17.1445C35.9197 17.1992 35.9197 17.2539 35.9197 17.3086C35.9379 17.3451 35.9379 17.3906 35.9197 17.4453C35.9015 17.5729 35.8559 17.6823 35.783 17.7734C35.7283 17.8646 35.7101 18.0013 35.7283 18.1836C35.6736 18.2747 35.628 18.3659 35.5916 18.457C35.5733 18.5482 35.5369 18.6393 35.4822 18.7305C35.5186 18.9492 35.5186 19.0768 35.4822 19.1133C35.464 19.1497 35.4457 19.2044 35.4275 19.2773C35.4275 19.3138 35.4275 19.3594 35.4275 19.4141C35.4457 19.4688 35.4457 19.5234 35.4275 19.5781C35.391 19.7057 35.3455 19.8151 35.2908 19.9062C35.2543 19.9974 35.227 20.1159 35.2087 20.2617C35.1358 20.4987 35.072 20.6445 35.0173 20.6992C35.0173 20.8997 35.0082 21.0547 34.99 21.1641C34.9718 21.2734 34.8897 21.3281 34.7439 21.3281C34.5616 21.474 34.4522 21.5833 34.4158 21.6562C34.3976 21.7474 34.3429 21.8021 34.2517 21.8203C34.1606 22.0026 34.0694 22.1211 33.9783 22.1758C33.9054 22.2305 33.796 22.2669 33.6502 22.2852C33.5772 22.3216 33.5134 22.3672 33.4587 22.4219C33.4041 22.4766 33.322 22.4948 33.2127 22.4766C33.1762 22.513 33.1306 22.5586 33.0759 22.6133C33.0395 22.668 32.9666 22.6862 32.8572 22.668C32.6384 22.6133 32.5382 22.6133 32.5564 22.668C32.5746 22.7227 32.5655 22.7865 32.5291 22.8594C32.4744 23.0964 32.3832 23.224 32.2556 23.2422C32.128 23.2604 32.0004 23.2604 31.8728 23.2422C31.7634 23.3151 31.6541 23.3789 31.5447 23.4336C31.4535 23.5065 31.3806 23.5885 31.3259 23.6797C31.2348 23.6797 31.171 23.707 31.1345 23.7617C31.0798 23.8346 31.0069 23.8802 30.9158 23.8984C30.7517 24.0625 30.6423 24.181 30.5877 24.2539C30.533 24.3268 30.4601 24.3815 30.3689 24.418C30.059 24.5638 29.8129 24.7461 29.6306 24.9648C29.4301 25.1836 29.2296 25.3841 29.0291 25.5664C28.9379 25.5299 28.8559 25.4661 28.783 25.375C28.6918 25.3021 28.6736 25.1927 28.7283 25.0469C28.783 24.9922 28.8468 24.9375 28.9197 24.8828C28.9926 24.8464 29.0473 24.7826 29.0837 24.6914C29.2296 24.6003 29.339 24.5182 29.4119 24.4453C29.4848 24.3906 29.5212 24.2995 29.5212 24.1719C29.7218 23.8984 29.9132 23.5794 30.0955 23.2148C30.1684 23.1784 30.2322 23.1328 30.2869 23.0781C30.3233 23.0234 30.3598 22.9688 30.3962 22.9141C30.4145 22.7865 30.4601 22.6862 30.533 22.6133C30.5877 22.5586 30.6332 22.4766 30.6697 22.3672C30.7608 22.3125 30.8337 22.2396 30.8884 22.1484C30.9249 22.0391 30.9431 21.9297 30.9431 21.8203C30.9796 21.7292 31.0252 21.6289 31.0798 21.5195C31.1163 21.4284 31.1528 21.3372 31.1892 21.2461C31.4444 20.9727 31.5994 20.6992 31.6541 20.4258C31.727 20.1523 31.8181 19.9062 31.9275 19.6875C31.964 19.5052 32.0004 19.4141 32.0369 19.4141C32.0916 19.4141 32.1189 19.3958 32.1189 19.3594C32.0824 19.1771 32.0642 19.0677 32.0642 19.0312C32.0824 18.9948 32.1098 18.9583 32.1462 18.9219C32.1462 18.7031 32.1736 18.5299 32.2283 18.4023C32.3012 18.2565 32.3741 18.1107 32.447 17.9648C32.4106 17.8919 32.4015 17.8372 32.4197 17.8008C32.4561 17.7643 32.4835 17.7096 32.5017 17.6367C32.4653 17.418 32.4835 17.2266 32.5564 17.0625C32.6293 16.8802 32.684 16.6979 32.7205 16.5156C32.7569 16.4609 32.7843 16.4154 32.8025 16.3789C32.839 16.3242 32.8754 16.2695 32.9119 16.2148C32.9666 16.1055 33.003 15.987 33.0212 15.8594C33.0395 15.7135 33.0759 15.5859 33.1306 15.4766C33.1306 15.3854 33.1397 15.3034 33.158 15.2305C33.1762 15.1576 33.2035 15.0846 33.24 15.0117C33.24 14.7747 33.2491 14.6289 33.2673 14.5742C33.2856 14.5195 33.3038 14.4648 33.322 14.4102C33.3403 14.319 33.3494 14.2461 33.3494 14.1914C33.3676 14.1185 33.3676 14.0365 33.3494 13.9453C33.4041 13.6354 33.4679 13.3346 33.5408 13.043C33.6319 12.7513 33.714 12.4505 33.7869 12.1406C33.8233 12.1042 33.8507 12.0586 33.8689 12.0039C33.8871 11.931 33.9145 11.8672 33.9509 11.8125C34.0056 11.612 34.033 11.5026 34.033 11.4844C34.033 11.4479 34.0512 11.4115 34.0877 11.375C34.1241 11.1562 34.1515 10.9466 34.1697 10.7461C34.1879 10.5456 34.2153 10.3451 34.2517 10.1445C34.2699 9.96224 34.2973 9.84375 34.3337 9.78906C34.3702 9.73438 34.4067 9.67057 34.4431 9.59766C34.4614 9.43359 34.4522 9.28776 34.4158 9.16016C34.3793 9.01432 34.3793 8.85938 34.4158 8.69531C34.5434 8.54948 34.6436 8.39453 34.7166 8.23047C34.6801 8.02995 34.6983 7.89323 34.7712 7.82031C34.6983 7.58333 34.6801 7.4375 34.7166 7.38281C34.7712 7.3099 34.8168 7.25521 34.8533 7.21875C34.9627 6.92708 35.0356 6.66276 35.072 6.42578C35.1085 6.17057 35.1905 5.96094 35.3181 5.79688C35.4093 5.57812 35.4457 5.40495 35.4275 5.27734C35.4275 5.1862 35.391 5.09505 35.3181 5.00391C35.2634 4.91276 35.2634 4.82161 35.3181 4.73047C35.3546 4.67578 35.3819 4.62109 35.4002 4.56641C35.4184 4.49349 35.4548 4.4388 35.5095 4.40234C35.5278 4.25651 35.5369 4.11068 35.5369 3.96484C35.5369 3.80078 35.5551 3.64583 35.5916 3.5C35.5004 3.24479 35.4822 3.07161 35.5369 2.98047C35.5004 2.90755 35.464 2.86198 35.4275 2.84375C35.391 2.82552 35.3637 2.78906 35.3455 2.73438C35.4184 2.53385 35.4093 2.36068 35.3181 2.21484C35.2817 2.17839 35.2361 2.15104 35.1814 2.13281C35.1449 2.09635 35.1085 2.0599 35.072 2.02344C34.8715 1.93229 34.8168 1.85938 34.908 1.80469C35.0173 1.73177 35.0903 1.65885 35.1267 1.58594C35.0903 1.53125 35.0356 1.50391 34.9627 1.50391C34.908 1.48568 34.8442 1.47656 34.7712 1.47656C34.6983 1.47656 34.6345 1.46745 34.5798 1.44922C34.5252 1.41276 34.4978 1.34896 34.4978 1.25781C34.589 1.22135 34.6892 1.19401 34.7986 1.17578C34.908 1.15755 35.0082 1.13021 35.0994 1.09375C35.4457 1.11198 35.6645 1.14844 35.7556 1.20312C35.9015 1.16667 36.0291 1.12109 36.1384 1.06641C36.2478 0.99349 36.3936 0.984375 36.5759 1.03906C36.7947 1.09375 36.9405 1.06641 37.0134 0.957031C37.1046 0.829427 37.2048 0.75651 37.3142 0.738281C37.4418 0.720052 37.533 0.765625 37.5877 0.875C37.6423 0.984375 37.6423 1.11198 37.5877 1.25781C37.7153 1.23958 37.8064 1.21224 37.8611 1.17578C37.934 1.13932 38.016 1.10286 38.1072 1.06641C38.3624 1.17578 38.5265 1.21224 38.5994 1.17578C38.6905 1.12109 38.7999 1.07552 38.9275 1.03906C39.1462 1.14844 39.2739 1.19401 39.3103 1.17578C39.365 1.13932 39.4288 1.13021 39.5017 1.14844C39.5746 1.11198 39.6384 1.07552 39.6931 1.03906C39.7478 0.984375 39.8207 0.966146 39.9119 0.984375C40.003 1.16667 40.0212 1.28516 39.9666 1.33984C39.9301 1.39453 39.9028 1.46745 39.8845 1.55859C39.9939 1.74089 40.0395 1.85026 40.0212 1.88672C40.0212 1.92318 40.0304 1.95964 40.0486 1.99609C40.0304 2.10547 40.0121 2.21484 39.9939 2.32422C39.9939 2.43359 39.9939 2.55208 39.9939 2.67969C40.0121 2.73438 40.0304 2.77995 40.0486 2.81641C40.0668 2.85286 40.0759 2.91667 40.0759 3.00781C40.2218 3.11719 40.2856 3.19922 40.2673 3.25391C40.2673 3.30859 40.2673 3.36328 40.2673 3.41797C40.3038 3.60026 40.3129 3.73698 40.2947 3.82812C40.2765 3.90104 40.2856 3.97396 40.322 4.04688C40.3403 4.11979 40.3585 4.18359 40.3767 4.23828C40.4132 4.27474 40.4314 4.3112 40.4314 4.34766C40.5955 4.51172 40.6593 4.60286 40.6228 4.62109C40.6046 4.63932 40.5772 4.67578 40.5408 4.73047C40.6866 5.02214 40.7686 5.24089 40.7869 5.38672C40.8051 5.51432 40.8507 5.6237 40.9236 5.71484C40.9418 5.93359 41.0239 6.125 41.1697 6.28906C41.2061 6.5625 41.2426 6.82682 41.2791 7.08203C41.3155 7.31901 41.3429 7.58333 41.3611 7.875C41.434 7.85677 41.4796 7.82943 41.4978 7.79297C41.5343 7.75651 41.589 7.7474 41.6619 7.76562C41.6072 7.94792 41.6072 8.03906 41.6619 8.03906C41.7166 8.03906 41.753 8.05729 41.7712 8.09375C41.7712 8.1849 41.7439 8.2487 41.6892 8.28516C41.6345 8.32161 41.5981 8.3763 41.5798 8.44922C41.7074 8.75911 41.7804 8.98698 41.7986 9.13281C41.8168 9.27865 41.8351 9.42448 41.8533 9.57031C41.9444 9.73438 41.9991 9.85286 42.0173 9.92578C42.0356 9.9987 42.0173 10.0625 41.9627 10.1172C41.9809 10.263 42.0082 10.3724 42.0447 10.4453C42.0994 10.5182 42.1632 10.6003 42.2361 10.6914C42.2179 10.7826 42.227 10.8555 42.2634 10.9102C42.2999 10.9648 42.3181 11.0378 42.3181 11.1289C42.3181 11.2201 42.2908 11.2839 42.2361 11.3203C42.1996 11.3568 42.1814 11.4115 42.1814 11.4844C42.2908 11.6302 42.3728 11.7396 42.4275 11.8125C42.4822 11.8854 42.5278 11.9401 42.5642 11.9766C42.6189 12.1953 42.6554 12.3685 42.6736 12.4961C42.7101 12.6055 42.7647 12.6966 42.8377 12.7695C42.8012 13.1159 42.8468 13.3711 42.9744 13.5352C43.0655 13.5898 43.1567 13.6445 43.2478 13.6992C43.339 13.7357 43.4301 13.7812 43.5212 13.8359C43.5577 13.9635 43.5121 14.0729 43.3845 14.1641C43.4028 14.237 43.421 14.3099 43.4392 14.3828C43.4757 14.4375 43.4757 14.5104 43.4392 14.6016C43.4757 14.7109 43.503 14.8385 43.5212 14.9844C43.5577 15.112 43.5668 15.2396 43.5486 15.3672C43.5668 15.4401 43.5851 15.513 43.6033 15.5859C43.6215 15.6589 43.6306 15.7409 43.6306 15.832C43.6671 15.9049 43.6853 15.987 43.6853 16.0781C43.7035 16.1693 43.7127 16.2695 43.7127 16.3789C43.7491 16.4336 43.7765 16.4883 43.7947 16.543C43.8129 16.5794 43.8311 16.625 43.8494 16.6797C43.8494 16.7891 43.8676 16.8893 43.9041 16.9805C43.9405 17.0534 43.977 17.1263 44.0134 17.1992C44.0317 17.3815 44.059 17.5456 44.0955 17.6914C44.1502 17.8372 44.1775 18.0104 44.1775 18.2109C44.3051 18.5208 44.4236 18.7214 44.533 18.8125C44.6606 18.8854 44.7699 18.9766 44.8611 19.0859C44.8793 19.25 44.8702 19.3867 44.8337 19.4961C44.7973 19.5872 44.7608 19.6875 44.7244 19.7969C44.8155 19.9245 44.8793 20.0703 44.9158 20.2344C44.9522 20.3802 44.9978 20.526 45.0525 20.6719ZM39.0369 12.7695C39.128 12.8789 39.2465 12.888 39.3923 12.7969C39.3559 12.651 39.3194 12.5143 39.283 12.3867C39.2465 12.2409 39.2101 12.0951 39.1736 11.9492C39.2283 11.8763 39.2374 11.7852 39.2009 11.6758C39.1827 11.5482 39.1918 11.4297 39.2283 11.3203C39.1736 11.2292 39.128 11.1289 39.0916 11.0195C39.0551 10.9102 38.9913 10.8099 38.9002 10.7188C38.8819 10.6458 38.8546 10.5911 38.8181 10.5547C38.7817 10.5182 38.7543 10.4635 38.7361 10.3906C38.7361 10.2812 38.727 10.1628 38.7087 10.0352C38.7087 9.90755 38.727 9.78906 38.7634 9.67969C38.6905 9.53385 38.6176 9.39714 38.5447 9.26953C38.4718 9.14193 38.3989 9.00521 38.3259 8.85938C38.2712 8.60417 38.2348 8.40365 38.2166 8.25781C38.2166 8.16667 38.2257 8.06641 38.2439 7.95703C38.2804 7.84766 38.2257 7.78385 38.0798 7.76562C38.0434 8.02083 38.016 8.20312 37.9978 8.3125C37.9796 8.40365 37.9431 8.48568 37.8884 8.55859C37.8702 8.6862 37.8611 8.80469 37.8611 8.91406C37.8611 9.00521 37.852 9.11458 37.8337 9.24219C37.7426 9.33333 37.697 9.44271 37.697 9.57031C37.7153 9.67969 37.7244 9.81641 37.7244 9.98047C37.6697 10.0898 37.615 10.1992 37.5603 10.3086C37.5056 10.3997 37.4509 10.4909 37.3962 10.582C37.378 10.6549 37.3689 10.7188 37.3689 10.7734C37.3871 10.8281 37.378 10.8828 37.3416 10.9375C37.3233 11.0286 37.296 11.1016 37.2595 11.1562C37.2413 11.1927 37.2231 11.2474 37.2048 11.3203C37.2048 11.3568 37.2048 11.4115 37.2048 11.4844C37.2231 11.5391 37.2322 11.5938 37.2322 11.6484C37.2322 11.7396 37.2231 11.8398 37.2048 11.9492C37.1866 12.0586 37.1684 12.1497 37.1502 12.2227C37.1137 12.3138 37.0681 12.3867 37.0134 12.4414C36.977 12.4961 36.9405 12.5599 36.9041 12.6328C36.8676 12.8333 36.9132 12.8971 37.0408 12.8242C37.1866 12.7513 37.3051 12.7148 37.3962 12.7148C37.4509 12.7331 37.4965 12.7604 37.533 12.7969C37.5694 12.8151 37.6241 12.8333 37.697 12.8516C37.8429 12.888 37.9705 12.888 38.0798 12.8516C38.2074 12.8151 38.3259 12.8333 38.4353 12.9062C38.6176 12.8151 38.8181 12.7695 39.0369 12.7695ZM56.8164 4.83984C56.9076 4.98568 56.9258 5.07682 56.8711 5.11328C56.8164 5.13151 56.7708 5.14062 56.7344 5.14062C56.6797 5.15885 56.625 5.1862 56.5703 5.22266C56.5339 5.25911 56.4883 5.29557 56.4336 5.33203C56.0143 5.33203 55.7135 5.44141 55.5312 5.66016C55.4948 5.82422 55.4492 5.93359 55.3945 5.98828C55.3581 6.02474 55.3216 6.07943 55.2852 6.15234C55.2852 6.22526 55.2943 6.28906 55.3125 6.34375C55.3307 6.39844 55.3307 6.47135 55.3125 6.5625C55.2031 6.74479 55.1211 6.8724 55.0664 6.94531C55.0299 7.01823 54.9753 7.08203 54.9023 7.13672C54.8841 7.22786 54.875 7.33724 54.875 7.46484C54.875 7.57422 54.8568 7.65625 54.8203 7.71094C54.7839 7.7474 54.7383 7.77474 54.6836 7.79297C54.6289 7.79297 54.5742 7.8112 54.5195 7.84766C54.4284 7.88411 54.3737 7.95703 54.3555 8.06641C54.3372 8.17578 54.319 8.27604 54.3008 8.36719C54.3555 8.65885 54.3737 8.85938 54.3555 8.96875C54.3372 9.0599 54.319 9.16927 54.3008 9.29688C54.3919 9.47917 54.401 9.625 54.3281 9.73438C54.2734 9.82552 54.2552 9.94401 54.2734 10.0898C54.2005 10.2174 54.1549 10.3724 54.1367 10.5547C54.1367 10.737 54.1367 10.9193 54.1367 11.1016C54.1185 11.1745 54.1185 11.2292 54.1367 11.2656C54.1549 11.3021 54.1549 11.3659 54.1367 11.457C53.8268 11.6211 53.6445 11.8034 53.5898 12.0039C53.5898 12.0586 53.6081 12.1042 53.6445 12.1406C53.681 12.1589 53.6992 12.2135 53.6992 12.3047C53.6628 12.487 53.599 12.6602 53.5078 12.8242C53.4349 12.9701 53.4076 13.1523 53.4258 13.3711C53.3711 13.5716 53.3255 13.7812 53.2891 14C53.2708 14.2188 53.2253 14.4284 53.1523 14.6289C53.1706 14.8477 53.1341 15.0208 53.043 15.1484C52.9701 15.2578 52.9245 15.4036 52.9062 15.5859C52.9245 15.6771 52.9518 15.75 52.9883 15.8047C53.043 15.8411 53.0794 15.8958 53.0977 15.9688C53.0612 16.0599 53.0156 16.1328 52.9609 16.1875C52.9062 16.224 52.8424 16.2695 52.7695 16.3242C52.7331 16.4518 52.6875 16.5885 52.6328 16.7344C52.5964 16.862 52.5872 17.0078 52.6055 17.1719C52.6237 17.3177 52.6419 17.4089 52.6602 17.4453C52.6784 17.4635 52.6693 17.4727 52.6328 17.4727C52.6146 17.5638 52.5872 17.6458 52.5508 17.7188C52.5326 17.7734 52.5234 17.8464 52.5234 17.9375C52.487 18.0286 52.4596 18.1198 52.4414 18.2109C52.4232 18.3021 52.3958 18.3932 52.3594 18.4844C52.2865 18.5573 52.2135 18.6302 52.1406 18.7031C52.0859 18.7578 52.0495 18.849 52.0312 18.9766C52.1042 19.2865 52.1133 19.5143 52.0586 19.6602C52.0039 19.7878 52.0039 19.9245 52.0586 20.0703C52.0221 20.1432 51.9948 20.2435 51.9766 20.3711C51.9766 20.4805 51.9492 20.5625 51.8945 20.6172C51.9128 20.6719 51.9219 20.7357 51.9219 20.8086C51.9219 20.8633 51.9401 20.9089 51.9766 20.9453C51.9401 21 51.931 21.0547 51.9492 21.1094C51.9674 21.1641 51.9583 21.2096 51.9219 21.2461C51.7943 21.2461 51.6758 21.2279 51.5664 21.1914C51.4753 21.2279 51.3841 21.2734 51.293 21.3281C51.2018 21.3828 51.0924 21.4284 50.9648 21.4648C50.8737 21.4466 50.8281 21.401 50.8281 21.3281C50.8281 21.2552 50.7917 21.2005 50.7188 21.1641C50.5729 21.1458 50.4453 21.1549 50.3359 21.1914C50.2448 21.2279 50.1263 21.2643 49.9805 21.3008C49.7982 21.1914 49.6797 21.1458 49.625 21.1641C49.5703 21.2005 49.4974 21.2096 49.4062 21.1914C49.224 21.082 49.0964 21.0547 49.0234 21.1094C48.9688 21.1823 48.8685 21.2096 48.7227 21.1914C48.5039 21.082 48.349 21.0365 48.2578 21.0547C48.1849 21.0729 48.112 21.0547 48.0391 21C47.8385 21.0911 47.7292 21.1185 47.7109 21.082C47.6927 21.0638 47.6654 21.0547 47.6289 21.0547C47.5378 21.0729 47.4193 21.0911 47.2734 21.1094C47.1276 21.1276 47.0273 21.0911 46.9727 21C47.0091 20.8906 47.0638 20.7995 47.1367 20.7266C47.2096 20.6536 47.2826 20.5807 47.3555 20.5078C47.556 20.526 47.7565 20.5352 47.957 20.5352C48.1758 20.5352 48.3125 20.4349 48.3672 20.2344C48.5495 20.0339 48.6771 19.8789 48.75 19.7695C48.75 19.6784 48.75 19.5872 48.75 19.4961C48.75 19.4049 48.7318 19.3047 48.6953 19.1953C48.6406 19.0495 48.5951 18.9583 48.5586 18.9219C48.5586 18.8672 48.5495 18.8034 48.5312 18.7305C48.513 18.6576 48.5221 18.5846 48.5586 18.5117C48.5221 18.4023 48.4583 18.293 48.3672 18.1836C48.3854 17.8555 48.349 17.5456 48.2578 17.2539C48.276 17.1081 48.2669 17.0352 48.2305 17.0352C48.2122 17.0169 48.194 16.9896 48.1758 16.9531C48.1393 16.7526 48.1211 16.6159 48.1211 16.543C48.1393 16.4518 48.1484 16.3424 48.1484 16.2148C48.1302 16.1237 48.1029 16.0508 48.0664 15.9961C48.0299 15.9414 48.0208 15.8685 48.0391 15.7773C47.9844 15.6497 47.9206 15.5404 47.8477 15.4492C47.7747 15.3581 47.7018 15.2578 47.6289 15.1484C47.6471 15.0938 47.6562 15.0391 47.6562 14.9844C47.6562 14.9115 47.6562 14.8477 47.6562 14.793C47.6198 14.6836 47.5742 14.5651 47.5195 14.4375C47.5013 14.2005 47.4648 14.0456 47.4102 13.9727C47.3737 13.8997 47.3281 13.8177 47.2734 13.7266C47.2734 13.6354 47.2917 13.5716 47.3281 13.5352C47.3646 13.4805 47.3828 13.4076 47.3828 13.3164C47.2552 13.1341 47.1641 13.0247 47.1094 12.9883C47.1276 12.9154 47.1276 12.8333 47.1094 12.7422C47.1094 12.651 47.1003 12.5599 47.082 12.4688C46.9909 12.2865 46.9727 12.1589 47.0273 12.0859C47.082 12.013 47.0911 11.931 47.0547 11.8398C47.0365 11.7669 47 11.7214 46.9453 11.7031C46.9089 11.6849 46.8815 11.6484 46.8633 11.5938C46.8815 11.5026 46.9089 11.4479 46.9453 11.4297C46.9818 11.3932 47.0182 11.3294 47.0547 11.2383C47 11.0924 46.918 10.9831 46.8086 10.9102C46.7174 10.8372 46.6536 10.737 46.6172 10.6094C46.6172 10.4635 46.6354 10.3451 46.6719 10.2539C46.7266 10.1628 46.7721 10.0625 46.8086 9.95312C46.7539 9.86198 46.681 9.78906 46.5898 9.73438C46.4987 9.67969 46.4349 9.59766 46.3984 9.48828C46.4349 9.41536 46.444 9.34245 46.4258 9.26953C46.4258 9.19661 46.4258 9.10547 46.4258 8.99609C46.3893 8.75911 46.3802 8.63151 46.3984 8.61328C46.4349 8.57682 46.4622 8.52214 46.4805 8.44922C46.4805 8.3763 46.4622 8.32161 46.4258 8.28516C46.3893 8.23047 46.3529 8.17578 46.3164 8.12109C46.3164 7.9388 46.2982 7.82031 46.2617 7.76562C46.2253 7.72917 46.1706 7.71094 46.0977 7.71094C46.043 7.69271 45.9974 7.66536 45.9609 7.62891C45.9427 7.53776 45.8789 7.45573 45.7695 7.38281C45.7331 7.38281 45.6875 7.40104 45.6328 7.4375C45.5781 7.45573 45.5143 7.44661 45.4414 7.41016C45.4232 7.24609 45.4232 7.1276 45.4414 7.05469C45.4779 6.98177 45.5143 6.91797 45.5508 6.86328C45.4961 6.68099 45.4414 6.57161 45.3867 6.53516C45.3503 6.48047 45.3229 6.40755 45.3047 6.31641C45.1589 6.40755 44.9948 6.41667 44.8125 6.34375C44.6302 6.27083 44.5846 6.13411 44.6758 5.93359C44.6393 5.84245 44.5755 5.78776 44.4844 5.76953C44.375 5.7513 44.3021 5.69661 44.2656 5.60547C44.2656 5.45964 44.2383 5.39583 44.1836 5.41406C44.1107 5.41406 44.056 5.39583 44.0195 5.35938C43.9648 5.23177 43.9557 5.10417 43.9922 4.97656C44.0469 4.9401 44.1289 4.92188 44.2383 4.92188C44.3294 4.92188 44.4023 4.90365 44.457 4.86719C44.5846 4.88542 44.7031 4.88542 44.8125 4.86719C44.9219 4.84896 45.0221 4.86719 45.1133 4.92188C45.3138 4.90365 45.4232 4.90365 45.4414 4.92188C45.4596 4.9401 45.487 4.95833 45.5234 4.97656C45.7969 4.97656 45.9883 4.95833 46.0977 4.92188C46.2617 4.9401 46.3438 4.96745 46.3438 5.00391C46.362 5.02214 46.3893 5.04036 46.4258 5.05859C46.5898 5.02214 46.7539 4.94922 46.918 4.83984C47.082 4.73047 47.237 4.7487 47.3828 4.89453C47.3828 5.04036 47.3464 5.14974 47.2734 5.22266C47.2005 5.29557 47.1458 5.3776 47.1094 5.46875C47.2188 5.48698 47.3099 5.46875 47.3828 5.41406C47.474 5.34115 47.556 5.26823 47.6289 5.19531C47.7565 5.17708 47.8477 5.14974 47.9023 5.11328C47.9753 5.05859 48.0573 5.01302 48.1484 4.97656C48.3672 4.99479 48.513 4.97656 48.5859 4.92188C48.6771 4.84896 48.75 4.85807 48.8047 4.94922C48.8047 5.02214 48.7773 5.06771 48.7227 5.08594C48.6862 5.10417 48.6497 5.14062 48.6133 5.19531C48.6133 5.52344 48.5677 5.85156 48.4766 6.17969C48.513 6.27083 48.5677 6.35286 48.6406 6.42578C48.7318 6.48047 48.7956 6.57161 48.832 6.69922C48.7956 6.84505 48.7318 6.95443 48.6406 7.02734C48.5677 7.08203 48.513 7.16406 48.4766 7.27344C48.6589 7.49219 48.7773 7.64714 48.832 7.73828C48.9049 7.8112 48.9596 7.89323 48.9961 7.98438C49.1419 8.14844 49.1966 8.25781 49.1602 8.3125C49.1419 8.34896 49.1328 8.38542 49.1328 8.42188C49.151 8.51302 49.1784 8.59505 49.2148 8.66797C49.2513 8.72266 49.2604 8.79557 49.2422 8.88672C49.2422 8.95964 49.224 9.02344 49.1875 9.07812C49.151 9.11458 49.151 9.16927 49.1875 9.24219C49.224 9.33333 49.2604 9.41536 49.2969 9.48828C49.3333 9.54297 49.3516 9.625 49.3516 9.73438C49.388 10.0625 49.3789 10.3086 49.3242 10.4727C49.3242 10.5273 49.3333 10.5911 49.3516 10.6641C49.388 10.7188 49.388 10.7643 49.3516 10.8008C49.388 10.9102 49.4336 11.0195 49.4883 11.1289C49.5612 11.2383 49.6159 11.3385 49.6523 11.4297C49.6341 11.6484 49.6432 11.776 49.6797 11.8125C49.7161 11.849 49.707 11.9128 49.6523 12.0039C49.6706 12.0586 49.6979 12.0951 49.7344 12.1133C49.7708 12.1315 49.7891 12.1862 49.7891 12.2773C49.7891 12.3867 49.7708 12.4779 49.7344 12.5508C49.6979 12.6055 49.6615 12.6784 49.625 12.7695C49.6615 12.7878 49.7161 12.7878 49.7891 12.7695C49.862 12.7513 49.9258 12.7604 49.9805 12.7969C50.1263 13.125 50.1354 13.4622 50.0078 13.8086C50.1354 13.9909 50.1992 14.082 50.1992 14.082C50.2357 14.1185 50.2812 14.1823 50.3359 14.2734C50.4089 14.3464 50.4453 14.4284 50.4453 14.5195C50.4635 14.5924 50.4544 14.6562 50.418 14.7109C50.3997 14.7656 50.3906 14.8294 50.3906 14.9023C50.4818 14.6471 50.5365 14.474 50.5547 14.3828C50.5911 14.2734 50.6367 14.1823 50.6914 14.1094C50.6914 13.8177 50.7279 13.5625 50.8008 13.3438C50.8008 13.1068 50.819 12.9427 50.8555 12.8516C50.9102 12.7422 50.9557 12.6419 50.9922 12.5508C51.0469 12.4596 51.0924 12.3594 51.1289 12.25C51.1654 12.1406 51.1836 12.013 51.1836 11.8672C51.2565 11.7214 51.3112 11.5664 51.3477 11.4023C51.3841 11.2201 51.3841 11.0378 51.3477 10.8555C51.3841 10.7643 51.3841 10.6549 51.3477 10.5273C51.3841 10.3997 51.4115 10.2904 51.4297 10.1992C51.4479 10.1081 51.457 9.98047 51.457 9.81641C51.5117 9.61589 51.5664 9.42448 51.6211 9.24219C51.6758 9.0599 51.7031 8.84115 51.7031 8.58594C51.7396 8.40365 51.7578 8.30339 51.7578 8.28516C51.7578 8.26693 51.7487 8.23958 51.7305 8.20312C51.7669 8.07552 51.7852 7.94792 51.7852 7.82031C51.8034 7.67448 51.8307 7.53776 51.8672 7.41016C51.8854 7.31901 51.8763 7.23698 51.8398 7.16406C51.8216 7.07292 51.8216 6.98177 51.8398 6.89062C51.8398 6.79948 51.8581 6.73568 51.8945 6.69922C51.9492 6.64453 51.9948 6.58073 52.0312 6.50781C52.013 6.38021 52.0221 6.27995 52.0586 6.20703C52.1133 6.11589 52.1315 6.01562 52.1133 5.90625C52.0951 5.83333 52.0768 5.77865 52.0586 5.74219C52.0586 5.70573 52.0677 5.64193 52.0859 5.55078C52.1224 5.35026 52.1133 5.25 52.0586 5.25C52.0039 5.25 51.9857 5.20443 52.0039 5.11328C52.0221 5.02214 52.0677 4.97656 52.1406 4.97656C52.2318 4.95833 52.3229 4.93099 52.4141 4.89453C52.4688 4.83984 52.5234 4.80339 52.5781 4.78516C52.651 4.7487 52.7331 4.71224 52.8242 4.67578C52.9154 4.69401 52.9701 4.73958 52.9883 4.8125C53.0247 4.86719 53.0885 4.91276 53.1797 4.94922C53.3984 4.98568 53.599 4.98568 53.7812 4.94922C53.9818 4.91276 54.1732 4.8763 54.3555 4.83984C54.4648 4.85807 54.5469 4.90365 54.6016 4.97656C54.6562 5.04948 54.7383 5.10417 54.8477 5.14062C54.9388 5.1224 55.0208 5.09505 55.0938 5.05859C55.1667 5.02214 55.2487 4.98568 55.3398 4.94922C55.5039 4.94922 55.6406 4.92188 55.75 4.86719C55.8776 4.88542 55.9779 4.8763 56.0508 4.83984C56.1237 4.80339 56.2057 4.78516 56.2969 4.78516C56.4974 4.80339 56.6159 4.8125 56.6523 4.8125C56.6888 4.79427 56.7435 4.80339 56.8164 4.83984ZM66.3108 20.5352C66.2926 20.6263 66.3017 20.7083 66.3381 20.7812C66.3928 20.8359 66.4202 20.9089 66.4202 21C66.4931 21.1641 66.5113 21.2461 66.4748 21.2461C66.4566 21.2461 66.4475 21.2643 66.4475 21.3008C66.3746 21.3008 66.3199 21.2826 66.2834 21.2461C66.2652 21.2279 66.2196 21.2279 66.1467 21.2461C65.9462 21.1185 65.8095 21.0729 65.7366 21.1094C65.6636 21.1458 65.5907 21.1367 65.5178 21.082C65.3173 21.1185 65.1988 21.1094 65.1623 21.0547C65.1441 21.0182 65.1168 20.9818 65.0803 20.9453C64.8251 21.0729 64.5517 21.1367 64.26 21.1367C64.0959 21.082 63.9866 21.0547 63.9319 21.0547C63.8772 21.0729 63.8134 21.082 63.7405 21.082C63.4853 21.1549 63.3577 21.1276 63.3577 21C63.3577 20.8906 63.3668 20.7904 63.385 20.6992C63.2939 20.4987 63.2574 20.3893 63.2756 20.3711C63.2939 20.3529 63.303 20.3255 63.303 20.2891C63.2665 20.1979 63.2301 20.125 63.1936 20.0703C63.1571 20.0156 63.1389 19.9427 63.1389 19.8516C63.1024 19.7969 63.0751 19.7513 63.0569 19.7148C63.0386 19.6602 63.0204 19.6055 63.0022 19.5508C62.911 19.332 62.8746 19.2044 62.8928 19.168C62.9293 19.1315 62.9475 19.0859 62.9475 19.0312C62.8746 18.8307 62.8199 18.7122 62.7834 18.6758C62.7652 18.6211 62.7561 18.5755 62.7561 18.5391C62.7379 18.3568 62.7105 18.2747 62.6741 18.293C62.6376 18.293 62.6011 18.2747 62.5647 18.2383C62.5282 18.0924 62.5282 18.0013 62.5647 17.9648C62.6011 17.9102 62.6285 17.8555 62.6467 17.8008C62.6103 17.7643 62.5829 17.7188 62.5647 17.6641C62.5647 17.6094 62.5465 17.5638 62.51 17.5273C62.4189 17.4544 62.3459 17.3815 62.2912 17.3086C62.2366 17.2357 62.2001 17.1263 62.1819 16.9805C62.1636 16.7617 62.1454 16.6159 62.1272 16.543C62.1272 16.4701 62.1454 16.3971 62.1819 16.3242C62.0907 16.3242 61.9996 16.3424 61.9084 16.3789C61.8355 16.3971 61.7353 16.4062 61.6077 16.4062C61.3707 16.388 61.2066 16.3789 61.1155 16.3789C61.0243 16.3789 60.9058 16.3789 60.76 16.3789C60.5959 16.3607 60.4774 16.3516 60.4045 16.3516C60.3316 16.3516 60.2769 16.3242 60.2405 16.2695C60.1493 16.306 60.0673 16.3333 59.9944 16.3516C59.9215 16.3698 59.8394 16.3698 59.7483 16.3516C59.566 16.4427 59.4657 16.4792 59.4475 16.4609C59.4293 16.4427 59.4019 16.4336 59.3655 16.4336C59.329 16.4701 59.3017 16.5156 59.2834 16.5703C59.2652 16.625 59.2379 16.6706 59.2014 16.707C59.2379 16.7799 59.247 16.8529 59.2287 16.9258C59.2105 16.9987 59.1923 17.0625 59.1741 17.1172C59.2105 17.2812 59.2287 17.3815 59.2287 17.418C59.2287 17.4544 59.2196 17.4909 59.2014 17.5273C59.1649 17.7279 59.1376 17.8646 59.1194 17.9375C58.9918 18.0651 58.9006 18.2201 58.8459 18.4023C58.8095 18.4935 58.7821 18.5755 58.7639 18.6484C58.7457 18.7214 58.7183 18.8034 58.6819 18.8945C58.6454 19.1497 58.5998 19.3958 58.5452 19.6328C58.5087 19.8698 58.4905 20.1068 58.4905 20.3438C58.4358 20.5078 58.3902 20.599 58.3537 20.6172C58.3355 20.6172 58.3173 20.6354 58.2991 20.6719C58.2808 20.763 58.2626 20.8177 58.2444 20.8359C58.2261 20.8359 58.2261 20.8815 58.2444 20.9727C58.0985 21.1003 58.0256 21.1641 58.0256 21.1641C58.0439 21.1823 58.0439 21.2096 58.0256 21.2461C57.898 21.3555 57.8251 21.4466 57.8069 21.5195C57.8069 21.5924 57.7795 21.6471 57.7248 21.6836C57.6337 21.7018 57.5699 21.6836 57.5334 21.6289C57.5152 21.5742 57.4787 21.5469 57.4241 21.5469C57.2965 21.5833 57.1962 21.6562 57.1233 21.7656C57.0504 21.875 56.941 21.9115 56.7952 21.875C56.7587 21.9297 56.7222 22.0482 56.6858 22.2305C56.5399 22.3034 56.385 22.3581 56.2209 22.3945C56.0751 22.4492 55.9384 22.5221 55.8108 22.6133C55.7743 22.5951 55.7196 22.5859 55.6467 22.5859C55.592 22.6042 55.5465 22.6133 55.51 22.6133C55.4735 22.6497 55.4553 22.6953 55.4553 22.75C55.4735 22.8229 55.4827 22.8958 55.4827 22.9688C55.3186 23.0417 55.1819 23.0599 55.0725 23.0234C54.9449 23.0781 54.8993 23.224 54.9358 23.4609C54.8082 23.6432 54.6168 23.7161 54.3616 23.6797C54.2704 23.8438 54.2066 23.944 54.1702 23.9805C54.1337 24.0169 54.0699 24.026 53.9787 24.0078C53.8876 24.0625 53.8238 24.1263 53.7873 24.1992C53.7327 24.2904 53.6597 24.3633 53.5686 24.418C53.4592 24.4362 53.3954 24.4635 53.3772 24.5C53.359 24.5365 53.3316 24.5729 53.2952 24.6094C53.204 24.6823 53.122 24.7461 53.0491 24.8008C52.9579 24.8737 52.8668 24.9375 52.7756 24.9922C52.6116 25.1927 52.5204 25.3112 52.5022 25.3477C52.484 25.4023 52.4475 25.4479 52.3928 25.4844C52.2652 25.3385 52.2287 25.2383 52.2834 25.1836C52.3199 25.1289 52.3564 25.0651 52.3928 24.9922C52.5204 24.7917 52.6024 24.6823 52.6389 24.6641C52.6571 24.6458 52.6754 24.6185 52.6936 24.582C52.7301 24.5456 52.7574 24.4909 52.7756 24.418C52.7756 24.3633 52.7939 24.3086 52.8303 24.2539C53.0673 24.0352 53.2405 23.8255 53.3498 23.625C53.4592 23.4245 53.5412 23.1966 53.5959 22.9414C53.6871 22.6497 53.7691 22.4766 53.842 22.4219C53.8967 22.1667 53.9605 22.0117 54.0334 21.957C54.0881 21.9023 54.1337 21.8385 54.1702 21.7656V21.3828C54.2613 21.3464 54.3524 21.3099 54.4436 21.2734C54.5165 21.2552 54.5985 21.2279 54.6897 21.1914C54.7626 21.0456 54.8446 20.9089 54.9358 20.7812C55.0452 20.6354 55.1272 20.4622 55.1819 20.2617C55.273 20.1706 55.3459 20.0703 55.4006 19.9609C55.4371 19.8698 55.4189 19.7969 55.3459 19.7422C55.273 19.6875 55.2548 19.6146 55.2912 19.5234C55.2912 19.4505 55.3277 19.4049 55.4006 19.3867C55.4918 19.3503 55.5647 19.3138 55.6194 19.2773C55.6741 19.1133 55.7196 19.013 55.7561 18.9766C55.7561 18.8672 55.7652 18.7578 55.7834 18.6484C55.8017 18.5391 55.8472 18.4479 55.9202 18.375C55.9019 18.2656 55.9202 18.1562 55.9748 18.0469C55.9748 17.7188 55.984 17.4271 56.0022 17.1719C56.0386 16.8984 56.1207 16.6888 56.2483 16.543C56.2301 16.2148 56.2574 15.9961 56.3303 15.8867C56.4215 15.7773 56.4853 15.6589 56.5217 15.5312C56.5217 15.4583 56.5035 15.4036 56.467 15.3672C56.4488 15.3125 56.4306 15.2669 56.4123 15.2305C56.4488 15.0846 56.5217 14.9753 56.6311 14.9023C56.7405 14.8112 56.8316 14.7109 56.9045 14.6016C56.8863 14.4375 56.9136 14.3008 56.9866 14.1914C57.0777 14.0638 57.1324 13.9271 57.1506 13.7812C57.1142 13.5078 57.1051 13.3255 57.1233 13.2344C57.1597 13.125 57.178 13.0156 57.178 12.9062C57.3056 12.7422 57.3603 12.651 57.342 12.6328C57.342 12.6146 57.342 12.5872 57.342 12.5508C57.3967 12.4779 57.4332 12.3867 57.4514 12.2773C57.4696 12.1497 57.5061 12.0404 57.5608 11.9492C57.579 11.7305 57.5699 11.5299 57.5334 11.3477C57.6064 11.2747 57.6702 11.1836 57.7248 11.0742C57.7795 10.9648 57.8342 10.8555 57.8889 10.7461C57.7248 10.6549 57.6702 10.5091 57.7248 10.3086C57.7978 10.2721 57.8524 10.2266 57.8889 10.1719C57.9254 10.099 57.9618 10.0352 57.9983 9.98047C57.9618 9.83464 57.9709 9.73438 58.0256 9.67969C58.0803 9.625 58.0894 9.55208 58.053 9.46094C58.0894 9.36979 58.1259 9.28776 58.1623 9.21484C58.1988 9.1237 58.2079 9.01432 58.1897 8.88672C58.2079 8.79557 58.2353 8.72266 58.2717 8.66797C58.3082 8.59505 58.3173 8.50391 58.2991 8.39453C58.3355 8.35807 58.372 8.32161 58.4084 8.28516C58.4631 8.23047 58.4905 8.15755 58.4905 8.06641C58.4722 8.01172 58.454 7.96615 58.4358 7.92969C58.4176 7.875 58.3993 7.8112 58.3811 7.73828C58.454 7.51953 58.4722 7.40104 58.4358 7.38281C58.3993 7.34635 58.3811 7.3099 58.3811 7.27344C58.4176 7.21875 58.4449 7.17318 58.4631 7.13672C58.4814 7.10026 58.4722 7.03646 58.4358 6.94531C58.3811 6.90885 58.3173 6.8724 58.2444 6.83594C58.1897 6.79948 58.135 6.76302 58.0803 6.72656C58.0439 6.61719 58.0439 6.52604 58.0803 6.45312C58.135 6.38021 58.1806 6.29818 58.217 6.20703C58.1077 6.04297 58.0347 5.96094 57.9983 5.96094C57.9801 5.94271 57.9527 5.93359 57.9162 5.93359C57.7522 5.80599 57.6519 5.67839 57.6155 5.55078C57.4332 5.51432 57.2873 5.47786 57.178 5.44141C57.2509 5.27734 57.342 5.19531 57.4514 5.19531C57.579 5.19531 57.6793 5.15885 57.7522 5.08594C58.135 4.97656 58.5816 4.9401 59.092 4.97656C59.2014 5.04948 59.2926 5.09505 59.3655 5.11328C59.4566 5.13151 59.5295 5.13151 59.5842 5.11328C59.6389 5.07682 59.7118 5.04036 59.803 5.00391C59.9306 5.04036 60.0399 5.03125 60.1311 4.97656C60.2222 4.90365 60.3407 4.88542 60.4866 4.92188C60.6324 5.03125 60.7235 5.07682 60.76 5.05859C60.7965 5.02214 60.8329 4.99479 60.8694 4.97656C61.0334 5.01302 61.1519 5.03125 61.2248 5.03125C61.316 5.03125 61.3798 5.04948 61.4162 5.08594C61.4709 5.04948 61.5256 5.02214 61.5803 5.00391C61.6532 4.96745 61.7261 4.93099 61.7991 4.89453C61.8902 4.93099 61.954 4.97656 61.9905 5.03125C62.0452 5.08594 62.109 5.13151 62.1819 5.16797C62.1454 5.3138 62.1454 5.42318 62.1819 5.49609C62.2366 5.56901 62.2821 5.65104 62.3186 5.74219C62.3004 5.8151 62.2821 5.86979 62.2639 5.90625C62.2457 5.94271 62.2274 5.98828 62.2092 6.04297C62.3368 6.1888 62.4371 6.29818 62.51 6.37109C62.51 6.51693 62.4827 6.6263 62.428 6.69922C62.5009 6.82682 62.5465 6.97266 62.5647 7.13672C62.5829 7.30078 62.6376 7.42839 62.7287 7.51953C62.7287 7.61068 62.7379 7.68359 62.7561 7.73828C62.7926 7.79297 62.8108 7.85677 62.8108 7.92969C62.829 8.11198 62.829 8.21224 62.8108 8.23047C62.7926 8.23047 62.7834 8.2487 62.7834 8.28516C62.8381 8.35807 62.8837 8.4401 62.9202 8.53125C62.9566 8.60417 62.9748 8.71354 62.9748 8.85938C63.1389 9.0599 63.2027 9.17839 63.1662 9.21484C63.1845 9.36068 63.2027 9.48828 63.2209 9.59766C63.2574 9.70703 63.3121 9.80729 63.385 9.89844C63.385 10.0807 63.4032 10.2357 63.4397 10.3633C63.4761 10.4909 63.5126 10.6185 63.5491 10.7461C63.6767 10.7279 63.7496 10.7096 63.7678 10.6914C63.8043 10.6549 63.8407 10.6367 63.8772 10.6367C63.9683 10.7826 63.9866 10.8737 63.9319 10.9102C63.8772 10.9284 63.8407 10.9648 63.8225 11.0195C63.8407 11.2201 63.8316 11.3385 63.7952 11.375C63.8316 11.4661 63.8316 11.5664 63.7952 11.6758C63.7769 11.7852 63.7952 11.8854 63.8498 11.9766C63.8681 12.0312 63.8954 12.0859 63.9319 12.1406C63.9866 12.1771 64.0139 12.2409 64.0139 12.332C64.178 12.4779 64.2509 12.6146 64.2327 12.7422C64.2327 12.8698 64.2144 12.9883 64.178 13.0977C64.2509 13.2982 64.2965 13.4167 64.3147 13.4531C64.3329 13.4714 64.3603 13.4896 64.3967 13.5078C64.4696 13.599 64.5243 13.7083 64.5608 13.8359C64.5972 13.9635 64.6337 14.082 64.6702 14.1914C64.7066 14.4284 64.7248 14.5833 64.7248 14.6562C64.8707 14.9297 64.9345 15.1393 64.9162 15.2852C64.9162 15.3581 64.8889 15.4219 64.8342 15.4766C64.7795 15.5312 64.7431 15.5951 64.7248 15.668C64.9071 15.7044 65.0074 15.7682 65.0256 15.8594C65.0439 16.0964 65.0712 16.2695 65.1077 16.3789C65.1441 16.4701 65.1532 16.5885 65.135 16.7344C65.1715 16.8255 65.1988 16.9349 65.217 17.0625C65.2353 17.1719 65.2717 17.2904 65.3264 17.418C65.3629 17.5091 65.3811 17.5911 65.3811 17.6641C65.3993 17.7188 65.3902 17.7917 65.3537 17.8828C65.3902 17.9557 65.4449 18.0286 65.5178 18.1016C65.5907 18.1745 65.5907 18.2656 65.5178 18.375C65.5907 18.6484 65.691 18.849 65.8186 18.9766C65.8551 19.1042 65.8915 19.1953 65.928 19.25C65.9827 19.2865 66.0282 19.3411 66.0647 19.4141C66.0647 19.487 66.0556 19.5508 66.0373 19.6055C66.0191 19.6419 66.0009 19.6784 65.9827 19.7148C66.0191 19.806 66.0556 19.8789 66.092 19.9336C66.1467 19.9883 66.1649 20.0885 66.1467 20.2344C66.1832 20.2708 66.2105 20.3255 66.2287 20.3984C66.247 20.4531 66.2743 20.4987 66.3108 20.5352ZM61.6623 13.8633C61.6259 13.8086 61.5803 13.763 61.5256 13.7266C61.4892 13.6719 61.4527 13.599 61.4162 13.5078C61.398 13.3802 61.398 13.2891 61.4162 13.2344C61.4345 13.1615 61.4527 13.0794 61.4709 12.9883C61.3251 12.8789 61.2066 12.7604 61.1155 12.6328C61.0426 12.5052 61.0517 12.3503 61.1428 12.168L61.0061 11.8672C60.9332 11.7578 60.8967 11.6576 60.8967 11.5664C60.7873 11.4753 60.76 11.3477 60.8147 11.1836C60.7782 11.1471 60.7509 11.0833 60.7327 10.9922C60.7327 10.8828 60.7509 10.8008 60.7873 10.7461C60.7691 10.5456 60.7691 10.3815 60.7873 10.2539C60.8238 10.1081 60.8238 9.98958 60.7873 9.89844C60.7327 9.95312 60.6962 10.0169 60.678 10.0898C60.6597 10.1445 60.6324 10.1992 60.5959 10.2539C60.5595 10.4362 60.5321 10.582 60.5139 10.6914C60.4957 10.8008 60.4683 10.901 60.4319 10.9922C60.4501 11.0833 60.4592 11.2201 60.4592 11.4023C60.4228 11.4753 60.3772 11.5391 60.3225 11.5938C60.2678 11.6484 60.2131 11.7122 60.1584 11.7852C60.2314 11.8763 60.2496 11.9674 60.2131 12.0586C60.1767 12.1315 60.1311 12.2044 60.0764 12.2773C60.1493 12.4414 60.1676 12.5508 60.1311 12.6055C60.0946 12.6419 60.0764 12.6875 60.0764 12.7422C60.0217 12.888 60.0126 13.0339 60.0491 13.1797C60.1037 13.3255 60.1037 13.4714 60.0491 13.6172C60.0855 13.7448 60.0946 13.8633 60.0764 13.9727C60.0764 14.0638 60.122 14.1276 60.2131 14.1641C60.359 14.1458 60.4683 14.1003 60.5412 14.0273C60.6142 13.9544 60.7144 13.9271 60.842 13.9453C61.0608 14.0365 61.2157 14.0911 61.3069 14.1094C61.4162 14.1094 61.5347 14.1094 61.6623 14.1094V13.8633ZM76.6528 7.98438C76.6164 8.09375 76.6164 8.22135 76.6528 8.36719C76.6893 8.49479 76.6802 8.61328 76.6255 8.72266C76.4796 8.72266 76.3976 8.70443 76.3794 8.66797C76.3794 8.63151 76.3703 8.59505 76.352 8.55859C76.2062 8.43099 76.1151 8.33073 76.0786 8.25781C75.951 8.22135 75.8598 8.15755 75.8052 8.06641C75.7687 7.97526 75.6776 7.92057 75.5317 7.90234C75.3494 7.97526 75.2218 7.97526 75.1489 7.90234C75.1489 7.8112 75.1307 7.73828 75.0942 7.68359C75.0578 7.61068 74.9666 7.60156 74.8208 7.65625C74.6567 7.45573 74.5473 7.35547 74.4927 7.35547C74.4562 7.33724 74.4197 7.3099 74.3833 7.27344C74.1645 7.23698 74.046 7.20052 74.0278 7.16406C74.0278 7.10938 74.0096 7.0638 73.9731 7.02734C73.882 7.04557 73.8182 7.07292 73.7817 7.10938C73.7453 7.14583 73.6997 7.18229 73.645 7.21875C73.5539 7.21875 73.4445 7.23698 73.3169 7.27344C73.1893 7.3099 73.1164 7.25521 73.0981 7.10938C73.007 7.1276 72.8794 7.16406 72.7153 7.21875C72.5695 7.27344 72.4601 7.30078 72.3872 7.30078C72.132 7.24609 71.9679 7.25521 71.895 7.32812C71.8221 7.38281 71.7218 7.41016 71.5942 7.41016C71.6124 7.55599 71.6216 7.69271 71.6216 7.82031C71.6216 7.94792 71.576 8.03906 71.4848 8.09375C71.5213 8.20312 71.5486 8.32161 71.5669 8.44922C71.6033 8.55859 71.6398 8.66797 71.6763 8.77734C71.6033 9.14193 71.5669 9.40625 71.5669 9.57031C71.5851 9.73438 71.5942 9.92578 71.5942 10.1445C71.6307 10.3268 71.6398 10.4362 71.6216 10.4727C71.6033 10.4909 71.576 10.5182 71.5395 10.5547C71.5395 10.6276 71.5213 10.6914 71.4848 10.7461C71.4666 10.7826 71.4757 10.8372 71.5122 10.9102C71.4757 10.9648 71.4484 11.0378 71.4302 11.1289C71.4302 11.2201 71.421 11.3112 71.4028 11.4023C71.421 11.4935 71.4484 11.5755 71.4848 11.6484C71.5395 11.7214 71.576 11.8125 71.5942 11.9219C71.5942 12.0495 71.5669 12.1771 71.5122 12.3047C71.4757 12.4141 71.4393 12.5143 71.4028 12.6055C71.4393 12.7148 71.4757 12.8424 71.5122 12.9883C71.5486 13.1159 71.5851 13.2344 71.6216 13.3438C71.6216 13.599 71.6124 13.7812 71.5942 13.8906C71.576 14 71.576 14.1094 71.5942 14.2188C71.7583 14.3281 71.8221 14.4193 71.7856 14.4922C71.7492 14.5469 71.7492 14.6107 71.7856 14.6836C71.6945 14.7747 71.6489 14.8932 71.6489 15.0391C71.6489 15.1849 71.6307 15.3307 71.5942 15.4766C71.6307 15.5495 71.6398 15.6315 71.6216 15.7227C71.6216 15.8138 71.6398 15.8867 71.6763 15.9414C71.6398 16.0872 71.6489 16.2422 71.7036 16.4062C71.7583 16.5521 71.7492 16.6888 71.6763 16.8164C71.6945 16.8529 71.7218 16.8984 71.7583 16.9531C71.7947 16.9896 71.8221 17.0352 71.8403 17.0898C71.8403 17.1628 71.8312 17.2174 71.813 17.2539C71.813 17.2904 71.8039 17.3359 71.7856 17.3906C71.8221 17.5547 71.8403 17.6549 71.8403 17.6914C71.8585 17.7279 71.8585 17.7552 71.8403 17.7734C71.9132 17.9193 71.9497 18.138 71.9497 18.4297C71.9132 18.4844 71.895 18.5482 71.895 18.6211C71.9132 18.694 71.9041 18.7669 71.8677 18.8398C71.8494 18.8945 71.8221 18.9492 71.7856 19.0039C71.7492 19.0404 71.7309 19.0859 71.7309 19.1406C71.7127 19.2865 71.7309 19.4049 71.7856 19.4961C71.8403 19.569 71.8677 19.6693 71.8677 19.7969C71.8312 19.8333 71.8039 19.8789 71.7856 19.9336C71.7674 19.9701 71.7401 20.0156 71.7036 20.0703C71.7218 20.1068 71.7401 20.1523 71.7583 20.207C71.7947 20.2617 71.8312 20.3164 71.8677 20.3711C71.977 20.5898 72.0135 20.7174 71.977 20.7539C71.9406 20.918 71.8768 21 71.7856 21C71.7127 21.0365 71.6489 21.082 71.5942 21.1367C71.5578 21.1914 71.494 21.2188 71.4028 21.2188C71.1841 21.3646 71.0473 21.4102 70.9927 21.3555C70.9562 21.3008 70.8924 21.2552 70.8013 21.2188C70.7101 21.2188 70.6645 21.2552 70.6645 21.3281C70.6645 21.401 70.6281 21.4557 70.5552 21.4922C70.5187 21.6198 70.4914 21.7292 70.4731 21.8203C70.4549 21.9297 70.4002 22.0208 70.3091 22.0938C70.0903 22.1484 70.0083 22.2305 70.063 22.3398C70.1359 22.4674 70.1359 22.5768 70.063 22.668C69.9171 22.668 69.8351 22.6862 69.8169 22.7227C69.8169 22.7591 69.7986 22.7773 69.7622 22.7773C69.744 22.9232 69.7166 23.0143 69.6802 23.0508C69.6437 23.0872 69.589 23.1055 69.5161 23.1055C69.4796 23.1966 69.4341 23.2786 69.3794 23.3516C69.3247 23.4245 69.2973 23.5065 69.2973 23.5977C69.188 23.7435 69.1059 23.8984 69.0513 24.0625C68.9966 24.099 68.951 24.1445 68.9145 24.1992C68.8963 24.2721 68.8598 24.3359 68.8052 24.3906C68.6776 24.263 68.6411 24.1354 68.6958 24.0078C68.7505 23.8984 68.7596 23.7982 68.7231 23.707C68.7414 23.543 68.7505 23.4154 68.7505 23.3242C68.7505 23.2513 68.7414 23.1693 68.7231 23.0781C68.7596 23.0052 68.8143 22.9141 68.8872 22.8047C68.8872 22.7318 68.8872 22.6589 68.8872 22.5859C68.9054 22.5312 68.9054 22.4766 68.8872 22.4219C68.9054 22.3307 68.9419 22.2396 68.9966 22.1484C69.0695 22.0755 69.0968 21.9935 69.0786 21.9023C69.0786 21.8294 69.0604 21.7747 69.0239 21.7383C68.9874 21.7201 68.9601 21.6836 68.9419 21.6289C68.9419 21.4648 68.9328 21.3555 68.9145 21.3008C68.9874 21.2096 69.0239 21.1003 69.0239 20.9727C69.0239 20.8451 69.0421 20.7174 69.0786 20.5898C69.0057 20.444 68.9966 20.2891 69.0513 20.125C69.1242 19.9609 69.1424 19.806 69.1059 19.6602C69.1059 19.4779 69.0695 19.3685 68.9966 19.332C68.9236 19.2773 68.869 19.1953 68.8325 19.0859C68.9236 18.9036 68.9419 18.7031 68.8872 18.4844C68.9236 18.4115 68.951 18.3294 68.9692 18.2383C69.0057 18.1471 69.0057 18.0469 68.9692 17.9375C69.0239 17.6823 69.033 17.5 68.9966 17.3906C69.033 17.263 69.0695 17.1536 69.1059 17.0625C69.1606 16.9531 69.188 16.8255 69.188 16.6797C69.1333 16.5339 69.1151 16.4427 69.1333 16.4062C69.1515 16.3698 69.1606 16.3333 69.1606 16.2969C69.2518 15.8958 69.2427 15.5859 69.1333 15.3672C69.0421 15.1302 68.9692 14.9115 68.9145 14.7109C68.9328 14.4375 68.951 14.2005 68.9692 14C69.0057 13.7812 69.0604 13.5716 69.1333 13.3711C69.1515 13.2435 69.1606 13.1159 69.1606 12.9883C69.1606 12.8607 69.1697 12.7513 69.188 12.6602C69.1515 12.5872 69.1242 12.5326 69.1059 12.4961C69.0877 12.4414 69.0604 12.3776 69.0239 12.3047C69.0239 12.1589 69.033 12.0312 69.0513 11.9219C69.0695 11.7943 69.0786 11.6667 69.0786 11.5391C69.0604 11.4844 69.0421 11.4388 69.0239 11.4023C69.0239 11.3477 69.0239 11.293 69.0239 11.2383C69.0239 11.1654 69.033 11.0924 69.0513 11.0195C69.0695 10.9466 69.0877 10.8737 69.1059 10.8008C69.1424 10.7096 69.1789 10.5729 69.2153 10.3906C69.1971 10.099 69.1971 9.83464 69.2153 9.59766C69.2335 9.36068 69.2244 9.10547 69.188 8.83203C69.1515 8.6862 69.1242 8.54036 69.1059 8.39453C69.1059 8.2487 69.0877 8.12109 69.0513 8.01172C69.0695 7.9388 69.0786 7.875 69.0786 7.82031C69.0786 7.7474 69.0877 7.67448 69.1059 7.60156C69.033 7.49219 68.9874 7.42839 68.9692 7.41016C68.951 7.39193 68.9328 7.36458 68.9145 7.32812C68.8234 7.34635 68.6867 7.36458 68.5044 7.38281C68.3403 7.40104 68.2036 7.39193 68.0942 7.35547C68.0031 7.39193 67.8755 7.41927 67.7114 7.4375C67.5656 7.4375 67.4562 7.39193 67.3833 7.30078C67.2921 7.31901 67.1919 7.31901 67.0825 7.30078C66.9914 7.26432 66.9093 7.24609 66.8364 7.24609C66.727 7.26432 66.5721 7.33724 66.3716 7.46484C66.1893 7.59245 66.0434 7.64714 65.9341 7.62891C65.8429 7.61068 65.7882 7.58333 65.77 7.54688C65.7518 7.49219 65.7244 7.44661 65.688 7.41016C65.6151 7.42839 65.5604 7.46484 65.5239 7.51953C65.5057 7.55599 65.4692 7.59245 65.4145 7.62891C65.3234 7.61068 65.2596 7.61979 65.2231 7.65625C65.1867 7.69271 65.1502 7.72917 65.1138 7.76562C64.9132 7.82031 64.8221 7.875 64.8403 7.92969C64.8403 7.96615 64.8221 8.0026 64.7856 8.03906C64.6945 8.11198 64.6216 8.17578 64.5669 8.23047C64.5122 8.28516 64.4666 8.3763 64.4302 8.50391C64.3208 8.66797 64.2661 8.77734 64.2661 8.83203C64.2661 8.88672 64.2479 8.93229 64.2114 8.96875C64.0838 8.96875 63.9927 8.92318 63.938 8.83203C63.938 8.77734 63.9562 8.71354 63.9927 8.64062C64.0109 8.56771 64.02 8.49479 64.02 8.42188C64.02 8.16667 64.0473 8.0026 64.102 7.92969C64.1385 7.85677 64.1749 7.77474 64.2114 7.68359C64.2479 7.53776 64.2752 7.4375 64.2934 7.38281C64.3117 7.3099 64.339 7.25521 64.3755 7.21875C64.339 7.07292 64.3572 6.96354 64.4302 6.89062C64.4848 6.79948 64.5304 6.70833 64.5669 6.61719C64.6033 6.38021 64.6763 6.21615 64.7856 6.125C64.895 6.01562 64.9953 5.91536 65.0864 5.82422C65.0317 5.64193 65.0226 5.53255 65.0591 5.49609C65.0773 5.44141 65.0773 5.3776 65.0591 5.30469C65.0955 5.25 65.132 5.19531 65.1684 5.14062C65.1867 5.08594 65.214 5.03125 65.2505 4.97656C65.4145 4.92188 65.4966 4.8763 65.4966 4.83984C65.4966 4.80339 65.5148 4.77604 65.5513 4.75781C65.6971 4.77604 65.7882 4.83073 65.8247 4.92188C65.8794 4.99479 65.9432 5.06771 66.0161 5.14062C66.1802 5.10417 66.3989 5.03125 66.6723 4.92188C66.9458 4.8125 67.1919 4.76693 67.4106 4.78516C67.4835 4.82161 67.4927 4.8763 67.438 4.94922C67.4015 5.02214 67.4197 5.07682 67.4927 5.11328C67.6203 5.07682 67.7296 5.02214 67.8208 4.94922C67.9302 4.8763 68.0578 4.88542 68.2036 4.97656C68.3312 4.95833 68.4497 4.92188 68.5591 4.86719C68.6684 4.8125 68.7869 4.78516 68.9145 4.78516C68.9692 4.96745 69.0604 5.08594 69.188 5.14062C69.3338 5.03125 69.4249 4.98568 69.4614 5.00391C69.4979 5.02214 69.5343 5.04036 69.5708 5.05859C69.6437 4.98568 69.7257 4.96745 69.8169 5.00391C69.9263 5.02214 70.0174 5.04948 70.0903 5.08594C70.2726 5.04948 70.4002 5.01302 70.4731 4.97656C70.7101 4.86719 70.8468 4.83984 70.8833 4.89453C70.938 4.93099 71.0109 4.96745 71.102 5.00391C71.1932 4.96745 71.2752 4.93099 71.3481 4.89453C71.421 4.85807 71.5213 4.84896 71.6489 4.86719C71.7218 4.90365 71.7765 4.93099 71.813 4.94922C71.8677 4.96745 71.9223 4.99479 71.977 5.03125C72.0499 4.99479 72.1138 4.94922 72.1684 4.89453C72.2231 4.83984 72.296 4.79427 72.3872 4.75781C72.6059 4.75781 72.7244 4.76693 72.7427 4.78516C72.7609 4.78516 72.8247 4.79427 72.9341 4.8125C72.9888 4.83073 73.0617 4.84896 73.1528 4.86719C73.244 4.88542 73.3078 4.89453 73.3442 4.89453C73.4536 4.89453 73.5447 4.85807 73.6177 4.78516C73.6906 4.71224 73.7544 4.73958 73.8091 4.86719C73.882 4.83073 73.964 4.82161 74.0552 4.83984C74.1645 4.83984 74.2466 4.85807 74.3013 4.89453C74.4106 4.96745 74.5018 4.98568 74.5747 4.94922C74.6658 4.91276 74.7296 4.84896 74.7661 4.75781C74.9484 4.73958 75.0669 4.80339 75.1216 4.94922C75.3403 5.02214 75.4132 5.11328 75.3403 5.22266C75.2674 5.33203 75.2674 5.44141 75.3403 5.55078C75.4315 5.6237 75.5408 5.66927 75.6684 5.6875C75.796 5.6875 75.869 5.74219 75.8872 5.85156C75.8143 6.08854 75.7778 6.27083 75.7778 6.39844C75.8143 6.48958 75.8781 6.54427 75.9692 6.5625C76.0786 6.58073 76.1606 6.6263 76.2153 6.69922C76.2153 6.80859 76.188 6.89974 76.1333 6.97266C76.0786 7.04557 76.0877 7.1276 76.1606 7.21875C76.2153 7.25521 76.2791 7.30078 76.352 7.35547C76.4249 7.39193 76.4796 7.44661 76.5161 7.51953C76.5526 7.77474 76.5981 7.92969 76.6528 7.98438ZM86.2019 20.5352C86.1836 20.6263 86.1928 20.7083 86.2292 20.7812C86.2839 20.8359 86.3112 20.9089 86.3112 21C86.3842 21.1641 86.4024 21.2461 86.3659 21.2461C86.3477 21.2461 86.3386 21.2643 86.3386 21.3008C86.2657 21.3008 86.211 21.2826 86.1745 21.2461C86.1563 21.2279 86.1107 21.2279 86.0378 21.2461C85.8373 21.1185 85.7006 21.0729 85.6277 21.1094C85.5547 21.1458 85.4818 21.1367 85.4089 21.082C85.2084 21.1185 85.0899 21.1094 85.0534 21.0547C85.0352 21.0182 85.0079 20.9818 84.9714 20.9453C84.7162 21.0729 84.4428 21.1367 84.1511 21.1367C83.987 21.082 83.8777 21.0547 83.823 21.0547C83.7683 21.0729 83.7045 21.082 83.6316 21.082C83.3764 21.1549 83.2487 21.1276 83.2487 21C83.2487 20.8906 83.2579 20.7904 83.2761 20.6992C83.1849 20.4987 83.1485 20.3893 83.1667 20.3711C83.1849 20.3529 83.1941 20.3255 83.1941 20.2891C83.1576 20.1979 83.1211 20.125 83.0847 20.0703C83.0482 20.0156 83.03 19.9427 83.03 19.8516C82.9935 19.7969 82.9662 19.7513 82.948 19.7148C82.9297 19.6602 82.9115 19.6055 82.8933 19.5508C82.8021 19.332 82.7657 19.2044 82.7839 19.168C82.8204 19.1315 82.8386 19.0859 82.8386 19.0312C82.7657 18.8307 82.711 18.7122 82.6745 18.6758C82.6563 18.6211 82.6472 18.5755 82.6472 18.5391C82.629 18.3568 82.6016 18.2747 82.5652 18.293C82.5287 18.293 82.4922 18.2747 82.4558 18.2383C82.4193 18.0924 82.4193 18.0013 82.4558 17.9648C82.4922 17.9102 82.5196 17.8555 82.5378 17.8008C82.5014 17.7643 82.474 17.7188 82.4558 17.6641C82.4558 17.6094 82.4376 17.5638 82.4011 17.5273C82.3099 17.4544 82.237 17.3815 82.1823 17.3086C82.1277 17.2357 82.0912 17.1263 82.073 16.9805C82.0547 16.7617 82.0365 16.6159 82.0183 16.543C82.0183 16.4701 82.0365 16.3971 82.073 16.3242C81.9818 16.3242 81.8907 16.3424 81.7995 16.3789C81.7266 16.3971 81.6264 16.4062 81.4987 16.4062C81.2618 16.388 81.0977 16.3789 81.0066 16.3789C80.9154 16.3789 80.7969 16.3789 80.6511 16.3789C80.487 16.3607 80.3685 16.3516 80.2956 16.3516C80.2227 16.3516 80.168 16.3242 80.1316 16.2695C80.0404 16.306 79.9584 16.3333 79.8855 16.3516C79.8126 16.3698 79.7305 16.3698 79.6394 16.3516C79.4571 16.4427 79.3568 16.4792 79.3386 16.4609C79.3204 16.4427 79.293 16.4336 79.2566 16.4336C79.2201 16.4701 79.1928 16.5156 79.1745 16.5703C79.1563 16.625 79.129 16.6706 79.0925 16.707C79.129 16.7799 79.1381 16.8529 79.1198 16.9258C79.1016 16.9987 79.0834 17.0625 79.0652 17.1172C79.1016 17.2812 79.1198 17.3815 79.1198 17.418C79.1198 17.4544 79.1107 17.4909 79.0925 17.5273C79.056 17.7279 79.0287 17.8646 79.0105 17.9375C78.8829 18.0651 78.7917 18.2201 78.737 18.4023C78.7006 18.4935 78.6732 18.5755 78.655 18.6484C78.6368 18.7214 78.6094 18.8034 78.573 18.8945C78.5365 19.1497 78.4909 19.3958 78.4362 19.6328C78.3998 19.8698 78.3816 20.1068 78.3816 20.3438C78.3269 20.5078 78.2813 20.599 78.2448 20.6172C78.2266 20.6172 78.2084 20.6354 78.1902 20.6719C78.1719 20.763 78.1537 20.8177 78.1355 20.8359C78.1172 20.8359 78.1172 20.8815 78.1355 20.9727C77.9896 21.1003 77.9167 21.1641 77.9167 21.1641C77.9349 21.1823 77.9349 21.2096 77.9167 21.2461C77.7891 21.3555 77.7162 21.4466 77.698 21.5195C77.698 21.5924 77.6706 21.6471 77.6159 21.6836C77.5248 21.7018 77.461 21.6836 77.4245 21.6289C77.4063 21.5742 77.3698 21.5469 77.3152 21.5469C77.1876 21.5833 77.0873 21.6562 77.0144 21.7656C76.9415 21.875 76.8321 21.9115 76.6862 21.875C76.6498 21.9297 76.6133 22.0482 76.5769 22.2305C76.431 22.3034 76.2761 22.3581 76.112 22.3945C75.9662 22.4492 75.8295 22.5221 75.7019 22.6133C75.6654 22.5951 75.6107 22.5859 75.5378 22.5859C75.4831 22.6042 75.4376 22.6133 75.4011 22.6133C75.3646 22.6497 75.3464 22.6953 75.3464 22.75C75.3646 22.8229 75.3737 22.8958 75.3737 22.9688C75.2097 23.0417 75.073 23.0599 74.9636 23.0234C74.836 23.0781 74.7904 23.224 74.8269 23.4609C74.6993 23.6432 74.5079 23.7161 74.2527 23.6797C74.1615 23.8438 74.0977 23.944 74.0612 23.9805C74.0248 24.0169 73.961 24.026 73.8698 24.0078C73.7787 24.0625 73.7149 24.1263 73.6784 24.1992C73.6237 24.2904 73.5508 24.3633 73.4597 24.418C73.3503 24.4362 73.2865 24.4635 73.2683 24.5C73.2501 24.5365 73.2227 24.5729 73.1862 24.6094C73.0951 24.6823 73.0131 24.7461 72.9402 24.8008C72.849 24.8737 72.7579 24.9375 72.6667 24.9922C72.5027 25.1927 72.4115 25.3112 72.3933 25.3477C72.3751 25.4023 72.3386 25.4479 72.2839 25.4844C72.1563 25.3385 72.1198 25.2383 72.1745 25.1836C72.211 25.1289 72.2474 25.0651 72.2839 24.9922C72.4115 24.7917 72.4935 24.6823 72.53 24.6641C72.5482 24.6458 72.5665 24.6185 72.5847 24.582C72.6211 24.5456 72.6485 24.4909 72.6667 24.418C72.6667 24.3633 72.6849 24.3086 72.7214 24.2539C72.9584 24.0352 73.1316 23.8255 73.2409 23.625C73.3503 23.4245 73.4323 23.1966 73.487 22.9414C73.5782 22.6497 73.6602 22.4766 73.7331 22.4219C73.7878 22.1667 73.8516 22.0117 73.9245 21.957C73.9792 21.9023 74.0248 21.8385 74.0612 21.7656V21.3828C74.1524 21.3464 74.2435 21.3099 74.3347 21.2734C74.4076 21.2552 74.4896 21.2279 74.5808 21.1914C74.6537 21.0456 74.7357 20.9089 74.8269 20.7812C74.9362 20.6354 75.0183 20.4622 75.073 20.2617C75.1641 20.1706 75.237 20.0703 75.2917 19.9609C75.3282 19.8698 75.3099 19.7969 75.237 19.7422C75.1641 19.6875 75.1459 19.6146 75.1823 19.5234C75.1823 19.4505 75.2188 19.4049 75.2917 19.3867C75.3829 19.3503 75.4558 19.3138 75.5105 19.2773C75.5652 19.1133 75.6107 19.013 75.6472 18.9766C75.6472 18.8672 75.6563 18.7578 75.6745 18.6484C75.6928 18.5391 75.7383 18.4479 75.8112 18.375C75.793 18.2656 75.8112 18.1562 75.8659 18.0469C75.8659 17.7188 75.8751 17.4271 75.8933 17.1719C75.9297 16.8984 76.0118 16.6888 76.1394 16.543C76.1211 16.2148 76.1485 15.9961 76.2214 15.8867C76.3126 15.7773 76.3764 15.6589 76.4128 15.5312C76.4128 15.4583 76.3946 15.4036 76.3581 15.3672C76.3399 15.3125 76.3217 15.2669 76.3034 15.2305C76.3399 15.0846 76.4128 14.9753 76.5222 14.9023C76.6316 14.8112 76.7227 14.7109 76.7956 14.6016C76.7774 14.4375 76.8047 14.3008 76.8777 14.1914C76.9688 14.0638 77.0235 13.9271 77.0417 13.7812C77.0053 13.5078 76.9961 13.3255 77.0144 13.2344C77.0508 13.125 77.0691 13.0156 77.0691 12.9062C77.1967 12.7422 77.2514 12.651 77.2331 12.6328C77.2331 12.6146 77.2331 12.5872 77.2331 12.5508C77.2878 12.4779 77.3243 12.3867 77.3425 12.2773C77.3607 12.1497 77.3972 12.0404 77.4519 11.9492C77.4701 11.7305 77.461 11.5299 77.4245 11.3477C77.4974 11.2747 77.5612 11.1836 77.6159 11.0742C77.6706 10.9648 77.7253 10.8555 77.78 10.7461C77.6159 10.6549 77.5612 10.5091 77.6159 10.3086C77.6889 10.2721 77.7435 10.2266 77.78 10.1719C77.8165 10.099 77.8529 10.0352 77.8894 9.98047C77.8529 9.83464 77.862 9.73438 77.9167 9.67969C77.9714 9.625 77.9805 9.55208 77.9441 9.46094C77.9805 9.36979 78.017 9.28776 78.0534 9.21484C78.0899 9.1237 78.099 9.01432 78.0808 8.88672C78.099 8.79557 78.1264 8.72266 78.1628 8.66797C78.1993 8.59505 78.2084 8.50391 78.1902 8.39453C78.2266 8.35807 78.2631 8.32161 78.2995 8.28516C78.3542 8.23047 78.3816 8.15755 78.3816 8.06641C78.3633 8.01172 78.3451 7.96615 78.3269 7.92969C78.3086 7.875 78.2904 7.8112 78.2722 7.73828C78.3451 7.51953 78.3633 7.40104 78.3269 7.38281C78.2904 7.34635 78.2722 7.3099 78.2722 7.27344C78.3086 7.21875 78.336 7.17318 78.3542 7.13672C78.3724 7.10026 78.3633 7.03646 78.3269 6.94531C78.2722 6.90885 78.2084 6.8724 78.1355 6.83594C78.0808 6.79948 78.0261 6.76302 77.9714 6.72656C77.9349 6.61719 77.9349 6.52604 77.9714 6.45312C78.0261 6.38021 78.0717 6.29818 78.1081 6.20703C77.9987 6.04297 77.9258 5.96094 77.8894 5.96094C77.8711 5.94271 77.8438 5.93359 77.8073 5.93359C77.6433 5.80599 77.543 5.67839 77.5066 5.55078C77.3243 5.51432 77.1784 5.47786 77.0691 5.44141C77.142 5.27734 77.2331 5.19531 77.3425 5.19531C77.4701 5.19531 77.5704 5.15885 77.6433 5.08594C78.0261 4.97656 78.4727 4.9401 78.9831 4.97656C79.0925 5.04948 79.1836 5.09505 79.2566 5.11328C79.3477 5.13151 79.4206 5.13151 79.4753 5.11328C79.53 5.07682 79.6029 5.04036 79.6941 5.00391C79.8217 5.04036 79.931 5.03125 80.0222 4.97656C80.1133 4.90365 80.2318 4.88542 80.3777 4.92188C80.5235 5.03125 80.6146 5.07682 80.6511 5.05859C80.6876 5.02214 80.724 4.99479 80.7605 4.97656C80.9245 5.01302 81.043 5.03125 81.1159 5.03125C81.2071 5.03125 81.2709 5.04948 81.3073 5.08594C81.362 5.04948 81.4167 5.02214 81.4714 5.00391C81.5443 4.96745 81.6172 4.93099 81.6902 4.89453C81.7813 4.93099 81.8451 4.97656 81.8816 5.03125C81.9362 5.08594 82.0001 5.13151 82.073 5.16797C82.0365 5.3138 82.0365 5.42318 82.073 5.49609C82.1277 5.56901 82.1732 5.65104 82.2097 5.74219C82.1915 5.8151 82.1732 5.86979 82.155 5.90625C82.1368 5.94271 82.1185 5.98828 82.1003 6.04297C82.2279 6.1888 82.3282 6.29818 82.4011 6.37109C82.4011 6.51693 82.3737 6.6263 82.3191 6.69922C82.392 6.82682 82.4376 6.97266 82.4558 7.13672C82.474 7.30078 82.5287 7.42839 82.6198 7.51953C82.6198 7.61068 82.629 7.68359 82.6472 7.73828C82.6836 7.79297 82.7019 7.85677 82.7019 7.92969C82.7201 8.11198 82.7201 8.21224 82.7019 8.23047C82.6836 8.23047 82.6745 8.2487 82.6745 8.28516C82.7292 8.35807 82.7748 8.4401 82.8112 8.53125C82.8477 8.60417 82.8659 8.71354 82.8659 8.85938C83.03 9.0599 83.0938 9.17839 83.0573 9.21484C83.0756 9.36068 83.0938 9.48828 83.112 9.59766C83.1485 9.70703 83.2032 9.80729 83.2761 9.89844C83.2761 10.0807 83.2943 10.2357 83.3308 10.3633C83.3672 10.4909 83.4037 10.6185 83.4402 10.7461C83.5678 10.7279 83.6407 10.7096 83.6589 10.6914C83.6954 10.6549 83.7318 10.6367 83.7683 10.6367C83.8594 10.7826 83.8777 10.8737 83.823 10.9102C83.7683 10.9284 83.7318 10.9648 83.7136 11.0195C83.7318 11.2201 83.7227 11.3385 83.6862 11.375C83.7227 11.4661 83.7227 11.5664 83.6862 11.6758C83.668 11.7852 83.6862 11.8854 83.7409 11.9766C83.7592 12.0312 83.7865 12.0859 83.823 12.1406C83.8777 12.1771 83.905 12.2409 83.905 12.332C84.0691 12.4779 84.142 12.6146 84.1237 12.7422C84.1237 12.8698 84.1055 12.9883 84.0691 13.0977C84.142 13.2982 84.1876 13.4167 84.2058 13.4531C84.224 13.4714 84.2514 13.4896 84.2878 13.5078C84.3607 13.599 84.4154 13.7083 84.4519 13.8359C84.4883 13.9635 84.5248 14.082 84.5612 14.1914C84.5977 14.4284 84.6159 14.5833 84.6159 14.6562C84.7618 14.9297 84.8256 15.1393 84.8073 15.2852C84.8073 15.3581 84.78 15.4219 84.7253 15.4766C84.6706 15.5312 84.6342 15.5951 84.6159 15.668C84.7982 15.7044 84.8985 15.7682 84.9167 15.8594C84.9349 16.0964 84.9623 16.2695 84.9987 16.3789C85.0352 16.4701 85.0443 16.5885 85.0261 16.7344C85.0626 16.8255 85.0899 16.9349 85.1081 17.0625C85.1264 17.1719 85.1628 17.2904 85.2175 17.418C85.254 17.5091 85.2722 17.5911 85.2722 17.6641C85.2904 17.7188 85.2813 17.7917 85.2448 17.8828C85.2813 17.9557 85.336 18.0286 85.4089 18.1016C85.4818 18.1745 85.4818 18.2656 85.4089 18.375C85.4818 18.6484 85.5821 18.849 85.7097 18.9766C85.7461 19.1042 85.7826 19.1953 85.8191 19.25C85.8737 19.2865 85.9193 19.3411 85.9558 19.4141C85.9558 19.487 85.9467 19.5508 85.9284 19.6055C85.9102 19.6419 85.892 19.6784 85.8737 19.7148C85.9102 19.806 85.9467 19.8789 85.9831 19.9336C86.0378 19.9883 86.056 20.0885 86.0378 20.2344C86.0743 20.2708 86.1016 20.3255 86.1198 20.3984C86.1381 20.4531 86.1654 20.4987 86.2019 20.5352ZM81.5534 13.8633C81.517 13.8086 81.4714 13.763 81.4167 13.7266C81.3803 13.6719 81.3438 13.599 81.3073 13.5078C81.2891 13.3802 81.2891 13.2891 81.3073 13.2344C81.3256 13.1615 81.3438 13.0794 81.362 12.9883C81.2162 12.8789 81.0977 12.7604 81.0066 12.6328C80.9336 12.5052 80.9428 12.3503 81.0339 12.168L80.8972 11.8672C80.8243 11.7578 80.7878 11.6576 80.7878 11.5664C80.6784 11.4753 80.6511 11.3477 80.7058 11.1836C80.6693 11.1471 80.642 11.0833 80.6237 10.9922C80.6237 10.8828 80.642 10.8008 80.6784 10.7461C80.6602 10.5456 80.6602 10.3815 80.6784 10.2539C80.7149 10.1081 80.7149 9.98958 80.6784 9.89844C80.6237 9.95312 80.5873 10.0169 80.5691 10.0898C80.5508 10.1445 80.5235 10.1992 80.487 10.2539C80.4506 10.4362 80.4232 10.582 80.405 10.6914C80.3868 10.8008 80.3594 10.901 80.323 10.9922C80.3412 11.0833 80.3503 11.2201 80.3503 11.4023C80.3139 11.4753 80.2683 11.5391 80.2136 11.5938C80.1589 11.6484 80.1042 11.7122 80.0495 11.7852C80.1224 11.8763 80.1407 11.9674 80.1042 12.0586C80.0678 12.1315 80.0222 12.2044 79.9675 12.2773C80.0404 12.4414 80.0586 12.5508 80.0222 12.6055C79.9857 12.6419 79.9675 12.6875 79.9675 12.7422C79.9128 12.888 79.9037 13.0339 79.9402 13.1797C79.9948 13.3255 79.9948 13.4714 79.9402 13.6172C79.9766 13.7448 79.9857 13.8633 79.9675 13.9727C79.9675 14.0638 80.0131 14.1276 80.1042 14.1641C80.2501 14.1458 80.3594 14.1003 80.4323 14.0273C80.5053 13.9544 80.6055 13.9271 80.7331 13.9453C80.9519 14.0365 81.1068 14.0911 81.198 14.1094C81.3073 14.1094 81.4258 14.1094 81.5534 14.1094V13.8633ZM100.427 24.2539L99.9892 24.3633C99.9528 24.2539 99.9163 24.181 99.8798 24.1445C99.8434 24.1263 99.7978 24.1172 99.7431 24.1172C99.7067 24.0443 99.6611 23.9896 99.6064 23.9531C99.5517 23.9349 99.497 23.8984 99.4423 23.8438C99.333 23.6979 99.2418 23.625 99.1689 23.625C99.096 23.625 99.0231 23.625 98.9502 23.625C98.7679 23.5339 98.622 23.5065 98.5127 23.543C98.3668 23.5247 98.2939 23.4336 98.2939 23.2695C98.2939 23.1055 98.2757 22.9596 98.2392 22.832C98.0569 22.9779 97.9476 23.0599 97.9111 23.0781C97.8929 23.1146 97.8564 23.1328 97.8017 23.1328C97.6559 23.0781 97.5374 22.9961 97.4463 22.8867C97.3733 22.7956 97.2822 22.7044 97.1728 22.6133C96.9358 22.6315 96.7991 22.6224 96.7627 22.5859C96.7262 22.5495 96.6806 22.5039 96.6259 22.4492C96.5348 22.1576 96.4892 21.9206 96.4892 21.7383C96.3981 21.7201 96.316 21.7474 96.2431 21.8203C96.1884 21.8932 96.1155 21.9388 96.0244 21.957C95.9332 21.957 95.8603 21.9297 95.8056 21.875C95.7692 21.8385 95.7236 21.793 95.6689 21.7383C95.7054 21.5742 95.6689 21.4648 95.5595 21.4102C95.4684 21.3737 95.3499 21.3737 95.2041 21.4102C95.1129 21.3372 95.0673 21.2643 95.0673 21.1914C95.0673 21.1367 95.0491 21.0911 95.0127 21.0547C94.9762 21.0365 94.9306 21.0365 94.8759 21.0547C94.8213 21.0911 94.7666 21.1003 94.7119 21.082C94.5296 21.1003 94.4293 21.1094 94.4111 21.1094C94.4111 21.1094 94.402 21.1003 94.3838 21.082C94.3473 20.9909 94.3564 20.9089 94.4111 20.8359C94.484 20.7448 94.4931 20.6445 94.4384 20.5352C94.3655 20.4258 94.3108 20.3711 94.2744 20.3711C94.2561 20.3529 94.2379 20.3255 94.2197 20.2891C94.2197 20.2161 94.2288 20.1615 94.247 20.125C94.2653 20.0703 94.2561 20.0156 94.2197 19.9609C94.0921 19.8151 94.0192 19.724 94.0009 19.6875C94.0009 19.6328 94.0101 19.5781 94.0283 19.5234C93.9736 19.4141 93.9463 19.2865 93.9463 19.1406C93.8916 19.0495 93.8186 18.9857 93.7275 18.9492C93.6364 18.8945 93.5999 18.7852 93.6181 18.6211C93.5452 18.1654 93.4358 17.8281 93.29 17.6094C93.1442 17.4635 93.0439 17.3542 92.9892 17.2812C92.9345 17.1901 92.9345 17.099 92.9892 17.0078C92.9163 16.8255 92.8616 16.707 92.8252 16.6523C92.8069 16.5977 92.7887 16.5339 92.7705 16.4609C92.6793 16.2422 92.6155 16.1055 92.5791 16.0508C92.5426 15.9779 92.5061 15.9049 92.4697 15.832C92.4332 15.6315 92.3785 15.513 92.3056 15.4766C92.2327 15.4401 92.1598 15.3854 92.0869 15.3125C92.1233 14.9479 92.0413 14.6836 91.8408 14.5195C91.7132 14.556 91.6129 14.556 91.54 14.5195C91.2119 14.6289 91.0205 14.6289 90.9658 14.5195C90.9111 14.4102 90.8382 14.3281 90.747 14.2734C90.6923 14.3099 90.6468 14.3464 90.6103 14.3828C90.5921 14.4193 90.5465 14.4375 90.4736 14.4375C90.4554 14.5833 90.4736 14.7109 90.5283 14.8203C90.583 14.9115 90.5556 15.0026 90.4463 15.0938C90.428 15.1667 90.4189 15.2305 90.4189 15.2852C90.4189 15.3398 90.4098 15.4036 90.3916 15.4766C90.428 15.5677 90.4645 15.6589 90.5009 15.75C90.5374 15.8411 90.5739 15.9323 90.6103 16.0234C90.5921 16.151 90.5739 16.2786 90.5556 16.4062C90.5374 16.5156 90.5465 16.625 90.583 16.7344C90.5465 16.8802 90.5192 17.0169 90.5009 17.1445C90.4827 17.2539 90.4554 17.3815 90.4189 17.5273C90.4189 17.6185 90.428 17.7096 90.4463 17.8008C90.4827 17.8737 90.5192 17.9557 90.5556 18.0469C90.5374 18.138 90.5283 18.2109 90.5283 18.2656C90.5283 18.3021 90.5192 18.3477 90.5009 18.4023C90.5192 18.4935 90.5374 18.5846 90.5556 18.6758C90.5921 18.7487 90.6012 18.8307 90.583 18.9219C90.5283 18.9583 90.4736 18.9948 90.4189 19.0312C90.3824 19.0495 90.346 19.0859 90.3095 19.1406C90.2731 19.3047 90.2822 19.4323 90.3369 19.5234C90.4098 19.5964 90.4371 19.6875 90.4189 19.7969C90.346 19.9609 90.3278 20.0794 90.3642 20.1523C90.4189 20.207 90.4645 20.2799 90.5009 20.3711C90.428 20.5898 90.4007 20.7266 90.4189 20.7812C90.4554 20.8177 90.4918 20.8542 90.5283 20.8906C90.5647 20.9271 90.6103 20.9544 90.665 20.9727C90.7379 20.9909 90.7744 21.0365 90.7744 21.1094C90.7561 21.2188 90.6741 21.2643 90.5283 21.2461C90.4007 21.2461 90.3186 21.2188 90.2822 21.1641C89.9905 21.1641 89.79 21.1641 89.6806 21.1641C89.6259 21.1276 89.5895 21.082 89.5713 21.0273C89.553 20.9909 89.5166 20.9635 89.4619 20.9453C89.3707 20.9635 89.3069 20.9909 89.2705 21.0273C89.2522 21.082 89.1976 21.1094 89.1064 21.1094C89.0517 21.1094 88.997 21.0911 88.9423 21.0547C88.8877 21.0182 88.8147 21.0091 88.7236 21.0273C88.6324 21.0638 88.5504 21.1003 88.4775 21.1367C88.4228 21.1914 88.3408 21.2005 88.2314 21.1641C87.9944 21.2188 87.8577 21.2188 87.8213 21.1641C87.803 21.1276 87.7666 21.0911 87.7119 21.0547C87.6754 21.0911 87.6298 21.1367 87.5752 21.1914C87.5387 21.2461 87.484 21.2917 87.4111 21.3281C87.247 21.3281 87.1468 21.2552 87.1103 21.1094C87.0374 21.1276 86.9554 21.1276 86.8642 21.1094C86.7731 21.1094 86.7002 21.1185 86.6455 21.1367C86.2809 20.9544 86.0348 20.8177 85.9072 20.7266C86.0348 20.5625 86.1259 20.4531 86.1806 20.3984C86.2535 20.3255 86.3356 20.2982 86.4267 20.3164C86.5908 20.3711 86.6819 20.3893 86.7002 20.3711C86.7184 20.3346 86.7457 20.2982 86.7822 20.2617C86.8733 20.2253 86.9463 20.1888 87.0009 20.1523C87.0739 20.0977 87.1468 20.0521 87.2197 20.0156C87.2015 19.9062 87.2197 19.8242 87.2744 19.7695C87.3473 19.6966 87.3564 19.6146 87.3017 19.5234C87.3564 19.4323 87.402 19.332 87.4384 19.2227C87.4931 19.0951 87.566 18.9857 87.6572 18.8945C87.6025 18.7487 87.566 18.5938 87.5478 18.4297C87.639 18.3385 87.6936 18.2109 87.7119 18.0469C87.7119 17.9922 87.7028 17.9375 87.6845 17.8828C87.6663 17.8099 87.6754 17.7461 87.7119 17.6914C87.6754 17.6367 87.639 17.5729 87.6025 17.5C87.5843 17.4089 87.5478 17.3359 87.4931 17.2812C87.4931 17.1719 87.4931 17.0534 87.4931 16.9258C87.5114 16.7799 87.5387 16.6432 87.5752 16.5156C87.6663 16.3698 87.6936 16.2878 87.6572 16.2695C87.639 16.2331 87.6116 16.1966 87.5752 16.1602C87.5022 16.0143 87.4567 15.8685 87.4384 15.7227C87.4384 15.5768 87.4293 15.431 87.4111 15.2852C87.5022 15.0117 87.5569 14.7383 87.5752 14.4648C87.5934 14.1732 87.6025 13.8724 87.6025 13.5625C87.5114 13.3438 87.4749 13.207 87.4931 13.1523C87.5296 13.0794 87.5296 13.0065 87.4931 12.9336C87.4749 12.7878 87.4658 12.7057 87.4658 12.6875C87.484 12.6693 87.4931 12.6419 87.4931 12.6055C87.4749 12.4596 87.4567 12.2956 87.4384 12.1133C87.4202 11.931 87.4384 11.7578 87.4931 11.5938C87.5843 11.3385 87.5934 11.1471 87.5205 11.0195C87.4658 10.8919 87.4202 10.7643 87.3838 10.6367C87.4202 10.4544 87.4202 10.2539 87.3838 10.0352C87.3655 9.81641 87.3564 9.60677 87.3564 9.40625C87.3746 9.22396 87.3746 9.09635 87.3564 9.02344C87.3564 8.95052 87.3746 8.8776 87.4111 8.80469C87.3746 8.69531 87.3473 8.58594 87.3291 8.47656C87.3291 8.34896 87.3017 8.23958 87.247 8.14844C87.2835 8.02083 87.2835 7.91146 87.247 7.82031C87.2288 7.71094 87.2288 7.58333 87.247 7.4375C87.1741 7.16406 87.1012 7 87.0283 6.94531C86.9736 6.89062 86.9554 6.79036 86.9736 6.64453C86.8824 6.46224 86.846 6.36198 86.8642 6.34375C86.8824 6.30729 86.9007 6.27083 86.9189 6.23438C86.846 6.08854 86.8004 5.97917 86.7822 5.90625C86.7822 5.77865 86.7457 5.67839 86.6728 5.60547C86.4905 5.56901 86.3811 5.53255 86.3447 5.49609C86.3265 5.45964 86.2991 5.42318 86.2627 5.38672C86.1897 5.33203 86.1168 5.29557 86.0439 5.27734C85.9892 5.25911 85.971 5.19531 85.9892 5.08594C86.1897 5.06771 86.3082 5.04948 86.3447 5.03125C86.3994 4.99479 86.4541 4.96745 86.5088 4.94922C86.5817 4.98568 86.6364 4.99479 86.6728 4.97656C86.7275 4.95833 86.8004 4.9401 86.8916 4.92188C87.165 4.97656 87.3382 4.98568 87.4111 4.94922C87.484 4.91276 87.5752 4.89453 87.6845 4.89453C87.8851 5.00391 88.04 5.05859 88.1494 5.05859C88.3317 4.91276 88.441 4.83073 88.4775 4.8125C88.5322 4.79427 88.5869 4.76693 88.6416 4.73047C88.8421 4.7487 88.9423 4.79427 88.9423 4.86719C88.9606 4.9401 88.9606 5.02214 88.9423 5.11328C89.0335 5.13151 89.1064 5.1224 89.1611 5.08594C89.2158 5.03125 89.2705 4.97656 89.3252 4.92188C89.3798 4.86719 89.4345 4.82161 89.4892 4.78516C89.5439 4.7487 89.6259 4.73958 89.7353 4.75781C89.7718 4.79427 89.79 4.83984 89.79 4.89453C89.8082 4.94922 89.8356 5.01302 89.872 5.08594C90.109 4.99479 90.2457 4.97656 90.2822 5.03125C90.3369 5.06771 90.4098 5.09505 90.5009 5.11328C90.5921 5.09505 90.6468 5.05859 90.665 5.00391C90.6832 4.94922 90.7288 4.90365 90.8017 4.86719C91.0022 4.92188 91.1298 4.9401 91.1845 4.92188C91.2392 4.88542 91.3121 4.85807 91.4033 4.83984C91.4762 4.85807 91.5218 4.8763 91.54 4.89453C91.5765 4.89453 91.6311 4.88542 91.7041 4.86719C91.8134 4.92188 91.9137 4.99479 92.0048 5.08594C92.1324 5.04948 92.2418 4.99479 92.333 4.92188C92.4241 4.84896 92.5517 4.82161 92.7158 4.83984C92.9163 4.91276 93.053 4.93099 93.1259 4.89453C93.1989 4.85807 93.3082 4.85807 93.4541 4.89453C93.691 4.94922 93.8369 4.95833 93.8916 4.92188C94.1103 5.03125 94.2653 5.10417 94.3564 5.14062C94.4476 5.17708 94.5296 5.23177 94.6025 5.30469C94.7483 5.48698 94.8213 5.59635 94.8213 5.63281C94.8395 5.65104 94.8577 5.67839 94.8759 5.71484C95.0035 5.69661 95.0856 5.72396 95.122 5.79688C95.1767 5.85156 95.2223 5.92448 95.2588 6.01562C95.2952 6.05208 95.3408 6.08854 95.3955 6.125C95.4502 6.16146 95.4957 6.20703 95.5322 6.26172C95.6416 6.44401 95.7601 6.55339 95.8877 6.58984C96.0153 6.60807 96.1246 6.65365 96.2158 6.72656C96.2522 6.8724 96.3434 7 96.4892 7.10938C96.5257 7.21875 96.5713 7.32812 96.6259 7.4375C96.6806 7.52865 96.7353 7.61979 96.79 7.71094C96.79 7.80208 96.7809 7.875 96.7627 7.92969C96.7444 7.96615 96.7353 8.01172 96.7353 8.06641C96.8994 8.33984 97.0088 8.54036 97.0634 8.66797C97.0634 8.85026 97.0361 8.97786 96.9814 9.05078C96.9814 9.16016 96.9814 9.26042 96.9814 9.35156C96.9996 9.42448 96.9905 9.50651 96.9541 9.59766C96.9541 9.85286 96.9085 10.026 96.8173 10.1172C96.7991 10.3542 96.7991 10.5091 96.8173 10.582C96.8538 10.6549 96.8903 10.7188 96.9267 10.7734C96.8356 11.0286 96.7627 11.1562 96.708 11.1562C96.6715 11.3021 96.5986 11.4023 96.4892 11.457C96.4892 11.5117 96.4801 11.5664 96.4619 11.6211C96.4436 11.6576 96.4436 11.7122 96.4619 11.7852C96.4254 11.8216 96.389 11.8581 96.3525 11.8945C96.316 11.931 96.2887 11.9857 96.2705 12.0586C96.2158 12.0951 96.1611 12.1406 96.1064 12.1953C96.0517 12.2318 95.997 12.2773 95.9423 12.332C95.9423 12.4596 95.9059 12.5599 95.833 12.6328C95.7783 12.6875 95.7236 12.7604 95.6689 12.8516C95.5231 12.9427 95.4228 13.0156 95.3681 13.0703C95.3134 13.125 95.2679 13.1979 95.2314 13.2891L95.122 13.5898C95.0673 13.681 94.9853 13.7721 94.8759 13.8633C94.7301 13.8633 94.6207 13.8906 94.5478 13.9453C94.4931 14.1094 94.484 14.1914 94.5205 14.1914C94.5752 14.1914 94.6116 14.2096 94.6298 14.2461C94.6116 14.3372 94.6207 14.4375 94.6572 14.5469C94.8942 14.6562 95.0035 14.7839 94.9853 14.9297C94.9671 15.0573 94.958 15.1667 94.958 15.2578C94.9944 15.2943 95.04 15.3216 95.0947 15.3398C95.1676 15.3581 95.2223 15.3854 95.2588 15.4219C95.3499 15.6589 95.4228 15.7956 95.4775 15.832C95.5322 15.8503 95.5869 15.8776 95.6416 15.9141C95.6598 16.0052 95.6598 16.0872 95.6416 16.1602C95.6233 16.2331 95.6051 16.306 95.5869 16.3789C95.5869 16.4518 95.6233 16.4974 95.6963 16.5156C95.7874 16.5339 95.8512 16.5612 95.8877 16.5977C95.9241 16.6523 95.9423 16.7344 95.9423 16.8438C95.9606 16.9349 95.9606 17.026 95.9423 17.1172C95.997 17.2083 96.0517 17.2995 96.1064 17.3906C96.1611 17.4818 96.2158 17.5729 96.2705 17.6641C96.3981 17.7734 96.4892 17.9375 96.5439 18.1562C96.6715 18.5573 96.7444 18.931 96.7627 19.2773C96.9449 19.4049 97.1364 19.4779 97.3369 19.4961C97.3733 19.5872 97.4007 19.6784 97.4189 19.7695C97.4554 19.8424 97.4645 19.9427 97.4463 20.0703C97.5192 20.125 97.583 20.1797 97.6377 20.2344C97.7106 20.2708 97.7653 20.3164 97.8017 20.3711C97.8382 20.4622 97.8746 20.5352 97.9111 20.5898C97.9476 20.6263 97.9749 20.681 97.9931 20.7539C98.0843 20.8451 98.1572 20.9362 98.2119 21.0273C98.2666 21.1367 98.3121 21.237 98.3486 21.3281C98.3486 21.401 98.3486 21.474 98.3486 21.5469C98.3486 21.6198 98.3668 21.6745 98.4033 21.7109C98.4397 21.7474 98.4762 21.7747 98.5127 21.793C98.5673 21.8294 98.6129 21.8659 98.6494 21.9023C98.6858 22.0846 98.7405 22.2396 98.8134 22.3672C98.9593 22.4583 99.1142 22.6315 99.2783 22.8867C99.6064 23.0143 99.7796 23.1784 99.7978 23.3789C99.816 23.5977 99.889 23.7708 100.017 23.8984C100.108 23.8984 100.172 23.9258 100.208 23.9805C100.244 24.0534 100.308 24.1081 100.399 24.1445L100.427 24.2539ZM93.8916 9.625C93.928 9.57031 93.9463 9.51562 93.9463 9.46094C93.9645 9.40625 93.9918 9.35156 94.0283 9.29688C93.9918 9.22396 93.9645 9.15104 93.9463 9.07812C93.928 9.00521 93.9007 8.93229 93.8642 8.85938C93.8095 8.65885 93.7822 8.4401 93.7822 8.20312C93.6728 8.1849 93.5543 8.13932 93.4267 8.06641C93.3538 7.90234 93.2718 7.80208 93.1806 7.76562C92.9801 7.72917 92.8707 7.68359 92.8525 7.62891C92.7978 7.62891 92.7522 7.60156 92.7158 7.54688C92.6976 7.49219 92.6702 7.44661 92.6338 7.41016C92.4879 7.42839 92.3694 7.41927 92.2783 7.38281C92.2054 7.32812 92.1233 7.28255 92.0322 7.24609C91.7223 7.33724 91.5218 7.39193 91.4306 7.41016C91.3395 7.42839 91.2301 7.4375 91.1025 7.4375C90.9202 7.29167 90.8017 7.24609 90.747 7.30078C90.7106 7.33724 90.6468 7.33724 90.5556 7.30078C90.4463 7.44661 90.4098 7.54688 90.4463 7.60156C90.4827 7.65625 90.5101 7.70182 90.5283 7.73828C90.5465 7.82943 90.5374 7.90234 90.5009 7.95703C90.4645 7.99349 90.4371 8.04818 90.4189 8.12109C90.4371 8.3763 90.4189 8.55859 90.3642 8.66797C90.3278 8.77734 90.3095 8.90495 90.3095 9.05078C90.3278 9.08724 90.3278 9.13281 90.3095 9.1875C90.3095 9.24219 90.3095 9.30599 90.3095 9.37891C90.4007 9.50651 90.4645 9.67969 90.5009 9.89844C90.5374 10.1172 90.5101 10.3177 90.4189 10.5C90.4554 10.6276 90.4463 10.7461 90.3916 10.8555C90.3551 10.9466 90.3186 11.0469 90.2822 11.1562C90.3004 11.3021 90.3369 11.4388 90.3916 11.5664C90.4645 11.6758 90.4827 11.8216 90.4463 12.0039C90.5739 12.0951 90.6468 12.168 90.665 12.2227C90.7015 12.2591 90.747 12.2865 90.8017 12.3047C90.8746 12.25 90.9658 12.2318 91.0752 12.25C91.2028 12.25 91.2757 12.3047 91.2939 12.4141C91.458 12.3229 91.5491 12.2591 91.5673 12.2227C91.5856 12.1862 91.622 12.1589 91.6767 12.1406C91.8772 12.25 91.9957 12.3138 92.0322 12.332C92.0686 12.332 92.1142 12.332 92.1689 12.332C92.2236 12.2956 92.2692 12.25 92.3056 12.1953C92.3421 12.1406 92.3968 12.1042 92.4697 12.0859C92.5608 12.0859 92.6155 12.1315 92.6338 12.2227C92.652 12.2956 92.7067 12.3138 92.7978 12.2773C93.0166 12.0768 93.1533 11.8854 93.208 11.7031C93.4267 11.6302 93.5361 11.5573 93.5361 11.4844C93.5726 11.3932 93.6455 11.2747 93.7548 11.1289C93.7184 10.9284 93.7002 10.7917 93.7002 10.7188C93.846 10.5365 93.9189 10.4089 93.9189 10.3359C93.9189 10.263 93.9371 10.181 93.9736 10.0898C93.9189 9.96224 93.8916 9.80729 93.8916 9.625Z" fill="#CCCCCC"/>
</svg>
