<?xml version="1.0" standalone="no"?>
<!DOCTYPE svg PUBLIC "-//W3C//DTD SVG 20010904//EN"
 "http://www.w3.org/TR/2001/REC-SVG-20010904/DTD/svg10.dtd">
<svg version="1.0" xmlns="http://www.w3.org/2000/svg"
 width="512.000000pt" height="512.000000pt" viewBox="0 0 512.000000 512.000000"
 preserveAspectRatio="xMidYMid meet">

<g transform="translate(0.000000,512.000000) scale(0.100000,-0.100000)"
fill="#000000" stroke="none">
<path d="M2367 5110 c-1031 -80 -1915 -773 -2235 -1750 -233 -711 -145 -1486
242 -2124 121 -199 297 -413 458 -559 l78 -70 57 40 c32 22 234 136 448 252
215 117 406 225 425 240 96 76 120 152 120 381 l-1 165 -70 105 c-88 131 -161
281 -206 424 -28 88 -43 119 -73 151 -75 79 -75 81 -75 355 0 262 3 277 56
335 17 19 19 47 22 360 3 320 5 344 26 410 70 217 216 368 433 449 143 54 254
70 488 70 183 0 230 -4 316 -22 275 -59 460 -185 553 -374 72 -146 74 -162 72
-529 l-2 -326 24 -29 c61 -73 62 -78 62 -344 0 -233 -1 -247 -22 -286 -24 -46
-79 -98 -127 -120 -26 -13 -36 -28 -60 -97 -43 -121 -147 -318 -226 -429 l-70
-97 0 -190 c0 -333 -19 -312 570 -606 239 -120 461 -235 493 -257 l58 -39 59
51 c82 71 230 229 305 325 287 368 456 763 526 1226 25 167 30 502 10 654 -41
310 -119 573 -253 843 -349 707 -1026 1223 -1801 1373 -193 37 -488 54 -680
39z"/>
</g>
</svg>
